<?xml version="1.0" encoding="utf-8"?>
<!-- Generator: Adobe Illustrator 21.1.0, SVG Export Plug-In . SVG Version: 6.00 Build 0)  -->
<svg version="1.1" id="Layer_1" xmlns="http://www.w3.org/2000/svg" xmlns:xlink="http://www.w3.org/1999/xlink" x="0px" y="0px"
	 viewBox="0 0 602.9 136.3" style="enable-background:new 0 0 602.9 136.3;" xml:space="preserve">
<g>
	<path d="M593.4,79.2c0.1,1.7,0.6,3.4,0.2,4.9c-2.4,10.5-5.3,20.7-14.5,27.7c-3.3,2.5-6.9,3.9-11,4.2c-10,0.6-18.4-3-25.6-9.7
		c-7.5-7-12.1-15.5-14.2-25.5c-0.9-4-1.4-8.2-4.4-12c-1.8,2-3.4,3.9-5.1,5.8c-3.7,4-7.3,7.9-11,11.9c-0.8,0.8-1.7,1.5-2.7,1.9
		c-0.9,0.3-2.3,0.6-3,0.2c-0.6-0.5-0.9-1.9-0.8-2.9c0.5-4.7,1.3-9.4,1.9-14.4c-4,1-6.7,3.2-7.5,7.1c-1.3,5.8-4.9,10-9.2,13.7
		c-4.8,4.3-11.9,3.9-15.6-0.3c-2-2.3-4.5-3.8-7.4-4.8c-4.3-1.5-6.6-7.7-4.1-12.1c1.7-3.1,4.1-6.3,7-8.2c5.4-3.5,11.1-7,17.9-7.6
		c0.6-0.1,1.3-0.3,1.9-0.3c9.3-1.1,12.7,2,12.3,11.8c2-1.1,3.6-2.3,5.4-3c1-0.4,2.7-0.7,3.5-0.2c0.7,0.5,1.1,2.2,0.9,3.3
		c-0.6,3.4-1.6,6.7-1.9,10.4c3.7-2.1,6.5-4.9,9.1-8c2.1-2.4,3.8-5.1,5.9-7.5c2.1-2.5,4.6-2.5,6.3,0.2c1.8,2.9,3,6.3,4.2,9.6
		c2.2,6.1,3.2,12.9,6.4,18.4c6,10,14.5,17.2,27.2,17.8c6.2,0.3,10.8-2.3,14.8-6.5c5.6-5.8,8.4-13.1,10.2-20.8c0.4-1.8,1-3.5,1.5-5.3
		C592.4,79.1,592.9,79.2,593.4,79.2z M470.6,83.8c7-1.2,13.2-3.5,19-7.3c3.8-2.5,4.4-5.9,4.5-9.8c0-1.8-0.7-3.2-2.7-3.3
		c-4.7-0.2-9.7-1.4-13.1,3.4c-0.3,0.5-1,0.8-1.6,1.1C470.4,71.6,468.8,75.4,470.6,83.8z M489.9,81.3c-5.7,2.2-11.1,4.3-16.6,6.4
		C479.1,92,485.1,89.6,489.9,81.3z M465,82.7c0.2-3.1,0.4-6,0.6-9C461.7,77.5,461.5,79.5,465,82.7z"/>
	<path d="M91.7,74.1c1.2-1.7,1.8-2.8,2.5-3.8c3-3.8,6.7-4.2,9.5-0.2c2.7,3.7,4.8,7.9,6.6,12.1c1.6,3.6,2.4,7.6,3.4,11.4
		c0.3,1.1,0.6,2.2,0.4,3.3c-0.1,0.5-1,1.2-1.6,1.4c-0.4,0.1-1.3-0.4-1.5-0.8c-0.6-1.1-0.8-2.4-1.2-3.6c-1.9-5.2-3.7-10.5-5.9-15.7
		c-1-2.3-2.8-4.2-4.1-6.1c-3.1,0.5-3.8,2.6-4.3,4.5c-1,4.3-1.6,8.8-2.2,13.2c-0.2,1.7,0.2,3.6-0.1,5.3c-0.2,1-1.2,1.9-1.9,2.8
		c-0.8-0.9-1.7-1.6-2.3-2.6c-0.4-0.6-0.3-1.5-0.3-2.3c0.7-13.9-1.7-27.7-3-41.7c-0.4,1.1-1,2.2-1.1,3.3c-0.4,7.9-3.5,15.2-5.8,22.6
		c-2.4,7.8-6,15.1-10.7,21.8c-5.6,8-13.2,13.8-21.2,19c-1.1,0.7-2.3,1.2-3.3,1.9c-11,7.9-27.1,1.1-30.9-12.9
		C7.5,87.4,9.5,68.4,16,49.7c2.6-7.5,7.1-14,13.2-19.1c2.7-2.2,6.4-3.6,9.9-4.5c6.5-1.6,11.3,2.2,11.9,8.9c0.1,1.3,0,2.6-0.1,3.8
		c-0.2,1.9-0.5,3.7-0.8,5.6c-2.7,0.4-3.3-1.3-3.5-3.1c-0.3-2.7-0.2-5.4-0.6-8.1c-0.4-3.1-1.4-3.8-4.5-3.7c-5.4,0.3-9.6,3.2-13.2,7
		c-7.5,7.9-11.4,17.7-13.2,28.2c-1.8,10.2-3,20.5-1.5,31c0.8,5.7,2.1,11.3,5.5,16.1c4.1,5.9,11.4,8.5,18.1,6.1
		c9.3-3.4,17.7-8.5,24.5-15.8c6.3-6.7,11.4-14.1,14.2-22.9c1.2-3.6,3.8-7.1,2.5-11.3c1.8-1.9,1.7-4.3,2-6.6
		c1.2-8.7,2.3-17.4,3.5-26.1c0.2-1.3-0.1-2.8,1.7-2.9c1.8-0.1,2.5,1.4,2.7,2.8c0.8,6,1.5,12,2,18.1C90.9,60,91.2,66.6,91.7,74.1z"/>
	<path d="M177.9,104c-4.5-3.8-5.9-8.7-7.2-14.1c-1.5,2-2.5,3.7-3.9,5.2c-2.8,2.9-6,5.4-10.5,4c-3.4-1.1-5.6-5.3-5.5-10.3
		c0.1-2.1,0.5-4.1,1-6.1c0.4-1.8,1.1-3.6,1.8-5.6c-1.5-1.2-3-2.3-4.4-3.6c-3.2-2.9-4.4-6.6-3.9-10.8c0.3-2.6,2.2-4.5,4.5-4.9
		c2.1-0.4,6.3,1.6,6.9,3.4c0.2,0.5,0.1,1.4-0.2,1.8c-0.5,0.5-1.4,1-2,0.8c-1.3-0.4-2.5-1.1-3.8-1.7c-2.6,4.7-1.4,7.5,4.5,11.1
		c2.3-6.4,5.3-12.5,9.4-18c1.5-2,3.1-4.1,4.6-6.2c1.3-1.7,2.6-3.4,5-2.9c2.4,0.4,2.7,2.7,3.1,4.4c1.3,5.1,2.2,10.3,3.3,15.4
		c0.2,0.7,0.3,1.5,0.6,2.8c2.2-1.2,4.1-2.4,6.1-3.2c1.8-0.7,3.5-3.1,5.5-1.1c1.7,1.6,0,3.6-0.6,5.3c-2.1,5.4-3.9,10.8-3.9,16.7
		c0,0.8,0.1,1.5,0.3,2.9c1.2-0.8,2.2-1.3,2.8-2c3-3.4,4.8-7.5,5.6-12c0.5-2.3,1.2-4.6,2.1-6.8c0.7-1.8,2.1-2.8,4.8-1.6
		c-0.2,1.1-0.4,2.5-0.7,3.7c-0.5,1.7-1.3,3.3-1.6,5c-1.7,9.4,5.6,16.2,14.9,14c2.9-0.7,5.8-1.7,8.7-2.4c1.6-0.4,3.3-0.3,5,0
		c-2.9,3-6.6,4.3-10.2,5.8c-9.2,3.9-16,0.1-21.6-7c-0.2-0.2-0.5-0.3-0.7-0.3c-2.1,2.4-4,4.9-6.4,7c-3.3,3-4.8,2.3-6.3-1.9
		c-1.6-4.3-0.6-8.5,0-12.7c0.3-2.2,1-4.3,1.6-7.3c-2.1,1.1-3.6,1.9-4.8,2.6c0,6.7,0,13,0,19.4C181.9,98.3,181.4,99.7,177.9,104z
		 M172.9,51.7c-6,4.2-13.1,15.6-14.6,23.2c4,3.5,7.9,7,12,10.6c0.7-2.7,1.1-5.5,2.2-7.9c1.1-2.4,3-4.4,4.8-6.9
		C176.1,64.6,175.9,57.9,172.9,51.7z M156.8,78.9c-0.4,0.1-0.9,0.2-1.3,0.3c-0.6,4.4-1.4,8.7-1.6,13.1c-0.1,3.4,2.6,5,5.6,3.4
		c2.1-1.2,4-3.1,5.5-5.1c1.5-1.9,1.4-4.2-0.7-5.9C161.8,82.7,159.3,80.9,156.8,78.9z M177.9,76.9c-5.2,6.3-5.3,15.1-0.4,21.2
		C178.8,90.9,178,84.4,177.9,76.9z"/>
	<path d="M388.9,72c6.5-3.1,12.7-6.1,18.8-9.1c0.1-0.1,0.3-0.2,0.4-0.3c1.6-1,3.4-1.6,4.6,0.3c1.2,1.8-0.3,2.9-1.7,3.8
		c-2.5,1.7-5,3.4-7.5,5.2c-4.4,3.2-7.3,7.5-9.6,12.4c-0.2,0.4,0,0.9,0.1,2.2c1.8-1.3,3.5-2.1,4.6-3.4c1.9-2.3,3.5-4.9,5.2-7.4
		c0.4-0.7,0.5-1.6,1.1-2.1c0.9-0.8,2.5-2,3-1.7c1,0.6,2.1,2.2,2,3.3c-0.4,5.7-1.1,11.4-1.8,17.3c-2.7,0.6-3.3-1-3.4-3.1
		c-0.1-1.7,0-3.4,0-5.5c-3,2.4-5.4,4.4-8,6.2c-4,2.8-6.9,1.5-7.2-3.3c-0.1-2,0.6-4.1,1.3-5.9c0.9-2.2,2.3-4.2,3.5-6.3
		c-5.6,0.5-8.6,3-10,8.1c-3.5,13.1-8.2,25.8-14.5,37.8c-0.7,1.4-1.6,2.8-2.7,3.9c-1.9,2-3.6,1.8-5.4-0.5c-3.9-4.7-2.7-10-1.5-15.1
		c1.2-5.2,3.2-10.2,4.9-15.5c-1.5,0.4-3.1,0.8-4.8,1.2c-8.9,1.9-16.7-6.7-13.7-15.3c0.8-2.4,2.1-4.7,3.8-6.6
		c4.5-5.1,9.9-9.2,16.5-10.9c3.7-1,8-1.1,11.8-0.5c3.8,0.6,7.2,2.7,8.4,7C387.4,69.3,388,70.3,388.9,72z M358.2,90.3
		c4.6,0,11.3-2.7,14.5-6.2c2.7-2.9,5.1-6.1,7.3-9.4c3.9-6,2.3-9.1-4.9-9.3c-10.5-0.3-18.3,4.6-23.6,13.4
		C347.9,84.7,351.3,90.4,358.2,90.3z M380,82.6c-5.9,4.8-10.4,10.7-14.3,17.2c-2.3,3.9-3.8,8.1-4.2,12.5c-0.3,3.4,0,6.9,3.1,9.7
		C372.1,109.5,376.3,96.2,380,82.6z"/>
	<path d="M315.1,60.9c-2.1,5.2-4.3,10.9-6.6,16.7c-0.4,0.9-0.9,1.7-1.3,2.6c-4-3-2.5-6.7-3.8-9.5c-1.3-2.7-2.4-5.4-4.1-9.1
		c-1,2.4-1.7,3.6-2.1,4.9c-2.2,6.5-4.3,13-6.5,19.5c-0.5,1.5-1.3,2.8-2,4.2c-3.4-1.9-3.7-2.5-2.5-5.7c1.3-3.6,3-7.1,4-10.7
		c1.5-5.3,2.6-10.7,2-17.1c-2.7,1.5-4.9,2.6-7,4c-9.7,6.2-19.7,11.8-30.3,16.3c-3,1.3-3,1.2-4.5-2.6c0.6-0.4,1.2-1,1.9-1.3
		c12.4-4.4,23.5-11.1,34.5-18.1c1.1-0.7,2.1-1.4,3.3-2c4.7-2.4,5.8-1.9,7.3,3.5c3.6-0.7,4.9,2.2,6.4,4.5c1.5,2.4,2.7,5,4.5,8.4
		c1.6-4.9,3-9,4.4-13.2c1.3-3.9,2.5-7.9,3.7-11.8c0.5-1.7,1.3-3,3.3-2.6c2.2,0.5,1.8,2.3,1.7,3.9c0,1-0.1,1.9-0.1,2.9
		c-0.6,7.8-1.2,15.6-1.6,23.4c-0.5,8.5-0.4,16.9,1.7,25.2c0.4,1.7,1.4,3.3,1.6,5c0.1,1.1-0.3,2.7-1.1,3.3c-0.7,0.5-2.5,0.4-3.4-0.2
		c-0.8-0.5-1.2-1.8-1.5-2.9c-0.2-0.8,0.2-1.8,0-2.7c-2-10.1-2.5-20.3-1.6-30.5C315.3,66.4,315.1,63.4,315.1,60.9z"/>
	<path d="M541.9,11.5c2.2,0.4,4.8,0.3,6.5,1.4c5.6,4,12.7,4.2,18.5,7.5c2.2,1.2,4.5,2.4,7.3,1.6c0.4,1.3,0.9,2.6,1.3,3.9
		c0,0,0,0,0,0c-0.9-0.3-1.8-0.4-2.6-0.9c-8.6-4.7-18-7.6-27.4-9.5c-9-1.8-18.3-2.4-27.5-3.1c-7.6-0.6-15.3-1-23-0.8
		c-8.8,0.1-17.5,0.6-26.3,1.5c-12,1.2-24,2.5-36,4.3c-15.8,2.4-31.1,6.6-46.3,11.4c-9.4,3-18.6,6.3-27.5,10.7
		c-0.5,0.2-1.2,0.1-1.9-0.2c16-8.5,33.3-13.1,50.4-18.9c-1.4-0.4-2.9-0.7-4.3-1.1c0,0,0.1,0.2,0.1,0.2c0.6-0.3,1.2-0.9,1.8-0.9
		c1.7,0,3.3,0.3,5,0.4c-0.1,0.1-0.2,0.3-0.2,0.4c0,0.1,0,0.3,0.1,0.3c2.3,0.6,4.3-0.4,6.3-1c-0.1-0.3-0.2-0.7-0.3-1
		c-1.6,0.5-3.1,0.9-4.7,1.4c0.2-0.7,0.3-1.4,0.5-2.1c1.3-0.5,2.7-1.1,4.1-1.5c1.1-0.4,2.9,1.6,3.4-0.9c0-0.1,0.3-0.1,0.5-0.1
		c4,1.8,7.1-1.8,10.8-2c3.8-0.1,7.5-1.2,11.3-1.7c3.9-0.6,7.9-1.2,11.8-1.6c5.4-0.5,10.8-0.9,16.2-1.3c4.3-0.3,8.5-0.8,12.8-0.9
		c7.3-0.1,14.6,0,21.9,0.1c0.1,0.9,0.2,1.9,0.3,3.1c3.4,0,6.7,0,10,0c-1.5-0.7-3.1-0.8-4.6-0.7c-2.4,0.3-4.3-0.5-5.8-2.5
		c4.9,0.5,9.8,1,14.7,1.5c1.1,0.1,2.5-0.2,3.3,0.3c4.5,2.9,9.8,2.3,14.5,3.7l-0.1-0.2c1.2,0.6,2.4,1.4,3.7,1.8
		c0.5,0.2,1.6-0.4,1.9-1C542.9,13,542.2,12.1,541.9,11.5C541.9,11.5,541.9,11.5,541.9,11.5z M463,11.4c-4.8-0.2-9.6,0.2-14.2,1.5
		c0.1,0.4,0.1,0.7,0.2,1.1C453.6,13.1,458.3,12.2,463,11.4c3-0.1,6-0.1,9.1-0.1c0-0.4-0.1-0.9-0.1-1.3C469,10.5,466,11,463,11.4z
		 M445.6,14.4c-0.1-0.5-0.1-1-0.2-1.4c-7.6,1.2-15.1,2.3-22.7,3.5c0.1,0.4,0.1,0.7,0.2,1.1C430.5,16.5,438.1,15.4,445.6,14.4z
		 M476,9.5c-0.1,0.2-0.2,0.5-0.2,0.7c4.9,0,9.8,0,14.7,0c0-0.2,0-0.5,0-0.7C485.6,9.5,480.8,9.5,476,9.5z"/>
	<path d="M139.2,97.3c-2.9-1.5-3.3-3.5-3.5-5.5c-0.6-4.9-1.1-9.8-1.8-14.7c-0.3-2.2-0.9-4.3-1.3-6.4c-5.6,0.8-7.9,3.7-7.1,8.8
		c0.6,3.8,1.6,7.5,2.3,11.2c0.3,1.4,0.5,2.9,0.2,4.2c-0.4,1.6-2.7,1.8-3.4,0.3c-2.7-5.6-5.4-11.2-8-16.8c-0.1-0.3,0-0.6,0-1.7
		c1.6,0.2,3.1,0.4,4.8,0.6c0.1-0.5,0.2-1.3,0.3-2.1c0.5-5,3.8-7.5,8.3-8.7c3.6-0.9,5.5,0.1,6.7,3.5c0.6,1.6,1,3.4,1.2,5.1
		c0.7,5.7,1.2,11.4,1.7,17.1C139.6,93.8,139.3,95.2,139.2,97.3z"/>
	<path d="M453.9,95c-3.5,0.4-5.8-1.2-6.7-4.6c-0.9-3.4-1.5-6.9-2.2-10.3c-0.3-1.3-0.6-2.6-1.8-3.8c-0.8,2.7-1.6,5.4-2.6,8.1
		c-0.4,1.2-0.9,2.4-1.6,3.4c-1,1.3-3.2,1-3.4-0.5c-1.1-6.5-3.7-12.9-3.3-19.8c2.2-0.7,3.5-0.6,3.8,1.9c0.3,2.5,0.9,5,2.2,7.7
		c0.9-2.2,1.9-4.5,2.8-6.8c0.3-0.7,0.1-1.8,0.6-2.3c0.9-1,2.2-2.4,3.2-2.3c1,0,2.5,1.6,2.7,2.7c0.9,4.7,1.5,9.5,2.1,14.2
		c0.3,2,0.4,4.2,1,6.1C451.4,91,452.7,92.9,453.9,95z"/>
	<path d="M413.3,70.3c2,0,3.3,0,4.4,0c1-1.3,1.8-2.8,2.9-3.9c1.8-1.7,3.5-1.5,4.8,0.6c1,1.6,1.8,3.4,2.3,5.3c1.1,4.5,2,9,2.8,13.6
		c0.2,1.1,0.2,2.3-0.2,3.3c-0.3,0.7-1.2,1.2-1.9,1.8c-0.6-0.7-1.5-1.2-1.7-2c-0.7-3.4-1.2-6.9-1.9-10.3c-0.5-2.1-1.3-4.2-2.1-7
		c-2.8,3.4-3.4,6.9-4.5,10.2c-0.2,0.6,0.1,1.4-0.3,1.9c-0.6,0.8-1.7,2.1-2.1,2c-1-0.3-2.5-1.4-2.5-2.2
		C413.1,79.3,413.3,75,413.3,70.3z"/>
	<path d="M584.2,29.7c2.7,1.1,3.8,3.6,5.3,5.8c4.2,6.2,6.5,13.1,6.6,20.7c0,1.5-0.4,2.9-1.6,4.4c-0.3-0.8-0.8-1.6-0.8-2.4
		c1-13.1-4.8-22.7-15.5-29.8c-1-0.7-1.8-1.6-2.8-2.4c0,0,0,0,0,0c1.6,0.8,3.2,1.6,4.9,2.4C581.6,28.8,582.9,29.2,584.2,29.7z"/>
	<path d="M593.1,78c-0.4-0.7-1.2-1.3-1.1-1.9c0.3-3.9,0.7-7.7,1.2-11.6c0.1-0.7,0.9-1.3,1.8-2.7C596.3,67.8,594.4,72.6,593.1,78z"/>
	<path d="M403.4,19.5c0,0-0.1-0.2-0.1-0.2c-2.1,0.2-3.4,3.1-6,0.9C399.3,19.9,401.3,19.7,403.4,19.5z"/>
	<path d="M537.1,12.6c0.3-0.9,0-2.3,1.7-1.8c1,0.3,2.1,0.5,3.1,0.7c0,0,0-0.1,0-0.1c-1.7,0.3-3.3,0.7-5,1L537.1,12.6z"/>
	<path d="M374,29c-1.4,0.5-2.9,1-4.6,1.6c1.4-1.9,3-1.9,4.7-1.4L374,29z"/>
	<path d="M374.1,29.2c0.2-2.3,2-1.6,3.5-1.6c-1.2,0.5-2.4,0.9-3.6,1.4C374,29,374.1,29.2,374.1,29.2z"/>
	<path d="M387.1,23.9c-1.4,0.7-2.8,1.4-4.2,2.1c-0.1-0.4-0.2-0.7-0.3-1.1c1.5-0.3,3.1-0.6,4.6-1L387.1,23.9z"/>
	<path d="M365.3,32.3c-0.9,0.4-1.8,0.8-2.6,1.3c-0.1-0.2-0.2-0.4-0.3-0.5c0.8-0.4,1.6-0.9,2.4-1.3C364.9,31.9,365.1,32.1,365.3,32.3
		z"/>
	<path d="M387.2,24c1.2-0.7,2.5-1.3,3.7-2c0.1,0.3,0.2,0.7,0.3,1c-1.4,0.3-2.8,0.6-4.2,0.8C387.1,23.9,387.2,24,387.2,24z"/>
</g>
</svg>
