<svg id="Layer_1" data-name="Layer 1" xmlns="http://www.w3.org/2000/svg" viewBox="0 0 480 360"><defs><style>.cls-1{fill:#f78e20;}.cls-2{fill:#fff;}.cls-3{fill:#f78e1e;}.cls-4{fill:none;stroke:#621b4b;stroke-width:1.42px;}.cls-5{fill:#776441;}</style></defs><title>Outcomes-1-small</title><rect class="cls-1" x="15.44" y="131.05" width="141.83" height="187.45"/><rect class="cls-1" x="169.08" y="78.41" width="141.83" height="240.08"/><rect class="cls-1" x="322.73" y="68.8" width="141.83" height="249.69"/><path class="cls-2" d="M352,88.29c0,.6-.07,1.26-.07,2.26v4.78c0,1.89-.37,3-1.17,3.76a4.36,4.36,0,0,1-3,1,5.31,5.31,0,0,1-2.74-.68l.37-1.14a4.65,4.65,0,0,0,2.42.65c1.53,0,2.65-.8,2.65-2.87v-.92h0a2.94,2.94,0,0,1-2.62,1.38c-2,0-3.5-1.74-3.5-4,0-2.79,1.82-4.37,3.71-4.37a2.74,2.74,0,0,1,2.57,1.43h0l.07-1.24Zm-1.55,3.25a2.12,2.12,0,0,0-.08-.68,2.16,2.16,0,0,0-2.09-1.58c-1.43,0-2.45,1.21-2.45,3.11,0,1.62.82,3,2.43,3a2.19,2.19,0,0,0,2.08-1.53,2.61,2.61,0,0,0,.12-.8Z"/><path class="cls-2" d="M359,96.52l-.12-1h-.05a3.07,3.07,0,0,1-2.52,1.22,2.35,2.35,0,0,1-2.52-2.36c0-2,1.77-3.08,5-3.06v-.17a1.7,1.7,0,0,0-1.87-1.91,4.1,4.1,0,0,0-2.14.61l-.34-1a5.11,5.11,0,0,1,2.71-.73c2.52,0,3.13,1.72,3.13,3.37v3.08a11.54,11.54,0,0,0,.14,2Zm-.22-4.2c-1.63,0-3.49.25-3.49,1.85a1.32,1.32,0,0,0,1.41,1.43,2,2,0,0,0,2-1.38,1.54,1.54,0,0,0,.08-.48Z"/><path class="cls-2" d="M364.33,86a.93.93,0,0,1-1.85,0,.91.91,0,0,1,.94-.94A.89.89,0,0,1,364.33,86Zm-1.67,10.55V88.29h1.5v8.23Z"/><path class="cls-2" d="M366.65,90.52c0-.85,0-1.55-.07-2.23h1.33l.08,1.36h0a3,3,0,0,1,2.72-1.55c1.14,0,2.91.68,2.91,3.5v4.92h-1.5V91.77c0-1.33-.49-2.43-1.91-2.43a2.13,2.13,0,0,0-2,1.53,2.17,2.17,0,0,0-.1.7v5h-1.5Z"/><path class="cls-2" d="M376.93,92.68a2.64,2.64,0,0,0,2.82,2.86,5.41,5.41,0,0,0,2.28-.43l.25,1.07a6.67,6.67,0,0,1-2.74.51,3.82,3.82,0,0,1-4-4.15c0-2.48,1.46-4.44,3.86-4.44,2.69,0,3.4,2.37,3.4,3.88a5.73,5.73,0,0,1-.05.7Zm4.39-1.07a2.13,2.13,0,0,0-2.08-2.43,2.48,2.48,0,0,0-2.3,2.43Z"/><path class="cls-2" d="M391.73,84.44v10c0,.73,0,1.56.07,2.13h-1.34l-.07-1.43h0a3,3,0,0,1-2.81,1.62c-2,0-3.52-1.68-3.52-4.19,0-2.74,1.68-4.42,3.69-4.42a2.75,2.75,0,0,1,2.48,1.26h0V84.44Zm-1.5,7.2a2.61,2.61,0,0,0-.07-.63A2.2,2.2,0,0,0,388,89.27c-1.55,0-2.47,1.36-2.47,3.18,0,1.67.82,3,2.43,3a2.25,2.25,0,0,0,2.19-1.79,2.57,2.57,0,0,0,.07-.65Z"/><path class="cls-2" d="M402.38,96.52l-.12-1h-.05a3.07,3.07,0,0,1-2.52,1.22,2.35,2.35,0,0,1-2.52-2.36c0-2,1.77-3.08,5-3.06v-.17a1.7,1.7,0,0,0-1.87-1.91,4.1,4.1,0,0,0-2.14.61l-.34-1a5.11,5.11,0,0,1,2.71-.73c2.52,0,3.13,1.72,3.13,3.37v3.08a11.54,11.54,0,0,0,.14,2Zm-.22-4.2c-1.63,0-3.49.25-3.49,1.85a1.32,1.32,0,0,0,1.41,1.43,2,2,0,0,0,2-1.38,1.54,1.54,0,0,0,.08-.48Z"/><path class="cls-2" d="M411.9,96.21a5.51,5.51,0,0,1-2.36.48,3.91,3.91,0,0,1-4.1-4.2,4.18,4.18,0,0,1,4.42-4.37,5,5,0,0,1,2.08.43l-.34,1.16a3.47,3.47,0,0,0-1.74-.39,3.1,3.1,0,0,0-.05,6.19,4.26,4.26,0,0,0,1.84-.41Z"/><path class="cls-2" d="M419.42,96.21a5.51,5.51,0,0,1-2.36.48,3.91,3.91,0,0,1-4.1-4.2,4.18,4.18,0,0,1,4.42-4.37,5,5,0,0,1,2.08.43l-.34,1.16a3.47,3.47,0,0,0-1.74-.39,3.1,3.1,0,0,0-.05,6.19,4.26,4.26,0,0,0,1.84-.41Z"/><path class="cls-2" d="M421.92,92.68a2.64,2.64,0,0,0,2.82,2.86,5.41,5.41,0,0,0,2.28-.43l.25,1.07a6.67,6.67,0,0,1-2.74.51,3.82,3.82,0,0,1-4-4.15c0-2.48,1.46-4.44,3.86-4.44,2.69,0,3.4,2.37,3.4,3.88a5.73,5.73,0,0,1-.05.7Zm4.39-1.07a2.13,2.13,0,0,0-2.08-2.43,2.48,2.48,0,0,0-2.3,2.43Z"/><path class="cls-2" d="M429.41,95a3.92,3.92,0,0,0,2,.6c1.09,0,1.6-.54,1.6-1.23s-.42-1.11-1.53-1.51c-1.48-.53-2.18-1.34-2.18-2.33a2.54,2.54,0,0,1,2.84-2.42,4.11,4.11,0,0,1,2,.51l-.37,1.09a3.21,3.21,0,0,0-1.68-.48c-.88,0-1.38.51-1.38,1.12s.49,1,1.57,1.4c1.43.54,2.16,1.26,2.16,2.48,0,1.45-1.12,2.47-3.08,2.47a4.7,4.7,0,0,1-2.31-.56Z"/><path class="cls-2" d="M436.15,95a3.92,3.92,0,0,0,2,.6c1.09,0,1.6-.54,1.6-1.23s-.42-1.11-1.53-1.51c-1.48-.53-2.18-1.34-2.18-2.33a2.54,2.54,0,0,1,2.84-2.42,4.11,4.11,0,0,1,2,.51l-.37,1.09a3.21,3.21,0,0,0-1.68-.48c-.88,0-1.38.51-1.38,1.12s.49,1,1.57,1.4c1.43.54,2.16,1.26,2.16,2.48,0,1.45-1.12,2.47-3.08,2.47a4.7,4.7,0,0,1-2.31-.56Z"/><path class="cls-2" d="M358.61,105.78v2.37h2.14v1.14h-2.14v4.44c0,1,.29,1.6,1.12,1.6a3.35,3.35,0,0,0,.87-.1l.07,1.12a3.67,3.67,0,0,1-1.33.2,2.07,2.07,0,0,1-1.62-.63,3,3,0,0,1-.58-2.14v-4.49h-1.28v-1.14h1.28v-2Z"/><path class="cls-2" d="M369.81,112.2a4,4,0,0,1-4.1,4.37,3.92,3.92,0,0,1-3.95-4.24,4,4,0,0,1,4.08-4.37A3.9,3.9,0,0,1,369.81,112.2Zm-6.53.09c0,1.8,1,3.16,2.5,3.16s2.5-1.34,2.5-3.2c0-1.4-.7-3.16-2.47-3.16S363.28,110.72,363.28,112.28Z"/><path class="cls-2" d="M375.31,110.84c0-1.05,0-1.91-.07-2.69h1.34l.07,1.41h0a3.24,3.24,0,0,1,2.93-1.6c2,0,3.49,1.68,3.49,4.19,0,3-1.8,4.42-3.74,4.42a2.89,2.89,0,0,1-2.54-1.29h0v4.47h-1.48Zm1.48,2.19a3.35,3.35,0,0,0,.07.61,2.31,2.31,0,0,0,2.25,1.75c1.58,0,2.5-1.29,2.5-3.18,0-1.65-.87-3.06-2.45-3.06a2.39,2.39,0,0,0-2.26,1.85,2.45,2.45,0,0,0-.1.61Z"/><path class="cls-2" d="M392.45,112.2a4,4,0,0,1-4.1,4.37,3.92,3.92,0,0,1-3.95-4.24,4,4,0,0,1,4.08-4.37A3.9,3.9,0,0,1,392.45,112.2Zm-6.53.09c0,1.8,1,3.16,2.5,3.16s2.5-1.34,2.5-3.2c0-1.4-.7-3.16-2.47-3.16S385.91,110.72,385.91,112.28Z"/><path class="cls-2" d="M394.13,114.85a3.92,3.92,0,0,0,2,.6c1.09,0,1.6-.54,1.6-1.23s-.42-1.11-1.53-1.51c-1.48-.53-2.18-1.34-2.18-2.33a2.54,2.54,0,0,1,2.84-2.42,4.11,4.11,0,0,1,2,.51l-.37,1.09a3.21,3.21,0,0,0-1.68-.48c-.88,0-1.38.51-1.38,1.12s.49,1,1.57,1.4c1.43.54,2.16,1.26,2.16,2.48,0,1.45-1.12,2.47-3.08,2.47a4.7,4.7,0,0,1-2.31-.56Z"/><path class="cls-2" d="M402.74,105.83a.93.93,0,0,1-1.85,0,.91.91,0,0,1,.94-.94A.89.89,0,0,1,402.74,105.83Zm-1.67,10.55v-8.23h1.5v8.23Z"/><path class="cls-2" d="M406.86,105.78v2.37H409v1.14h-2.14v4.44c0,1,.29,1.6,1.12,1.6a3.35,3.35,0,0,0,.87-.1l.07,1.12a3.67,3.67,0,0,1-1.33.2,2.07,2.07,0,0,1-1.62-.63,3,3,0,0,1-.58-2.14v-4.49h-1.28v-1.14h1.28v-2Z"/><path class="cls-2" d="M412.36,105.83a.93.93,0,0,1-1.85,0,.91.91,0,0,1,.94-.94A.89.89,0,0,1,412.36,105.83Zm-1.67,10.55v-8.23h1.5v8.23Z"/><path class="cls-2" d="M415.25,108.15l1.62,4.63a21.31,21.31,0,0,1,.66,2.11h.05c.19-.68.42-1.36.7-2.11l1.6-4.63h1.57l-3.23,8.23h-1.43l-3.13-8.23Z"/><path class="cls-2" d="M423.52,112.54a2.64,2.64,0,0,0,2.82,2.86,5.41,5.41,0,0,0,2.28-.43l.25,1.07a6.67,6.67,0,0,1-2.74.51,3.82,3.82,0,0,1-4-4.15c0-2.48,1.46-4.44,3.86-4.44,2.69,0,3.4,2.37,3.4,3.88a5.73,5.73,0,0,1-.05.7Zm4.39-1.07a2.13,2.13,0,0,0-2.08-2.43,2.48,2.48,0,0,0-2.3,2.43Z"/><path class="cls-2" d="M364.71,136.24l-.12-1h-.05a3.07,3.07,0,0,1-2.52,1.22,2.35,2.35,0,0,1-2.52-2.36c0-2,1.77-3.08,5-3.06v-.17a1.7,1.7,0,0,0-1.87-1.91,4.1,4.1,0,0,0-2.14.61l-.34-1a5.11,5.11,0,0,1,2.71-.73c2.52,0,3.13,1.72,3.13,3.37v3.08a11.54,11.54,0,0,0,.14,2Zm-.22-4.2c-1.63,0-3.49.25-3.49,1.85a1.32,1.32,0,0,0,1.41,1.43,2,2,0,0,0,2-1.38,1.54,1.54,0,0,0,.08-.48Z"/><path class="cls-2" d="M375.46,124.17v10c0,.73,0,1.56.07,2.13h-1.34l-.07-1.43h0a3,3,0,0,1-2.81,1.62c-2,0-3.52-1.68-3.52-4.19,0-2.74,1.68-4.42,3.69-4.42a2.75,2.75,0,0,1,2.48,1.26h0v-4.92Zm-1.5,7.2a2.61,2.61,0,0,0-.07-.63,2.2,2.2,0,0,0-2.16-1.74c-1.55,0-2.47,1.36-2.47,3.18,0,1.67.82,3,2.43,3a2.25,2.25,0,0,0,2.19-1.79,2.57,2.57,0,0,0,.07-.65Z"/><path class="cls-2" d="M384.84,134c0,.85,0,1.6.07,2.25h-1.33l-.08-1.34h0a3.1,3.1,0,0,1-2.72,1.53c-1.29,0-2.84-.71-2.84-3.61V128h1.5v4.56c0,1.56.48,2.62,1.84,2.62a2.16,2.16,0,0,0,2-1.36,2.19,2.19,0,0,0,.14-.77V128h1.5Z"/><path class="cls-2" d="M387.33,124.17h1.5v12.08h-1.5Z"/><path class="cls-2" d="M393.14,125.65V128h2.14v1.14h-2.14v4.44c0,1,.29,1.6,1.12,1.6a3.35,3.35,0,0,0,.87-.1l.07,1.12a3.67,3.67,0,0,1-1.33.2,2.07,2.07,0,0,1-1.62-.63,3,3,0,0,1-.58-2.14v-4.49h-1.28V128h1.28v-2Z"/><path class="cls-2" d="M400.58,130.58c0-1,0-1.8-.07-2.57h1.31l.05,1.62h.07a2.47,2.47,0,0,1,2.28-1.8,1.62,1.62,0,0,1,.43.05v1.41a2.24,2.24,0,0,0-.51-.05,2.1,2.1,0,0,0-2,1.92,4.2,4.2,0,0,0-.07.7v4.39h-1.48Z"/><path class="cls-2" d="M413.45,132.06a4,4,0,0,1-4.1,4.37,3.92,3.92,0,0,1-3.95-4.24,4,4,0,0,1,4.08-4.37A3.9,3.9,0,0,1,413.45,132.06Zm-6.53.09c0,1.8,1,3.16,2.5,3.16s2.5-1.34,2.5-3.2c0-1.4-.7-3.16-2.47-3.16S406.91,130.58,406.91,132.14Z"/><path class="cls-2" d="M415.34,124.17h1.5v12.08h-1.5Z"/><path class="cls-2" d="M420.19,132.4a2.64,2.64,0,0,0,2.83,2.86,5.41,5.41,0,0,0,2.28-.43l.25,1.07a6.67,6.67,0,0,1-2.74.51,3.82,3.82,0,0,1-4-4.15c0-2.48,1.46-4.44,3.86-4.44,2.69,0,3.4,2.37,3.4,3.88a5.73,5.73,0,0,1-.05.7Zm4.39-1.07a2.13,2.13,0,0,0-2.08-2.43,2.48,2.48,0,0,0-2.3,2.43Z"/><path class="cls-2" d="M367.79,150.1c0-.85,0-1.55-.07-2.23H369l.07,1.33h.05a2.84,2.84,0,0,1,2.59-1.51,2.43,2.43,0,0,1,2.33,1.65h0a3.41,3.41,0,0,1,.92-1.07,2.81,2.81,0,0,1,1.82-.58c1.09,0,2.71.71,2.71,3.57v4.85h-1.46v-4.66c0-1.58-.58-2.54-1.79-2.54a1.94,1.94,0,0,0-1.77,1.36,2.45,2.45,0,0,0-.12.75v5.09h-1.46v-4.93c0-1.31-.58-2.26-1.72-2.26a2,2,0,0,0-1.85,1.5,2.07,2.07,0,0,0-.12.73v5h-1.46Z"/><path class="cls-2" d="M389.43,151.92a4,4,0,0,1-4.1,4.37,3.92,3.92,0,0,1-3.95-4.24,4,4,0,0,1,4.08-4.37A3.9,3.9,0,0,1,389.43,151.92Zm-6.53.09c0,1.8,1,3.16,2.5,3.16s2.5-1.34,2.5-3.2c0-1.4-.7-3.16-2.47-3.16S382.9,150.44,382.9,152Z"/><path class="cls-2" d="M398.44,144v10c0,.73,0,1.56.07,2.13h-1.34l-.07-1.43h0a3,3,0,0,1-2.81,1.62c-2,0-3.52-1.68-3.52-4.19,0-2.74,1.68-4.42,3.69-4.42a2.75,2.75,0,0,1,2.48,1.26h0V144Zm-1.5,7.2a2.61,2.61,0,0,0-.07-.63,2.2,2.2,0,0,0-2.16-1.74c-1.55,0-2.47,1.36-2.47,3.18,0,1.67.82,3,2.43,3a2.25,2.25,0,0,0,2.19-1.79,2.57,2.57,0,0,0,.07-.65Z"/><path class="cls-2" d="M401.76,152.26a2.64,2.64,0,0,0,2.82,2.86,5.41,5.41,0,0,0,2.28-.43l.25,1.07a6.67,6.67,0,0,1-2.74.51,3.82,3.82,0,0,1-4-4.15c0-2.48,1.46-4.44,3.86-4.44,2.69,0,3.4,2.37,3.4,3.88a5.73,5.73,0,0,1-.05.7Zm4.39-1.07a2.13,2.13,0,0,0-2.08-2.43,2.48,2.48,0,0,0-2.3,2.43Z"/><path class="cls-2" d="M409.45,144h1.5v12.08h-1.5Z"/><path class="cls-2" d="M413.26,154.57a3.92,3.92,0,0,0,2,.6c1.09,0,1.6-.54,1.6-1.23s-.42-1.11-1.53-1.51c-1.48-.53-2.18-1.34-2.18-2.33a2.54,2.54,0,0,1,2.84-2.42,4.11,4.11,0,0,1,2,.51l-.37,1.09a3.21,3.21,0,0,0-1.68-.48c-.88,0-1.38.51-1.38,1.12s.49,1,1.57,1.4c1.43.54,2.16,1.26,2.16,2.48,0,1.45-1.12,2.47-3.08,2.47a4.7,4.7,0,0,1-2.31-.56Z"/><path class="cls-3" d="M347.43,54.07a18.28,18.28,0,0,0,3.37,0,13.33,13.33,0,0,0,6.53-2,10.31,10.31,0,0,0,4.18-6.12l-.15-.05c-1.48,1.53-3.62,2.4-6.63,2.4a10,10,0,0,1-10.36-10.36c0-6.48,5.2-11.94,12.5-11.94,8.52,0,12.55,6.53,12.55,14.29,0,6.89-2.19,11.94-5.82,15.26-3.16,2.86-7.5,4.44-12.65,4.64a26.65,26.65,0,0,1-3.52,0Zm4.7-16.63c0,2.86,1.53,5.31,4.69,5.31a4.89,4.89,0,0,0,4.29-2.19,3.65,3.65,0,0,0,.41-1.94c0-3.52-1.33-7-4.85-7C354,31.61,352.07,34,352.12,37.43Z"/><path class="cls-3" d="M372.78,51c0-4,2.3-6.74,5.92-8.32v-.15a8,8,0,0,1-4.8-7.25c0-5.61,5.05-9.34,11.69-9.34,7.76,0,11,4.49,11,8.52a8.08,8.08,0,0,1-4.8,7.3v.15c3.21,1.22,6.07,4,6.07,8.27,0,6-5.05,10.05-12.76,10.05C376.66,60.24,372.78,55.49,372.78,51Zm17.14-.26c0-2.91-2.14-4.64-5.2-5.46a5,5,0,0,0-4,4.95,4.54,4.54,0,0,0,4.69,4.64C388.14,54.88,389.93,53.1,389.93,50.75ZM381.2,35c0,2.25,2,3.67,4.69,4.49a4.54,4.54,0,0,0,3.37-4.23,3.8,3.8,0,0,0-4-4.08A3.7,3.7,0,0,0,381.2,35Z"/><path class="cls-3" d="M419.06,35.8c0,6.94-4.39,10.56-9.18,10.56-5.05,0-9-3.78-9-10,0-5.92,3.62-10.41,9.29-10.41S419.06,30.13,419.06,35.8Zm-12.45.36c0,3.47,1.17,6,3.42,6s3.27-2.25,3.27-6c0-3.37-.92-6-3.32-6S406.61,32.84,406.61,36.16Zm3.67,24.08,19-34.29h4.18L414.41,60.24Zm32.66-10.66c0,6.94-4.39,10.56-9.18,10.56-5,0-9-3.78-9-10,0-5.92,3.62-10.41,9.29-10.41S442.94,43.91,442.94,49.58Zm-12.4.36c-.05,3.47,1.12,6,3.37,6s3.27-2.25,3.27-6c0-3.37-.87-6-3.27-6S430.54,46.62,430.54,49.93Z"/><path class="cls-2" d="M203.66,95.9c0-.85,0-1.55-.07-2.23h1.33L205,95h0a3,3,0,0,1,2.72-1.55c1.14,0,2.91.68,2.91,3.5v4.92h-1.5V97.16c0-1.33-.49-2.43-1.91-2.43a2.13,2.13,0,0,0-2,1.53,2.17,2.17,0,0,0-.1.7v5h-1.5Z"/><path class="cls-2" d="M220.56,97.72a4,4,0,0,1-4.1,4.37,3.92,3.92,0,0,1-3.95-4.24,4,4,0,0,1,4.08-4.37A3.9,3.9,0,0,1,220.56,97.72ZM214,97.8c0,1.8,1,3.16,2.5,3.16s2.5-1.34,2.5-3.2c0-1.4-.7-3.16-2.47-3.16S214,96.24,214,97.8Z"/><path class="cls-2" d="M222.94,93.67,224,97.85c.24.92.46,1.77.61,2.62h.05c.19-.83.46-1.72.73-2.6l1.34-4.2H228l1.28,4.12c.31,1,.54,1.85.73,2.69h.05a24.84,24.84,0,0,1,.63-2.67l1.17-4.13h1.48l-2.65,8.23h-1.36L228.09,98a27.45,27.45,0,0,1-.73-2.71h0a24.39,24.39,0,0,1-.75,2.72l-1.33,3.91h-1.36l-2.48-8.23Z"/><path class="cls-2" d="M238.48,89.82H240V95h0a2.78,2.78,0,0,1,1.07-1.06,3.08,3.08,0,0,1,1.53-.43c1.11,0,2.88.68,2.88,3.52v4.9H244V97.17c0-1.33-.49-2.45-1.91-2.45a2.15,2.15,0,0,0-2,1.5,1.82,1.82,0,0,0-.1.71v5h-1.5Z"/><path class="cls-2" d="M252.48,101.9l-.12-1h-.05a3.07,3.07,0,0,1-2.52,1.22,2.35,2.35,0,0,1-2.52-2.36c0-2,1.77-3.08,5-3.06v-.17a1.7,1.7,0,0,0-1.87-1.91,4.1,4.1,0,0,0-2.14.61l-.34-1a5.11,5.11,0,0,1,2.71-.73c2.52,0,3.13,1.72,3.13,3.37v3.08a11.54,11.54,0,0,0,.14,2Zm-.22-4.2c-1.63,0-3.49.25-3.49,1.85a1.32,1.32,0,0,0,1.41,1.43,2,2,0,0,0,2-1.38,1.54,1.54,0,0,0,.08-.48Z"/><path class="cls-2" d="M256.57,93.67l1.62,4.63a21.31,21.31,0,0,1,.66,2.11h.05c.19-.68.42-1.36.7-2.11l1.6-4.63h1.57l-3.23,8.23H258.1L255,93.67Z"/><path class="cls-2" d="M264.86,98.06a2.64,2.64,0,0,0,2.82,2.86,5.41,5.41,0,0,0,2.28-.43l.25,1.07a6.67,6.67,0,0,1-2.74.51,3.82,3.82,0,0,1-4-4.15c0-2.48,1.46-4.44,3.86-4.44,2.69,0,3.4,2.37,3.4,3.88a5.73,5.73,0,0,1-.05.7ZM269.25,97a2.13,2.13,0,0,0-2.08-2.43,2.48,2.48,0,0,0-2.3,2.43Z"/><path class="cls-2" d="M208,109.68h1.5v5.14h0a2.78,2.78,0,0,1,1.07-1.06,3.08,3.08,0,0,1,1.53-.43c1.11,0,2.88.68,2.88,3.52v4.9h-1.5V117c0-1.33-.49-2.45-1.91-2.45a2.15,2.15,0,0,0-2,1.5,1.82,1.82,0,0,0-.1.71v5H208Z"/><path class="cls-2" d="M224.86,117.58a4,4,0,0,1-4.1,4.37,3.92,3.92,0,0,1-3.95-4.24,4,4,0,0,1,4.08-4.37A3.9,3.9,0,0,1,224.86,117.58Zm-6.53.09c0,1.8,1,3.16,2.5,3.16s2.5-1.34,2.5-3.2c0-1.4-.7-3.16-2.47-3.16S218.33,116.1,218.33,117.66Z"/><path class="cls-2" d="M226.75,116.22c0-1.05,0-1.91-.07-2.69H228l.07,1.41h0a3.24,3.24,0,0,1,2.93-1.6c2,0,3.49,1.68,3.49,4.19,0,3-1.8,4.42-3.74,4.42a2.89,2.89,0,0,1-2.54-1.29h0v4.47h-1.48Zm1.48,2.19a3.35,3.35,0,0,0,.07.61,2.31,2.31,0,0,0,2.25,1.75c1.58,0,2.5-1.29,2.5-3.18,0-1.65-.87-3.06-2.45-3.06a2.39,2.39,0,0,0-2.26,1.85,2.45,2.45,0,0,0-.1.61Z"/><path class="cls-2" d="M237.27,117.92a2.64,2.64,0,0,0,2.82,2.86,5.41,5.41,0,0,0,2.28-.43l.25,1.07a6.67,6.67,0,0,1-2.74.51,3.82,3.82,0,0,1-4-4.15c0-2.48,1.46-4.44,3.86-4.44,2.69,0,3.4,2.37,3.4,3.88a5.73,5.73,0,0,1-.05.7Zm4.39-1.07a2.13,2.13,0,0,0-2.08-2.43,2.48,2.48,0,0,0-2.3,2.43Z"/><path class="cls-2" d="M248.72,121.76v-7.09h-1.16v-1.14h1.16v-.39a3.88,3.88,0,0,1,1-2.87,2.87,2.87,0,0,1,2-.77,3.49,3.49,0,0,1,1.28.24l-.2,1.16a2.24,2.24,0,0,0-1-.19c-1.28,0-1.6,1.12-1.6,2.38v.44h2v1.14h-2v7.09Z"/><path class="cls-2" d="M260.79,117.58a4,4,0,0,1-4.1,4.37,3.92,3.92,0,0,1-3.95-4.24,4,4,0,0,1,4.08-4.37A3.9,3.9,0,0,1,260.79,117.58Zm-6.53.09c0,1.8,1,3.16,2.5,3.16s2.5-1.34,2.5-3.2c0-1.4-.7-3.16-2.47-3.16S254.25,116.1,254.25,117.66Z"/><path class="cls-2" d="M262.68,116.1c0-1,0-1.8-.07-2.57h1.31l.05,1.62H264a2.47,2.47,0,0,1,2.28-1.8,1.62,1.62,0,0,1,.43.05v1.41a2.24,2.24,0,0,0-.51-.05,2.1,2.1,0,0,0-2,1.92,4.2,4.2,0,0,0-.07.7v4.39h-1.48Z"/><path class="cls-2" d="M199.88,131v2.37H202v1.14h-2.14V139c0,1,.29,1.6,1.12,1.6a3.35,3.35,0,0,0,.87-.1l.07,1.12a3.67,3.67,0,0,1-1.33.2,2.07,2.07,0,0,1-1.62-.63,3,3,0,0,1-.58-2.14v-4.49h-1.28v-1.14h1.28v-2Z"/><path class="cls-2" d="M203.71,129.55h1.5v5.14h0a2.78,2.78,0,0,1,1.07-1.06,3.08,3.08,0,0,1,1.53-.43c1.11,0,2.88.68,2.88,3.52v4.9h-1.5V136.9c0-1.33-.49-2.45-1.91-2.45a2.15,2.15,0,0,0-2,1.5,1.82,1.82,0,0,0-.1.71v5h-1.5Z"/><path class="cls-2" d="M214,137.78a2.64,2.64,0,0,0,2.83,2.86,5.41,5.41,0,0,0,2.28-.43l.25,1.07a6.67,6.67,0,0,1-2.74.51,3.82,3.82,0,0,1-4-4.15c0-2.48,1.46-4.44,3.86-4.44,2.69,0,3.4,2.37,3.4,3.88a5.73,5.73,0,0,1-.05.7Zm4.39-1.07a2.13,2.13,0,0,0-2.08-2.43,2.48,2.48,0,0,0-2.3,2.43Z"/><path class="cls-2" d="M223.35,131.08a.93.93,0,0,1-1.85,0,.91.91,0,0,1,.94-.94A.89.89,0,0,1,223.35,131.08Zm-1.67,10.55v-8.23h1.5v8.23Z"/><path class="cls-2" d="M225.66,136c0-1,0-1.8-.07-2.57h1.31L227,135H227a2.47,2.47,0,0,1,2.28-1.8,1.62,1.62,0,0,1,.43.05v1.41a2.24,2.24,0,0,0-.51-.05,2.1,2.1,0,0,0-2,1.92,4.2,4.2,0,0,0-.07.7v4.39h-1.48Z"/><path class="cls-2" d="M235,141.63v-7.09h-1.16v-1.14H235V133a3.88,3.88,0,0,1,1-2.87,2.87,2.87,0,0,1,2-.77,3.49,3.49,0,0,1,1.28.24l-.2,1.16a2.24,2.24,0,0,0-1-.19c-1.28,0-1.6,1.12-1.6,2.38v.44h2v1.14h-2v7.09Z"/><path class="cls-2" d="M246.7,139.38c0,.85,0,1.6.07,2.25h-1.33l-.08-1.34h0a3.1,3.1,0,0,1-2.72,1.53c-1.29,0-2.84-.71-2.84-3.61v-4.81h1.5V138c0,1.56.48,2.62,1.84,2.62a2.16,2.16,0,0,0,2-1.36,2.19,2.19,0,0,0,.14-.77v-5.05h1.5Z"/><path class="cls-2" d="M251,131v2.37h2.14v1.14H251V139c0,1,.29,1.6,1.12,1.6a3.35,3.35,0,0,0,.87-.1l.07,1.12a3.67,3.67,0,0,1-1.33.2,2.07,2.07,0,0,1-1.62-.63,3,3,0,0,1-.58-2.14v-4.49h-1.28v-1.14h1.28v-2Z"/><path class="cls-2" d="M261.71,139.38c0,.85,0,1.6.07,2.25h-1.33l-.08-1.34h0a3.1,3.1,0,0,1-2.72,1.53c-1.29,0-2.84-.71-2.84-3.61v-4.81h1.5V138c0,1.56.48,2.62,1.84,2.62a2.16,2.16,0,0,0,2-1.36,2.19,2.19,0,0,0,.14-.77v-5.05h1.5Z"/><path class="cls-2" d="M264.19,136c0-1,0-1.8-.07-2.57h1.31l.05,1.62h.07a2.47,2.47,0,0,1,2.28-1.8,1.62,1.62,0,0,1,.43.05v1.41a2.24,2.24,0,0,0-.51-.05,2.1,2.1,0,0,0-2,1.92,4.2,4.2,0,0,0-.07.7v4.39h-1.48Z"/><path class="cls-2" d="M270.42,137.78a2.64,2.64,0,0,0,2.83,2.86,5.41,5.41,0,0,0,2.28-.43l.25,1.07a6.67,6.67,0,0,1-2.74.51,3.82,3.82,0,0,1-4-4.15c0-2.48,1.46-4.44,3.86-4.44,2.69,0,3.4,2.37,3.4,3.88a5.73,5.73,0,0,1-.05.7Zm4.39-1.07a2.13,2.13,0,0,0-2.08-2.43,2.48,2.48,0,0,0-2.3,2.43Z"/><path class="cls-3" d="M186.93,62.28a18.28,18.28,0,0,0,3.37,0,13.33,13.33,0,0,0,6.53-2A10.31,10.31,0,0,0,201,54.12l-.15-.05c-1.48,1.53-3.62,2.4-6.63,2.4a10,10,0,0,1-10.36-10.36c0-6.48,5.2-11.94,12.5-11.94,8.52,0,12.55,6.53,12.55,14.29,0,6.89-2.19,11.94-5.82,15.26-3.16,2.86-7.5,4.44-12.65,4.64a26.9,26.9,0,0,1-3.52,0Zm4.7-16.63c0,2.86,1.53,5.31,4.69,5.31a4.89,4.89,0,0,0,4.29-2.19,3.66,3.66,0,0,0,.41-1.94c0-3.52-1.33-7-4.85-7C193.51,39.83,191.57,42.18,191.62,45.65Z"/><path class="cls-3" d="M236.57,34.73v4.9L222.9,67.9h-8.21l13.67-26.69v-.1H213.15V34.73Z"/><path class="cls-3" d="M258.56,44c0,6.94-4.39,10.56-9.18,10.56-5.05,0-9-3.78-9-10,0-5.92,3.62-10.41,9.29-10.41S258.56,38.35,258.56,44Zm-12.45.36c0,3.47,1.17,6,3.42,6s3.27-2.25,3.27-6c0-3.37-.92-6-3.32-6S246.11,41.06,246.11,44.37Zm3.67,24.08,19-34.29H273L253.91,68.46Zm32.66-10.66c0,6.94-4.39,10.56-9.18,10.56-5,0-9-3.78-9-10,0-5.92,3.62-10.41,9.29-10.41S282.44,52.13,282.44,57.79Zm-12.4.36c-.05,3.47,1.12,6,3.37,6s3.27-2.25,3.27-6c0-3.37-.87-6-3.27-6S270,54.83,270,58.15Z"/><path class="cls-2" d="M48.15,143.05h1.5v5.14h0a2.78,2.78,0,0,1,1.07-1.06,3.08,3.08,0,0,1,1.53-.43c1.11,0,2.88.68,2.88,3.52v4.9h-1.5V150.4c0-1.33-.49-2.45-1.91-2.45a2.15,2.15,0,0,0-2,1.5,1.82,1.82,0,0,0-.1.71v5h-1.5Z"/><path class="cls-2" d="M62.09,155.13l-.12-1h-.05a3.07,3.07,0,0,1-2.52,1.22A2.35,2.35,0,0,1,56.88,153c0-2,1.77-3.08,5-3.06v-.17A1.7,1.7,0,0,0,60,147.81a4.1,4.1,0,0,0-2.14.61l-.34-1a5.11,5.11,0,0,1,2.71-.73c2.52,0,3.13,1.72,3.13,3.37v3.08a11.54,11.54,0,0,0,.14,2Zm-.22-4.2c-1.63,0-3.49.25-3.49,1.85a1.32,1.32,0,0,0,1.41,1.43,2,2,0,0,0,2-1.38,1.54,1.54,0,0,0,.08-.48Z"/><path class="cls-2" d="M66.09,146.9l1.62,4.63a21.31,21.31,0,0,1,.66,2.11h.05c.19-.68.42-1.36.7-2.11l1.6-4.63h1.57l-3.23,8.23H67.62l-3.13-8.23Z"/><path class="cls-2" d="M74.29,151.29a2.64,2.64,0,0,0,2.83,2.86,5.41,5.41,0,0,0,2.28-.43l.25,1.07a6.67,6.67,0,0,1-2.74.51,3.82,3.82,0,0,1-4-4.15c0-2.48,1.46-4.44,3.86-4.44,2.69,0,3.4,2.37,3.4,3.88a5.73,5.73,0,0,1-.05.7Zm4.39-1.07a2.13,2.13,0,0,0-2.08-2.43,2.48,2.48,0,0,0-2.3,2.43Z"/><path class="cls-2" d="M85.46,149.12c0-.85,0-1.55-.07-2.23H86.7l.07,1.33h.05a2.84,2.84,0,0,1,2.59-1.51,2.43,2.43,0,0,1,2.33,1.65h0a3.41,3.41,0,0,1,.92-1.07,2.81,2.81,0,0,1,1.82-.58c1.09,0,2.71.71,2.71,3.57v4.85H95.75v-4.66c0-1.58-.58-2.54-1.79-2.54a1.94,1.94,0,0,0-1.77,1.36,2.45,2.45,0,0,0-.12.75v5.09H90.61V150.2c0-1.31-.58-2.26-1.72-2.26a2,2,0,0,0-1.85,1.5,2.07,2.07,0,0,0-.12.73v5H85.46Z"/><path class="cls-2" d="M107,150.94a4,4,0,0,1-4.1,4.37A3.92,3.92,0,0,1,99,151.08a4,4,0,0,1,4.08-4.37A3.9,3.9,0,0,1,107,150.94Zm-6.53.09c0,1.8,1,3.16,2.5,3.16s2.5-1.34,2.5-3.2c0-1.4-.7-3.16-2.47-3.16S100.5,149.46,100.5,151Z"/><path class="cls-2" d="M108.84,149.46c0-1,0-1.8-.07-2.57h1.31l.05,1.62h.07a2.47,2.47,0,0,1,2.28-1.8,1.62,1.62,0,0,1,.43.05v1.41a2.24,2.24,0,0,0-.51-.05,2.1,2.1,0,0,0-2,1.92,4.2,4.2,0,0,0-.07.7v4.39h-1.48Z"/><path class="cls-2" d="M115,151.29a2.64,2.64,0,0,0,2.82,2.86,5.41,5.41,0,0,0,2.28-.43l.25,1.07a6.67,6.67,0,0,1-2.74.51,3.82,3.82,0,0,1-4-4.15c0-2.48,1.46-4.44,3.86-4.44,2.69,0,3.4,2.37,3.4,3.88a5.73,5.73,0,0,1-.05.7Zm4.39-1.07a2.13,2.13,0,0,0-2.08-2.43,2.48,2.48,0,0,0-2.3,2.43Z"/><path class="cls-2" d="M43.06,174.69a5.51,5.51,0,0,1-2.36.48,3.91,3.91,0,0,1-4.1-4.2A4.18,4.18,0,0,1,41,166.59a5,5,0,0,1,2.08.43l-.34,1.16a3.47,3.47,0,0,0-1.73-.39A3.1,3.1,0,0,0,41,174a4.25,4.25,0,0,0,1.84-.41Zm9-3.88a4,4,0,0,1-4.1,4.37A3.91,3.91,0,0,1,44,170.94a4,4,0,0,1,4.08-4.37A3.9,3.9,0,0,1,52.08,170.81Zm-6.53.09c0,1.8,1,3.16,2.5,3.16s2.5-1.34,2.5-3.2c0-1.39-.7-3.16-2.47-3.16S45.55,169.33,45.55,170.89ZM53.89,169c0-.85,0-1.55-.07-2.23h1.33l.09,1.36h0A3,3,0,0,1,58,166.57c1.14,0,2.91.68,2.91,3.5V175H59.4v-4.75c0-1.33-.49-2.43-1.91-2.43a2.13,2.13,0,0,0-2,1.53,2.15,2.15,0,0,0-.1.7V175h-1.5Zm9.51,6V167.9H62.24v-1.14H63.4v-.44A3.3,3.3,0,0,1,67,162.73a4.12,4.12,0,0,1,2.09.54l-.43,1.14a3.15,3.15,0,0,0-1.73-.48c-1.58,0-2,1.11-2,2.42v.41h4.78V175H68.18V167.9h-3.3V175Zm15.77-12.08v10c0,.73,0,1.56.07,2.13H77.9l-.07-1.43h0A3,3,0,0,1,75,175.18c-2,0-3.52-1.68-3.52-4.18,0-2.74,1.68-4.42,3.69-4.42a2.75,2.75,0,0,1,2.48,1.26h0v-4.92Zm-1.5,7.2a2.64,2.64,0,0,0-.07-.63,2.2,2.2,0,0,0-2.16-1.73c-1.55,0-2.47,1.36-2.47,3.18,0,1.67.82,3,2.43,3a2.25,2.25,0,0,0,2.19-1.79,2.6,2.6,0,0,0,.07-.65Zm4.73,1A2.64,2.64,0,0,0,85.23,174a5.41,5.41,0,0,0,2.28-.43l.26,1.07a6.67,6.67,0,0,1-2.74.51A3.82,3.82,0,0,1,81,171c0-2.48,1.46-4.44,3.86-4.44,2.69,0,3.4,2.36,3.4,3.88a5.65,5.65,0,0,1-.05.7Zm4.39-1.07a2.13,2.13,0,0,0-2.08-2.43,2.48,2.48,0,0,0-2.3,2.43ZM90,169c0-.85,0-1.55-.07-2.23h1.33l.09,1.36h0a3,3,0,0,1,2.72-1.55c1.14,0,2.91.68,2.91,3.5V175h-1.5v-4.75c0-1.33-.49-2.43-1.91-2.43a2.13,2.13,0,0,0-2,1.53,2.15,2.15,0,0,0-.1.7V175H90Zm15.23,5.7a5.51,5.51,0,0,1-2.36.48,3.91,3.91,0,0,1-4.1-4.2,4.18,4.18,0,0,1,4.42-4.37,5,5,0,0,1,2.08.43l-.34,1.16a3.47,3.47,0,0,0-1.73-.39,3.1,3.1,0,0,0-.05,6.19,4.25,4.25,0,0,0,1.84-.41Zm2.4-3.54a2.64,2.64,0,0,0,2.82,2.86,5.41,5.41,0,0,0,2.28-.43l.26,1.07a6.67,6.67,0,0,1-2.74.51,3.82,3.82,0,0,1-4-4.15c0-2.48,1.46-4.44,3.86-4.44,2.69,0,3.4,2.36,3.4,3.88a5.65,5.65,0,0,1-.05.7Zm4.39-1.07a2.13,2.13,0,0,0-2.08-2.43,2.48,2.48,0,0,0-2.3,2.43Zm8.55-5.68v2.36h2.14v1.14h-2.14v4.44c0,1,.29,1.6,1.12,1.6a3.33,3.33,0,0,0,.87-.1l.07,1.12a3.66,3.66,0,0,1-1.33.2,2.07,2.07,0,0,1-1.62-.63,3,3,0,0,1-.58-2.14V167.9h-1.28v-1.14h1.28v-2Zm11.09,6.41a4,4,0,0,1-4.1,4.37,3.91,3.91,0,0,1-3.95-4.24,4,4,0,0,1,4.08-4.37A3.9,3.9,0,0,1,131.68,170.81Zm-6.53.09c0,1.8,1,3.16,2.5,3.16s2.5-1.34,2.5-3.2c0-1.39-.7-3.16-2.47-3.16S125.14,169.33,125.14,170.89Z"/><path class="cls-2" d="M27.76,182.77v10c0,.73,0,1.56.07,2.13H26.48l-.07-1.43h0A3,3,0,0,1,23.57,195c-2,0-3.52-1.68-3.52-4.19,0-2.74,1.68-4.42,3.69-4.42a2.75,2.75,0,0,1,2.48,1.26h0v-4.92Zm-1.5,7.2a2.61,2.61,0,0,0-.07-.63A2.2,2.2,0,0,0,24,187.6c-1.55,0-2.47,1.36-2.47,3.18,0,1.67.82,3,2.43,3A2.25,2.25,0,0,0,26.19,192a2.57,2.57,0,0,0,.07-.65Z"/><path class="cls-2" d="M31,191a2.64,2.64,0,0,0,2.83,2.86,5.41,5.41,0,0,0,2.28-.43l.25,1.07a6.67,6.67,0,0,1-2.74.51,3.82,3.82,0,0,1-4-4.15c0-2.48,1.46-4.44,3.86-4.44,2.69,0,3.4,2.37,3.4,3.88a5.73,5.73,0,0,1-.05.7Zm4.39-1.07a2.13,2.13,0,0,0-2.08-2.43,2.48,2.48,0,0,0-2.3,2.43Z"/><path class="cls-2" d="M43.18,194.85l-.12-1H43A3.07,3.07,0,0,1,40.49,195,2.35,2.35,0,0,1,38,192.67c0-2,1.77-3.08,5-3.06v-.17a1.7,1.7,0,0,0-1.87-1.91,4.1,4.1,0,0,0-2.14.61l-.34-1a5.11,5.11,0,0,1,2.71-.73c2.52,0,3.13,1.72,3.13,3.37v3.08a11.54,11.54,0,0,0,.14,2Zm-.22-4.2c-1.63,0-3.49.25-3.49,1.85a1.32,1.32,0,0,0,1.41,1.43,2,2,0,0,0,2-1.38,1.54,1.54,0,0,0,.08-.48Z"/><path class="cls-2" d="M46.74,182.77h1.5v12.08h-1.5Z"/><path class="cls-2" d="M54.82,186.62l1.09,4.19c.24.92.46,1.77.61,2.62h.05c.19-.83.46-1.72.73-2.6l1.34-4.2h1.26l1.28,4.12c.31,1,.54,1.85.73,2.69H62a24.84,24.84,0,0,1,.63-2.67l1.17-4.13h1.48l-2.65,8.23H61.24L60,190.92a27.45,27.45,0,0,1-.73-2.71h0a24.39,24.39,0,0,1-.75,2.72l-1.33,3.91H55.77l-2.48-8.23Z"/><path class="cls-2" d="M68.33,184.3a.93.93,0,0,1-1.85,0,.91.91,0,0,1,.94-.94A.89.89,0,0,1,68.33,184.3Zm-1.67,10.55v-8.23h1.5v8.23Z"/><path class="cls-2" d="M72.39,184.25v2.37h2.14v1.14H72.39v4.44c0,1,.29,1.6,1.12,1.6a3.35,3.35,0,0,0,.87-.1l.07,1.12a3.67,3.67,0,0,1-1.33.2,2.07,2.07,0,0,1-1.62-.63,3,3,0,0,1-.58-2.14v-4.49H69.65v-1.14h1.28v-2Z"/><path class="cls-2" d="M76.13,182.77h1.5v5.14h0a2.78,2.78,0,0,1,1.07-1.06,3.08,3.08,0,0,1,1.53-.43c1.11,0,2.88.68,2.88,3.52v4.9h-1.5v-4.73c0-1.33-.49-2.45-1.91-2.45a2.15,2.15,0,0,0-2,1.5,1.82,1.82,0,0,0-.1.71v5h-1.5Z"/><path class="cls-2" d="M89,188.85c0-.85,0-1.55-.07-2.23h1.33l.08,1.36h0a3,3,0,0,1,2.72-1.55c1.14,0,2.91.68,2.91,3.5v4.92h-1.5v-4.75c0-1.33-.49-2.43-1.91-2.43a2.13,2.13,0,0,0-2,1.53,2.17,2.17,0,0,0-.1.7v5H89Z"/><path class="cls-2" d="M99.24,191a2.64,2.64,0,0,0,2.82,2.86,5.41,5.41,0,0,0,2.28-.43l.25,1.07a6.67,6.67,0,0,1-2.74.51,3.82,3.82,0,0,1-4-4.15c0-2.48,1.46-4.44,3.86-4.44,2.69,0,3.4,2.37,3.4,3.88a5.73,5.73,0,0,1-.05.7Zm4.39-1.07a2.13,2.13,0,0,0-2.08-2.43,2.48,2.48,0,0,0-2.3,2.43Z"/><path class="cls-2" d="M114,186.62c0,.6-.07,1.26-.07,2.26v4.78c0,1.89-.37,3-1.17,3.76a4.36,4.36,0,0,1-3,1,5.31,5.31,0,0,1-2.74-.68l.37-1.14a4.65,4.65,0,0,0,2.42.65c1.53,0,2.65-.8,2.65-2.87v-.92h0a2.94,2.94,0,0,1-2.62,1.38c-2,0-3.5-1.74-3.5-4,0-2.79,1.82-4.37,3.71-4.37a2.74,2.74,0,0,1,2.57,1.43h0l.07-1.24Zm-1.55,3.25a2.12,2.12,0,0,0-.08-.68,2.16,2.16,0,0,0-2.09-1.58c-1.43,0-2.45,1.21-2.45,3.11,0,1.62.82,3,2.43,3a2.19,2.19,0,0,0,2.08-1.53,2.61,2.61,0,0,0,.12-.8Z"/><path class="cls-2" d="M120.87,194.85l-.12-1h-.05a3.07,3.07,0,0,1-2.52,1.22,2.35,2.35,0,0,1-2.52-2.36c0-2,1.77-3.08,5-3.06v-.17a1.7,1.7,0,0,0-1.87-1.91,4.1,4.1,0,0,0-2.14.61l-.34-1a5.11,5.11,0,0,1,2.71-.73c2.52,0,3.13,1.72,3.13,3.37v3.08a11.54,11.54,0,0,0,.14,2Zm-.22-4.2c-1.63,0-3.49.25-3.49,1.85a1.32,1.32,0,0,0,1.41,1.43,2,2,0,0,0,2-1.38,1.54,1.54,0,0,0,.08-.48Z"/><path class="cls-2" d="M126.18,184.25v2.37h2.14v1.14h-2.14v4.44c0,1,.29,1.6,1.12,1.6a3.35,3.35,0,0,0,.87-.1l.07,1.12a3.67,3.67,0,0,1-1.33.2,2.07,2.07,0,0,1-1.62-.63,3,3,0,0,1-.58-2.14v-4.49h-1.28v-1.14h1.28v-2Z"/><path class="cls-2" d="M131.59,184.3a.93.93,0,0,1-1.85,0,.91.91,0,0,1,.94-.94A.89.89,0,0,1,131.59,184.3Zm-1.67,10.55v-8.23h1.5v8.23Z"/><path class="cls-2" d="M134.4,186.62l1.62,4.63a21.31,21.31,0,0,1,.66,2.11h.05c.19-.68.42-1.36.7-2.11l1.6-4.63h1.57l-3.23,8.23h-1.43l-3.13-8.23Z"/><path class="cls-2" d="M142.6,191a2.64,2.64,0,0,0,2.83,2.86,5.41,5.41,0,0,0,2.28-.43l.25,1.07a6.67,6.67,0,0,1-2.74.51,3.82,3.82,0,0,1-4-4.15c0-2.48,1.46-4.44,3.86-4.44,2.69,0,3.4,2.37,3.4,3.88a5.73,5.73,0,0,1-.05.7Zm4.39-1.07a2.13,2.13,0,0,0-2.08-2.43,2.48,2.48,0,0,0-2.3,2.43Z"/><path class="cls-2" d="M37.75,209.17c0-1.05,0-1.91-.07-2.69H39l.07,1.41h0a3.24,3.24,0,0,1,2.93-1.6c2,0,3.49,1.68,3.49,4.19,0,3-1.8,4.42-3.74,4.42a2.89,2.89,0,0,1-2.54-1.29h0v4.47H37.75Zm1.48,2.19a3.36,3.36,0,0,0,.07.61,2.31,2.31,0,0,0,2.25,1.75c1.58,0,2.5-1.29,2.5-3.18,0-1.65-.87-3.06-2.45-3.06a2.39,2.39,0,0,0-2.26,1.85,2.44,2.44,0,0,0-.1.61Z"/><path class="cls-2" d="M48.2,210.87A2.64,2.64,0,0,0,51,213.73a5.41,5.41,0,0,0,2.28-.43l.25,1.07a6.67,6.67,0,0,1-2.74.51,3.82,3.82,0,0,1-4-4.15c0-2.48,1.46-4.44,3.86-4.44,2.69,0,3.4,2.37,3.4,3.88a5.73,5.73,0,0,1-.05.7Zm4.39-1.07a2.13,2.13,0,0,0-2.08-2.43,2.48,2.48,0,0,0-2.3,2.43Z"/><path class="cls-2" d="M56.66,210.87a2.64,2.64,0,0,0,2.83,2.86,5.41,5.41,0,0,0,2.28-.43l.25,1.07a6.67,6.67,0,0,1-2.74.51,3.82,3.82,0,0,1-4-4.15c0-2.48,1.46-4.44,3.86-4.44,2.69,0,3.4,2.37,3.4,3.88a5.73,5.73,0,0,1-.05.7Zm4.39-1.07A2.13,2.13,0,0,0,59,207.36a2.48,2.48,0,0,0-2.3,2.43Z"/><path class="cls-2" d="M64.29,209c0-1,0-1.8-.07-2.57h1.31l.05,1.62h.07a2.47,2.47,0,0,1,2.28-1.8,1.62,1.62,0,0,1,.43.05v1.41a2.24,2.24,0,0,0-.51-.05,2.1,2.1,0,0,0-2,1.92,4.2,4.2,0,0,0-.07.7v4.39H64.29Z"/><path class="cls-2" d="M73.32,209.17c0-1.05,0-1.91-.07-2.69H74.6l.07,1.41h0a3.24,3.24,0,0,1,2.93-1.6c2,0,3.49,1.68,3.49,4.19,0,3-1.8,4.42-3.74,4.42a2.89,2.89,0,0,1-2.54-1.29h0v4.47H73.32Zm1.48,2.19a3.35,3.35,0,0,0,.07.61,2.31,2.31,0,0,0,2.25,1.75c1.58,0,2.5-1.29,2.5-3.18,0-1.65-.87-3.06-2.45-3.06a2.39,2.39,0,0,0-2.26,1.85,2.45,2.45,0,0,0-.1.61Z"/><path class="cls-2" d="M82.94,209c0-1,0-1.8-.07-2.57h1.31l.05,1.62h.07a2.47,2.47,0,0,1,2.28-1.8,1.62,1.62,0,0,1,.43.05v1.41a2.24,2.24,0,0,0-.51-.05,2.1,2.1,0,0,0-2,1.92,4.2,4.2,0,0,0-.07.7v4.39H82.94Z"/><path class="cls-2" d="M89.08,210.87a2.64,2.64,0,0,0,2.83,2.86,5.41,5.41,0,0,0,2.28-.43l.25,1.07a6.67,6.67,0,0,1-2.74.51,3.82,3.82,0,0,1-4-4.15c0-2.48,1.46-4.44,3.86-4.44,2.69,0,3.4,2.37,3.4,3.88a5.73,5.73,0,0,1-.05.7Zm4.39-1.07a2.13,2.13,0,0,0-2.08-2.43,2.48,2.48,0,0,0-2.3,2.43Z"/><path class="cls-2" d="M96.5,213.18a3.92,3.92,0,0,0,2,.6c1.09,0,1.6-.54,1.6-1.23s-.42-1.11-1.53-1.51c-1.48-.53-2.18-1.34-2.18-2.33a2.54,2.54,0,0,1,2.84-2.42,4.11,4.11,0,0,1,2,.51l-.37,1.09a3.21,3.21,0,0,0-1.68-.48c-.88,0-1.38.51-1.38,1.12s.49,1,1.57,1.4c1.43.54,2.16,1.26,2.16,2.48,0,1.45-1.12,2.47-3.08,2.47a4.7,4.7,0,0,1-2.31-.56Z"/><path class="cls-2" d="M103.16,213.18a3.92,3.92,0,0,0,2,.6c1.09,0,1.6-.54,1.6-1.23s-.42-1.11-1.53-1.51c-1.48-.53-2.18-1.34-2.18-2.33a2.54,2.54,0,0,1,2.84-2.42,4.11,4.11,0,0,1,2,.51l-.37,1.09a3.21,3.21,0,0,0-1.68-.48c-.88,0-1.38.51-1.38,1.12s.49,1,1.57,1.4c1.43.54,2.16,1.26,2.16,2.48,0,1.45-1.12,2.47-3.08,2.47a4.7,4.7,0,0,1-2.31-.56Z"/><path class="cls-2" d="M116.91,212.47c0,.85,0,1.6.07,2.25h-1.33l-.08-1.34h0a3.1,3.1,0,0,1-2.72,1.53c-1.29,0-2.84-.71-2.84-3.61v-4.81h1.5V211c0,1.56.48,2.62,1.84,2.62a2.16,2.16,0,0,0,2-1.36,2.19,2.19,0,0,0,.14-.77v-5.05h1.5Z"/><path class="cls-2" d="M119.33,209c0-1,0-1.8-.07-2.57h1.31l.05,1.62h.07a2.47,2.47,0,0,1,2.28-1.8,1.62,1.62,0,0,1,.43.05v1.41a2.24,2.24,0,0,0-.51-.05,2.1,2.1,0,0,0-2,1.92,4.2,4.2,0,0,0-.07.7v4.39h-1.48Z"/><path class="cls-2" d="M125.47,210.87a2.64,2.64,0,0,0,2.83,2.86,5.41,5.41,0,0,0,2.28-.43l.25,1.07a6.67,6.67,0,0,1-2.74.51,3.82,3.82,0,0,1-4-4.15c0-2.48,1.46-4.44,3.86-4.44,2.69,0,3.4,2.37,3.4,3.88a5.73,5.73,0,0,1-.05.7Zm4.39-1.07a2.13,2.13,0,0,0-2.08-2.43,2.48,2.48,0,0,0-2.3,2.43Z"/><path class="cls-3" d="M34.29,111.24c0-4,2.3-6.74,5.92-8.32v-.15a8,8,0,0,1-4.8-7.25c0-5.61,5.05-9.34,11.68-9.34,7.76,0,11,4.49,11,8.52a8.08,8.08,0,0,1-4.8,7.3v.15c3.21,1.22,6.07,4,6.07,8.27,0,6-5.05,10.05-12.76,10.05C38.17,120.47,34.29,115.73,34.29,111.24ZM51.44,111c0-2.91-2.14-4.64-5.21-5.46a5,5,0,0,0-4,4.95,4.54,4.54,0,0,0,4.69,4.64C49.65,115.12,51.44,113.33,51.44,111ZM42.71,95.27c0,2.25,2,3.67,4.69,4.49a4.54,4.54,0,0,0,3.37-4.23,3.8,3.8,0,0,0-4-4.08A3.7,3.7,0,0,0,42.71,95.27Z"/><path class="cls-3" d="M65.57,114.3a18.27,18.27,0,0,0,3.37,0,13.33,13.33,0,0,0,6.53-2,10.31,10.31,0,0,0,4.18-6.12l-.15-.05c-1.48,1.53-3.62,2.4-6.63,2.4A10,10,0,0,1,62.51,98.12c0-6.48,5.21-11.94,12.5-11.94,8.52,0,12.55,6.53,12.55,14.29,0,6.89-2.19,11.94-5.82,15.26-3.16,2.86-7.5,4.44-12.65,4.64a26.63,26.63,0,0,1-3.52,0Zm4.69-16.63c0,2.86,1.53,5.31,4.7,5.31a4.89,4.89,0,0,0,4.29-2.19,3.64,3.64,0,0,0,.41-1.94c0-3.52-1.33-7-4.85-7C72.15,91.85,70.21,94.2,70.26,97.67Z"/><path class="cls-3" d="M108.89,96c0,6.94-4.39,10.56-9.18,10.56-5.05,0-9-3.78-9-10,0-5.92,3.62-10.41,9.29-10.41S108.89,90.37,108.89,96Zm-12.45.36c0,3.47,1.17,6,3.42,6s3.27-2.25,3.27-6c0-3.37-.92-6-3.32-6S96.44,93.07,96.44,96.39Zm3.67,24.08,19-34.29h4.18l-19.08,34.29Zm32.66-10.66c0,6.94-4.39,10.56-9.18,10.56-5,0-9-3.78-9-10,0-5.92,3.62-10.41,9.29-10.41S132.77,104.15,132.77,109.81Zm-12.4.36c-.05,3.47,1.12,6,3.37,6s3.27-2.25,3.27-6c0-3.37-.87-6-3.27-6S120.37,106.85,120.37,110.17Z"/><polyline class="cls-4" points="15.44 327.43 15.44 343.02 464.56 343.02 464.56 327.71"/><path class="cls-5" d="M160.16,336.8v-3.65l-2.72-5h1.26l1.21,2.38c.33.65.59,1.17.86,1.77h0c.24-.56.54-1.12.87-1.77l1.24-2.38h1.26l-2.89,4.94v3.67Z"/><path class="cls-5" d="M172.31,332.4c0,3-1.8,4.53-4,4.53s-3.87-1.76-3.87-4.37,1.7-4.52,4-4.52S172.31,329.85,172.31,332.4Zm-6.68.14c0,1.84,1,3.49,2.75,3.49s2.76-1.62,2.76-3.58c0-1.71-.89-3.5-2.75-3.5S165.63,330.66,165.63,332.55Z"/><path class="cls-5" d="M175.1,328.19v5.1c0,1.93.86,2.75,2,2.75s2.09-.84,2.09-2.75v-5.1h1.12v5c0,2.64-1.39,3.73-3.26,3.73s-3.09-1-3.09-3.68v-5.07Z"/><path class="cls-5" d="M184.14,329.14h-2.62v-.94h6.37v.94h-2.63v7.66h-1.12Z"/><path class="cls-5" d="M190.2,328.19v3.6h4.16v-3.6h1.12v8.61h-1.12v-4H190.2v4h-1.11v-8.61Z"/><path class="cls-5" d="M201.47,328.19v8.61h-1.11v-8.61Z"/><path class="cls-5" d="M203.66,336.8v-8.61h1.21l2.76,4.35a24.41,24.41,0,0,1,1.55,2.8h0c-.1-1.15-.13-2.2-.13-3.54v-3.6h1v8.61H209l-2.73-4.37a27.32,27.32,0,0,1-1.61-2.87h0c.06,1.09.09,2.12.09,3.55v3.68Z"/><path class="cls-5" d="M216.41,334.09l-.89,2.71h-1.15l2.92-8.61h1.34l2.94,8.61h-1.19l-.92-2.71Zm2.82-.87-.84-2.48c-.19-.56-.32-1.07-.45-1.57h0c-.13.51-.27,1-.43,1.56l-.84,2.49Z"/><path class="cls-5" d="M223.07,328.19h1.11v7.68h3.68v.93h-4.79Z"/><path class="cls-5" d="M229.35,328.19h1.11v7.68h3.68v.93h-4.79Z"/><path class="cls-5" d="M238.32,328.19H243v.93h-3.52V332h3.26v.92h-3.26v3.9h-1.11Z"/><path class="cls-5" d="M244.79,328.19h1.11v7.68h3.68v.93h-4.79Z"/><path class="cls-5" d="M251.93,336.8v-3.65l-2.72-5h1.26l1.21,2.38c.33.65.59,1.17.86,1.77h0c.24-.56.54-1.12.87-1.77l1.24-2.38h1.26l-2.89,4.94v3.67Z"/><path class="cls-5" d="M259.87,328.29a12.88,12.88,0,0,1,2.13-.17,3.54,3.54,0,0,1,2.41.72,2.31,2.31,0,0,1,.75,1.8,2.53,2.53,0,0,1-.66,1.84,3.56,3.56,0,0,1-2.63.95,3.81,3.81,0,0,1-.89-.08v3.45h-1.11Zm1.11,4.15a3.71,3.71,0,0,0,.92.09c1.34,0,2.16-.65,2.16-1.84s-.8-1.69-2-1.69a4.65,4.65,0,0,0-1,.09Z"/><path class="cls-5" d="M266.9,328.31a11.59,11.59,0,0,1,2.13-.18,3.52,3.52,0,0,1,2.49.7,2.14,2.14,0,0,1,.68,1.63,2.26,2.26,0,0,1-1.62,2.2v0a2.14,2.14,0,0,1,1.26,1.74,13.73,13.73,0,0,0,.66,2.36h-1.15a11.12,11.12,0,0,1-.57-2.06c-.26-1.19-.72-1.63-1.72-1.67h-1v3.73H266.9Zm1.11,3.92h1.14c1.19,0,1.94-.65,1.94-1.63s-.8-1.6-2-1.61a4.55,4.55,0,0,0-1.1.1Z"/><path class="cls-5" d="M281.42,332.4c0,3-1.8,4.53-4,4.53s-3.87-1.76-3.87-4.37,1.7-4.52,4-4.52S281.42,329.85,281.42,332.4Zm-6.68.14c0,1.84,1,3.49,2.75,3.49s2.76-1.62,2.76-3.58c0-1.71-.89-3.5-2.75-3.5S274.74,330.66,274.74,332.55Z"/><path class="cls-5" d="M289.65,336.42a8,8,0,0,1-2.64.47,4,4,0,0,1-4.42-4.34,4.32,4.32,0,0,1,4.66-4.44,5.32,5.32,0,0,1,2.15.4l-.27.91a4.46,4.46,0,0,0-1.9-.37,3.22,3.22,0,0,0-3.46,3.46,3.16,3.16,0,0,0,3.32,3.47,3.62,3.62,0,0,0,1.48-.23v-2.57h-1.75v-.89h2.83Z"/><path class="cls-5" d="M291.6,328.31a11.59,11.59,0,0,1,2.13-.18,3.52,3.52,0,0,1,2.49.7,2.14,2.14,0,0,1,.68,1.63,2.26,2.26,0,0,1-1.62,2.2v0a2.14,2.14,0,0,1,1.26,1.74,13.73,13.73,0,0,0,.66,2.36h-1.15a11.12,11.12,0,0,1-.57-2.06c-.26-1.19-.72-1.63-1.72-1.67h-1v3.73H291.6Zm1.11,3.92h1.14c1.19,0,1.94-.65,1.94-1.63s-.8-1.6-2-1.61a4.55,4.55,0,0,0-1.1.1Z"/><path class="cls-5" d="M300.17,334.09l-.89,2.71h-1.15l2.92-8.61h1.34l2.94,8.61h-1.19l-.92-2.71Zm2.82-.87-.84-2.48c-.19-.56-.32-1.07-.45-1.57h0c-.13.51-.27,1-.43,1.56l-.84,2.49Z"/><path class="cls-5" d="M314,333c-.06-1.2-.14-2.64-.13-3.72h0c-.29,1-.65,2.08-1.08,3.27l-1.52,4.18h-.84l-1.39-4.1c-.41-1.21-.75-2.32-1-3.35h0c0,1.07-.09,2.52-.17,3.81l-.23,3.69h-1.06l.6-8.61h1.42l1.47,4.16c.36,1.06.65,2,.87,2.9h0c.22-.87.52-1.81.91-2.9l1.53-4.16h1.42l.54,8.61h-1.08Z"/><path class="cls-5" d="M317.14,335.44a3.93,3.93,0,0,0,2,.56c1.14,0,1.8-.6,1.8-1.47s-.46-1.26-1.62-1.71c-1.4-.5-2.27-1.23-2.27-2.44s1.11-2.34,2.78-2.34a3.91,3.91,0,0,1,1.9.42l-.31.91a3.43,3.43,0,0,0-1.63-.41c-1.17,0-1.62.7-1.62,1.29,0,.8.52,1.2,1.71,1.66,1.46.56,2.2,1.26,2.2,2.53s-1,2.48-3,2.48a4.45,4.45,0,0,1-2.2-.55Z"/></svg>