<svg id="Layer_1" data-name="Layer 1" xmlns="http://www.w3.org/2000/svg" viewBox="0 0 1200 675"><defs><style>.cls-1{fill:#f78e20;}.cls-2{fill:#fff;}.cls-3{fill:#f78e1e;}.cls-4{fill:none;stroke:#621b4b;stroke-width:2.49px;}.cls-5{fill:#776441;}</style></defs><title>Artboard 1</title><rect class="cls-1" x="206.06" y="251.62" width="248.81" height="328.83"/><rect class="cls-1" x="475.59" y="159.29" width="248.81" height="421.17"/><rect class="cls-1" x="745.13" y="142.43" width="248.81" height="438.02"/><path class="cls-2" d="M796.56,176.6c-.06,1-.12,2.21-.12,4V189c0,3.31-.66,5.35-2.06,6.6a7.66,7.66,0,0,1-5.26,1.73,9.33,9.33,0,0,1-4.81-1.19l.66-2a8.15,8.15,0,0,0,4.24,1.13c2.69,0,4.66-1.4,4.66-5v-1.61h-.06a5.16,5.16,0,0,1-4.6,2.42c-3.58,0-6.15-3-6.15-7,0-4.9,3.2-7.67,6.51-7.67a4.81,4.81,0,0,1,4.51,2.51h.06l.12-2.18Zm-2.72,5.7a3.84,3.84,0,0,0-3.82-4c-2.51,0-4.3,2.12-4.3,5.46,0,2.84,1.43,5.2,4.27,5.2a3.84,3.84,0,0,0,3.64-2.69,4.57,4.57,0,0,0,.21-1.4Z"/><path class="cls-2" d="M808.8,191.06l-.21-1.82h-.09a5.38,5.38,0,0,1-4.42,2.15,4.12,4.12,0,0,1-4.42-4.15c0-3.49,3.11-5.4,8.69-5.37v-.3c0-1.19-.33-3.34-3.28-3.34a7.2,7.2,0,0,0-3.76,1.07l-.6-1.73a9,9,0,0,1,4.75-1.28c4.42,0,5.49,3,5.49,5.91v5.4a20.35,20.35,0,0,0,.24,3.46Zm-.39-7.38c-2.87-.06-6.12.45-6.12,3.25a2.33,2.33,0,0,0,2.48,2.51,3.6,3.6,0,0,0,3.49-2.42,2.73,2.73,0,0,0,.15-.84Z"/><path class="cls-2" d="M818.11,172.54a1.63,1.63,0,0,1-3.25,0,1.6,1.6,0,0,1,1.64-1.64A1.56,1.56,0,0,1,818.11,172.54Zm-2.93,18.51V176.6h2.63v14.45Z"/><path class="cls-2" d="M822.17,180.52c0-1.49,0-2.72-.12-3.91h2.33l.15,2.39h.06a5.32,5.32,0,0,1,4.78-2.72c2,0,5.11,1.19,5.11,6.15v8.63h-2.63v-8.33c0-2.33-.87-4.27-3.34-4.27a3.73,3.73,0,0,0-3.52,2.69,3.77,3.77,0,0,0-.18,1.22v8.69h-2.63Z"/><path class="cls-2" d="M840.2,184.31c.06,3.55,2.33,5,5,5a9.5,9.5,0,0,0,4-.75l.45,1.88a11.71,11.71,0,0,1-4.81.9c-4.45,0-7.11-2.93-7.11-7.29s2.57-7.79,6.78-7.79c4.72,0,6,4.15,6,6.81a9.92,9.92,0,0,1-.09,1.22Zm7.7-1.88c0-1.67-.69-4.27-3.64-4.27-2.66,0-3.82,2.45-4,4.27Z"/><path class="cls-2" d="M866.18,169.86v17.47c0,1.28,0,2.75.12,3.73h-2.36l-.12-2.51h-.06a5.35,5.35,0,0,1-4.93,2.84c-3.49,0-6.18-3-6.18-7.35,0-4.81,3-7.76,6.48-7.76a4.83,4.83,0,0,1,4.36,2.21h.06v-8.63Zm-2.63,12.63a4.63,4.63,0,0,0-.12-1.1,3.86,3.86,0,0,0-3.79-3c-2.72,0-4.33,2.39-4.33,5.58,0,2.93,1.43,5.35,4.27,5.35a4,4,0,0,0,3.85-3.14,4.55,4.55,0,0,0,.12-1.13Z"/><path class="cls-2" d="M884.87,191.06l-.21-1.82h-.09a5.38,5.38,0,0,1-4.42,2.15,4.12,4.12,0,0,1-4.42-4.15c0-3.49,3.11-5.4,8.69-5.37v-.3c0-1.19-.33-3.34-3.28-3.34a7.2,7.2,0,0,0-3.76,1.07l-.6-1.73a9,9,0,0,1,4.75-1.28c4.42,0,5.49,3,5.49,5.91v5.4a20.35,20.35,0,0,0,.24,3.46Zm-.39-7.38c-2.87-.06-6.12.45-6.12,3.25a2.33,2.33,0,0,0,2.48,2.51,3.6,3.6,0,0,0,3.49-2.42,2.73,2.73,0,0,0,.15-.84Z"/><path class="cls-2" d="M901.56,190.52a9.68,9.68,0,0,1-4.15.84c-4.36,0-7.2-3-7.2-7.38a7.34,7.34,0,0,1,7.76-7.67,8.78,8.78,0,0,1,3.64.75l-.6,2a6.09,6.09,0,0,0-3-.69c-3.32,0-5.11,2.45-5.11,5.46,0,3.34,2.15,5.41,5,5.41a7.46,7.46,0,0,0,3.22-.72Z"/><path class="cls-2" d="M914.75,190.52a9.68,9.68,0,0,1-4.15.84c-4.36,0-7.2-3-7.2-7.38a7.34,7.34,0,0,1,7.76-7.67,8.78,8.78,0,0,1,3.64.75l-.6,2a6.09,6.09,0,0,0-3-.69c-3.32,0-5.11,2.45-5.11,5.46,0,3.34,2.15,5.41,5,5.41a7.46,7.46,0,0,0,3.22-.72Z"/><path class="cls-2" d="M919.14,184.31c.06,3.55,2.33,5,5,5a9.5,9.5,0,0,0,4-.75l.45,1.88a11.71,11.71,0,0,1-4.81.9c-4.45,0-7.11-2.93-7.11-7.29s2.57-7.79,6.78-7.79c4.72,0,6,4.15,6,6.81a10,10,0,0,1-.09,1.22Zm7.7-1.88c0-1.67-.69-4.27-3.64-4.27-2.66,0-3.82,2.45-4,4.27Z"/><path class="cls-2" d="M932.28,188.37a6.89,6.89,0,0,0,3.46,1c1.91,0,2.81-1,2.81-2.15s-.75-1.94-2.69-2.66c-2.6-.93-3.82-2.36-3.82-4.09,0-2.33,1.88-4.24,5-4.24a7.22,7.22,0,0,1,3.55.9l-.66,1.91a5.62,5.62,0,0,0-3-.84c-1.55,0-2.42.9-2.42,2s.87,1.73,2.75,2.45c2.51,1,3.79,2.21,3.79,4.36,0,2.54-2,4.33-5.41,4.33a8.24,8.24,0,0,1-4.06-1Z"/><path class="cls-2" d="M944.1,188.37a6.88,6.88,0,0,0,3.46,1c1.91,0,2.81-1,2.81-2.15s-.75-1.94-2.69-2.66c-2.6-.93-3.82-2.36-3.82-4.09,0-2.33,1.88-4.24,5-4.24a7.21,7.21,0,0,1,3.55.9l-.66,1.91a5.63,5.63,0,0,0-3-.84c-1.55,0-2.42.9-2.42,2s.87,1.73,2.75,2.45c2.51,1,3.79,2.21,3.79,4.36,0,2.54-2,4.33-5.41,4.33a8.24,8.24,0,0,1-4.06-1Z"/><path class="cls-2" d="M808.08,207.3v4.15h3.76v2h-3.76v7.79c0,1.79.51,2.81,2,2.81a5.83,5.83,0,0,0,1.52-.18l.12,2a6.43,6.43,0,0,1-2.33.36,3.64,3.64,0,0,1-2.84-1.1c-.75-.78-1-2.06-1-3.76v-7.88h-2.24v-2h2.24V208Z"/><path class="cls-2" d="M827.73,218.55c0,5.35-3.7,7.67-7.2,7.67-3.91,0-6.93-2.87-6.93-7.44,0-4.84,3.17-7.67,7.17-7.67S827.73,214.13,827.73,218.55Zm-11.47.15c0,3.17,1.82,5.55,4.39,5.55s4.39-2.36,4.39-5.61c0-2.45-1.22-5.55-4.33-5.55S816.26,216,816.26,218.7Z"/><path class="cls-2" d="M837.37,216.16c0-1.85-.06-3.34-.12-4.72h2.36l.12,2.48h.06a5.68,5.68,0,0,1,5.14-2.81c3.49,0,6.12,3,6.12,7.35,0,5.2-3.17,7.76-6.57,7.76A5.07,5.07,0,0,1,840,224H840v7.85h-2.6ZM840,220a5.89,5.89,0,0,0,.12,1.08,4.05,4.05,0,0,0,3.94,3.08c2.78,0,4.39-2.27,4.39-5.58,0-2.9-1.52-5.37-4.3-5.37a4.19,4.19,0,0,0-4,3.25,4.24,4.24,0,0,0-.18,1.07Z"/><path class="cls-2" d="M867.43,218.55c0,5.35-3.7,7.67-7.2,7.67-3.91,0-6.93-2.87-6.93-7.44,0-4.84,3.17-7.67,7.17-7.67S867.43,214.13,867.43,218.55ZM856,218.7c0,3.17,1.82,5.55,4.39,5.55s4.39-2.36,4.39-5.61c0-2.45-1.22-5.55-4.33-5.55S856,216,856,218.7Z"/><path class="cls-2" d="M870.39,223.21a6.88,6.88,0,0,0,3.46,1c1.91,0,2.81-1,2.81-2.15s-.75-1.94-2.69-2.66c-2.6-.93-3.82-2.36-3.82-4.09,0-2.33,1.88-4.24,5-4.24a7.22,7.22,0,0,1,3.55.9l-.66,1.91a5.63,5.63,0,0,0-3-.84c-1.55,0-2.42.9-2.42,2s.87,1.73,2.75,2.45c2.51,1,3.79,2.21,3.79,4.36,0,2.54-2,4.33-5.41,4.33a8.24,8.24,0,0,1-4.06-1Z"/><path class="cls-2" d="M885.5,207.39a1.63,1.63,0,0,1-3.25,0,1.6,1.6,0,0,1,1.64-1.64A1.56,1.56,0,0,1,885.5,207.39Zm-2.93,18.51V211.45h2.63V225.9Z"/><path class="cls-2" d="M892.72,207.3v4.15h3.76v2h-3.76v7.79c0,1.79.51,2.81,2,2.81a5.83,5.83,0,0,0,1.52-.18l.12,2a6.44,6.44,0,0,1-2.33.36,3.64,3.64,0,0,1-2.84-1.1c-.75-.78-1-2.06-1-3.76v-7.88h-2.24v-2h2.24V208Z"/><path class="cls-2" d="M902.36,207.39a1.63,1.63,0,0,1-3.25,0,1.6,1.6,0,0,1,1.64-1.64A1.56,1.56,0,0,1,902.36,207.39Zm-2.93,18.51V211.45h2.63V225.9Z"/><path class="cls-2" d="M907.44,211.45l2.84,8.12a37.29,37.29,0,0,1,1.16,3.7h.09c.33-1.19.75-2.39,1.22-3.7l2.81-8.12h2.75l-5.67,14.45h-2.51l-5.5-14.45Z"/><path class="cls-2" d="M921.95,219.15c.06,3.55,2.33,5,5,5a9.5,9.5,0,0,0,4-.75l.45,1.88a11.71,11.71,0,0,1-4.81.9c-4.45,0-7.11-2.93-7.11-7.29s2.57-7.79,6.78-7.79c4.72,0,6,4.15,6,6.81a9.83,9.83,0,0,1-.09,1.22Zm7.7-1.88c0-1.67-.69-4.27-3.64-4.27-2.66,0-3.82,2.45-4,4.27Z"/><path class="cls-2" d="M818.77,260.74l-.21-1.82h-.09a5.38,5.38,0,0,1-4.42,2.15,4.12,4.12,0,0,1-4.42-4.15c0-3.49,3.11-5.4,8.69-5.37v-.3c0-1.19-.33-3.34-3.28-3.34a7.2,7.2,0,0,0-3.76,1.07l-.6-1.73a9,9,0,0,1,4.75-1.28c4.42,0,5.49,3,5.49,5.91v5.4a20.35,20.35,0,0,0,.24,3.46Zm-.39-7.38c-2.87-.06-6.12.45-6.12,3.25a2.33,2.33,0,0,0,2.48,2.51,3.6,3.6,0,0,0,3.49-2.42,2.73,2.73,0,0,0,.15-.84Z"/><path class="cls-2" d="M837.64,239.54V257c0,1.28,0,2.75.12,3.73H835.4l-.12-2.51h-.06a5.35,5.35,0,0,1-4.93,2.84c-3.49,0-6.18-3-6.18-7.35,0-4.81,3-7.76,6.48-7.76a4.83,4.83,0,0,1,4.36,2.21H835v-8.63ZM835,252.17a4.63,4.63,0,0,0-.12-1.1,3.86,3.86,0,0,0-3.79-3c-2.72,0-4.33,2.39-4.33,5.58,0,2.93,1.43,5.35,4.27,5.35a4,4,0,0,0,3.85-3.14,4.55,4.55,0,0,0,.12-1.13Z"/><path class="cls-2" d="M854.09,256.8c0,1.49,0,2.81.12,3.94h-2.33l-.15-2.36h-.06a5.44,5.44,0,0,1-4.78,2.69c-2.27,0-5-1.25-5-6.33v-8.45h2.63v8c0,2.75.84,4.6,3.23,4.6a3.8,3.8,0,0,0,3.46-2.39,3.85,3.85,0,0,0,.24-1.34v-8.87h2.63Z"/><path class="cls-2" d="M858.44,239.54h2.63v21.2h-2.63Z"/><path class="cls-2" d="M868.66,242.14v4.15h3.76v2h-3.76v7.79c0,1.79.51,2.81,2,2.81a5.83,5.83,0,0,0,1.52-.18l.12,2a6.43,6.43,0,0,1-2.33.36,3.64,3.64,0,0,1-2.84-1.1c-.75-.78-1-2.06-1-3.76v-7.88h-2.24v-2h2.24v-3.46Z"/><path class="cls-2" d="M881.7,250.8c0-1.7,0-3.17-.12-4.51h2.3l.09,2.84h.12a4.34,4.34,0,0,1,4-3.17,2.85,2.85,0,0,1,.75.09v2.48a4,4,0,0,0-.9-.09c-1.85,0-3.17,1.4-3.52,3.37a7.36,7.36,0,0,0-.12,1.22v7.7h-2.6Z"/><path class="cls-2" d="M904.28,253.4c0,5.35-3.7,7.67-7.2,7.67-3.91,0-6.93-2.87-6.93-7.44,0-4.84,3.17-7.67,7.17-7.67S904.28,249,904.28,253.4Zm-11.47.15c0,3.17,1.82,5.55,4.39,5.55s4.39-2.36,4.39-5.61c0-2.45-1.22-5.55-4.33-5.55S892.81,250.8,892.81,253.55Z"/><path class="cls-2" d="M907.59,239.54h2.63v21.2h-2.63Z"/><path class="cls-2" d="M916.1,254c.06,3.55,2.33,5,5,5a9.5,9.5,0,0,0,4-.75l.45,1.88a11.71,11.71,0,0,1-4.81.9c-4.45,0-7.11-2.93-7.11-7.29s2.57-7.79,6.78-7.79c4.72,0,6,4.15,6,6.81a9.83,9.83,0,0,1-.09,1.22Zm7.7-1.88c0-1.67-.69-4.27-3.64-4.27-2.66,0-3.82,2.45-4,4.27Z"/><path class="cls-2" d="M824.17,285c0-1.49,0-2.72-.12-3.91h2.3l.12,2.33h.09a5,5,0,0,1,4.54-2.66,4.27,4.27,0,0,1,4.09,2.9h.06a6,6,0,0,1,1.61-1.88,4.93,4.93,0,0,1,3.2-1c1.91,0,4.75,1.25,4.75,6.27v8.51h-2.57V287.4c0-2.78-1-4.45-3.14-4.45a3.4,3.4,0,0,0-3.11,2.39,4.34,4.34,0,0,0-.21,1.31v8.93h-2.57v-8.66c0-2.3-1-4-3-4a3.92,3.92,0,0,0-3.46,3.91v8.72h-2.57Z"/><path class="cls-2" d="M862.15,288.24c0,5.35-3.7,7.67-7.2,7.67-3.91,0-6.93-2.87-6.93-7.44,0-4.84,3.17-7.67,7.17-7.67S862.15,283.82,862.15,288.24Zm-11.47.15c0,3.17,1.82,5.55,4.39,5.55s4.39-2.36,4.39-5.61c0-2.45-1.22-5.55-4.33-5.55S850.68,285.64,850.68,288.39Z"/><path class="cls-2" d="M877.94,274.38v17.47c0,1.28,0,2.75.12,3.73H875.7l-.12-2.51h-.06a5.35,5.35,0,0,1-4.93,2.84c-3.49,0-6.18-3-6.18-7.35,0-4.81,3-7.76,6.48-7.76a4.83,4.83,0,0,1,4.36,2.21h.06v-8.63ZM875.32,287a4.63,4.63,0,0,0-.12-1.1,3.86,3.86,0,0,0-3.79-3c-2.72,0-4.33,2.39-4.33,5.58,0,2.93,1.43,5.35,4.27,5.35a4,4,0,0,0,3.85-3.14,4.55,4.55,0,0,0,.12-1.13Z"/><path class="cls-2" d="M883.76,288.83c.06,3.55,2.33,5,5,5a9.5,9.5,0,0,0,4-.75l.45,1.88a11.71,11.71,0,0,1-4.81.9c-4.45,0-7.11-2.93-7.11-7.29s2.57-7.79,6.78-7.79c4.72,0,6,4.15,6,6.81a9.83,9.83,0,0,1-.09,1.22Zm7.7-1.88c0-1.67-.69-4.27-3.64-4.27-2.66,0-3.82,2.45-4,4.27Z"/><path class="cls-2" d="M897.26,274.38h2.63v21.2h-2.63Z"/><path class="cls-2" d="M903.95,292.9a6.88,6.88,0,0,0,3.46,1c1.91,0,2.81-1,2.81-2.15s-.75-1.94-2.69-2.66c-2.6-.93-3.82-2.36-3.82-4.09,0-2.33,1.88-4.24,5-4.24a7.21,7.21,0,0,1,3.55.9l-.66,1.91a5.63,5.63,0,0,0-3-.84c-1.55,0-2.42.9-2.42,2s.87,1.73,2.75,2.45c2.51,1,3.79,2.21,3.79,4.36,0,2.54-2,4.33-5.41,4.33a8.24,8.24,0,0,1-4.06-1Z"/><path class="cls-3" d="M788.45,116.58a32,32,0,0,0,5.91,0A23.38,23.38,0,0,0,805.81,113a18.08,18.08,0,0,0,7.34-10.74l-.27-.09c-2.6,2.68-6.35,4.21-11.63,4.21-9.84,0-18.17-6.89-18.17-18.17S792.21,67.27,805,67.27c14.95,0,22,11.46,22,25.06,0,12.08-3.85,20.94-10.2,26.76-5.55,5-13.16,7.79-22.19,8.14a47,47,0,0,1-6.18,0Zm8.23-29.17c0,5,2.69,9.31,8.23,9.31a8.57,8.57,0,0,0,7.52-3.85,6.41,6.41,0,0,0,.72-3.4c0-6.18-2.33-12.26-8.5-12.26C800,77.2,796.59,81.32,796.68,87.41Z"/><path class="cls-3" d="M832.93,111.21c0-7,4-11.81,10.38-14.59v-.27c-5.64-2.86-8.41-7.61-8.41-12.71,0-9.84,8.86-16.38,20.49-16.38,13.6,0,19.24,7.88,19.24,14.95,0,5-2.68,9.93-8.41,12.8v.27c5.64,2.15,10.65,7,10.65,14.5,0,10.56-8.86,17.63-22.37,17.63C839.73,127.41,832.93,119.09,832.93,111.21Zm30.07-.45c0-5.1-3.76-8.14-9.13-9.58-4.47,1.25-7.07,4.47-7.07,8.68A8,8,0,0,0,855,118C859.87,118,863,114.88,863,110.76ZM847.7,83.2c0,3.94,3.58,6.44,8.23,7.88a8,8,0,0,0,5.91-7.43c0-3.58-2.06-7.16-7.07-7.16C850.11,76.49,847.7,79.53,847.7,83.2Z"/><path class="cls-3" d="M914.1,84.54c0,12.17-7.7,18.53-16.11,18.53-8.86,0-15.84-6.62-15.84-17.54,0-10.38,6.35-18.26,16.29-18.26S914.1,74.61,914.1,84.54Zm-21.84.63c0,6.09,2.06,10.47,6,10.47S904,91.7,904,85.17c0-5.91-1.61-10.47-5.82-10.47C894.15,74.7,892.27,79.35,892.27,85.17Zm6.44,42.24,33.38-60.14h7.34L906,127.41ZM956,108.71c0,12.17-7.7,18.53-16.11,18.53-8.77,0-15.75-6.62-15.84-17.54,0-10.38,6.35-18.26,16.29-18.26S956,98.77,956,108.71Zm-21.75.63c-.09,6.09,2,10.47,5.91,10.47s5.73-3.94,5.73-10.47c0-5.91-1.52-10.47-5.73-10.47S934.24,103.52,934.24,109.33Z"/><path class="cls-2" d="M536.25,190c0-1.49,0-2.72-.12-3.91h2.33l.15,2.39h.06a5.32,5.32,0,0,1,4.78-2.72c2,0,5.11,1.19,5.11,6.15v8.63h-2.63v-8.33c0-2.33-.87-4.27-3.34-4.27a3.73,3.73,0,0,0-3.52,2.69,3.77,3.77,0,0,0-.18,1.22v8.69h-2.63Z"/><path class="cls-2" d="M565.9,193.15c0,5.35-3.7,7.67-7.2,7.67-3.91,0-6.93-2.87-6.93-7.44,0-4.84,3.17-7.67,7.17-7.67S565.9,188.73,565.9,193.15Zm-11.47.15c0,3.17,1.82,5.55,4.39,5.55s4.39-2.36,4.39-5.61c0-2.45-1.22-5.55-4.33-5.55S554.43,190.55,554.43,193.3Z"/><path class="cls-2" d="M570.07,186l1.91,7.35c.42,1.61.81,3.11,1.07,4.6h.09c.33-1.46.81-3,1.28-4.57l2.36-7.38H579l2.24,7.23c.54,1.73,1,3.25,1.28,4.72h.09a43.6,43.6,0,0,1,1.1-4.69l2.06-7.26h2.6l-4.66,14.45h-2.39l-2.21-6.9a48.16,48.16,0,0,1-1.28-4.75h-.06a42.74,42.74,0,0,1-1.31,4.78l-2.33,6.87h-2.39L567.39,186Z"/><path class="cls-2" d="M597.33,179.29H600v9H600a4.88,4.88,0,0,1,1.88-1.85,5.41,5.41,0,0,1,2.69-.75c1.94,0,5,1.19,5,6.18v8.6H607v-8.3c0-2.33-.87-4.3-3.34-4.3a3.78,3.78,0,0,0-3.52,2.63,3.18,3.18,0,0,0-.18,1.25v8.72h-2.63Z"/><path class="cls-2" d="M621.9,200.5l-.21-1.82h-.09a5.38,5.38,0,0,1-4.42,2.15,4.12,4.12,0,0,1-4.42-4.15c0-3.49,3.11-5.4,8.69-5.37V191c0-1.19-.33-3.34-3.28-3.34a7.2,7.2,0,0,0-3.76,1.07l-.6-1.73a9,9,0,0,1,4.75-1.28c4.42,0,5.49,3,5.49,5.91V197a20.35,20.35,0,0,0,.24,3.46Zm-.39-7.38c-2.87-.06-6.12.45-6.12,3.25a2.33,2.33,0,0,0,2.48,2.51,3.6,3.6,0,0,0,3.49-2.42,2.73,2.73,0,0,0,.15-.84Z"/><path class="cls-2" d="M629.07,186l2.84,8.12a37.3,37.3,0,0,1,1.16,3.7h.09c.33-1.19.75-2.39,1.22-3.7l2.81-8.12h2.75l-5.67,14.45h-2.51L626.26,186Z"/><path class="cls-2" d="M643.61,193.75c.06,3.55,2.33,5,5,5a9.5,9.5,0,0,0,4-.75l.45,1.88a11.71,11.71,0,0,1-4.81.9c-4.45,0-7.11-2.93-7.11-7.29s2.57-7.79,6.78-7.79c4.72,0,6,4.15,6,6.81a9.92,9.92,0,0,1-.09,1.22Zm7.7-1.88c0-1.67-.69-4.27-3.64-4.27-2.66,0-3.82,2.45-4,4.27Z"/><path class="cls-2" d="M543.8,214.14h2.63v9h.06a4.88,4.88,0,0,1,1.88-1.85,5.41,5.41,0,0,1,2.69-.75c1.94,0,5,1.19,5,6.18v8.6h-2.63V227c0-2.33-.87-4.3-3.34-4.3a3.78,3.78,0,0,0-3.52,2.63,3.18,3.18,0,0,0-.18,1.25v8.72H543.8Z"/><path class="cls-2" d="M573.45,228c0,5.35-3.7,7.67-7.2,7.67-3.91,0-6.93-2.87-6.93-7.44,0-4.84,3.17-7.67,7.17-7.67S573.45,223.57,573.45,228Zm-11.47.15c0,3.17,1.82,5.55,4.39,5.55s4.39-2.36,4.39-5.61c0-2.45-1.22-5.55-4.33-5.55S562,225.4,562,228.14Z"/><path class="cls-2" d="M576.76,225.6c0-1.85-.06-3.34-.12-4.72H579l.12,2.48h.06a5.68,5.68,0,0,1,5.14-2.81c3.49,0,6.12,3,6.12,7.35,0,5.2-3.17,7.76-6.57,7.76a5.07,5.07,0,0,1-4.45-2.27h-.06v7.85h-2.6Zm2.6,3.85a5.89,5.89,0,0,0,.12,1.08,4.05,4.05,0,0,0,3.94,3.08c2.78,0,4.39-2.27,4.39-5.58,0-2.9-1.52-5.37-4.3-5.37a4.19,4.19,0,0,0-4,3.25,4.24,4.24,0,0,0-.18,1.07Z"/><path class="cls-2" d="M595.21,228.59c.06,3.55,2.33,5,5,5a9.5,9.5,0,0,0,4-.75l.45,1.88a11.71,11.71,0,0,1-4.81.9c-4.45,0-7.11-2.93-7.11-7.29s2.57-7.79,6.78-7.79c4.72,0,6,4.15,6,6.81a9.92,9.92,0,0,1-.09,1.22Zm7.7-1.88c0-1.67-.69-4.27-3.64-4.27-2.66,0-3.82,2.45-4,4.27Z"/><path class="cls-2" d="M615.3,235.34V222.89h-2v-2h2v-.69a6.81,6.81,0,0,1,1.67-5,5,5,0,0,1,3.52-1.34,6.08,6.08,0,0,1,2.24.42l-.36,2a3.92,3.92,0,0,0-1.67-.33c-2.24,0-2.81,2-2.81,4.18v.78h3.49v2H617.9v12.45Z"/><path class="cls-2" d="M636.47,228c0,5.35-3.7,7.67-7.2,7.67-3.91,0-6.93-2.87-6.93-7.44,0-4.84,3.17-7.67,7.17-7.67S636.47,223.57,636.47,228Zm-11.47.15c0,3.17,1.82,5.55,4.39,5.55s4.39-2.36,4.39-5.61c0-2.45-1.22-5.55-4.33-5.55S625,225.4,625,228.14Z"/><path class="cls-2" d="M639.79,225.4c0-1.7,0-3.17-.12-4.51H642l.09,2.84h.12a4.34,4.34,0,0,1,4-3.17,2.85,2.85,0,0,1,.75.09v2.48a4,4,0,0,0-.9-.09c-1.85,0-3.17,1.4-3.52,3.37a7.36,7.36,0,0,0-.12,1.22v7.7h-2.6Z"/><path class="cls-2" d="M529.62,251.58v4.15h3.76v2h-3.76v7.79c0,1.79.51,2.81,2,2.81a5.83,5.83,0,0,0,1.52-.18l.12,2a6.43,6.43,0,0,1-2.33.36,3.64,3.64,0,0,1-2.84-1.1c-.75-.78-1-2.06-1-3.76v-7.88h-2.24v-2h2.24v-3.46Z"/><path class="cls-2" d="M536.34,249H539v9H539a4.88,4.88,0,0,1,1.88-1.85,5.41,5.41,0,0,1,2.69-.75c1.94,0,5,1.19,5,6.18v8.6H546v-8.3c0-2.33-.87-4.3-3.34-4.3a3.78,3.78,0,0,0-3.52,2.63,3.18,3.18,0,0,0-.18,1.25v8.72h-2.63Z"/><path class="cls-2" d="M554.37,263.43c.06,3.55,2.33,5,5,5a9.5,9.5,0,0,0,4-.75l.45,1.88a11.71,11.71,0,0,1-4.81.9c-4.45,0-7.11-2.93-7.11-7.29s2.57-7.79,6.78-7.79c4.72,0,6,4.15,6,6.81a9.92,9.92,0,0,1-.09,1.22Zm7.7-1.88c0-1.67-.69-4.27-3.64-4.27-2.66,0-3.82,2.45-4,4.27Z"/><path class="cls-2" d="M570.79,251.67a1.63,1.63,0,0,1-3.25,0,1.6,1.6,0,0,1,1.64-1.64A1.56,1.56,0,0,1,570.79,251.67Zm-2.93,18.51V255.73h2.63v14.45Z"/><path class="cls-2" d="M574.85,260.24c0-1.7,0-3.17-.12-4.51H577l.09,2.84h.12a4.34,4.34,0,0,1,4-3.17,2.85,2.85,0,0,1,.75.09V258a4,4,0,0,0-.9-.09c-1.85,0-3.17,1.4-3.52,3.37a7.36,7.36,0,0,0-.12,1.22v7.7h-2.6Z"/><path class="cls-2" d="M591.21,270.18V257.73h-2v-2h2V255a6.81,6.81,0,0,1,1.67-5,5,5,0,0,1,3.52-1.34,6.08,6.08,0,0,1,2.24.42l-.36,2a3.92,3.92,0,0,0-1.67-.33c-2.24,0-2.81,2-2.81,4.18v.78h3.49v2h-3.49v12.45Z"/><path class="cls-2" d="M611.75,266.24c0,1.49,0,2.81.12,3.94h-2.33l-.15-2.36h-.06a5.44,5.44,0,0,1-4.78,2.69c-2.27,0-5-1.25-5-6.33v-8.45h2.63v8c0,2.75.84,4.6,3.23,4.6a3.8,3.8,0,0,0,3.46-2.39,3.85,3.85,0,0,0,.24-1.34v-8.87h2.63Z"/><path class="cls-2" d="M619.27,251.58v4.15H623v2h-3.76v7.79c0,1.79.51,2.81,2,2.81a5.83,5.83,0,0,0,1.52-.18l.12,2a6.43,6.43,0,0,1-2.33.36,3.64,3.64,0,0,1-2.84-1.1c-.75-.78-1-2.06-1-3.76v-7.88h-2.24v-2h2.24v-3.46Z"/><path class="cls-2" d="M638.09,266.24c0,1.49,0,2.81.12,3.94h-2.33l-.15-2.36h-.06a5.44,5.44,0,0,1-4.78,2.69c-2.27,0-5-1.25-5-6.33v-8.45h2.63v8c0,2.75.84,4.6,3.23,4.6a3.8,3.8,0,0,0,3.46-2.39,3.85,3.85,0,0,0,.24-1.34v-8.87h2.63Z"/><path class="cls-2" d="M642.44,260.24c0-1.7,0-3.17-.12-4.51h2.3l.09,2.84h.12a4.34,4.34,0,0,1,4-3.17,2.85,2.85,0,0,1,.75.09V258a4,4,0,0,0-.9-.09c-1.85,0-3.17,1.4-3.52,3.37a7.36,7.36,0,0,0-.12,1.22v7.7h-2.6Z"/><path class="cls-2" d="M653.37,263.43c.06,3.55,2.33,5,5,5a9.5,9.5,0,0,0,4-.75l.45,1.88a11.71,11.71,0,0,1-4.81.9c-4.45,0-7.11-2.93-7.11-7.29s2.57-7.79,6.78-7.79c4.72,0,6,4.15,6,6.81a9.92,9.92,0,0,1-.09,1.22Zm7.7-1.88c0-1.67-.69-4.27-3.64-4.27-2.66,0-3.82,2.45-4,4.27Z"/><path class="cls-3" d="M506.89,131a32,32,0,0,0,5.91,0,23.38,23.38,0,0,0,11.46-3.58,18.08,18.08,0,0,0,7.34-10.74l-.27-.09c-2.6,2.68-6.35,4.21-11.63,4.21-9.84,0-18.17-6.89-18.17-18.17s9.13-20.94,21.93-20.94c14.95,0,22,11.46,22,25.06,0,12.08-3.85,20.94-10.2,26.76-5.55,5-13.16,7.79-22.19,8.14a47,47,0,0,1-6.18,0Zm8.23-29.17c0,5,2.69,9.31,8.23,9.31a8.57,8.57,0,0,0,7.52-3.85,6.41,6.41,0,0,0,.72-3.4c0-6.18-2.33-12.26-8.5-12.26C518.44,91.62,515,95.74,515.13,101.82Z"/><path class="cls-3" d="M594,82.67v8.59l-24,49.58H555.58l24-46.8v-.18H552.9V82.67Z"/><path class="cls-3" d="M632.55,99c0,12.17-7.7,18.53-16.11,18.53-8.86,0-15.84-6.62-15.84-17.54,0-10.38,6.35-18.26,16.29-18.26S632.55,89,632.55,99Zm-21.84.63c0,6.09,2.06,10.47,6,10.47s5.73-3.94,5.73-10.47c0-5.91-1.61-10.47-5.82-10.47C612.59,89.12,610.71,93.77,610.71,99.59Zm6.44,42.24,33.38-60.14h7.34L624.4,141.83Zm57.28-18.7c0,12.17-7.7,18.53-16.11,18.53-8.77,0-15.75-6.62-15.84-17.54,0-10.38,6.35-18.26,16.29-18.26S674.43,113.19,674.43,123.12Zm-21.75.63c-.09,6.09,2,10.47,5.91,10.47s5.73-3.94,5.73-10.47c0-5.91-1.52-10.47-5.73-10.47S652.68,117.93,652.68,123.75Z"/><path class="cls-2" d="M263.45,272.67h2.63v9h.06a4.88,4.88,0,0,1,1.88-1.85,5.41,5.41,0,0,1,2.69-.75c1.94,0,5,1.19,5,6.18v8.6h-2.63v-8.3c0-2.33-.87-4.3-3.34-4.3a3.78,3.78,0,0,0-3.52,2.63,3.18,3.18,0,0,0-.18,1.25v8.72h-2.63Z"/><path class="cls-2" d="M287.91,293.87l-.21-1.82h-.09a5.38,5.38,0,0,1-4.42,2.15,4.12,4.12,0,0,1-4.42-4.15c0-3.49,3.11-5.4,8.69-5.37v-.3c0-1.19-.33-3.34-3.28-3.34a7.2,7.2,0,0,0-3.76,1.07l-.6-1.73a9,9,0,0,1,4.75-1.28c4.42,0,5.49,3,5.49,5.91v5.4a20.35,20.35,0,0,0,.24,3.46Zm-.39-7.38c-2.87-.06-6.12.45-6.12,3.25a2.33,2.33,0,0,0,2.48,2.51,3.6,3.6,0,0,0,3.49-2.42,2.73,2.73,0,0,0,.15-.84Z"/><path class="cls-2" d="M294.92,279.42l2.84,8.12a37.3,37.3,0,0,1,1.16,3.7H299c.33-1.19.75-2.39,1.22-3.7l2.81-8.12h2.75l-5.67,14.45h-2.51l-5.49-14.45Z"/><path class="cls-2" d="M309.31,287.12c.06,3.55,2.33,5,5,5a9.5,9.5,0,0,0,4-.75l.45,1.88a11.71,11.71,0,0,1-4.81.9c-4.45,0-7.11-2.93-7.11-7.29s2.57-7.79,6.78-7.79c4.72,0,6,4.15,6,6.81a9.92,9.92,0,0,1-.09,1.22Zm7.7-1.88c0-1.67-.69-4.27-3.64-4.27-2.66,0-3.82,2.45-4,4.27Z"/><path class="cls-2" d="M328.89,283.33c0-1.49,0-2.72-.12-3.91h2.3l.12,2.33h.09a5,5,0,0,1,4.54-2.66,4.27,4.27,0,0,1,4.09,2.9H340a6,6,0,0,1,1.61-1.88,4.93,4.93,0,0,1,3.2-1c1.91,0,4.75,1.25,4.75,6.27v8.51H347v-8.18c0-2.78-1-4.45-3.14-4.45a3.4,3.4,0,0,0-3.11,2.39,4.34,4.34,0,0,0-.21,1.31v8.93h-2.57v-8.66c0-2.3-1-4-3-4a3.92,3.92,0,0,0-3.46,3.91v8.72h-2.57Z"/><path class="cls-2" d="M366.75,286.53c0,5.35-3.7,7.67-7.2,7.67-3.91,0-6.93-2.87-6.93-7.44,0-4.84,3.17-7.67,7.17-7.67S366.75,282.11,366.75,286.53Zm-11.47.15c0,3.17,1.82,5.55,4.39,5.55s4.39-2.36,4.39-5.61c0-2.45-1.22-5.55-4.33-5.55S355.29,283.93,355.29,286.68Z"/><path class="cls-2" d="M369.92,283.93c0-1.7,0-3.17-.12-4.51h2.3l.09,2.84h.12a4.34,4.34,0,0,1,4-3.17,2.85,2.85,0,0,1,.75.09v2.48a4,4,0,0,0-.9-.09c-1.85,0-3.17,1.4-3.52,3.37a7.36,7.36,0,0,0-.12,1.22v7.7h-2.6Z"/><path class="cls-2" d="M380.72,287.12c.06,3.55,2.33,5,5,5a9.5,9.5,0,0,0,4-.75l.45,1.88a11.71,11.71,0,0,1-4.81.9c-4.45,0-7.11-2.93-7.11-7.29s2.57-7.79,6.78-7.79c4.72,0,6,4.15,6,6.81a9.92,9.92,0,0,1-.09,1.22Zm7.7-1.88c0-1.67-.69-4.27-3.64-4.27-2.66,0-3.82,2.45-4,4.27Z"/><path class="cls-2" d="M254.52,328.18a9.67,9.67,0,0,1-4.15.84c-4.36,0-7.19-3-7.19-7.37a7.34,7.34,0,0,1,7.76-7.67,8.78,8.78,0,0,1,3.64.75l-.6,2a6.09,6.09,0,0,0-3-.69c-3.31,0-5.1,2.45-5.1,5.46,0,3.34,2.15,5.4,5,5.4a7.46,7.46,0,0,0,3.22-.72Zm15.82-6.8c0,5.34-3.7,7.67-7.19,7.67-3.91,0-6.92-2.86-6.92-7.43,0-4.83,3.16-7.67,7.16-7.67S270.34,317,270.34,321.37Zm-11.46.15c0,3.16,1.82,5.55,4.39,5.55s4.39-2.36,4.39-5.61c0-2.45-1.22-5.55-4.33-5.55S258.88,318.78,258.88,321.52Zm14.63-3.34c0-1.49,0-2.72-.12-3.91h2.33l.15,2.39h.06a5.31,5.31,0,0,1,4.77-2.72c2,0,5.1,1.19,5.1,6.15v8.62h-2.63v-8.33c0-2.33-.87-4.27-3.34-4.27a3.73,3.73,0,0,0-3.52,2.69,3.78,3.78,0,0,0-.18,1.22v8.68h-2.63Zm16.69,10.53V316.27h-2v-2h2v-.78c0-3.82,2.24-6.3,6.3-6.3a7.23,7.23,0,0,1,3.67,1l-.75,2a5.52,5.52,0,0,0-3-.84c-2.78,0-3.58,1.94-3.58,4.24v.72h8.38v14.44h-2.6V316.27H292.8v12.44Zm27.67-21.19V325c0,1.28,0,2.75.12,3.73h-2.36l-.12-2.51h-.06a5.34,5.34,0,0,1-4.92,2.83c-3.49,0-6.18-3-6.18-7.34,0-4.8,3-7.76,6.48-7.76a4.83,4.83,0,0,1,4.36,2.21h.06v-8.62Zm-2.63,12.62a4.64,4.64,0,0,0-.12-1.1,3.86,3.86,0,0,0-3.79-3c-2.72,0-4.33,2.39-4.33,5.58,0,2.92,1.43,5.34,4.27,5.34a4,4,0,0,0,3.85-3.13,4.56,4.56,0,0,0,.12-1.13Zm8.3,1.82c.06,3.55,2.33,5,5,5a9.5,9.5,0,0,0,4-.75l.45,1.88a11.7,11.7,0,0,1-4.8.9c-4.45,0-7.1-2.92-7.1-7.28s2.57-7.79,6.77-7.79c4.71,0,6,4.15,6,6.8a9.9,9.9,0,0,1-.09,1.22Zm7.7-1.88c0-1.67-.69-4.27-3.64-4.27-2.66,0-3.82,2.45-4,4.27Zm5.65-1.91c0-1.49,0-2.72-.12-3.91h2.33l.15,2.39h.06a5.31,5.31,0,0,1,4.77-2.72c2,0,5.1,1.19,5.1,6.15v8.62h-2.63v-8.33c0-2.33-.87-4.27-3.34-4.27a3.73,3.73,0,0,0-3.52,2.69,3.78,3.78,0,0,0-.18,1.22v8.68h-2.63Zm26.71,10a9.67,9.67,0,0,1-4.15.84c-4.36,0-7.19-3-7.19-7.37A7.34,7.34,0,0,1,360,314a8.78,8.78,0,0,1,3.64.75l-.6,2a6.09,6.09,0,0,0-3-.69c-3.31,0-5.1,2.45-5.1,5.46,0,3.34,2.15,5.4,5,5.4a7.46,7.46,0,0,0,3.22-.72Zm4.21-6.21c.06,3.55,2.33,5,5,5a9.5,9.5,0,0,0,4-.75l.45,1.88a11.7,11.7,0,0,1-4.8.9c-4.45,0-7.1-2.92-7.1-7.28s2.57-7.79,6.77-7.79c4.71,0,6,4.15,6,6.8A9.9,9.9,0,0,1,378,322Zm7.7-1.88c0-1.67-.69-4.27-3.64-4.27-2.66,0-3.82,2.45-4,4.27Zm15-10v4.15h3.76v2h-3.76v7.79c0,1.79.51,2.8,2,2.8a5.84,5.84,0,0,0,1.52-.18l.12,2a6.43,6.43,0,0,1-2.33.36,3.64,3.64,0,0,1-2.83-1.1c-.75-.78-1-2.06-1-3.76v-7.88h-2.24v-2h2.24v-3.46ZM410,321.37c0,5.34-3.7,7.67-7.19,7.67-3.91,0-6.92-2.86-6.92-7.43,0-4.83,3.16-7.67,7.16-7.67S410,317,410,321.37Zm-11.46.15c0,3.16,1.82,5.55,4.39,5.55s4.39-2.36,4.39-5.61c0-2.45-1.22-5.55-4.33-5.55S398.52,318.78,398.52,321.52Z"/><path class="cls-2" d="M227.69,342.35v17.47c0,1.28,0,2.75.12,3.73h-2.36l-.12-2.51h-.06a5.35,5.35,0,0,1-4.93,2.84c-3.49,0-6.18-3-6.18-7.35,0-4.81,3-7.76,6.48-7.76A4.83,4.83,0,0,1,225,351h.06v-8.63ZM225.06,355a4.63,4.63,0,0,0-.12-1.1,3.86,3.86,0,0,0-3.79-3c-2.72,0-4.33,2.39-4.33,5.58,0,2.93,1.43,5.35,4.27,5.35a4,4,0,0,0,3.85-3.14,4.55,4.55,0,0,0,.12-1.13Z"/><path class="cls-2" d="M233.36,356.81c.06,3.55,2.33,5,5,5a9.5,9.5,0,0,0,4-.75l.45,1.88a11.71,11.71,0,0,1-4.81.9c-4.45,0-7.11-2.93-7.11-7.29s2.57-7.79,6.78-7.79c4.72,0,6,4.15,6,6.81a9.92,9.92,0,0,1-.09,1.22Zm7.7-1.88c0-1.67-.69-4.27-3.64-4.27-2.66,0-3.82,2.45-4,4.27Z"/><path class="cls-2" d="M254.73,363.55l-.21-1.82h-.09a5.38,5.38,0,0,1-4.42,2.15,4.12,4.12,0,0,1-4.42-4.15c0-3.49,3.11-5.4,8.69-5.37v-.3c0-1.19-.33-3.34-3.28-3.34a7.2,7.2,0,0,0-3.76,1.07l-.6-1.73a9,9,0,0,1,4.75-1.28c4.42,0,5.49,3,5.49,5.91v5.4a20.35,20.35,0,0,0,.24,3.46Zm-.39-7.38c-2.87-.06-6.12.45-6.12,3.25a2.33,2.33,0,0,0,2.48,2.51,3.6,3.6,0,0,0,3.49-2.42,2.73,2.73,0,0,0,.15-.84Z"/><path class="cls-2" d="M261,342.35h2.63v21.2H261Z"/><path class="cls-2" d="M275.15,349.1l1.91,7.35c.42,1.61.81,3.11,1.07,4.6h.09c.33-1.46.81-3,1.28-4.57l2.36-7.38h2.21l2.24,7.23c.54,1.73,1,3.25,1.28,4.72h.09a43.6,43.6,0,0,1,1.1-4.69l2.06-7.26h2.6l-4.66,14.45h-2.39l-2.21-6.9a48.16,48.16,0,0,1-1.28-4.75h-.06a42.74,42.74,0,0,1-1.31,4.78l-2.33,6.87h-2.39l-4.36-14.45Z"/><path class="cls-2" d="M298.86,345a1.63,1.63,0,0,1-3.25,0,1.6,1.6,0,0,1,1.64-1.64A1.56,1.56,0,0,1,298.86,345Zm-2.93,18.51V349.1h2.63v14.45Z"/><path class="cls-2" d="M306,345v4.15h3.76v2H306v7.79c0,1.79.51,2.81,2,2.81a5.83,5.83,0,0,0,1.52-.18l.12,2a6.43,6.43,0,0,1-2.33.36,3.64,3.64,0,0,1-2.84-1.1c-.75-.78-1-2.06-1-3.76V351.1h-2.24v-2h2.24v-3.46Z"/><path class="cls-2" d="M312.53,342.35h2.63v9h.06a4.88,4.88,0,0,1,1.88-1.85,5.41,5.41,0,0,1,2.69-.75c1.94,0,5,1.19,5,6.18v8.6h-2.63v-8.3c0-2.33-.87-4.3-3.34-4.3a3.78,3.78,0,0,0-3.52,2.63,3.18,3.18,0,0,0-.18,1.25v8.72h-2.63Z"/><path class="cls-2" d="M335.19,353c0-1.49,0-2.72-.12-3.91h2.33l.15,2.39h.06a5.32,5.32,0,0,1,4.78-2.72c2,0,5.11,1.19,5.11,6.15v8.63h-2.63v-8.33c0-2.33-.87-4.27-3.34-4.27a3.73,3.73,0,0,0-3.52,2.69,3.77,3.77,0,0,0-.18,1.22v8.69h-2.63Z"/><path class="cls-2" d="M353.08,356.81c.06,3.55,2.33,5,5,5a9.5,9.5,0,0,0,4-.75l.45,1.88a11.71,11.71,0,0,1-4.81.9c-4.45,0-7.11-2.93-7.11-7.29s2.57-7.79,6.78-7.79c4.72,0,6,4.15,6,6.81a9.92,9.92,0,0,1-.09,1.22Zm7.7-1.88c0-1.67-.69-4.27-3.64-4.27-2.66,0-3.82,2.45-4,4.27Z"/><path class="cls-2" d="M378.9,349.1c-.06,1-.12,2.21-.12,4v8.39c0,3.31-.66,5.35-2.06,6.6a7.66,7.66,0,0,1-5.26,1.73,9.33,9.33,0,0,1-4.81-1.19l.66-2a8.15,8.15,0,0,0,4.24,1.13c2.69,0,4.66-1.4,4.66-5v-1.61h-.06a5.16,5.16,0,0,1-4.6,2.42c-3.58,0-6.15-3-6.15-7,0-4.9,3.2-7.67,6.51-7.67a4.81,4.81,0,0,1,4.51,2.51h.06l.12-2.18Zm-2.72,5.7a3.84,3.84,0,0,0-3.82-4c-2.51,0-4.3,2.12-4.3,5.46,0,2.84,1.43,5.2,4.27,5.2a3.84,3.84,0,0,0,3.64-2.69,4.57,4.57,0,0,0,.21-1.4Z"/><path class="cls-2" d="M391,363.55l-.21-1.82h-.09a5.38,5.38,0,0,1-4.42,2.15,4.12,4.12,0,0,1-4.42-4.15c0-3.49,3.11-5.4,8.69-5.37v-.3c0-1.19-.33-3.34-3.28-3.34a7.2,7.2,0,0,0-3.76,1.07l-.6-1.73a9,9,0,0,1,4.75-1.28c4.42,0,5.49,3,5.49,5.91v5.4a20.35,20.35,0,0,0,.24,3.46Zm-.39-7.38c-2.87-.06-6.12.45-6.12,3.25a2.33,2.33,0,0,0,2.48,2.51,3.6,3.6,0,0,0,3.49-2.42,2.73,2.73,0,0,0,.15-.84Z"/><path class="cls-2" d="M400.34,345v4.15h3.76v2h-3.76v7.79c0,1.79.51,2.81,2,2.81a5.83,5.83,0,0,0,1.52-.18l.12,2a6.43,6.43,0,0,1-2.33.36,3.64,3.64,0,0,1-2.84-1.1c-.75-.78-1-2.06-1-3.76V351.1h-2.24v-2h2.24v-3.46Z"/><path class="cls-2" d="M409.83,345a1.63,1.63,0,0,1-3.25,0,1.6,1.6,0,0,1,1.64-1.64A1.56,1.56,0,0,1,409.83,345Zm-2.93,18.51V349.1h2.63v14.45Z"/><path class="cls-2" d="M414.76,349.1l2.84,8.12a37.3,37.3,0,0,1,1.16,3.7h.09c.33-1.19.75-2.39,1.22-3.7l2.81-8.12h2.75L420,363.55h-2.51l-5.49-14.45Z"/><path class="cls-2" d="M429.15,356.81c.06,3.55,2.33,5,5,5a9.5,9.5,0,0,0,4-.75l.45,1.88a11.71,11.71,0,0,1-4.81.9c-4.45,0-7.11-2.93-7.11-7.29s2.57-7.79,6.78-7.79c4.72,0,6,4.15,6,6.81a9.92,9.92,0,0,1-.09,1.22Zm7.7-1.88c0-1.67-.69-4.27-3.64-4.27-2.66,0-3.82,2.45-4,4.27Z"/><path class="cls-2" d="M245.21,388.66c0-1.85-.06-3.34-.12-4.72h2.36l.12,2.48h.06a5.68,5.68,0,0,1,5.14-2.81c3.49,0,6.12,3,6.12,7.35,0,5.2-3.17,7.76-6.57,7.76a5.07,5.07,0,0,1-4.45-2.27h-.06v7.85h-2.6Zm2.6,3.85a5.89,5.89,0,0,0,.12,1.08,4.05,4.05,0,0,0,3.94,3.08c2.78,0,4.39-2.27,4.39-5.58,0-2.9-1.52-5.37-4.3-5.37a4.19,4.19,0,0,0-4,3.25,4.24,4.24,0,0,0-.18,1.07Z"/><path class="cls-2" d="M263.54,391.65c.06,3.55,2.33,5,5,5a9.5,9.5,0,0,0,4-.75l.45,1.88a11.71,11.71,0,0,1-4.81.9c-4.45,0-7.11-2.93-7.11-7.29s2.57-7.79,6.78-7.79c4.72,0,6,4.15,6,6.81a9.92,9.92,0,0,1-.09,1.22Zm7.7-1.88c0-1.67-.69-4.27-3.64-4.27-2.66,0-3.82,2.45-4,4.27Z"/><path class="cls-2" d="M278.38,391.65c.06,3.55,2.33,5,5,5a9.5,9.5,0,0,0,4-.75l.45,1.88a11.71,11.71,0,0,1-4.81.9c-4.45,0-7.11-2.93-7.11-7.29s2.57-7.79,6.78-7.79c4.72,0,6,4.15,6,6.81a9.92,9.92,0,0,1-.09,1.22Zm7.7-1.88c0-1.67-.69-4.27-3.64-4.27-2.66,0-3.82,2.45-4,4.27Z"/><path class="cls-2" d="M291.75,388.45c0-1.7,0-3.17-.12-4.51h2.3l.09,2.84h.12a4.34,4.34,0,0,1,4-3.17,2.85,2.85,0,0,1,.75.09v2.48a4,4,0,0,0-.9-.09c-1.85,0-3.17,1.4-3.52,3.37a7.36,7.36,0,0,0-.12,1.22v7.7h-2.6Z"/><path class="cls-2" d="M307.61,388.66c0-1.85-.06-3.34-.12-4.72h2.36l.12,2.48H310a5.68,5.68,0,0,1,5.14-2.81c3.49,0,6.12,3,6.12,7.35,0,5.2-3.17,7.76-6.57,7.76a5.07,5.07,0,0,1-4.45-2.27h-.06v7.85h-2.6Zm2.6,3.85a5.89,5.89,0,0,0,.12,1.08,4.05,4.05,0,0,0,3.94,3.08c2.78,0,4.39-2.27,4.39-5.58,0-2.9-1.52-5.37-4.3-5.37a4.19,4.19,0,0,0-4,3.25,4.24,4.24,0,0,0-.18,1.07Z"/><path class="cls-2" d="M324.48,388.45c0-1.7,0-3.17-.12-4.51h2.3l.09,2.84h.12a4.34,4.34,0,0,1,4-3.17,2.85,2.85,0,0,1,.75.09v2.48a4,4,0,0,0-.9-.09c-1.85,0-3.17,1.4-3.52,3.37a7.36,7.36,0,0,0-.12,1.22v7.7h-2.6Z"/><path class="cls-2" d="M335.25,391.65c.06,3.55,2.33,5,5,5a9.5,9.5,0,0,0,4-.75l.45,1.88a11.71,11.71,0,0,1-4.81.9c-4.45,0-7.11-2.93-7.11-7.29s2.57-7.79,6.78-7.79c4.72,0,6,4.15,6,6.81a9.92,9.92,0,0,1-.09,1.22Zm7.7-1.88c0-1.67-.69-4.27-3.64-4.27-2.66,0-3.82,2.45-4,4.27Z"/><path class="cls-2" d="M348.27,395.71a6.88,6.88,0,0,0,3.46,1c1.91,0,2.81-1,2.81-2.15s-.75-1.94-2.69-2.66c-2.6-.93-3.82-2.36-3.82-4.09,0-2.33,1.88-4.24,5-4.24a7.22,7.22,0,0,1,3.55.9l-.66,1.91a5.63,5.63,0,0,0-3-.84c-1.55,0-2.42.9-2.42,2s.87,1.73,2.75,2.45c2.51,1,3.79,2.21,3.79,4.36,0,2.54-2,4.33-5.41,4.33a8.24,8.24,0,0,1-4.06-1Z"/><path class="cls-2" d="M359.94,395.71a6.88,6.88,0,0,0,3.46,1c1.91,0,2.81-1,2.81-2.15s-.75-1.94-2.69-2.66c-2.6-.93-3.82-2.36-3.82-4.09,0-2.33,1.88-4.24,5-4.24a7.22,7.22,0,0,1,3.55.9l-.66,1.91a5.63,5.63,0,0,0-3-.84c-1.55,0-2.42.9-2.42,2s.87,1.73,2.75,2.45c2.51,1,3.79,2.21,3.79,4.36,0,2.54-2,4.33-5.41,4.33a8.24,8.24,0,0,1-4.06-1Z"/><path class="cls-2" d="M384.07,394.45c0,1.49,0,2.81.12,3.94h-2.33l-.15-2.36h-.06a5.44,5.44,0,0,1-4.78,2.69c-2.27,0-5-1.25-5-6.33v-8.45h2.63v8c0,2.75.84,4.6,3.23,4.6a3.8,3.8,0,0,0,3.46-2.39,3.85,3.85,0,0,0,.24-1.34v-8.87h2.63Z"/><path class="cls-2" d="M388.31,388.45c0-1.7,0-3.17-.12-4.51h2.3l.09,2.84h.12a4.34,4.34,0,0,1,4-3.17,2.85,2.85,0,0,1,.75.09v2.48a4,4,0,0,0-.9-.09c-1.85,0-3.17,1.4-3.52,3.37a7.36,7.36,0,0,0-.12,1.22v7.7h-2.6Z"/><path class="cls-2" d="M399.08,391.65c.06,3.55,2.33,5,5,5a9.5,9.5,0,0,0,4-.75l.45,1.88a11.71,11.71,0,0,1-4.81.9c-4.45,0-7.11-2.93-7.11-7.29s2.57-7.79,6.78-7.79c4.72,0,6,4.15,6,6.81a9.92,9.92,0,0,1-.09,1.22Zm7.7-1.88c0-1.67-.69-4.27-3.64-4.27-2.66,0-3.82,2.45-4,4.27Z"/><path class="cls-3" d="M239.14,216.88c0-7,4-11.81,10.38-14.59V202c-5.64-2.86-8.41-7.61-8.41-12.71,0-9.84,8.86-16.38,20.49-16.38,13.6,0,19.24,7.88,19.24,14.95,0,5-2.68,9.93-8.41,12.8v.27c5.64,2.15,10.65,7,10.65,14.5,0,10.56-8.86,17.63-22.37,17.63C245.94,233.08,239.14,224.75,239.14,216.88Zm30.07-.45c0-5.1-3.76-8.14-9.13-9.58-4.47,1.25-7.07,4.47-7.07,8.68a8,8,0,0,0,8.23,8.14C266.08,223.68,269.21,220.55,269.21,216.43Zm-15.3-27.56c0,3.94,3.58,6.44,8.23,7.88a8,8,0,0,0,5.91-7.43c0-3.58-2.06-7.16-7.07-7.16C256.32,182.15,253.91,185.2,253.91,188.87Z"/><path class="cls-3" d="M294,222.25a32,32,0,0,0,5.91,0,23.38,23.38,0,0,0,11.46-3.58,18.08,18.08,0,0,0,7.34-10.74l-.27-.09c-2.6,2.68-6.35,4.21-11.63,4.21-9.84,0-18.17-6.89-18.17-18.17s9.13-20.94,21.93-20.94c14.95,0,22,11.46,22,25.06,0,12.08-3.85,20.94-10.2,26.76-5.55,5-13.16,7.79-22.19,8.14a47,47,0,0,1-6.18,0Zm8.23-29.17c0,5,2.69,9.31,8.23,9.31a8.57,8.57,0,0,0,7.52-3.85,6.41,6.41,0,0,0,.72-3.4c0-6.18-2.33-12.26-8.5-12.26C305.55,182.87,302.15,187,302.24,193.07Z"/><path class="cls-3" d="M370,190.21c0,12.17-7.7,18.53-16.11,18.53-8.86,0-15.84-6.62-15.84-17.54,0-10.38,6.35-18.26,16.29-18.26S370,180.28,370,190.21Zm-21.84.63c0,6.09,2.06,10.47,6,10.47s5.73-3.94,5.73-10.47c0-5.91-1.61-10.47-5.82-10.47C350,180.36,348.15,185,348.15,190.84Zm6.44,42.24L388,172.94h7.34l-33.47,60.14Zm57.28-18.7c0,12.17-7.7,18.53-16.11,18.53-8.77,0-15.75-6.62-15.84-17.54,0-10.38,6.35-18.26,16.29-18.26S411.87,204.44,411.87,214.37Zm-21.75.63c-.09,6.09,2,10.47,5.91,10.47s5.73-3.94,5.73-10.47c0-5.91-1.52-10.47-5.73-10.47S390.12,209.18,390.12,215Z"/><polyline class="cls-4" points="206.06 596.12 206.06 623.49 993.94 623.49 993.94 596.62"/><path class="cls-5" d="M459.93,612.56v-6.4l-4.77-8.69h2.22l2.13,4.16c.58,1.14,1,2.06,1.5,3.11h0c.43-1,.94-2,1.52-3.11l2.17-4.16H467l-5.06,8.66v6.42Z"/><path class="cls-5" d="M481.24,604.86c0,5.19-3.16,7.95-7,7.95s-6.78-3.09-6.78-7.66c0-4.79,3-7.92,7-7.92S481.24,600.39,481.24,604.86Zm-11.71.25c0,3.22,1.75,6.11,4.81,6.11s4.84-2.84,4.84-6.27c0-3-1.57-6.13-4.81-6.13S469.54,601.8,469.54,605.11Z"/><path class="cls-5" d="M486.15,597.48v8.93c0,3.38,1.5,4.81,3.51,4.81,2.24,0,3.67-1.48,3.67-4.81v-8.93h2v8.8c0,4.63-2.44,6.54-5.71,6.54-3.09,0-5.42-1.77-5.42-6.45v-8.89Z"/><path class="cls-5" d="M502,599.13h-4.59v-1.66h11.17v1.66H504v13.43h-2Z"/><path class="cls-5" d="M512.64,597.48v6.31h7.3v-6.31h2v15.09h-2v-7.07h-7.3v7.07h-1.95V597.48Z"/><path class="cls-5" d="M532.41,597.48v15.09h-1.95V597.48Z"/><path class="cls-5" d="M536.24,612.56V597.48h2.13l4.84,7.63a42.74,42.74,0,0,1,2.71,4.9l0,0c-.18-2-.22-3.85-.22-6.2v-6.31h1.84v15.09h-2l-4.79-7.66a48,48,0,0,1-2.82-5l-.07,0c.11,1.9.16,3.72.16,6.22v6.45Z"/><path class="cls-5" d="M558.61,607.82,557,612.56h-2l5.13-15.09h2.35l5.15,15.09h-2.08L564,607.82Zm4.95-1.52L562.08,602c-.34-1-.56-1.88-.78-2.75h0c-.22.9-.47,1.81-.76,2.73L559,606.3Z"/><path class="cls-5" d="M570.3,597.48h1.95v13.45h6.45v1.63H570.3Z"/><path class="cls-5" d="M581.32,597.48h1.95v13.45h6.45v1.63h-8.39Z"/><path class="cls-5" d="M597.06,597.48h8.13v1.63H599v5h5.71v1.61H599v6.83h-1.95Z"/><path class="cls-5" d="M608.41,597.48h1.95v13.45h6.45v1.63h-8.39Z"/><path class="cls-5" d="M620.92,612.56v-6.4l-4.77-8.69h2.22l2.13,4.16c.58,1.14,1,2.06,1.5,3.11h0c.43-1,.94-2,1.52-3.11l2.17-4.16H628l-5.06,8.66v6.42Z"/><path class="cls-5" d="M634.85,597.65a22.57,22.57,0,0,1,3.74-.29,6.2,6.2,0,0,1,4.23,1.25,4.06,4.06,0,0,1,1.32,3.16A4.44,4.44,0,0,1,643,605a6.25,6.25,0,0,1-4.61,1.66,6.71,6.71,0,0,1-1.57-.13v6h-1.95Zm1.95,7.27a6.53,6.53,0,0,0,1.61.16c2.35,0,3.78-1.14,3.78-3.22s-1.41-3-3.56-3a8.18,8.18,0,0,0-1.84.16Z"/><path class="cls-5" d="M647.19,597.68a20.27,20.27,0,0,1,3.74-.31c2.08,0,3.42.38,4.37,1.23a3.76,3.76,0,0,1,1.19,2.87,4,4,0,0,1-2.84,3.85v.07c1.16.4,1.86,1.48,2.22,3a24,24,0,0,0,1.16,4.14h-2a19.51,19.51,0,0,1-1-3.6c-.45-2.08-1.25-2.87-3-2.93h-1.84v6.54h-1.95Zm1.95,6.87h2c2.08,0,3.4-1.14,3.4-2.87,0-1.95-1.41-2.8-3.47-2.82a8,8,0,0,0-1.92.18Z"/><path class="cls-5" d="M672.65,604.86c0,5.19-3.16,7.95-7,7.95s-6.78-3.09-6.78-7.66c0-4.79,3-7.92,7-7.92S672.65,600.39,672.65,604.86Zm-11.71.25c0,3.22,1.75,6.11,4.81,6.11s4.84-2.84,4.84-6.27c0-3-1.57-6.13-4.81-6.13S660.94,601.8,660.94,605.11Z"/><path class="cls-5" d="M687.09,611.89a14.07,14.07,0,0,1-4.63.83,7.09,7.09,0,0,1-7.75-7.61c0-4.5,3.11-7.79,8.17-7.79a9.32,9.32,0,0,1,3.76.69l-.47,1.59a7.82,7.82,0,0,0-3.33-.65c-3.67,0-6.07,2.28-6.07,6.07s2.31,6.09,5.82,6.09a6.36,6.36,0,0,0,2.6-.4v-4.5h-3.07v-1.57h5Z"/><path class="cls-5" d="M690.52,597.68a20.27,20.27,0,0,1,3.74-.31c2.08,0,3.42.38,4.37,1.23a3.76,3.76,0,0,1,1.19,2.87,4,4,0,0,1-2.84,3.85v.07c1.16.4,1.86,1.48,2.22,3a24,24,0,0,0,1.16,4.14h-2a19.51,19.51,0,0,1-1-3.6c-.45-2.08-1.25-2.87-3-2.93h-1.84v6.54h-1.95Zm1.95,6.87h2c2.08,0,3.4-1.14,3.4-2.87,0-1.95-1.41-2.8-3.47-2.82a8,8,0,0,0-1.92.18Z"/><path class="cls-5" d="M705.54,607.82,704,612.56h-2l5.13-15.09h2.35l5.15,15.09H712.5l-1.61-4.75Zm4.95-1.52L709,602c-.34-1-.56-1.88-.78-2.75h0c-.22.9-.47,1.81-.76,2.73l-1.48,4.37Z"/><path class="cls-5" d="M729.86,605.94c-.11-2.1-.25-4.63-.22-6.51h-.07c-.51,1.77-1.14,3.65-1.9,5.73L725,612.47h-1.48l-2.44-7.19c-.72-2.13-1.32-4.07-1.75-5.86h0c0,1.88-.16,4.41-.29,6.67l-.4,6.47h-1.86l1.05-15.09h2.48l2.57,7.3c.63,1.86,1.14,3.51,1.52,5.08h.07c.38-1.52.92-3.18,1.59-5.08l2.69-7.3h2.48l.94,15.09h-1.9Z"/><path class="cls-5" d="M735.32,610.19a6.9,6.9,0,0,0,3.49,1c2,0,3.16-1.05,3.16-2.57s-.81-2.22-2.84-3c-2.46-.87-4-2.15-4-4.28,0-2.35,1.95-4.1,4.88-4.1a6.86,6.86,0,0,1,3.34.74l-.54,1.59a6,6,0,0,0-2.87-.72c-2.06,0-2.84,1.23-2.84,2.26,0,1.41.92,2.1,3,2.91,2.55,1,3.85,2.22,3.85,4.43s-1.72,4.34-5.28,4.34a7.8,7.8,0,0,1-3.85-1Z"/></svg>