<svg id="Layer_1" data-name="Layer 1" xmlns="http://www.w3.org/2000/svg" viewBox="0 0 480 360"><defs><style>.cls-1{fill:#5e294e;}.cls-2{fill:#fff;}.cls-3{fill:#621b4b;}.cls-4{fill:none;stroke:#621b4b;stroke-width:1.42px;}.cls-5{fill:#776441;}</style></defs><title>Outcomes-2-small</title><rect class="cls-1" x="91.57" y="81.05" width="141.83" height="223.86"/><rect class="cls-1" x="245.21" y="102.29" width="141.83" height="202.62"/><path class="cls-2" d="M116.17,94.38v10c0,.73,0,1.56.07,2.13h-1.34l-.07-1.43h0a3,3,0,0,1-2.81,1.62c-2,0-3.52-1.68-3.52-4.19,0-2.74,1.68-4.42,3.69-4.42a2.75,2.75,0,0,1,2.48,1.26h0V94.38Zm-1.5,7.2a2.61,2.61,0,0,0-.07-.63,2.2,2.2,0,0,0-2.16-1.74c-1.55,0-2.47,1.36-2.47,3.18,0,1.67.82,3,2.43,3a2.25,2.25,0,0,0,2.19-1.79,2.57,2.57,0,0,0,.07-.65Z"/><path class="cls-2" d="M120.32,95.92a.93.93,0,0,1-1.85,0,.91.91,0,0,1,.94-.94A.89.89,0,0,1,120.32,95.92Zm-1.67,10.55V98.23h1.5v8.23Z"/><path class="cls-2" d="M129.75,94.38v10c0,.73,0,1.56.07,2.13h-1.34l-.07-1.43h0a3,3,0,0,1-2.81,1.62c-2,0-3.52-1.68-3.52-4.19,0-2.74,1.68-4.42,3.69-4.42a2.75,2.75,0,0,1,2.48,1.26h0V94.38Zm-1.5,7.2a2.61,2.61,0,0,0-.07-.63A2.2,2.2,0,0,0,126,99.22c-1.55,0-2.47,1.36-2.47,3.18,0,1.67.82,3,2.43,3a2.25,2.25,0,0,0,2.19-1.79,2.57,2.57,0,0,0,.07-.65Z"/><path class="cls-2" d="M135.85,100.46c0-.85,0-1.55-.07-2.23h1.33l.08,1.36h0A3,3,0,0,1,139.95,98c1.14,0,2.91.68,2.91,3.5v4.92h-1.5v-4.75c0-1.33-.49-2.43-1.91-2.43a2.13,2.13,0,0,0-2,1.53,2.17,2.17,0,0,0-.1.7v5h-1.5Z"/><path class="cls-2" d="M152.74,102.28a4,4,0,0,1-4.1,4.37,3.92,3.92,0,0,1-3.95-4.24A4,4,0,0,1,148.78,98,3.9,3.9,0,0,1,152.74,102.28Zm-6.53.09c0,1.8,1,3.16,2.5,3.16s2.5-1.34,2.5-3.2c0-1.4-.7-3.16-2.47-3.16S146.21,100.8,146.21,102.36Z"/><path class="cls-2" d="M156.44,95.86v2.37h2.14v1.14h-2.14v4.44c0,1,.29,1.6,1.12,1.6a3.35,3.35,0,0,0,.87-.1l.07,1.12a3.67,3.67,0,0,1-1.33.2,2.07,2.07,0,0,1-1.62-.63,3,3,0,0,1-.58-2.14V99.37H153.7V98.23H155v-2Z"/><path class="cls-2" d="M163.67,104.93a3.92,3.92,0,0,0,2,.6c1.09,0,1.6-.54,1.6-1.23s-.42-1.11-1.53-1.51c-1.48-.53-2.18-1.34-2.18-2.33A2.54,2.54,0,0,1,166.38,98a4.11,4.11,0,0,1,2,.51L168,99.64a3.21,3.21,0,0,0-1.68-.48c-.88,0-1.38.51-1.38,1.12s.49,1,1.57,1.4c1.43.54,2.16,1.26,2.16,2.48,0,1.45-1.12,2.47-3.08,2.47a4.7,4.7,0,0,1-2.31-.56Z"/><path class="cls-2" d="M177.5,104.22c0,.85,0,1.6.07,2.25h-1.33l-.08-1.34h0a3.1,3.1,0,0,1-2.72,1.53c-1.29,0-2.84-.71-2.84-3.61V98.23h1.5v4.56c0,1.56.48,2.62,1.84,2.62a2.16,2.16,0,0,0,2-1.36,2.19,2.19,0,0,0,.14-.77V98.23h1.5Z"/><path class="cls-2" d="M179.79,104.93a3.92,3.92,0,0,0,2,.6c1.09,0,1.6-.54,1.6-1.23s-.42-1.11-1.53-1.51c-1.48-.53-2.18-1.34-2.18-2.33A2.54,2.54,0,0,1,182.49,98a4.11,4.11,0,0,1,2,.51l-.37,1.09a3.21,3.21,0,0,0-1.68-.48c-.88,0-1.38.51-1.38,1.12s.49,1,1.57,1.4c1.43.54,2.16,1.26,2.16,2.48,0,1.45-1.12,2.47-3.08,2.47a4.7,4.7,0,0,1-2.31-.56Z"/><path class="cls-2" d="M188.54,95.86v2.37h2.14v1.14h-2.14v4.44c0,1,.29,1.6,1.12,1.6a3.35,3.35,0,0,0,.87-.1l.07,1.12a3.67,3.67,0,0,1-1.33.2,2.07,2.07,0,0,1-1.62-.63,3,3,0,0,1-.58-2.14V99.37H185.8V98.23h1.28v-2Z"/><path class="cls-2" d="M196.92,106.46l-.12-1h-.05a3.07,3.07,0,0,1-2.52,1.22,2.35,2.35,0,0,1-2.52-2.36c0-2,1.77-3.08,5-3.06v-.17a1.7,1.7,0,0,0-1.87-1.91,4.1,4.1,0,0,0-2.14.61l-.34-1A5.11,5.11,0,0,1,195,98c2.52,0,3.13,1.72,3.13,3.37v3.08a11.54,11.54,0,0,0,.14,2Zm-.22-4.2c-1.63,0-3.49.25-3.49,1.85a1.32,1.32,0,0,0,1.41,1.43,2,2,0,0,0,2-1.38,1.54,1.54,0,0,0,.08-.48Z"/><path class="cls-2" d="M202.24,95.92a.93.93,0,0,1-1.85,0,.91.91,0,0,1,.94-.94A.89.89,0,0,1,202.24,95.92Zm-1.67,10.55V98.23h1.5v8.23Z"/><path class="cls-2" d="M204.55,100.46c0-.85,0-1.55-.07-2.23h1.33l.08,1.36h0A3,3,0,0,1,208.65,98c1.14,0,2.91.68,2.91,3.5v4.92h-1.5v-4.75c0-1.33-.49-2.43-1.91-2.43a2.13,2.13,0,0,0-2,1.53,2.17,2.17,0,0,0-.1.7v5h-1.5Z"/><path class="cls-2" d="M117,126.33l-.12-1h-.05a3.07,3.07,0,0,1-2.52,1.22,2.35,2.35,0,0,1-2.52-2.36c0-2,1.77-3.08,4.95-3.06v-.17a1.7,1.7,0,0,0-1.87-1.91,4.1,4.1,0,0,0-2.14.61l-.34-1a5.11,5.11,0,0,1,2.7-.73c2.52,0,3.13,1.72,3.13,3.37v3.08a11.59,11.59,0,0,0,.14,2Zm-.22-4.2c-1.63,0-3.49.26-3.49,1.85a1.32,1.32,0,0,0,1.41,1.43,2,2,0,0,0,2-1.38,1.56,1.56,0,0,0,.09-.48Zm7.47-1.8c0-.85,0-1.55-.07-2.23h1.33l.09,1.36h0a3,3,0,0,1,2.72-1.55c1.14,0,2.91.68,2.91,3.5v4.92h-1.5v-4.75c0-1.33-.49-2.43-1.91-2.43a2.13,2.13,0,0,0-2,1.53,2.15,2.15,0,0,0-.1.7v4.95h-1.5Zm10.28,2.16a2.64,2.64,0,0,0,2.82,2.86,5.41,5.41,0,0,0,2.28-.43l.26,1.07a6.67,6.67,0,0,1-2.74.51,3.82,3.82,0,0,1-4-4.15c0-2.48,1.46-4.44,3.86-4.44,2.69,0,3.4,2.36,3.4,3.88a5.65,5.65,0,0,1-.05.7Zm4.39-1.07a2.13,2.13,0,0,0-2.08-2.43,2.48,2.48,0,0,0-2.3,2.43Zm3.9-3.32,1.09,4.18c.24.92.46,1.77.61,2.62h.05c.19-.83.46-1.72.73-2.6l1.34-4.2h1.26l1.28,4.12c.31,1,.54,1.85.73,2.69H150a24.76,24.76,0,0,1,.63-2.67l1.17-4.13h1.48l-2.65,8.23h-1.36L148,122.4a27.44,27.44,0,0,1-.73-2.7h0a24.36,24.36,0,0,1-.75,2.72l-1.33,3.91h-1.36l-2.48-8.23Zm23,4a4,4,0,0,1-4.1,4.37,3.91,3.91,0,0,1-3.95-4.24,4,4,0,0,1,4.08-4.37A3.9,3.9,0,0,1,165.8,122.14Zm-6.53.09c0,1.8,1,3.16,2.5,3.16s2.5-1.34,2.5-3.2c0-1.39-.7-3.16-2.47-3.16S159.26,120.66,159.26,122.23Zm13.51,4.1v-7.09h-3.45v7.09h-1.48v-7.09h-1.16v-1.14h1.16v-.27a3.89,3.89,0,0,1,.92-2.81,2.81,2.81,0,0,1,2.08-.77,2.63,2.63,0,0,1,1.17.29l-.31,1.11a2.19,2.19,0,0,0-.88-.2c-1.17,0-1.5,1-1.5,2.3v.36h3.45v-.39a3.89,3.89,0,0,1,1-2.87,2.85,2.85,0,0,1,2-.77,3.4,3.4,0,0,1,1.28.24l-.19,1.16a2.32,2.32,0,0,0-1-.19c-1.26,0-1.6,1.12-1.6,2.38v.44h2v1.14h-2v7.09Zm5.45-3.84a2.64,2.64,0,0,0,2.82,2.86,5.41,5.41,0,0,0,2.28-.43l.26,1.07a6.67,6.67,0,0,1-2.74.51,3.82,3.82,0,0,1-4-4.15c0-2.48,1.46-4.44,3.86-4.44,2.69,0,3.4,2.36,3.4,3.88a5.65,5.65,0,0,1-.05.7Zm4.39-1.07a2.13,2.13,0,0,0-2.08-2.43,2.48,2.48,0,0,0-2.3,2.43Zm3.3-1.09c0-.85,0-1.55-.07-2.23h1.33l.09,1.36h0a3,3,0,0,1,2.72-1.55c1.14,0,2.91.68,2.91,3.5v4.92h-1.5v-4.75c0-1.33-.49-2.43-1.91-2.43a2.13,2.13,0,0,0-2,1.53,2.15,2.15,0,0,0-.1.7v4.95h-1.5Zm9.24,4.47a3.92,3.92,0,0,0,2,.6c1.09,0,1.6-.54,1.6-1.22s-.43-1.11-1.53-1.51c-1.48-.53-2.18-1.34-2.18-2.33a2.54,2.54,0,0,1,2.84-2.42,4.11,4.11,0,0,1,2,.51l-.37,1.09a3.2,3.2,0,0,0-1.68-.48c-.88,0-1.38.51-1.38,1.12s.49,1,1.56,1.39c1.43.54,2.16,1.26,2.16,2.48,0,1.45-1.12,2.47-3.08,2.47a4.69,4.69,0,0,1-2.31-.56Zm7.78-2.31a2.64,2.64,0,0,0,2.82,2.86,5.41,5.41,0,0,0,2.28-.43l.26,1.07a6.67,6.67,0,0,1-2.74.51,3.82,3.82,0,0,1-4-4.15c0-2.48,1.46-4.44,3.86-4.44,2.69,0,3.4,2.36,3.4,3.88a5.65,5.65,0,0,1-.05.7Zm4.39-1.07a2.13,2.13,0,0,0-2.08-2.43,2.48,2.48,0,0,0-2.3,2.43Z"/><path class="cls-2" d="M131.25,134.11v10c0,.73,0,1.56.07,2.13H130l-.07-1.43h0a3,3,0,0,1-2.81,1.62c-2,0-3.52-1.68-3.52-4.19,0-2.74,1.68-4.42,3.69-4.42a2.75,2.75,0,0,1,2.48,1.26h0v-4.92Zm-1.5,7.2a2.61,2.61,0,0,0-.07-.63,2.2,2.2,0,0,0-2.16-1.74c-1.55,0-2.47,1.36-2.47,3.18,0,1.67.82,3,2.43,3a2.25,2.25,0,0,0,2.19-1.79,2.57,2.57,0,0,0,.07-.65Z"/><path class="cls-2" d="M140.63,143.94c0,.85,0,1.6.07,2.25h-1.33l-.08-1.34h0a3.1,3.1,0,0,1-2.72,1.53c-1.29,0-2.84-.71-2.84-3.61V138h1.5v4.56c0,1.56.48,2.62,1.84,2.62a2.16,2.16,0,0,0,2-1.36,2.19,2.19,0,0,0,.14-.77V138h1.5Z"/><path class="cls-2" d="M143.11,140.52c0-1,0-1.8-.07-2.57h1.31l.05,1.62h.07a2.47,2.47,0,0,1,2.28-1.8,1.62,1.62,0,0,1,.43.05v1.41a2.24,2.24,0,0,0-.51-.05,2.1,2.1,0,0,0-2,1.92,4.2,4.2,0,0,0-.07.7v4.39h-1.48Z"/><path class="cls-2" d="M150.41,135.64a.93.93,0,0,1-1.85,0,.91.91,0,0,1,.94-.94A.89.89,0,0,1,150.41,135.64Zm-1.67,10.55V138h1.5v8.23Z"/><path class="cls-2" d="M152.73,140.18c0-.85,0-1.55-.07-2.23H154l.08,1.36h0a3,3,0,0,1,2.72-1.55c1.14,0,2.91.68,2.91,3.5v4.92h-1.5v-4.75c0-1.33-.49-2.43-1.91-2.43a2.13,2.13,0,0,0-2,1.53,2.17,2.17,0,0,0-.1.7v5h-1.5Z"/><path class="cls-2" d="M169.27,138c0,.6-.07,1.26-.07,2.26V145c0,1.89-.37,3-1.17,3.76a4.36,4.36,0,0,1-3,1,5.31,5.31,0,0,1-2.74-.68l.37-1.14a4.65,4.65,0,0,0,2.42.65c1.53,0,2.65-.8,2.65-2.87v-.92h0a2.94,2.94,0,0,1-2.62,1.38c-2,0-3.5-1.74-3.5-4,0-2.79,1.82-4.37,3.71-4.37a2.74,2.74,0,0,1,2.57,1.43h0L168,138Zm-1.55,3.25a2.12,2.12,0,0,0-.08-.68,2.16,2.16,0,0,0-2.09-1.58c-1.43,0-2.45,1.21-2.45,3.11,0,1.62.82,3,2.43,3a2.19,2.19,0,0,0,2.08-1.53,2.61,2.61,0,0,0,.12-.8Z"/><path class="cls-2" d="M177.1,135.59V138h2.14v1.14H177.1v4.44c0,1,.29,1.6,1.12,1.6a3.35,3.35,0,0,0,.87-.1l.07,1.12a3.67,3.67,0,0,1-1.33.2,2.07,2.07,0,0,1-1.62-.63,3,3,0,0,1-.58-2.14v-4.49h-1.28V138h1.28v-2Z"/><path class="cls-2" d="M180.93,134.11h1.5v5.14h0a2.78,2.78,0,0,1,1.07-1.06,3.08,3.08,0,0,1,1.53-.43c1.11,0,2.88.68,2.88,3.52v4.9h-1.5v-4.73c0-1.33-.49-2.45-1.91-2.45a2.15,2.15,0,0,0-2,1.5,1.82,1.82,0,0,0-.1.71v5h-1.5Z"/><path class="cls-2" d="M191.21,142.34A2.64,2.64,0,0,0,194,145.2a5.41,5.41,0,0,0,2.28-.43l.25,1.07a6.67,6.67,0,0,1-2.74.51,3.82,3.82,0,0,1-4-4.15c0-2.48,1.46-4.44,3.86-4.44,2.69,0,3.4,2.37,3.4,3.88a5.73,5.73,0,0,1-.05.7Zm4.39-1.07a2.13,2.13,0,0,0-2.08-2.43,2.48,2.48,0,0,0-2.3,2.43Z"/><path class="cls-2" d="M113.79,160.5c0-1.05,0-1.91-.07-2.69h1.34l.07,1.41h0a3.24,3.24,0,0,1,2.93-1.6c2,0,3.49,1.68,3.49,4.19,0,3-1.8,4.42-3.74,4.42a2.89,2.89,0,0,1-2.54-1.29h0v4.47h-1.48Zm1.48,2.19a3.36,3.36,0,0,0,.07.61,2.31,2.31,0,0,0,2.25,1.75c1.58,0,2.5-1.29,2.5-3.18,0-1.65-.87-3.06-2.45-3.06a2.39,2.39,0,0,0-2.26,1.85,2.44,2.44,0,0,0-.1.61Z"/><path class="cls-2" d="M123.47,160.38c0-1,0-1.8-.07-2.57h1.31l.05,1.62h.07a2.47,2.47,0,0,1,2.28-1.8,1.62,1.62,0,0,1,.43.05v1.41A2.24,2.24,0,0,0,127,159a2.1,2.1,0,0,0-2,1.92,4.2,4.2,0,0,0-.07.7V166h-1.48Z"/><path class="cls-2" d="M136.34,161.86a4,4,0,0,1-4.1,4.37,3.92,3.92,0,0,1-3.95-4.24,4,4,0,0,1,4.08-4.37A3.9,3.9,0,0,1,136.34,161.86Zm-6.53.09c0,1.8,1,3.16,2.5,3.16s2.5-1.34,2.5-3.2c0-1.4-.7-3.16-2.47-3.16S129.8,160.38,129.8,161.95Z"/><path class="cls-2" d="M145.32,157.81c0,.6-.07,1.26-.07,2.26v4.78c0,1.89-.37,3-1.17,3.76a4.36,4.36,0,0,1-3,1,5.31,5.31,0,0,1-2.74-.68l.37-1.14a4.65,4.65,0,0,0,2.42.65c1.53,0,2.65-.8,2.65-2.87v-.92h0a2.94,2.94,0,0,1-2.62,1.38c-2,0-3.5-1.74-3.5-4,0-2.79,1.82-4.37,3.71-4.37a2.74,2.74,0,0,1,2.57,1.43h0l.07-1.24Zm-1.55,3.25a2.12,2.12,0,0,0-.08-.68,2.16,2.16,0,0,0-2.09-1.58c-1.43,0-2.45,1.21-2.45,3.11,0,1.62.82,3,2.43,3a2.19,2.19,0,0,0,2.08-1.53,2.61,2.61,0,0,0,.12-.8Z"/><path class="cls-2" d="M147.66,160.38c0-1,0-1.8-.07-2.57h1.31l.05,1.62H149a2.47,2.47,0,0,1,2.28-1.8,1.62,1.62,0,0,1,.43.05v1.41a2.24,2.24,0,0,0-.51-.05,2.1,2.1,0,0,0-2,1.92,4.2,4.2,0,0,0-.07.7V166h-1.48Z"/><path class="cls-2" d="M157.71,166l-.12-1h-.05a3.07,3.07,0,0,1-2.52,1.22,2.35,2.35,0,0,1-2.52-2.36c0-2,1.77-3.08,5-3.06v-.17a1.7,1.7,0,0,0-1.87-1.91,4.1,4.1,0,0,0-2.14.61l-.34-1a5.11,5.11,0,0,1,2.71-.73c2.52,0,3.13,1.72,3.13,3.37v3.08a11.54,11.54,0,0,0,.14,2Zm-.22-4.2c-1.63,0-3.49.25-3.49,1.85a1.32,1.32,0,0,0,1.41,1.43,2,2,0,0,0,2-1.38,1.54,1.54,0,0,0,.08-.48Z"/><path class="cls-2" d="M161.36,160c0-.85,0-1.55-.07-2.23h1.31l.07,1.33h.05a2.84,2.84,0,0,1,2.59-1.51,2.43,2.43,0,0,1,2.33,1.65h0a3.41,3.41,0,0,1,.92-1.07,2.81,2.81,0,0,1,1.82-.58c1.09,0,2.71.71,2.71,3.57V166h-1.46v-4.66c0-1.58-.58-2.54-1.79-2.54a1.94,1.94,0,0,0-1.77,1.36,2.45,2.45,0,0,0-.12.75V166h-1.46v-4.93c0-1.31-.58-2.26-1.72-2.26a2,2,0,0,0-1.85,1.5,2.07,2.07,0,0,0-.12.73v5h-1.46Z"/><path class="cls-2" d="M179.7,157.81l1.8,4.87c.19.54.39,1.19.53,1.68h0c.15-.49.32-1.12.53-1.72l1.63-4.83h1.58l-2.25,5.87c-1.07,2.82-1.8,4.27-2.82,5.15a4.05,4.05,0,0,1-1.84,1l-.37-1.26a4,4,0,0,0,1.31-.73,4.55,4.55,0,0,0,1.26-1.67,1.07,1.07,0,0,0,.12-.36,1.3,1.3,0,0,0-.1-.39l-3-7.59Z"/><path class="cls-2" d="M187.85,162.2a2.64,2.64,0,0,0,2.83,2.86,5.41,5.41,0,0,0,2.28-.43l.25,1.07a6.67,6.67,0,0,1-2.74.51,3.82,3.82,0,0,1-4-4.15c0-2.48,1.46-4.44,3.86-4.44,2.69,0,3.4,2.37,3.4,3.88a5.73,5.73,0,0,1-.05.7Zm4.39-1.07a2.13,2.13,0,0,0-2.08-2.43,2.48,2.48,0,0,0-2.3,2.43Z"/><path class="cls-2" d="M200.11,166l-.12-1h-.05a3.07,3.07,0,0,1-2.52,1.22,2.35,2.35,0,0,1-2.52-2.36c0-2,1.77-3.08,5-3.06v-.17a1.7,1.7,0,0,0-1.87-1.91,4.1,4.1,0,0,0-2.14.61l-.34-1a5.11,5.11,0,0,1,2.71-.73c2.52,0,3.13,1.72,3.13,3.37v3.08a11.54,11.54,0,0,0,.14,2Zm-.22-4.2c-1.63,0-3.49.25-3.49,1.85a1.32,1.32,0,0,0,1.41,1.43,2,2,0,0,0,2-1.38,1.54,1.54,0,0,0,.08-.48Z"/><path class="cls-2" d="M203.75,160.38c0-1,0-1.8-.07-2.57H205l.05,1.62h.07a2.47,2.47,0,0,1,2.28-1.8,1.62,1.62,0,0,1,.43.05v1.41a2.24,2.24,0,0,0-.51-.05,2.1,2.1,0,0,0-2,1.92,4.2,4.2,0,0,0-.07.7V166h-1.48Z"/><path class="cls-3" d="M111.56,66.76a18.28,18.28,0,0,0,3.37,0,13.33,13.33,0,0,0,6.53-2,10.31,10.31,0,0,0,4.18-6.12l-.15-.05c-1.48,1.53-3.62,2.4-6.63,2.4A10,10,0,0,1,108.5,50.59c0-6.48,5.2-11.94,12.5-11.94,8.52,0,12.55,6.53,12.55,14.29,0,6.89-2.19,11.94-5.82,15.26-3.16,2.86-7.5,4.44-12.65,4.64a26.9,26.9,0,0,1-3.52,0Zm4.7-16.63c0,2.86,1.53,5.31,4.69,5.31a4.89,4.89,0,0,0,4.29-2.19,3.66,3.66,0,0,0,.41-1.94c0-3.52-1.33-7-4.85-7C118.14,44.31,116.2,46.66,116.26,50.13Z"/><path class="cls-3" d="M159.57,45.59H146.71l-.71,5.1a14.43,14.43,0,0,1,2.14-.1,15.17,15.17,0,0,1,8.73,2.4c2.5,1.68,4,4.44,4,8.32,0,6.17-5.31,11.63-14.24,11.63A21.07,21.07,0,0,1,137.43,71l1.38-5.82a19.06,19.06,0,0,0,7.5,1.63c3.21,0,6.63-1.53,6.63-5.05s-2.71-5.51-9.34-5.51a28.63,28.63,0,0,0-4.49.31l2.19-17.4h18.27Z"/><path class="cls-3" d="M183.19,48.5c0,6.94-4.39,10.56-9.18,10.56-5.05,0-9-3.78-9-10,0-5.92,3.62-10.41,9.29-10.41S183.19,42.83,183.19,48.5Zm-12.45.36c0,3.47,1.17,6,3.42,6s3.27-2.25,3.27-6c0-3.37-.92-6-3.32-6S170.74,45.54,170.74,48.85Zm3.67,24.08,19-34.29h4.18L178.55,72.94Zm32.66-10.66c0,6.94-4.39,10.56-9.18,10.56-5,0-9-3.78-9-10,0-5.92,3.62-10.41,9.29-10.41S207.07,56.61,207.07,62.27Zm-12.4.36c-.05,3.47,1.12,6,3.37,6s3.27-2.25,3.27-6c0-3.37-.87-6-3.27-6S194.67,59.31,194.67,62.63Z"/><path class="cls-2" d="M273.86,121.09a4,4,0,0,1-4.1,4.37,3.92,3.92,0,0,1-3.95-4.24,4,4,0,0,1,4.08-4.37A3.9,3.9,0,0,1,273.86,121.09Zm-6.53.09c0,1.8,1,3.16,2.5,3.16s2.5-1.34,2.5-3.2c0-1.4-.7-3.16-2.47-3.16S267.33,119.61,267.33,121.18Z"/><path class="cls-2" d="M275.91,125.28v-7.09h-1.16V117h1.16v-.39a3.88,3.88,0,0,1,1-2.87,2.87,2.87,0,0,1,2-.77,3.49,3.49,0,0,1,1.28.24l-.2,1.16a2.24,2.24,0,0,0-1-.19c-1.28,0-1.6,1.12-1.6,2.38V117h2v1.14h-2v7.09Z"/><path class="cls-2" d="M285.17,121.44a2.64,2.64,0,0,0,2.82,2.86,5.41,5.41,0,0,0,2.28-.43l.25,1.07a6.67,6.67,0,0,1-2.74.51,3.82,3.82,0,0,1-4-4.15c0-2.48,1.46-4.44,3.86-4.44,2.69,0,3.4,2.37,3.4,3.88a5.73,5.73,0,0,1-.05.7Zm4.39-1.07a2.13,2.13,0,0,0-2.08-2.43,2.48,2.48,0,0,0-2.3,2.43Z"/><path class="cls-2" d="M292.86,113.2h1.5v12.08h-1.5Z"/><path class="cls-2" d="M298.54,114.73a.93.93,0,0,1-1.85,0,.91.91,0,0,1,.94-.94A.89.89,0,0,1,298.54,114.73Zm-1.67,10.55V117h1.5v8.23Z"/><path class="cls-2" d="M308,117c0,.6-.07,1.26-.07,2.26v4.78c0,1.89-.37,3-1.17,3.76a4.36,4.36,0,0,1-3,1,5.31,5.31,0,0,1-2.74-.68l.37-1.14a4.65,4.65,0,0,0,2.42.65c1.53,0,2.65-.8,2.65-2.87v-.92h0a2.94,2.94,0,0,1-2.62,1.38c-2,0-3.5-1.74-3.5-4,0-2.79,1.82-4.37,3.71-4.37a2.74,2.74,0,0,1,2.57,1.43h0l.07-1.24Zm-1.55,3.25a2.12,2.12,0,0,0-.08-.68,2.16,2.16,0,0,0-2.09-1.58c-1.43,0-2.45,1.21-2.45,3.11,0,1.62.82,3,2.43,3a2.19,2.19,0,0,0,2.08-1.53,2.61,2.61,0,0,0,.12-.8Z"/><path class="cls-2" d="M311.94,114.73a.93.93,0,0,1-1.85,0,.91.91,0,0,1,.94-.94A.89.89,0,0,1,311.94,114.73Zm-1.67,10.55V117h1.5v8.23Z"/><path class="cls-2" d="M314.18,125.28c0-.56.07-1.4.07-2.13v-10h1.48v5.17h0a3.07,3.07,0,0,1,2.81-1.51c2,0,3.49,1.7,3.47,4.2,0,2.94-1.85,4.41-3.69,4.41a2.93,2.93,0,0,1-2.76-1.55h-.05l-.07,1.36Zm1.55-3.3a2.79,2.79,0,0,0,.07.54,2.31,2.31,0,0,0,2.25,1.75c1.57,0,2.5-1.28,2.5-3.16,0-1.65-.85-3.06-2.45-3.06a2.39,2.39,0,0,0-2.28,1.84,2.94,2.94,0,0,0-.08.61Z"/><path class="cls-2" d="M323.94,113.2h1.5v12.08h-1.5Z"/><path class="cls-2" d="M328.79,121.44a2.64,2.64,0,0,0,2.82,2.86,5.41,5.41,0,0,0,2.28-.43l.25,1.07a6.67,6.67,0,0,1-2.74.51,3.82,3.82,0,0,1-4-4.15c0-2.48,1.46-4.44,3.86-4.44,2.69,0,3.4,2.37,3.4,3.88a5.73,5.73,0,0,1-.05.7Zm4.39-1.07a2.13,2.13,0,0,0-2.08-2.43,2.48,2.48,0,0,0-2.3,2.43Z"/><path class="cls-2" d="M340.09,113.2h1.5v5.14h0a2.78,2.78,0,0,1,1.07-1.06,3.08,3.08,0,0,1,1.53-.43c1.11,0,2.88.68,2.88,3.52v4.9h-1.5v-4.73c0-1.33-.49-2.45-1.91-2.45a2.15,2.15,0,0,0-2,1.5,1.82,1.82,0,0,0-.1.71v5h-1.5Z"/><path class="cls-2" d="M351.2,114.73a.93.93,0,0,1-1.85,0,.91.91,0,0,1,.94-.94A.89.89,0,0,1,351.2,114.73Zm-1.67,10.55V117H351v8.23Z"/><path class="cls-2" d="M360.61,117c0,.6-.07,1.26-.07,2.26v4.78c0,1.89-.37,3-1.17,3.76a4.36,4.36,0,0,1-3,1,5.31,5.31,0,0,1-2.74-.68L354,127a4.65,4.65,0,0,0,2.42.65c1.53,0,2.65-.8,2.65-2.87v-.92h0a2.94,2.94,0,0,1-2.62,1.38c-2,0-3.5-1.74-3.5-4,0-2.79,1.82-4.37,3.71-4.37a2.74,2.74,0,0,1,2.57,1.43h0l.07-1.24Zm-1.55,3.25a2.12,2.12,0,0,0-.08-.68,2.16,2.16,0,0,0-2.09-1.58c-1.43,0-2.45,1.21-2.45,3.11,0,1.62.82,3,2.43,3a2.19,2.19,0,0,0,2.08-1.53,2.61,2.61,0,0,0,.12-.8Z"/><path class="cls-2" d="M363,113.2h1.5v5.14h0a2.78,2.78,0,0,1,1.07-1.06,3.08,3.08,0,0,1,1.53-.43c1.11,0,2.88.68,2.88,3.52v4.9h-1.5v-4.73c0-1.33-.49-2.45-1.91-2.45a2.15,2.15,0,0,0-2,1.5,1.82,1.82,0,0,0-.1.71v5H363Z"/><path class="cls-2" d="M269,143.61a3.92,3.92,0,0,0,2,.6c1.09,0,1.6-.54,1.6-1.23s-.42-1.11-1.53-1.51c-1.48-.53-2.18-1.34-2.18-2.33a2.54,2.54,0,0,1,2.84-2.42,4.11,4.11,0,0,1,2,.51l-.37,1.09a3.21,3.21,0,0,0-1.68-.48c-.88,0-1.38.51-1.38,1.12s.49,1,1.57,1.4c1.43.54,2.16,1.26,2.16,2.48,0,1.45-1.12,2.47-3.08,2.47a4.7,4.7,0,0,1-2.31-.56Z"/><path class="cls-2" d="M281.81,144.84a5.51,5.51,0,0,1-2.36.48,3.91,3.91,0,0,1-4.1-4.2,4.18,4.18,0,0,1,4.42-4.37,5,5,0,0,1,2.08.43l-.34,1.16a3.47,3.47,0,0,0-1.74-.39,3.1,3.1,0,0,0-.05,6.19,4.26,4.26,0,0,0,1.84-.41Z"/><path class="cls-2" d="M283.57,133.06h1.5v5.14h0a2.78,2.78,0,0,1,1.07-1.06,3.08,3.08,0,0,1,1.53-.43c1.11,0,2.88.68,2.88,3.52v4.9h-1.5v-4.73c0-1.33-.49-2.45-1.91-2.45a2.15,2.15,0,0,0-2,1.5,1.82,1.82,0,0,0-.1.71v5h-1.5Z"/><path class="cls-2" d="M300.46,141a4,4,0,0,1-4.1,4.37,3.92,3.92,0,0,1-3.95-4.24,4,4,0,0,1,4.08-4.37A3.9,3.9,0,0,1,300.46,141Zm-6.53.09c0,1.8,1,3.16,2.5,3.16s2.5-1.34,2.5-3.2c0-1.4-.7-3.16-2.47-3.16S293.93,139.48,293.93,141Z"/><path class="cls-2" d="M309.81,141a4,4,0,0,1-4.1,4.37,3.92,3.92,0,0,1-3.95-4.24,4,4,0,0,1,4.08-4.37A3.9,3.9,0,0,1,309.81,141Zm-6.53.09c0,1.8,1,3.16,2.5,3.16s2.5-1.34,2.5-3.2c0-1.4-.7-3.16-2.47-3.16S303.27,139.48,303.27,141Z"/><path class="cls-2" d="M311.7,133.06h1.5v12.08h-1.5Z"/><path class="cls-2" d="M319.12,143.61a3.92,3.92,0,0,0,2,.6c1.09,0,1.6-.54,1.6-1.23s-.42-1.11-1.53-1.51c-1.48-.53-2.18-1.34-2.18-2.33a2.54,2.54,0,0,1,2.84-2.42,4.11,4.11,0,0,1,2,.51l-.37,1.09a3.21,3.21,0,0,0-1.68-.48c-.88,0-1.38.51-1.38,1.12s.49,1,1.57,1.4c1.43.54,2.16,1.26,2.16,2.48,0,1.45-1.12,2.47-3.08,2.47a4.7,4.7,0,0,1-2.31-.56Z"/><path class="cls-2" d="M326.9,141.3a2.64,2.64,0,0,0,2.83,2.86,5.41,5.41,0,0,0,2.28-.43l.25,1.07a6.67,6.67,0,0,1-2.74.51,3.82,3.82,0,0,1-4-4.15c0-2.48,1.46-4.44,3.86-4.44,2.69,0,3.4,2.37,3.4,3.88a5.73,5.73,0,0,1-.05.7Zm4.39-1.07a2.13,2.13,0,0,0-2.08-2.43,2.48,2.48,0,0,0-2.3,2.43Z"/><path class="cls-2" d="M334.59,139.14c0-.85,0-1.55-.07-2.23h1.33l.08,1.36h0a3,3,0,0,1,2.72-1.55c1.14,0,2.91.68,2.91,3.5v4.92h-1.5v-4.75c0-1.33-.49-2.43-1.91-2.43a2.13,2.13,0,0,0-2,1.53,2.17,2.17,0,0,0-.1.7v5h-1.5Z"/><path class="cls-2" d="M345.7,134.59a.93.93,0,0,1-1.85,0,.91.91,0,0,1,.94-.94A.89.89,0,0,1,345.7,134.59ZM344,145.14v-8.23h1.5v8.23Z"/><path class="cls-2" d="M355.47,141a4,4,0,0,1-4.1,4.37,3.92,3.92,0,0,1-3.95-4.24,4,4,0,0,1,4.08-4.37A3.9,3.9,0,0,1,355.47,141Zm-6.53.09c0,1.8,1,3.16,2.5,3.16s2.5-1.34,2.5-3.2c0-1.4-.7-3.16-2.47-3.16S348.94,139.48,348.94,141Z"/><path class="cls-2" d="M357.36,139.48c0-1,0-1.8-.07-2.57h1.31l.05,1.62h.07a2.47,2.47,0,0,1,2.28-1.8,1.62,1.62,0,0,1,.43.05v1.41a2.24,2.24,0,0,0-.51-.05,2.1,2.1,0,0,0-2,1.92,4.2,4.2,0,0,0-.07.7v4.39h-1.48Z"/><path class="cls-2" d="M362.72,143.61a3.92,3.92,0,0,0,2,.6c1.09,0,1.6-.54,1.6-1.23s-.42-1.11-1.53-1.51c-1.48-.53-2.18-1.34-2.18-2.33a2.54,2.54,0,0,1,2.84-2.42,4.11,4.11,0,0,1,2,.51l-.37,1.09a3.21,3.21,0,0,0-1.68-.48c-.88,0-1.38.51-1.38,1.12s.49,1,1.57,1.4c1.43.54,2.16,1.26,2.16,2.48,0,1.45-1.12,2.47-3.08,2.47a4.7,4.7,0,0,1-2.31-.56Z"/><path class="cls-2" d="M270.83,156.77c0,.6-.07,1.26-.07,2.26v4.78c0,1.89-.37,3-1.17,3.76a4.36,4.36,0,0,1-3,1,5.31,5.31,0,0,1-2.74-.68l.37-1.14a4.65,4.65,0,0,0,2.42.65c1.53,0,2.65-.8,2.65-2.87v-.92h0a2.94,2.94,0,0,1-2.62,1.38c-2,0-3.5-1.74-3.5-4,0-2.79,1.82-4.37,3.71-4.37a2.74,2.74,0,0,1,2.57,1.43h0l.07-1.24ZM269.29,160a2.12,2.12,0,0,0-.08-.68,2.16,2.16,0,0,0-2.09-1.58c-1.43,0-2.45,1.21-2.45,3.11,0,1.62.82,3,2.43,3a2.19,2.19,0,0,0,2.08-1.53,2.61,2.61,0,0,0,.12-.8Z"/><path class="cls-2" d="M273.17,159.34c0-1,0-1.8-.07-2.57h1.31l.05,1.62h.07a2.47,2.47,0,0,1,2.28-1.8,1.62,1.62,0,0,1,.43.05V158a2.24,2.24,0,0,0-.51-.05,2.1,2.1,0,0,0-2,1.92,4.2,4.2,0,0,0-.07.7V165h-1.48Z"/><path class="cls-2" d="M283.22,165l-.12-1h-.05a3.07,3.07,0,0,1-2.52,1.22,2.35,2.35,0,0,1-2.52-2.36c0-2,1.77-3.08,5-3.06v-.17a1.7,1.7,0,0,0-1.87-1.91,4.1,4.1,0,0,0-2.14.61l-.34-1a5.11,5.11,0,0,1,2.71-.73c2.52,0,3.13,1.72,3.13,3.37V163a11.54,11.54,0,0,0,.14,2Zm-.22-4.2c-1.63,0-3.49.25-3.49,1.85a1.32,1.32,0,0,0,1.41,1.43,2,2,0,0,0,2-1.38,1.54,1.54,0,0,0,.08-.48Z"/><path class="cls-2" d="M294,152.92v10c0,.73,0,1.56.07,2.13H292.7l-.07-1.43h0a3,3,0,0,1-2.81,1.62c-2,0-3.52-1.68-3.52-4.19,0-2.74,1.68-4.42,3.69-4.42a2.75,2.75,0,0,1,2.48,1.26h0v-4.92Zm-1.5,7.2a2.61,2.61,0,0,0-.07-.63,2.2,2.2,0,0,0-2.16-1.74c-1.55,0-2.47,1.36-2.47,3.18,0,1.67.82,3,2.43,3a2.25,2.25,0,0,0,2.19-1.79,2.57,2.57,0,0,0,.07-.65Z"/><path class="cls-2" d="M303.36,162.76c0,.85,0,1.6.07,2.25H302.1l-.08-1.34h0a3.1,3.1,0,0,1-2.72,1.53c-1.29,0-2.84-.71-2.84-3.61v-4.81h1.5v4.56c0,1.56.48,2.62,1.84,2.62a2.16,2.16,0,0,0,2-1.36,2.19,2.19,0,0,0,.14-.77v-5.05h1.5Z"/><path class="cls-2" d="M310.4,165l-.12-1h-.05a3.07,3.07,0,0,1-2.52,1.22,2.35,2.35,0,0,1-2.52-2.36c0-2,1.77-3.08,5-3.06v-.17a1.7,1.7,0,0,0-1.87-1.91,4.1,4.1,0,0,0-2.14.61l-.34-1a5.11,5.11,0,0,1,2.71-.73c2.52,0,3.13,1.72,3.13,3.37V163a11.54,11.54,0,0,0,.14,2Zm-.22-4.2c-1.63,0-3.49.25-3.49,1.85a1.32,1.32,0,0,0,1.41,1.43,2,2,0,0,0,2-1.38,1.54,1.54,0,0,0,.08-.48Z"/><path class="cls-2" d="M315.8,154.4v2.37h2.14v1.14H315.8v4.44c0,1,.29,1.6,1.12,1.6a3.35,3.35,0,0,0,.87-.1l.07,1.12a3.67,3.67,0,0,1-1.33.2,2.07,2.07,0,0,1-1.62-.63,3,3,0,0,1-.58-2.14v-4.49h-1.28v-1.14h1.28v-2Z"/><path class="cls-2" d="M320.36,161.16a2.64,2.64,0,0,0,2.83,2.86,5.41,5.41,0,0,0,2.28-.43l.25,1.07a6.67,6.67,0,0,1-2.74.51,3.82,3.82,0,0,1-4-4.15c0-2.48,1.46-4.44,3.86-4.44,2.69,0,3.4,2.37,3.4,3.88a5.73,5.73,0,0,1-.05.7Zm4.39-1.07a2.13,2.13,0,0,0-2.08-2.43,2.48,2.48,0,0,0-2.3,2.43Z"/><path class="cls-2" d="M335.17,152.92v10c0,.73,0,1.56.07,2.13h-1.34l-.07-1.43h0a3,3,0,0,1-2.81,1.62c-2,0-3.52-1.68-3.52-4.19,0-2.74,1.68-4.42,3.69-4.42a2.75,2.75,0,0,1,2.48,1.26h0v-4.92Zm-1.5,7.2a2.61,2.61,0,0,0-.07-.63,2.2,2.2,0,0,0-2.16-1.74c-1.55,0-2.47,1.36-2.47,3.18,0,1.67.82,3,2.43,3a2.25,2.25,0,0,0,2.19-1.79,2.57,2.57,0,0,0,.07-.65Z"/><path class="cls-2" d="M341.41,165v-7.09h-1.16v-1.14h1.16v-.39a3.88,3.88,0,0,1,1-2.87,2.87,2.87,0,0,1,2-.77,3.49,3.49,0,0,1,1.28.24l-.2,1.16a2.24,2.24,0,0,0-1-.19c-1.28,0-1.6,1.12-1.6,2.38v.44h2v1.14h-2V165Z"/><path class="cls-2" d="M346.23,159.34c0-1,0-1.8-.07-2.57h1.31l.05,1.62h.07a2.47,2.47,0,0,1,2.28-1.8,1.62,1.62,0,0,1,.43.05V158a2.24,2.24,0,0,0-.51-.05,2.1,2.1,0,0,0-2,1.92,4.2,4.2,0,0,0-.07.7V165h-1.48Z"/><path class="cls-2" d="M359.08,160.82a4,4,0,0,1-4.1,4.37A3.92,3.92,0,0,1,351,161a4,4,0,0,1,4.08-4.37A3.9,3.9,0,0,1,359.08,160.82Zm-6.53.09c0,1.8,1,3.16,2.5,3.16s2.5-1.34,2.5-3.2c0-1.4-.7-3.16-2.47-3.16S352.54,159.34,352.54,160.9Z"/><path class="cls-2" d="M361,159c0-.85,0-1.55-.07-2.23h1.31l.07,1.33h.05a2.84,2.84,0,0,1,2.59-1.51,2.43,2.43,0,0,1,2.33,1.65h0a3.41,3.41,0,0,1,.92-1.07,2.81,2.81,0,0,1,1.82-.58c1.09,0,2.71.71,2.71,3.57V165h-1.46v-4.66c0-1.58-.58-2.54-1.79-2.54a1.94,1.94,0,0,0-1.77,1.36,2.45,2.45,0,0,0-.12.75V165h-1.46v-4.93c0-1.31-.58-2.26-1.72-2.26a2,2,0,0,0-1.85,1.5,2.07,2.07,0,0,0-.12.73v5H361Z"/><path class="cls-2" d="M268.91,172.78h1.5v5.14h0a2.78,2.78,0,0,1,1.07-1.06,3.08,3.08,0,0,1,1.53-.43c1.11,0,2.88.68,2.88,3.52v4.9h-1.5v-4.73c0-1.33-.49-2.45-1.91-2.45a2.15,2.15,0,0,0-2,1.5,1.82,1.82,0,0,0-.1.71v5h-1.5Z"/><path class="cls-2" d="M280,174.32a.93.93,0,0,1-1.85,0,.91.91,0,0,1,.94-.94A.89.89,0,0,1,280,174.32Zm-1.67,10.55v-8.23h1.5v8.23Z"/><path class="cls-2" d="M289.43,176.63c0,.6-.07,1.26-.07,2.26v4.78c0,1.89-.37,3-1.17,3.76a4.36,4.36,0,0,1-3,1,5.31,5.31,0,0,1-2.74-.68l.37-1.14a4.65,4.65,0,0,0,2.42.65c1.53,0,2.65-.8,2.65-2.87v-.92h0a2.94,2.94,0,0,1-2.62,1.38c-2,0-3.5-1.74-3.5-4,0-2.79,1.82-4.37,3.71-4.37a2.74,2.74,0,0,1,2.57,1.43h0l.07-1.24Zm-1.55,3.25a2.12,2.12,0,0,0-.08-.68,2.16,2.16,0,0,0-2.09-1.58c-1.43,0-2.45,1.21-2.45,3.11,0,1.62.82,3,2.43,3a2.19,2.19,0,0,0,2.08-1.53,2.61,2.61,0,0,0,.12-.8Z"/><path class="cls-2" d="M291.85,172.78h1.5v5.14h0a2.78,2.78,0,0,1,1.07-1.06,3.08,3.08,0,0,1,1.53-.43c1.11,0,2.88.68,2.88,3.52v4.9h-1.5v-4.73c0-1.33-.49-2.45-1.91-2.45a2.15,2.15,0,0,0-2,1.5,1.82,1.82,0,0,0-.1.71v5h-1.5Z"/><path class="cls-2" d="M304.7,183.33a3.92,3.92,0,0,0,2,.6c1.09,0,1.6-.54,1.6-1.23s-.42-1.11-1.53-1.51c-1.48-.53-2.18-1.34-2.18-2.33a2.54,2.54,0,0,1,2.84-2.42,4.11,4.11,0,0,1,2,.51l-.37,1.09a3.21,3.21,0,0,0-1.68-.48c-.88,0-1.38.51-1.38,1.12s.49,1,1.57,1.4c1.43.54,2.16,1.26,2.16,2.48,0,1.45-1.12,2.47-3.08,2.47a4.7,4.7,0,0,1-2.31-.56Z"/><path class="cls-2" d="M317.52,184.56a5.51,5.51,0,0,1-2.36.48,3.91,3.91,0,0,1-4.1-4.2,4.18,4.18,0,0,1,4.42-4.37,5,5,0,0,1,2.08.43l-.34,1.16a3.47,3.47,0,0,0-1.74-.39,3.1,3.1,0,0,0-.05,6.19,4.26,4.26,0,0,0,1.84-.41Z"/><path class="cls-2" d="M319.27,172.78h1.5v5.14h0a2.78,2.78,0,0,1,1.07-1.06,3.08,3.08,0,0,1,1.53-.43c1.11,0,2.88.68,2.88,3.52v4.9h-1.5v-4.73c0-1.33-.49-2.45-1.91-2.45a2.15,2.15,0,0,0-2,1.5,1.82,1.82,0,0,0-.1.71v5h-1.5Z"/><path class="cls-2" d="M336.17,180.68a4,4,0,0,1-4.1,4.37,3.92,3.92,0,0,1-3.95-4.24,4,4,0,0,1,4.08-4.37A3.9,3.9,0,0,1,336.17,180.68Zm-6.53.09c0,1.8,1,3.16,2.5,3.16s2.5-1.34,2.5-3.2c0-1.4-.7-3.16-2.47-3.16S329.63,179.2,329.63,180.76Z"/><path class="cls-2" d="M345.51,180.68a4,4,0,0,1-4.1,4.37,3.92,3.92,0,0,1-3.95-4.24,4,4,0,0,1,4.08-4.37A3.9,3.9,0,0,1,345.51,180.68Zm-6.53.09c0,1.8,1,3.16,2.5,3.16s2.5-1.34,2.5-3.2c0-1.4-.7-3.16-2.47-3.16S339,179.2,339,180.76Z"/><path class="cls-2" d="M347.4,172.78h1.5v12.08h-1.5Z"/><path class="cls-2" d="M362.48,180.68a4,4,0,0,1-4.1,4.37,3.92,3.92,0,0,1-3.95-4.24,4,4,0,0,1,4.08-4.37A3.9,3.9,0,0,1,362.48,180.68Zm-6.53.09c0,1.8,1,3.16,2.5,3.16s2.5-1.34,2.5-3.2c0-1.4-.7-3.16-2.47-3.16S355.95,179.2,355.95,180.76Z"/><path class="cls-2" d="M364.37,179.2c0-1,0-1.8-.07-2.57h1.31l.05,1.62h.07a2.47,2.47,0,0,1,2.28-1.8,1.62,1.62,0,0,1,.43.05v1.41a2.24,2.24,0,0,0-.51-.05,2.1,2.1,0,0,0-2,1.92,4.2,4.2,0,0,0-.07.7v4.39h-1.48Z"/><path class="cls-2" d="M276.91,200.88a2.64,2.64,0,0,0,2.83,2.86,5.41,5.41,0,0,0,2.28-.43l.25,1.07a6.67,6.67,0,0,1-2.74.51,3.82,3.82,0,0,1-4-4.15c0-2.48,1.46-4.44,3.86-4.44,2.69,0,3.4,2.37,3.4,3.88a5.73,5.73,0,0,1-.05.7Zm4.39-1.07a2.13,2.13,0,0,0-2.08-2.43,2.48,2.48,0,0,0-2.3,2.43Z"/><path class="cls-2" d="M289.16,204.73l-.12-1H289a3.07,3.07,0,0,1-2.52,1.22,2.35,2.35,0,0,1-2.52-2.36c0-2,1.77-3.08,5-3.06v-.17a1.7,1.7,0,0,0-1.87-1.91,4.1,4.1,0,0,0-2.14.61l-.34-1a5.11,5.11,0,0,1,2.71-.73c2.52,0,3.13,1.72,3.13,3.37v3.08a11.54,11.54,0,0,0,.14,2Zm-.22-4.2c-1.63,0-3.49.25-3.49,1.85a1.32,1.32,0,0,0,1.41,1.43,2,2,0,0,0,2-1.38,1.54,1.54,0,0,0,.08-.48Z"/><path class="cls-2" d="M292.81,199.06c0-1,0-1.8-.07-2.57H294l.05,1.62h.07a2.47,2.47,0,0,1,2.28-1.8,1.62,1.62,0,0,1,.43.05v1.41a2.24,2.24,0,0,0-.51-.05,2.1,2.1,0,0,0-2,1.92,4.2,4.2,0,0,0-.07.7v4.39h-1.48Z"/><path class="cls-2" d="M298.44,198.72c0-.85,0-1.55-.07-2.23h1.33l.08,1.36h0a3,3,0,0,1,2.72-1.55c1.14,0,2.91.68,2.91,3.5v4.92H304V200c0-1.33-.49-2.43-1.91-2.43a2.13,2.13,0,0,0-2,1.53,2.17,2.17,0,0,0-.1.7v5h-1.5Z"/><path class="cls-2" d="M308.72,200.88a2.64,2.64,0,0,0,2.83,2.86,5.41,5.41,0,0,0,2.28-.43l.25,1.07a6.67,6.67,0,0,1-2.74.51,3.82,3.82,0,0,1-4-4.15c0-2.48,1.46-4.44,3.86-4.44,2.69,0,3.4,2.37,3.4,3.88a5.73,5.73,0,0,1-.05.7Zm4.39-1.07a2.13,2.13,0,0,0-2.08-2.43,2.48,2.48,0,0,0-2.3,2.43Z"/><path class="cls-2" d="M323.52,192.65v10c0,.73,0,1.56.07,2.13h-1.34l-.07-1.43h0a3,3,0,0,1-2.81,1.62c-2,0-3.52-1.68-3.52-4.19,0-2.74,1.68-4.42,3.69-4.42a2.75,2.75,0,0,1,2.48,1.26h0v-4.92Zm-1.5,7.2a2.61,2.61,0,0,0-.07-.63,2.2,2.2,0,0,0-2.16-1.74c-1.55,0-2.47,1.36-2.47,3.18,0,1.67.82,3,2.43,3a2.25,2.25,0,0,0,2.19-1.79,2.57,2.57,0,0,0,.07-.65Z"/><path class="cls-2" d="M331.42,194.13v2.37h2.14v1.14h-2.14v4.44c0,1,.29,1.6,1.12,1.6a3.35,3.35,0,0,0,.87-.1l.07,1.12a3.67,3.67,0,0,1-1.33.2,2.07,2.07,0,0,1-1.62-.63,3,3,0,0,1-.58-2.14v-4.49h-1.28v-1.14H330v-2Z"/><path class="cls-2" d="M335.25,192.65h1.5v5.14h0a2.78,2.78,0,0,1,1.07-1.06,3.08,3.08,0,0,1,1.53-.43c1.11,0,2.88.68,2.88,3.52v4.9h-1.5V200c0-1.33-.49-2.45-1.91-2.45a2.15,2.15,0,0,0-2,1.5,1.82,1.82,0,0,0-.1.71v5h-1.5Z"/><path class="cls-2" d="M345.53,200.88a2.64,2.64,0,0,0,2.82,2.86,5.41,5.41,0,0,0,2.28-.43l.25,1.07a6.67,6.67,0,0,1-2.74.51,3.82,3.82,0,0,1-4-4.15c0-2.48,1.46-4.44,3.86-4.44,2.69,0,3.4,2.37,3.4,3.88a5.73,5.73,0,0,1-.05.7Zm4.39-1.07a2.13,2.13,0,0,0-2.08-2.43,2.48,2.48,0,0,0-2.3,2.43Z"/><path class="cls-2" d="M354.89,194.18a.93.93,0,0,1-1.85,0,.91.91,0,0,1,.94-.94A.89.89,0,0,1,354.89,194.18Zm-1.67,10.55v-8.23h1.5v8.23Z"/><path class="cls-2" d="M357.21,199.06c0-1,0-1.8-.07-2.57h1.31l.05,1.62h.07a2.47,2.47,0,0,1,2.28-1.8,1.62,1.62,0,0,1,.43.05v1.41a2.24,2.24,0,0,0-.51-.05,2.1,2.1,0,0,0-2,1.92,4.2,4.2,0,0,0-.07.7v4.39h-1.48Z"/><path class="cls-2" d="M312.85,224.08a10.67,10.67,0,0,1-3.52.63,5.39,5.39,0,0,1-5.89-5.78c0-3.42,2.37-5.92,6.21-5.92a7.09,7.09,0,0,1,2.86.53l-.36,1.21a6,6,0,0,0-2.54-.49,4.29,4.29,0,0,0-4.61,4.61c0,2.91,1.75,4.63,4.42,4.63a4.83,4.83,0,0,0,2-.31v-3.42h-2.33v-1.19h3.78Z"/><path class="cls-2" d="M321.06,219.21H316.6v4.13h5v1.24h-6.45V213.12h6.19v1.24H316.6V218h4.46Z"/><path class="cls-2" d="M323.49,213.27a21.18,21.18,0,0,1,3.15-.24,6.57,6.57,0,0,1,4.64,1.43,5.28,5.28,0,0,1,1.62,4.12,6.06,6.06,0,0,1-1.65,4.46,7.06,7.06,0,0,1-5.07,1.65,23.81,23.81,0,0,1-2.69-.14ZM325,223.41a9.37,9.37,0,0,0,1.5.08c3.16,0,4.88-1.77,4.88-4.87,0-2.71-1.51-4.42-4.64-4.42a8.41,8.41,0,0,0-1.74.15Z"/><path class="cls-3" d="M268.19,87.7a18.28,18.28,0,0,0,3.37,0,13.33,13.33,0,0,0,6.53-2,10.31,10.31,0,0,0,4.18-6.12l-.15-.05c-1.48,1.53-3.62,2.4-6.63,2.4a10,10,0,0,1-10.36-10.36c0-6.48,5.2-11.94,12.5-11.94,8.52,0,12.55,6.53,12.55,14.29,0,6.89-2.19,11.94-5.82,15.26-3.16,2.86-7.5,4.44-12.65,4.64a26.9,26.9,0,0,1-3.52,0Zm4.7-16.63c0,2.86,1.53,5.31,4.69,5.31a4.89,4.89,0,0,0,4.29-2.19,3.66,3.66,0,0,0,.41-1.94c0-3.52-1.33-7-4.85-7C274.77,65.25,272.83,67.59,272.89,71.06Z"/><path class="cls-3" d="M294.06,93.31V88.62l4.29-3.88c7.25-6.48,10.77-10.21,10.87-14.08,0-2.7-1.63-4.85-5.46-4.85a12,12,0,0,0-7.09,2.75L294.47,63a18.36,18.36,0,0,1,10.87-3.42C312.84,59.58,317,64,317,70c0,5.56-4,10-8.83,14.29l-3.06,2.55v.1h12.5v6.38Z"/><path class="cls-3" d="M339.82,69.43c0,6.94-4.39,10.56-9.18,10.56-5.05,0-9-3.78-9-10,0-5.92,3.62-10.41,9.29-10.41S339.82,63.77,339.82,69.43Zm-12.45.36c0,3.47,1.17,6,3.42,6s3.27-2.25,3.27-6c0-3.37-.92-6-3.32-6S327.37,66.47,327.37,69.79ZM331,93.87l19-34.29h4.18L335.18,93.87ZM363.7,83.21c0,6.94-4.39,10.56-9.18,10.56-5,0-9-3.78-9-10,0-5.92,3.62-10.41,9.29-10.41S363.7,77.54,363.7,83.21Zm-12.4.36c-.05,3.47,1.12,6,3.37,6s3.27-2.25,3.27-6c0-3.37-.87-6-3.27-6S351.3,80.25,351.3,83.57Z"/><polyline class="cls-4" points="91.11 315.2 91.11 330.33 388.89 330.33 388.89 315.48"/><path class="cls-5" d="M185.93,316H187v7.68h3.68v.93h-4.79Z"/><path class="cls-5" d="M196.67,320.54h-3.35v3.1h3.73v.93h-4.84V316h4.65v.93h-3.54v2.72h3.35Z"/><path class="cls-5" d="M200.14,321.87l-.89,2.71H198.1L201,316h1.34l2.94,8.61h-1.19l-.92-2.71ZM203,321l-.84-2.48c-.19-.56-.32-1.07-.45-1.57h0c-.13.51-.27,1-.43,1.56l-.84,2.49Z"/><path class="cls-5" d="M206.8,316.09a15.93,15.93,0,0,1,2.36-.18,4.93,4.93,0,0,1,3.49,1.07,4,4,0,0,1,1.21,3.09,4.56,4.56,0,0,1-1.24,3.35,5.3,5.3,0,0,1-3.81,1.24,18,18,0,0,1-2-.1Zm1.11,7.61a7,7,0,0,0,1.12.06,3.31,3.31,0,0,0,3.67-3.65c0-2-1.14-3.32-3.49-3.32a6.31,6.31,0,0,0-1.3.11Z"/><path class="cls-5" d="M220,320.54h-3.35v3.1h3.73v.93h-4.84V316h4.65v.93h-3.54v2.72H220Z"/><path class="cls-5" d="M222.09,316.09a11.59,11.59,0,0,1,2.13-.18,3.52,3.52,0,0,1,2.49.7,2.14,2.14,0,0,1,.68,1.63,2.26,2.26,0,0,1-1.62,2.2v0a2.15,2.15,0,0,1,1.26,1.74,13.73,13.73,0,0,0,.66,2.36h-1.15a11.12,11.12,0,0,1-.57-2.06c-.26-1.19-.72-1.63-1.72-1.67h-1v3.73h-1.11ZM223.2,320h1.14c1.19,0,1.94-.65,1.94-1.63s-.8-1.6-2-1.61a4.55,4.55,0,0,0-1.1.1Z"/><path class="cls-5" d="M229,323.22a3.94,3.94,0,0,0,2,.56c1.14,0,1.8-.6,1.8-1.47s-.46-1.26-1.62-1.71c-1.4-.5-2.27-1.23-2.27-2.44s1.11-2.34,2.78-2.34a3.91,3.91,0,0,1,1.9.42l-.31.91a3.43,3.43,0,0,0-1.63-.41c-1.17,0-1.62.7-1.62,1.29,0,.8.52,1.2,1.71,1.66,1.46.56,2.2,1.26,2.2,2.53s-1,2.48-3,2.48a4.45,4.45,0,0,1-2.2-.55Z"/><path class="cls-5" d="M236.86,316v3.6H241V316h1.12v8.61H241v-4h-4.16v4h-1.11V316Z"/><path class="cls-5" d="M245.44,316v8.61h-1.11V316Z"/><path class="cls-5" d="M247.63,316.07a12.88,12.88,0,0,1,2.13-.17,3.54,3.54,0,0,1,2.41.72,2.31,2.31,0,0,1,.75,1.8,2.53,2.53,0,0,1-.66,1.84,3.56,3.56,0,0,1-2.63.95,3.81,3.81,0,0,1-.89-.08v3.45h-1.11Zm1.11,4.15a3.71,3.71,0,0,0,.92.09c1.34,0,2.16-.65,2.16-1.84s-.8-1.69-2-1.69a4.65,4.65,0,0,0-1,.09Z"/><path class="cls-5" d="M258.71,324.58v-3.65L256,316h1.26l1.21,2.38c.33.65.59,1.17.86,1.77h0c.24-.56.54-1.12.87-1.77l1.24-2.38h1.26l-2.89,4.94v3.67Z"/><path class="cls-5" d="M270.87,320.19c0,3-1.8,4.53-4,4.53S263,323,263,320.35s1.7-4.52,4-4.52S270.87,317.63,270.87,320.19Zm-6.68.14c0,1.84,1,3.49,2.75,3.49s2.76-1.62,2.76-3.58c0-1.71-.89-3.5-2.75-3.5S264.19,318.44,264.19,320.33Z"/><path class="cls-5" d="M273.67,316v5.1c0,1.93.86,2.75,2,2.75s2.09-.84,2.09-2.75V316h1.12v5c0,2.64-1.39,3.73-3.26,3.73s-3.09-1-3.09-3.68V316Z"/><path class="cls-5" d="M282.71,316.92h-2.62V316h6.37v.94h-2.63v7.66h-1.12Z"/><path class="cls-5" d="M288.77,316v3.6h4.16V316h1.12v8.61h-1.12v-4h-4.16v4h-1.11V316Z"/></svg>