<svg id="Layer_1" data-name="Layer 1" xmlns="http://www.w3.org/2000/svg" viewBox="0 0 1200 675"><defs><style>.cls-1{fill:#5e294e;}.cls-2{fill:#fff;}.cls-3{fill:#621b4b;}.cls-4{fill:none;stroke:#621b4b;stroke-width:2.49px;}.cls-5{fill:#776441;}</style></defs><title>Outcomes-2-large</title><rect class="cls-1" x="339.61" y="163.91" width="248.81" height="392.7"/><rect class="cls-1" x="609.14" y="201.17" width="248.81" height="355.44"/><path class="cls-2" d="M382.78,187.3v17.47c0,1.28,0,2.75.12,3.73h-2.36l-.12-2.51h-.06a5.35,5.35,0,0,1-4.93,2.84c-3.49,0-6.18-3-6.18-7.35,0-4.81,3-7.76,6.48-7.76a4.83,4.83,0,0,1,4.36,2.21h.06V187.3Zm-2.63,12.63a4.63,4.63,0,0,0-.12-1.1,3.86,3.86,0,0,0-3.79-3c-2.72,0-4.33,2.39-4.33,5.58,0,2.93,1.43,5.35,4.27,5.35a4,4,0,0,0,3.85-3.14,4.55,4.55,0,0,0,.12-1.13Z"/><path class="cls-2" d="M390.06,190a1.63,1.63,0,0,1-3.25,0,1.6,1.6,0,0,1,1.64-1.64A1.56,1.56,0,0,1,390.06,190Zm-2.93,18.51V194h2.63V208.5Z"/><path class="cls-2" d="M406.6,187.3v17.47c0,1.28,0,2.75.12,3.73h-2.36l-.12-2.51h-.06a5.35,5.35,0,0,1-4.93,2.84c-3.49,0-6.18-3-6.18-7.35,0-4.81,3-7.76,6.48-7.76a4.83,4.83,0,0,1,4.36,2.21H404V187.3ZM404,199.93a4.63,4.63,0,0,0-.12-1.1,3.86,3.86,0,0,0-3.79-3c-2.72,0-4.33,2.39-4.33,5.58,0,2.93,1.43,5.35,4.27,5.35a4,4,0,0,0,3.85-3.14,4.55,4.55,0,0,0,.12-1.13Z"/><path class="cls-2" d="M417.29,198c0-1.49,0-2.72-.12-3.91h2.33l.15,2.39h.06a5.32,5.32,0,0,1,4.78-2.72c2,0,5.11,1.19,5.11,6.15v8.63H427v-8.33c0-2.33-.87-4.27-3.34-4.27a3.73,3.73,0,0,0-3.52,2.69,3.77,3.77,0,0,0-.18,1.22v8.69h-2.63Z"/><path class="cls-2" d="M446.94,201.15c0,5.35-3.7,7.67-7.2,7.67-3.91,0-6.93-2.87-6.93-7.44,0-4.84,3.17-7.67,7.17-7.67S446.94,196.73,446.94,201.15Zm-11.47.15c0,3.17,1.82,5.55,4.39,5.55s4.39-2.36,4.39-5.61c0-2.45-1.22-5.55-4.33-5.55S435.47,198.56,435.47,201.3Z"/><path class="cls-2" d="M453.41,189.9V194h3.76v2h-3.76v7.79c0,1.79.51,2.81,2,2.81a5.83,5.83,0,0,0,1.52-.18l.12,2a6.43,6.43,0,0,1-2.33.36,3.64,3.64,0,0,1-2.84-1.1c-.75-.78-1-2.06-1-3.76V196h-2.24v-2h2.24v-3.46Z"/><path class="cls-2" d="M466.1,205.81a6.88,6.88,0,0,0,3.46,1c1.91,0,2.81-1,2.81-2.15s-.75-1.94-2.69-2.66c-2.6-.93-3.82-2.36-3.82-4.09,0-2.33,1.88-4.24,5-4.24a7.22,7.22,0,0,1,3.55.9l-.66,1.91a5.63,5.63,0,0,0-3-.84c-1.55,0-2.42.9-2.42,2s.87,1.73,2.75,2.45c2.51,1,3.79,2.21,3.79,4.36,0,2.54-2,4.33-5.41,4.33a8.24,8.24,0,0,1-4.06-1Z"/><path class="cls-2" d="M490.38,204.56c0,1.49,0,2.81.12,3.94h-2.33l-.15-2.36H488a5.44,5.44,0,0,1-4.78,2.69c-2.27,0-5-1.25-5-6.33V194h2.63v8c0,2.75.84,4.6,3.23,4.6a3.8,3.8,0,0,0,3.46-2.39,3.85,3.85,0,0,0,.24-1.34V194h2.63Z"/><path class="cls-2" d="M494.37,205.81a6.88,6.88,0,0,0,3.46,1c1.91,0,2.81-1,2.81-2.15s-.75-1.94-2.69-2.66c-2.6-.93-3.82-2.36-3.82-4.09,0-2.33,1.88-4.24,5-4.24a7.22,7.22,0,0,1,3.55.9l-.66,1.91a5.63,5.63,0,0,0-3-.84c-1.55,0-2.42.9-2.42,2s.87,1.73,2.75,2.45c2.51,1,3.79,2.21,3.79,4.36,0,2.54-2,4.33-5.41,4.33a8.24,8.24,0,0,1-4.06-1Z"/><path class="cls-2" d="M509.72,189.9V194h3.76v2h-3.76v7.79c0,1.79.51,2.81,2,2.81a5.83,5.83,0,0,0,1.52-.18l.12,2a6.43,6.43,0,0,1-2.33.36,3.64,3.64,0,0,1-2.84-1.1c-.75-.78-1-2.06-1-3.76V196h-2.24v-2h2.24v-3.46Z"/><path class="cls-2" d="M524.44,208.5l-.21-1.82h-.09a5.38,5.38,0,0,1-4.42,2.15,4.12,4.12,0,0,1-4.42-4.15c0-3.49,3.11-5.4,8.69-5.37V199c0-1.19-.33-3.34-3.28-3.34a7.2,7.2,0,0,0-3.76,1.07l-.6-1.73a9,9,0,0,1,4.75-1.28c4.42,0,5.49,3,5.49,5.91V205a20.35,20.35,0,0,0,.24,3.46Zm-.39-7.38c-2.87-.06-6.12.45-6.12,3.25a2.33,2.33,0,0,0,2.48,2.51,3.6,3.6,0,0,0,3.49-2.42,2.73,2.73,0,0,0,.15-.84Z"/><path class="cls-2" d="M533.75,190a1.63,1.63,0,0,1-3.25,0,1.6,1.6,0,0,1,1.64-1.64A1.56,1.56,0,0,1,533.75,190Zm-2.93,18.51V194h2.63V208.5Z"/><path class="cls-2" d="M537.81,198c0-1.49,0-2.72-.12-3.91H540l.15,2.39h.06a5.32,5.32,0,0,1,4.78-2.72c2,0,5.11,1.19,5.11,6.15v8.63h-2.63v-8.33c0-2.33-.87-4.27-3.34-4.27a3.73,3.73,0,0,0-3.52,2.69,3.77,3.77,0,0,0-.18,1.22v8.69h-2.63Z"/><path class="cls-2" d="M384.2,243.34l-.21-1.82h-.09a5.38,5.38,0,0,1-4.42,2.15,4.11,4.11,0,0,1-4.42-4.15c0-3.49,3.1-5.4,8.68-5.37v-.3c0-1.19-.33-3.34-3.28-3.34a7.2,7.2,0,0,0-3.76,1.07l-.6-1.73a9,9,0,0,1,4.74-1.28c4.42,0,5.49,3,5.49,5.91v5.4a20.33,20.33,0,0,0,.24,3.46Zm-.39-7.37c-2.86-.06-6.12.45-6.12,3.25a2.32,2.32,0,0,0,2.48,2.51,3.59,3.59,0,0,0,3.49-2.42,2.74,2.74,0,0,0,.15-.84Zm13.11-3.16c0-1.49,0-2.72-.12-3.91h2.33l.15,2.39h.06a5.31,5.31,0,0,1,4.77-2.72c2,0,5.1,1.19,5.1,6.15v8.62h-2.63V235c0-2.33-.87-4.27-3.34-4.27a3.73,3.73,0,0,0-3.52,2.69,3.78,3.78,0,0,0-.18,1.22v8.68h-2.63Zm18,3.79c.06,3.55,2.33,5,5,5a9.5,9.5,0,0,0,4-.75l.45,1.88a11.7,11.7,0,0,1-4.8.9c-4.45,0-7.1-2.92-7.1-7.28s2.57-7.79,6.77-7.79c4.71,0,6,4.15,6,6.8a9.9,9.9,0,0,1-.09,1.22Zm7.7-1.88c0-1.67-.69-4.27-3.64-4.27-2.66,0-3.82,2.45-4,4.27Zm6.84-5.82,1.91,7.34c.42,1.61.81,3.1,1.07,4.6h.09c.33-1.46.81-3,1.28-4.57l2.36-7.37h2.21l2.24,7.22c.54,1.73,1,3.25,1.28,4.71H442a43.43,43.43,0,0,1,1.1-4.68l2.06-7.25h2.6l-4.65,14.44h-2.39l-2.21-6.89a48.13,48.13,0,0,1-1.28-4.74h-.06a42.73,42.73,0,0,1-1.31,4.77l-2.33,6.86h-2.39l-4.36-14.44Zm40.33,7.1c0,5.34-3.7,7.67-7.19,7.67-3.91,0-6.92-2.86-6.92-7.43,0-4.83,3.16-7.67,7.16-7.67S469.83,231.58,469.83,236Zm-11.46.15c0,3.16,1.82,5.55,4.39,5.55s4.39-2.36,4.39-5.61c0-2.45-1.22-5.55-4.33-5.55S458.37,233.4,458.37,236.15Zm23.7,7.19V230.9H476v12.44h-2.6V230.9h-2v-2h2v-.48A6.82,6.82,0,0,1,475,223.5a4.93,4.93,0,0,1,3.64-1.34,4.62,4.62,0,0,1,2.06.51l-.54,1.94a3.84,3.84,0,0,0-1.55-.36c-2.06,0-2.63,1.76-2.63,4v.63h6.06v-.69a6.82,6.82,0,0,1,1.7-5,5,5,0,0,1,3.49-1.34,6,6,0,0,1,2.24.42l-.33,2a4.07,4.07,0,0,0-1.7-.33c-2.21,0-2.8,2-2.8,4.18v.78h3.49v2H484.7v12.44Zm9.56-6.74c.06,3.55,2.33,5,5,5a9.5,9.5,0,0,0,4-.75l.45,1.88a11.7,11.7,0,0,1-4.8.9c-4.45,0-7.1-2.92-7.1-7.28s2.57-7.79,6.77-7.79c4.71,0,6,4.15,6,6.8a9.9,9.9,0,0,1-.09,1.22Zm7.7-1.88c0-1.67-.69-4.27-3.64-4.27-2.66,0-3.82,2.45-4,4.27Zm5.8-1.91c0-1.49,0-2.72-.12-3.91h2.33l.15,2.39h.06a5.31,5.31,0,0,1,4.77-2.72c2,0,5.1,1.19,5.1,6.15v8.62h-2.63V235c0-2.33-.87-4.27-3.34-4.27a3.73,3.73,0,0,0-3.52,2.69,3.78,3.78,0,0,0-.18,1.22v8.68h-2.63Zm16.21,7.85a6.88,6.88,0,0,0,3.46,1c1.91,0,2.8-1,2.8-2.15s-.75-1.94-2.69-2.66c-2.6-.93-3.82-2.36-3.82-4.09,0-2.33,1.88-4.24,5-4.24a7.21,7.21,0,0,1,3.55.9l-.66,1.91a5.62,5.62,0,0,0-3-.84c-1.55,0-2.42.9-2.42,2s.87,1.73,2.75,2.45c2.51,1,3.79,2.21,3.79,4.36,0,2.54-2,4.33-5.4,4.33a8.24,8.24,0,0,1-4.06-1ZM535,236.6c.06,3.55,2.33,5,5,5a9.5,9.5,0,0,0,4-.75l.45,1.88a11.7,11.7,0,0,1-4.8.9c-4.45,0-7.1-2.92-7.1-7.28s2.57-7.79,6.77-7.79c4.71,0,6,4.15,6,6.8a9.9,9.9,0,0,1-.09,1.22Zm7.7-1.88c0-1.67-.69-4.27-3.64-4.27-2.66,0-3.82,2.45-4,4.27Z"/><path class="cls-2" d="M409.23,257v17.47c0,1.28,0,2.75.12,3.73H407l-.12-2.51h-.06a5.35,5.35,0,0,1-4.93,2.84c-3.49,0-6.18-3-6.18-7.35,0-4.81,3-7.76,6.48-7.76a4.83,4.83,0,0,1,4.36,2.21h.06V257Zm-2.63,12.63a4.63,4.63,0,0,0-.12-1.1,3.86,3.86,0,0,0-3.79-3c-2.72,0-4.33,2.39-4.33,5.58,0,2.93,1.43,5.35,4.27,5.35a4,4,0,0,0,3.85-3.14,4.55,4.55,0,0,0,.12-1.13Z"/><path class="cls-2" d="M425.68,274.24c0,1.49,0,2.81.12,3.94h-2.33l-.15-2.36h-.06a5.44,5.44,0,0,1-4.78,2.69c-2.27,0-5-1.25-5-6.33v-8.45h2.63v8c0,2.75.84,4.6,3.23,4.6a3.8,3.8,0,0,0,3.46-2.39,3.85,3.85,0,0,0,.24-1.34v-8.87h2.63Z"/><path class="cls-2" d="M430,268.24c0-1.7,0-3.17-.12-4.51h2.3l.09,2.84h.12a4.34,4.34,0,0,1,4-3.17,2.85,2.85,0,0,1,.75.09V266a4,4,0,0,0-.9-.09c-1.85,0-3.17,1.4-3.52,3.37a7.36,7.36,0,0,0-.12,1.22v7.7H430Z"/><path class="cls-2" d="M442.85,259.67a1.63,1.63,0,0,1-3.25,0,1.6,1.6,0,0,1,1.64-1.64A1.56,1.56,0,0,1,442.85,259.67Zm-2.93,18.51V263.73h2.63v14.45Z"/><path class="cls-2" d="M446.9,267.64c0-1.49,0-2.72-.12-3.91h2.33l.15,2.39h.06a5.32,5.32,0,0,1,4.78-2.72c2,0,5.11,1.19,5.11,6.15v8.63h-2.63v-8.33c0-2.33-.87-4.27-3.34-4.27a3.73,3.73,0,0,0-3.52,2.69,3.77,3.77,0,0,0-.18,1.22v8.69H446.9Z"/><path class="cls-2" d="M475.93,263.73c-.06,1-.12,2.21-.12,4v8.39c0,3.31-.66,5.35-2.06,6.6a7.66,7.66,0,0,1-5.26,1.73,9.33,9.33,0,0,1-4.81-1.19l.66-2a8.15,8.15,0,0,0,4.24,1.13c2.69,0,4.66-1.4,4.66-5V275.7h-.06a5.16,5.16,0,0,1-4.6,2.42c-3.58,0-6.15-3-6.15-7,0-4.9,3.2-7.67,6.51-7.67a4.81,4.81,0,0,1,4.51,2.51h.06l.12-2.18Zm-2.72,5.7a3.84,3.84,0,0,0-3.82-4c-2.51,0-4.3,2.12-4.3,5.46,0,2.84,1.43,5.2,4.27,5.2a3.84,3.84,0,0,0,3.64-2.69,4.57,4.57,0,0,0,.21-1.4Z"/><path class="cls-2" d="M489.66,259.58v4.15h3.76v2h-3.76v7.79c0,1.79.51,2.81,2,2.81a5.83,5.83,0,0,0,1.52-.18l.12,2a6.43,6.43,0,0,1-2.33.36,3.64,3.64,0,0,1-2.84-1.1c-.75-.78-1-2.06-1-3.76v-7.88h-2.24v-2h2.24v-3.46Z"/><path class="cls-2" d="M496.38,257H499v9h.06a4.88,4.88,0,0,1,1.88-1.85,5.41,5.41,0,0,1,2.69-.75c1.94,0,5,1.19,5,6.18v8.6h-2.63v-8.3c0-2.33-.87-4.3-3.34-4.3a3.78,3.78,0,0,0-3.52,2.63,3.18,3.18,0,0,0-.18,1.25v8.72h-2.63Z"/><path class="cls-2" d="M514.41,271.43c.06,3.55,2.33,5,5,5a9.5,9.5,0,0,0,4-.75l.45,1.88a11.71,11.71,0,0,1-4.81.9c-4.45,0-7.11-2.93-7.11-7.29s2.57-7.79,6.78-7.79c4.72,0,6,4.15,6,6.81a9.92,9.92,0,0,1-.09,1.22Zm7.7-1.88c0-1.67-.69-4.27-3.64-4.27-2.66,0-3.82,2.45-4,4.27Z"/><path class="cls-2" d="M378.6,303.29c0-1.85-.06-3.34-.12-4.72h2.36L381,301H381a5.68,5.68,0,0,1,5.14-2.81c3.49,0,6.12,3,6.12,7.35,0,5.2-3.17,7.76-6.57,7.76a5.07,5.07,0,0,1-4.45-2.27h-.06v7.85h-2.6Zm2.6,3.85a5.89,5.89,0,0,0,.12,1.08,4.05,4.05,0,0,0,3.94,3.08c2.78,0,4.39-2.27,4.39-5.58,0-2.9-1.52-5.37-4.3-5.37a4.19,4.19,0,0,0-4,3.25,4.24,4.24,0,0,0-.18,1.07Z"/><path class="cls-2" d="M395.58,303.08c0-1.7,0-3.17-.12-4.51h2.3l.09,2.84H398a4.34,4.34,0,0,1,4-3.17,2.85,2.85,0,0,1,.75.09v2.48a4,4,0,0,0-.9-.09c-1.85,0-3.17,1.4-3.52,3.37a7.36,7.36,0,0,0-.12,1.22V313h-2.6Z"/><path class="cls-2" d="M418.16,305.68c0,5.35-3.7,7.67-7.2,7.67-3.91,0-6.93-2.87-6.93-7.44,0-4.84,3.17-7.67,7.17-7.67S418.16,301.26,418.16,305.68Zm-11.47.15c0,3.17,1.82,5.55,4.39,5.55s4.39-2.36,4.39-5.61c0-2.45-1.22-5.55-4.33-5.55S406.69,303.08,406.69,305.83Z"/><path class="cls-2" d="M433.92,298.57c-.06,1-.12,2.21-.12,4v8.39c0,3.31-.66,5.35-2.06,6.6a7.66,7.66,0,0,1-5.26,1.73,9.33,9.33,0,0,1-4.81-1.19l.66-2a8.15,8.15,0,0,0,4.24,1.13c2.69,0,4.66-1.4,4.66-5v-1.61h-.06a5.16,5.16,0,0,1-4.6,2.42c-3.58,0-6.15-3-6.15-7,0-4.9,3.2-7.67,6.51-7.67a4.81,4.81,0,0,1,4.51,2.51h.06l.12-2.18Zm-2.72,5.7a3.84,3.84,0,0,0-3.82-4c-2.51,0-4.3,2.12-4.3,5.46,0,2.84,1.43,5.2,4.27,5.2a3.84,3.84,0,0,0,3.64-2.69,4.57,4.57,0,0,0,.21-1.4Z"/><path class="cls-2" d="M438,303.08c0-1.7,0-3.17-.12-4.51h2.3l.09,2.84h.12a4.34,4.34,0,0,1,4-3.17,2.85,2.85,0,0,1,.75.09v2.48a4,4,0,0,0-.9-.09c-1.85,0-3.17,1.4-3.52,3.37a7.36,7.36,0,0,0-.12,1.22V313H438Z"/><path class="cls-2" d="M455.65,313l-.21-1.82h-.09a5.38,5.38,0,0,1-4.42,2.15,4.12,4.12,0,0,1-4.42-4.15c0-3.49,3.11-5.4,8.69-5.37v-.3c0-1.19-.33-3.34-3.28-3.34a7.2,7.2,0,0,0-3.76,1.07l-.6-1.73a9,9,0,0,1,4.75-1.28c4.42,0,5.49,3,5.49,5.91v5.4A20.35,20.35,0,0,0,458,313Zm-.39-7.38c-2.87-.06-6.12.45-6.12,3.25a2.33,2.33,0,0,0,2.48,2.51,3.6,3.6,0,0,0,3.49-2.42,2.73,2.73,0,0,0,.15-.84Z"/><path class="cls-2" d="M462,302.48c0-1.49,0-2.72-.12-3.91h2.3l.12,2.33h.09a5,5,0,0,1,4.54-2.66,4.27,4.27,0,0,1,4.09,2.9h.06a6,6,0,0,1,1.61-1.88,4.93,4.93,0,0,1,3.2-1c1.91,0,4.75,1.25,4.75,6.27V313h-2.57v-8.18c0-2.78-1-4.45-3.14-4.45a3.4,3.4,0,0,0-3.11,2.39,4.34,4.34,0,0,0-.21,1.31V313h-2.57v-8.66c0-2.3-1-4-3-4a3.92,3.92,0,0,0-3.46,3.91V313H462Z"/><path class="cls-2" d="M494.23,298.57l3.17,8.54c.33,1,.69,2.09.93,3h.06c.27-.87.57-2,.93-3l2.87-8.48h2.78L501,308.87c-1.88,5-3.17,7.5-5,9a7.12,7.12,0,0,1-3.23,1.7l-.66-2.21a7,7,0,0,0,2.3-1.28,8,8,0,0,0,2.21-2.93,1.88,1.88,0,0,0,.21-.63,2.29,2.29,0,0,0-.18-.69l-5.35-13.32Z"/><path class="cls-2" d="M508.53,306.28c.06,3.55,2.33,5,5,5a9.5,9.5,0,0,0,4-.75l.45,1.88a11.71,11.71,0,0,1-4.81.9c-4.45,0-7.11-2.93-7.11-7.29s2.57-7.79,6.78-7.79c4.72,0,6,4.15,6,6.81a9.92,9.92,0,0,1-.09,1.22Zm7.7-1.88c0-1.67-.69-4.27-3.64-4.27-2.66,0-3.82,2.45-4,4.27Z"/><path class="cls-2" d="M530,313l-.21-1.82h-.09a5.38,5.38,0,0,1-4.42,2.15,4.12,4.12,0,0,1-4.42-4.15c0-3.49,3.11-5.4,8.69-5.37v-.3c0-1.19-.33-3.34-3.28-3.34a7.2,7.2,0,0,0-3.76,1.07l-.6-1.73a9,9,0,0,1,4.75-1.28c4.42,0,5.49,3,5.49,5.91v5.4a20.35,20.35,0,0,0,.24,3.46Zm-.39-7.38c-2.87-.06-6.12.45-6.12,3.25a2.33,2.33,0,0,0,2.48,2.51,3.6,3.6,0,0,0,3.49-2.42,2.73,2.73,0,0,0,.15-.84Z"/><path class="cls-2" d="M536.41,303.08c0-1.7,0-3.17-.12-4.51h2.3l.09,2.84h.12a4.34,4.34,0,0,1,4-3.17,2.85,2.85,0,0,1,.75.09v2.48a4,4,0,0,0-.9-.09c-1.85,0-3.17,1.4-3.52,3.37a7.36,7.36,0,0,0-.12,1.22V313h-2.6Z"/><path class="cls-3" d="M374.69,138.86a32,32,0,0,0,5.91,0A23.38,23.38,0,0,0,392,135.28a18.08,18.08,0,0,0,7.34-10.74l-.27-.09c-2.6,2.68-6.35,4.21-11.63,4.21-9.84,0-18.17-6.89-18.17-18.17s9.13-20.94,21.93-20.94c14.95,0,22,11.46,22,25.06,0,12.08-3.85,20.94-10.2,26.76-5.55,5-13.16,7.79-22.19,8.14a47,47,0,0,1-6.18,0Zm8.23-29.17c0,5,2.69,9.31,8.23,9.31a8.57,8.57,0,0,0,7.52-3.85,6.41,6.41,0,0,0,.72-3.4c0-6.18-2.33-12.26-8.5-12.26C386.23,99.48,382.83,103.6,382.92,109.68Z"/><path class="cls-3" d="M458.9,101.72H436.35l-1.25,8.95a25.24,25.24,0,0,1,3.76-.18c5.55,0,11.19,1.25,15.3,4.21,4.39,3,7.07,7.79,7.07,14.59,0,10.83-9.31,20.4-25,20.4-7.07,0-13-1.61-16.2-3.31l2.42-10.2A33.43,33.43,0,0,0,435.63,139c5.64,0,11.63-2.69,11.63-8.86,0-6-4.74-9.67-16.38-9.67A50.23,50.23,0,0,0,423,121l3.85-30.52h32Z"/><path class="cls-3" d="M500.34,106.82c0,12.17-7.7,18.53-16.11,18.53-8.86,0-15.84-6.62-15.84-17.54,0-10.38,6.35-18.26,16.29-18.26S500.34,96.88,500.34,106.82Zm-21.84.63c0,6.09,2.06,10.47,6,10.47s5.73-3.94,5.73-10.47c0-5.91-1.61-10.47-5.82-10.47C480.38,97,478.5,101.63,478.5,107.44Zm6.44,42.24,33.38-60.14h7.34L492.2,149.69ZM542.22,131c0,12.17-7.7,18.53-16.11,18.53-8.77,0-15.75-6.62-15.84-17.54,0-10.38,6.35-18.26,16.29-18.26S542.22,121,542.22,131Zm-21.75.63c-.09,6.09,2,10.47,5.91,10.47s5.73-3.94,5.73-10.47c0-5.91-1.52-10.47-5.73-10.47S520.48,125.79,520.48,131.61Z"/><path class="cls-2" d="M659.41,234.16c0,5.35-3.7,7.67-7.2,7.67-3.91,0-6.93-2.87-6.93-7.44,0-4.84,3.17-7.67,7.17-7.67S659.41,229.74,659.41,234.16Zm-11.47.15c0,3.17,1.82,5.55,4.39,5.55s4.39-2.36,4.39-5.61c0-2.45-1.22-5.55-4.33-5.55S647.95,231.56,647.95,234.31Z"/><path class="cls-2" d="M663,241.51V229.06h-2v-2h2v-.69a6.81,6.81,0,0,1,1.67-5,5,5,0,0,1,3.52-1.34,6.08,6.08,0,0,1,2.24.42l-.36,2a3.92,3.92,0,0,0-1.67-.33c-2.24,0-2.81,2-2.81,4.18v.78h3.49v2h-3.49v12.45Z"/><path class="cls-2" d="M679.23,234.76c.06,3.55,2.33,5,5,5a9.5,9.5,0,0,0,4-.75l.45,1.88a11.71,11.71,0,0,1-4.81.9c-4.45,0-7.11-2.93-7.11-7.29s2.57-7.79,6.78-7.79c4.72,0,6,4.15,6,6.81a9.92,9.92,0,0,1-.09,1.22Zm7.7-1.88c0-1.67-.69-4.27-3.64-4.27-2.66,0-3.82,2.45-4,4.27Z"/><path class="cls-2" d="M692.73,220.31h2.63v21.2h-2.63Z"/><path class="cls-2" d="M702.7,223a1.63,1.63,0,0,1-3.25,0,1.6,1.6,0,0,1,1.64-1.64A1.56,1.56,0,0,1,702.7,223Zm-2.93,18.51V227.05h2.63v14.45Z"/><path class="cls-2" d="M719.21,227.05c-.06,1-.12,2.21-.12,4v8.39c0,3.31-.66,5.35-2.06,6.6a7.66,7.66,0,0,1-5.26,1.73,9.33,9.33,0,0,1-4.81-1.19l.66-2a8.15,8.15,0,0,0,4.24,1.13c2.69,0,4.66-1.4,4.66-5V239h-.06a5.16,5.16,0,0,1-4.6,2.42c-3.58,0-6.15-3-6.15-7,0-4.9,3.2-7.67,6.51-7.67a4.81,4.81,0,0,1,4.51,2.51h.06l.12-2.18Zm-2.72,5.7a3.84,3.84,0,0,0-3.82-4c-2.51,0-4.3,2.12-4.3,5.46,0,2.84,1.43,5.2,4.27,5.2a3.84,3.84,0,0,0,3.64-2.69,4.57,4.57,0,0,0,.21-1.4Z"/><path class="cls-2" d="M726.2,223a1.63,1.63,0,0,1-3.25,0,1.6,1.6,0,0,1,1.64-1.64A1.56,1.56,0,0,1,726.2,223Zm-2.93,18.51V227.05h2.63v14.45Z"/><path class="cls-2" d="M730.14,241.51c.06-1,.12-2.45.12-3.73V220.31h2.6v9.08h.06a5.38,5.38,0,0,1,4.93-2.66c3.58,0,6.12,3,6.09,7.38,0,5.17-3.25,7.73-6.48,7.73a5.15,5.15,0,0,1-4.84-2.72h-.09l-.12,2.39Zm2.72-5.79a4.9,4.9,0,0,0,.12,1,4.05,4.05,0,0,0,3.94,3.08c2.75,0,4.39-2.24,4.39-5.55,0-2.9-1.49-5.37-4.3-5.37a4.19,4.19,0,0,0-4,3.22,5.16,5.16,0,0,0-.15,1.08Z"/><path class="cls-2" d="M747.24,220.31h2.63v21.2h-2.63Z"/><path class="cls-2" d="M755.75,234.76c.06,3.55,2.33,5,5,5a9.5,9.5,0,0,0,4-.75l.45,1.88a11.71,11.71,0,0,1-4.81.9c-4.45,0-7.11-2.93-7.11-7.29s2.57-7.79,6.78-7.79c4.72,0,6,4.15,6,6.81a9.92,9.92,0,0,1-.09,1.22Zm7.7-1.88c0-1.67-.69-4.27-3.64-4.27-2.66,0-3.82,2.45-4,4.27Z"/><path class="cls-2" d="M775.58,220.31h2.63v9h.06a4.88,4.88,0,0,1,1.88-1.85,5.41,5.41,0,0,1,2.69-.75c1.94,0,5,1.19,5,6.18v8.6h-2.63v-8.3c0-2.33-.87-4.3-3.34-4.3a3.78,3.78,0,0,0-3.52,2.63,3.18,3.18,0,0,0-.18,1.25v8.72h-2.63Z"/><path class="cls-2" d="M795.07,223a1.63,1.63,0,0,1-3.25,0,1.6,1.6,0,0,1,1.64-1.64A1.56,1.56,0,0,1,795.07,223Zm-2.93,18.51V227.05h2.63v14.45Z"/><path class="cls-2" d="M811.58,227.05c-.06,1-.12,2.21-.12,4v8.39c0,3.31-.66,5.35-2.06,6.6a7.66,7.66,0,0,1-5.26,1.73,9.33,9.33,0,0,1-4.81-1.19l.66-2a8.15,8.15,0,0,0,4.24,1.13c2.69,0,4.66-1.4,4.66-5V239h-.06a5.16,5.16,0,0,1-4.6,2.42c-3.58,0-6.15-3-6.15-7,0-4.9,3.2-7.67,6.51-7.67a4.81,4.81,0,0,1,4.51,2.51h.06l.12-2.18Zm-2.72,5.7a3.84,3.84,0,0,0-3.82-4c-2.51,0-4.3,2.12-4.3,5.46,0,2.84,1.43,5.2,4.27,5.2a3.84,3.84,0,0,0,3.64-2.69,4.57,4.57,0,0,0,.21-1.4Z"/><path class="cls-2" d="M815.82,220.31h2.63v9h.06a4.88,4.88,0,0,1,1.88-1.85,5.41,5.41,0,0,1,2.69-.75c1.94,0,5,1.19,5,6.18v8.6H825.5v-8.3c0-2.33-.87-4.3-3.34-4.3a3.78,3.78,0,0,0-3.52,2.63,3.18,3.18,0,0,0-.18,1.25v8.72h-2.63Z"/><path class="cls-2" d="M650.87,273.66a6.88,6.88,0,0,0,3.46,1c1.91,0,2.81-1,2.81-2.15s-.75-1.94-2.69-2.66c-2.6-.93-3.82-2.36-3.82-4.09,0-2.33,1.88-4.24,5-4.24a7.22,7.22,0,0,1,3.55.9l-.66,1.91a5.63,5.63,0,0,0-3-.84c-1.55,0-2.42.9-2.42,2s.87,1.73,2.75,2.45c2.51,1,3.79,2.21,3.79,4.36,0,2.54-2,4.33-5.41,4.33a8.24,8.24,0,0,1-4.06-1Z"/><path class="cls-2" d="M673.35,275.81a9.67,9.67,0,0,1-4.15.84c-4.36,0-7.2-3-7.2-7.38a7.34,7.34,0,0,1,7.76-7.67,8.78,8.78,0,0,1,3.64.75l-.6,2a6.1,6.1,0,0,0-3-.69c-3.31,0-5.11,2.45-5.11,5.46,0,3.34,2.15,5.41,5,5.41a7.46,7.46,0,0,0,3.23-.72Z"/><path class="cls-2" d="M676.43,255.15h2.63v9h.06a4.88,4.88,0,0,1,1.88-1.85,5.41,5.41,0,0,1,2.69-.75c1.94,0,5,1.19,5,6.18v8.6H686.1V268c0-2.33-.87-4.3-3.34-4.3a3.78,3.78,0,0,0-3.52,2.63,3.18,3.18,0,0,0-.18,1.25v8.72h-2.63Z"/><path class="cls-2" d="M706.08,269c0,5.35-3.7,7.67-7.2,7.67-3.91,0-6.93-2.87-6.93-7.44,0-4.84,3.17-7.67,7.17-7.67S706.08,264.58,706.08,269Zm-11.47.15c0,3.17,1.82,5.55,4.39,5.55s4.39-2.36,4.39-5.61c0-2.45-1.22-5.55-4.33-5.55S694.61,266.4,694.61,269.15Z"/><path class="cls-2" d="M722.47,269c0,5.35-3.7,7.67-7.2,7.67-3.91,0-6.93-2.87-6.93-7.44,0-4.84,3.17-7.67,7.17-7.67S722.47,264.58,722.47,269Zm-11.47.15c0,3.17,1.82,5.55,4.39,5.55s4.39-2.36,4.39-5.61c0-2.45-1.22-5.55-4.33-5.55S711,266.4,711,269.15Z"/><path class="cls-2" d="M725.78,255.15h2.63v21.2h-2.63Z"/><path class="cls-2" d="M738.79,273.66a6.88,6.88,0,0,0,3.46,1c1.91,0,2.81-1,2.81-2.15s-.75-1.94-2.69-2.66c-2.6-.93-3.82-2.36-3.82-4.09,0-2.33,1.88-4.24,5-4.24a7.22,7.22,0,0,1,3.55.9l-.66,1.91a5.63,5.63,0,0,0-3-.84c-1.55,0-2.42.9-2.42,2s.87,1.73,2.75,2.45c2.51,1,3.79,2.21,3.79,4.36,0,2.54-2,4.33-5.41,4.33a8.24,8.24,0,0,1-4.06-1Z"/><path class="cls-2" d="M752.44,269.6c.06,3.55,2.33,5,5,5a9.5,9.5,0,0,0,4-.75l.45,1.88a11.71,11.71,0,0,1-4.81.9c-4.45,0-7.11-2.93-7.11-7.29s2.57-7.79,6.78-7.79c4.72,0,6,4.15,6,6.81a9.92,9.92,0,0,1-.09,1.22Zm7.7-1.88c0-1.67-.69-4.27-3.64-4.27-2.66,0-3.82,2.45-4,4.27Z"/><path class="cls-2" d="M765.93,265.81c0-1.49,0-2.72-.12-3.91h2.33l.15,2.39h.06a5.32,5.32,0,0,1,4.78-2.72c2,0,5.11,1.19,5.11,6.15v8.63h-2.63V268c0-2.33-.87-4.27-3.34-4.27a3.73,3.73,0,0,0-3.52,2.69,3.77,3.77,0,0,0-.18,1.22v8.69h-2.63Z"/><path class="cls-2" d="M785.43,257.83a1.63,1.63,0,0,1-3.25,0,1.6,1.6,0,0,1,1.64-1.64A1.56,1.56,0,0,1,785.43,257.83Zm-2.93,18.51V261.9h2.63v14.45Z"/><path class="cls-2" d="M802.57,269c0,5.35-3.7,7.67-7.2,7.67-3.91,0-6.93-2.87-6.93-7.44,0-4.84,3.17-7.67,7.17-7.67S802.57,264.58,802.57,269Zm-11.47.15c0,3.17,1.82,5.55,4.39,5.55s4.39-2.36,4.39-5.61c0-2.45-1.22-5.55-4.33-5.55S791.1,266.4,791.1,269.15Z"/><path class="cls-2" d="M805.88,266.4c0-1.7,0-3.17-.12-4.51h2.3l.09,2.84h.12a4.34,4.34,0,0,1,4-3.17,2.85,2.85,0,0,1,.75.09v2.48a4,4,0,0,0-.9-.09c-1.85,0-3.17,1.4-3.52,3.37a7.36,7.36,0,0,0-.12,1.22v7.7h-2.6Z"/><path class="cls-2" d="M815.28,273.66a6.88,6.88,0,0,0,3.46,1c1.91,0,2.81-1,2.81-2.15s-.75-1.94-2.69-2.66c-2.6-.93-3.82-2.36-3.82-4.09,0-2.33,1.88-4.24,5-4.24a7.22,7.22,0,0,1,3.55.9l-.66,1.91a5.63,5.63,0,0,0-3-.84c-1.55,0-2.42.9-2.42,2s.87,1.73,2.75,2.45c2.51,1,3.79,2.21,3.79,4.36,0,2.54-2,4.33-5.41,4.33a8.24,8.24,0,0,1-4.06-1Z"/><path class="cls-2" d="M654.1,296.74c-.06,1-.12,2.21-.12,4v8.39c0,3.31-.66,5.35-2.06,6.6a7.66,7.66,0,0,1-5.26,1.73,9.33,9.33,0,0,1-4.81-1.19l.66-2a8.15,8.15,0,0,0,4.24,1.13c2.69,0,4.66-1.4,4.66-5v-1.61h-.06a5.16,5.16,0,0,1-4.6,2.42c-3.58,0-6.15-3-6.15-7,0-4.9,3.2-7.67,6.51-7.67a4.81,4.81,0,0,1,4.51,2.51h.06l.12-2.18Zm-2.72,5.7a3.84,3.84,0,0,0-3.82-4c-2.51,0-4.3,2.12-4.3,5.46,0,2.84,1.43,5.2,4.27,5.2a3.84,3.84,0,0,0,3.64-2.69,4.57,4.57,0,0,0,.21-1.4Z"/><path class="cls-2" d="M658.19,301.25c0-1.7,0-3.17-.12-4.51h2.3l.09,2.84h.12a4.34,4.34,0,0,1,4-3.17,2.85,2.85,0,0,1,.75.09V299a4,4,0,0,0-.9-.09c-1.85,0-3.17,1.4-3.52,3.37a7.36,7.36,0,0,0-.12,1.22v7.7h-2.6Z"/><path class="cls-2" d="M675.83,311.19l-.21-1.82h-.09a5.38,5.38,0,0,1-4.42,2.15,4.12,4.12,0,0,1-4.42-4.15c0-3.49,3.11-5.4,8.69-5.37v-.3c0-1.19-.33-3.34-3.28-3.34a7.2,7.2,0,0,0-3.76,1.07l-.6-1.73a9,9,0,0,1,4.75-1.28c4.42,0,5.49,3,5.49,5.91v5.4a20.35,20.35,0,0,0,.24,3.46Zm-.39-7.38c-2.87-.06-6.12.45-6.12,3.25a2.33,2.33,0,0,0,2.48,2.51,3.6,3.6,0,0,0,3.49-2.42,2.73,2.73,0,0,0,.15-.84Z"/><path class="cls-2" d="M694.7,290v17.47c0,1.28,0,2.75.12,3.73h-2.36l-.12-2.51h-.06a5.35,5.35,0,0,1-4.93,2.84c-3.49,0-6.18-3-6.18-7.35,0-4.81,3-7.76,6.48-7.76a4.83,4.83,0,0,1,4.36,2.21h.06V290Zm-2.63,12.63a4.63,4.63,0,0,0-.12-1.1,3.86,3.86,0,0,0-3.79-3c-2.72,0-4.33,2.39-4.33,5.58,0,2.93,1.43,5.35,4.27,5.35a4,4,0,0,0,3.85-3.14,4.55,4.55,0,0,0,.12-1.13Z"/><path class="cls-2" d="M711.15,307.25c0,1.49,0,2.81.12,3.94h-2.33l-.15-2.36h-.06a5.44,5.44,0,0,1-4.78,2.69c-2.27,0-5-1.25-5-6.33v-8.45h2.63v8c0,2.75.84,4.6,3.23,4.6a3.8,3.8,0,0,0,3.46-2.39,3.85,3.85,0,0,0,.24-1.34v-8.87h2.63Z"/><path class="cls-2" d="M723.51,311.19l-.21-1.82h-.09a5.38,5.38,0,0,1-4.42,2.15,4.12,4.12,0,0,1-4.42-4.15c0-3.49,3.11-5.4,8.69-5.37v-.3c0-1.19-.33-3.34-3.28-3.34a7.2,7.2,0,0,0-3.76,1.07l-.6-1.73a9,9,0,0,1,4.75-1.28c4.42,0,5.49,3,5.49,5.91v5.4a20.35,20.35,0,0,0,.24,3.46Zm-.39-7.38c-2.87-.06-6.12.45-6.12,3.25a2.33,2.33,0,0,0,2.48,2.51,3.6,3.6,0,0,0,3.49-2.42,2.73,2.73,0,0,0,.15-.84Z"/><path class="cls-2" d="M733,292.59v4.15h3.76v2H733v7.79c0,1.79.51,2.81,2,2.81a5.83,5.83,0,0,0,1.52-.18l.12,2a6.43,6.43,0,0,1-2.33.36,3.64,3.64,0,0,1-2.84-1.1c-.75-.78-1-2.06-1-3.76v-7.88h-2.24v-2h2.24v-3.46Z"/><path class="cls-2" d="M741,304.44c.06,3.55,2.33,5,5,5a9.5,9.5,0,0,0,4-.75l.45,1.88a11.71,11.71,0,0,1-4.81.9c-4.45,0-7.11-2.93-7.11-7.29s2.57-7.79,6.78-7.79c4.72,0,6,4.15,6,6.81a9.92,9.92,0,0,1-.09,1.22Zm7.7-1.88c0-1.67-.69-4.27-3.64-4.27-2.66,0-3.82,2.45-4,4.27Z"/><path class="cls-2" d="M767,290v17.47c0,1.28,0,2.75.12,3.73h-2.36l-.12-2.51h-.06a5.35,5.35,0,0,1-4.93,2.84c-3.49,0-6.18-3-6.18-7.35,0-4.81,3-7.76,6.48-7.76a4.83,4.83,0,0,1,4.36,2.21h.06V290Zm-2.63,12.63a4.63,4.63,0,0,0-.12-1.1,3.86,3.86,0,0,0-3.79-3c-2.72,0-4.33,2.39-4.33,5.58,0,2.93,1.43,5.35,4.27,5.35a4,4,0,0,0,3.85-3.14,4.55,4.55,0,0,0,.12-1.13Z"/><path class="cls-2" d="M777.91,311.19V298.74h-2v-2h2v-.69a6.81,6.81,0,0,1,1.67-5,5,5,0,0,1,3.52-1.34,6.08,6.08,0,0,1,2.24.42l-.36,2a3.92,3.92,0,0,0-1.67-.33c-2.24,0-2.81,2-2.81,4.18v.78H784v2H780.5v12.45Z"/><path class="cls-2" d="M786.35,301.25c0-1.7,0-3.17-.12-4.51h2.3l.09,2.84h.12a4.34,4.34,0,0,1,4-3.17,2.85,2.85,0,0,1,.75.09V299a4,4,0,0,0-.9-.09c-1.85,0-3.17,1.4-3.52,3.37a7.36,7.36,0,0,0-.12,1.22v7.7h-2.6Z"/><path class="cls-2" d="M808.9,303.84c0,5.35-3.7,7.67-7.2,7.67-3.91,0-6.93-2.87-6.93-7.44,0-4.84,3.17-7.67,7.17-7.67S808.9,299.42,808.9,303.84Zm-11.47.15c0,3.17,1.82,5.55,4.39,5.55s4.39-2.36,4.39-5.61c0-2.45-1.22-5.55-4.33-5.55S797.43,301.25,797.43,304Z"/><path class="cls-2" d="M812.21,300.65c0-1.49,0-2.72-.12-3.91h2.3l.12,2.33h.09a5,5,0,0,1,4.54-2.66,4.27,4.27,0,0,1,4.09,2.9h.06a6,6,0,0,1,1.61-1.88,4.93,4.93,0,0,1,3.2-1c1.91,0,4.75,1.25,4.75,6.27v8.51h-2.57V303c0-2.78-1-4.45-3.14-4.45a3.4,3.4,0,0,0-3.11,2.39,4.34,4.34,0,0,0-.21,1.31v8.93h-2.57v-8.66c0-2.3-1-4-3-4a3.92,3.92,0,0,0-3.46,3.91v8.72h-2.57Z"/><path class="cls-2" d="M650.72,324.83h2.63v9h.06a4.88,4.88,0,0,1,1.88-1.85,5.41,5.41,0,0,1,2.69-.75c1.94,0,5,1.19,5,6.18V346H660.4v-8.3c0-2.33-.87-4.3-3.34-4.3a3.78,3.78,0,0,0-3.52,2.63,3.18,3.18,0,0,0-.18,1.25V346h-2.63Z"/><path class="cls-2" d="M670.22,327.52a1.63,1.63,0,0,1-3.25,0,1.6,1.6,0,0,1,1.64-1.64A1.56,1.56,0,0,1,670.22,327.52ZM667.29,346V331.58h2.63V346Z"/><path class="cls-2" d="M686.73,331.58c-.06,1-.12,2.21-.12,4v8.39c0,3.31-.66,5.35-2.06,6.6a7.66,7.66,0,0,1-5.26,1.73,9.33,9.33,0,0,1-4.81-1.19l.66-2a8.15,8.15,0,0,0,4.24,1.13c2.69,0,4.66-1.4,4.66-5v-1.61H684a5.16,5.16,0,0,1-4.6,2.42c-3.58,0-6.15-3-6.15-7,0-4.9,3.2-7.67,6.51-7.67a4.81,4.81,0,0,1,4.51,2.51h.06l.12-2.18Zm-2.72,5.7a3.84,3.84,0,0,0-3.82-4c-2.51,0-4.3,2.12-4.3,5.46,0,2.84,1.43,5.2,4.27,5.2a3.84,3.84,0,0,0,3.64-2.69,4.57,4.57,0,0,0,.21-1.4Z"/><path class="cls-2" d="M691,324.83h2.63v9h.06a4.88,4.88,0,0,1,1.88-1.85,5.41,5.41,0,0,1,2.69-.75c1.94,0,5,1.19,5,6.18V346h-2.63v-8.3c0-2.33-.87-4.3-3.34-4.3a3.78,3.78,0,0,0-3.52,2.63,3.18,3.18,0,0,0-.18,1.25V346H691Z"/><path class="cls-2" d="M713.51,343.34a6.88,6.88,0,0,0,3.46,1c1.91,0,2.81-1,2.81-2.15s-.75-1.94-2.69-2.66c-2.6-.93-3.82-2.36-3.82-4.09,0-2.33,1.88-4.24,5-4.24a7.22,7.22,0,0,1,3.55.9l-.66,1.91a5.63,5.63,0,0,0-3-.84c-1.55,0-2.42.9-2.42,2s.87,1.73,2.75,2.45c2.51,1,3.79,2.21,3.79,4.36,0,2.54-2,4.33-5.41,4.33a8.24,8.24,0,0,1-4.06-1Z"/><path class="cls-2" d="M736,345.49a9.67,9.67,0,0,1-4.15.84c-4.36,0-7.2-3-7.2-7.38a7.34,7.34,0,0,1,7.76-7.67A8.78,8.78,0,0,1,736,332l-.6,2a6.1,6.1,0,0,0-3-.69c-3.31,0-5.11,2.45-5.11,5.46,0,3.34,2.15,5.41,5,5.41a7.46,7.46,0,0,0,3.23-.72Z"/><path class="cls-2" d="M739.06,324.83h2.63v9h.06a4.88,4.88,0,0,1,1.88-1.85,5.41,5.41,0,0,1,2.69-.75c1.94,0,5,1.19,5,6.18V346h-2.63v-8.3c0-2.33-.87-4.3-3.34-4.3a3.78,3.78,0,0,0-3.52,2.63,3.18,3.18,0,0,0-.18,1.25V346h-2.63Z"/><path class="cls-2" d="M768.71,338.69c0,5.35-3.7,7.67-7.2,7.67-3.91,0-6.93-2.87-6.93-7.44,0-4.84,3.17-7.67,7.17-7.67S768.71,334.27,768.71,338.69Zm-11.47.15c0,3.17,1.82,5.55,4.39,5.55S766,342,766,338.78c0-2.45-1.22-5.55-4.33-5.55S757.24,336.09,757.24,338.83Z"/><path class="cls-2" d="M785.1,338.69c0,5.35-3.7,7.67-7.2,7.67-3.91,0-6.93-2.87-6.93-7.44,0-4.84,3.17-7.67,7.17-7.67S785.1,334.27,785.1,338.69Zm-11.47.15c0,3.17,1.82,5.55,4.39,5.55s4.39-2.36,4.39-5.61c0-2.45-1.22-5.55-4.33-5.55S773.64,336.09,773.64,338.83Z"/><path class="cls-2" d="M788.41,324.83H791V346h-2.63Z"/><path class="cls-2" d="M814.87,338.69c0,5.35-3.7,7.67-7.2,7.67-3.91,0-6.93-2.87-6.93-7.44,0-4.84,3.17-7.67,7.17-7.67S814.87,334.27,814.87,338.69Zm-11.47.15c0,3.17,1.82,5.55,4.39,5.55s4.39-2.36,4.39-5.61c0-2.45-1.22-5.55-4.33-5.55S803.4,336.09,803.4,338.83Z"/><path class="cls-2" d="M818.18,336.09c0-1.7,0-3.17-.12-4.51h2.3l.09,2.84h.12a4.34,4.34,0,0,1,4-3.17,2.85,2.85,0,0,1,.75.09v2.48a4,4,0,0,0-.9-.09c-1.85,0-3.17,1.4-3.52,3.37a7.36,7.36,0,0,0-.12,1.22V346h-2.6Z"/><path class="cls-2" d="M664.75,374.13c.06,3.55,2.33,5,5,5a9.5,9.5,0,0,0,4-.75l.45,1.88a11.71,11.71,0,0,1-4.81.9c-4.45,0-7.11-2.93-7.11-7.29s2.57-7.79,6.78-7.79c4.72,0,6,4.15,6,6.81a9.92,9.92,0,0,1-.09,1.22Zm7.7-1.88c0-1.67-.69-4.27-3.64-4.27-2.66,0-3.82,2.45-4,4.27Z"/><path class="cls-2" d="M686.25,380.87l-.21-1.82H686a5.38,5.38,0,0,1-4.42,2.15,4.12,4.12,0,0,1-4.42-4.15c0-3.49,3.11-5.4,8.69-5.37v-.3c0-1.19-.33-3.34-3.28-3.34a7.2,7.2,0,0,0-3.76,1.07l-.6-1.73a9,9,0,0,1,4.75-1.28c4.42,0,5.49,3,5.49,5.91v5.4a20.35,20.35,0,0,0,.24,3.46Zm-.39-7.38c-2.87-.06-6.12.45-6.12,3.25a2.33,2.33,0,0,0,2.48,2.51,3.6,3.6,0,0,0,3.49-2.42,2.73,2.73,0,0,0,.15-.84Z"/><path class="cls-2" d="M692.64,370.93c0-1.7,0-3.17-.12-4.51h2.3l.09,2.84H695a4.34,4.34,0,0,1,4-3.17,2.85,2.85,0,0,1,.75.09v2.48a4,4,0,0,0-.9-.09c-1.85,0-3.17,1.4-3.52,3.37a7.36,7.36,0,0,0-.12,1.22v7.7h-2.6Z"/><path class="cls-2" d="M702.52,370.33c0-1.49,0-2.72-.12-3.91h2.33l.15,2.39h.06a5.32,5.32,0,0,1,4.78-2.72c2,0,5.11,1.19,5.11,6.15v8.63H712.2v-8.33c0-2.33-.87-4.27-3.34-4.27a3.73,3.73,0,0,0-3.52,2.69,3.77,3.77,0,0,0-.18,1.22v8.69h-2.63Z"/><path class="cls-2" d="M720.55,374.13c.06,3.55,2.33,5,5,5a9.5,9.5,0,0,0,4-.75l.45,1.88a11.71,11.71,0,0,1-4.81.9c-4.45,0-7.11-2.93-7.11-7.29s2.57-7.79,6.78-7.79c4.72,0,6,4.15,6,6.81a9.92,9.92,0,0,1-.09,1.22Zm7.7-1.88c0-1.67-.69-4.27-3.64-4.27-2.66,0-3.82,2.45-4,4.27Z"/><path class="cls-2" d="M746.53,359.67v17.47c0,1.28,0,2.75.12,3.73h-2.36l-.12-2.51h-.06a5.35,5.35,0,0,1-4.93,2.84c-3.49,0-6.18-3-6.18-7.35,0-4.81,3-7.76,6.48-7.76a4.83,4.83,0,0,1,4.36,2.21h.06v-8.63ZM743.9,372.3a4.63,4.63,0,0,0-.12-1.1,3.86,3.86,0,0,0-3.79-3c-2.72,0-4.33,2.39-4.33,5.58,0,2.93,1.43,5.35,4.27,5.35a4,4,0,0,0,3.85-3.14,4.55,4.55,0,0,0,.12-1.13Z"/><path class="cls-2" d="M760.38,362.27v4.15h3.76v2h-3.76v7.79c0,1.79.51,2.81,2,2.81a5.83,5.83,0,0,0,1.52-.18l.12,2a6.43,6.43,0,0,1-2.33.36,3.64,3.64,0,0,1-2.84-1.1c-.75-.78-1-2.06-1-3.76v-7.88h-2.24v-2h2.24V363Z"/><path class="cls-2" d="M767.1,359.67h2.63v9h.06a4.88,4.88,0,0,1,1.88-1.85,5.41,5.41,0,0,1,2.69-.75c1.94,0,5,1.19,5,6.18v8.6h-2.63v-8.3c0-2.33-.87-4.3-3.34-4.3a3.78,3.78,0,0,0-3.52,2.63,3.18,3.18,0,0,0-.18,1.25v8.72H767.1Z"/><path class="cls-2" d="M785.13,374.13c.06,3.55,2.33,5,5,5a9.5,9.5,0,0,0,4-.75l.45,1.88a11.71,11.71,0,0,1-4.81.9c-4.45,0-7.11-2.93-7.11-7.29s2.57-7.79,6.78-7.79c4.72,0,6,4.15,6,6.81a9.92,9.92,0,0,1-.09,1.22Zm7.7-1.88c0-1.67-.69-4.27-3.64-4.27-2.66,0-3.82,2.45-4,4.27Z"/><path class="cls-2" d="M801.55,362.36a1.63,1.63,0,0,1-3.25,0,1.6,1.6,0,0,1,1.64-1.64A1.56,1.56,0,0,1,801.55,362.36Zm-2.93,18.51V366.42h2.63v14.45Z"/><path class="cls-2" d="M805.61,370.93c0-1.7,0-3.17-.12-4.51h2.3l.09,2.84H808a4.34,4.34,0,0,1,4-3.17,2.85,2.85,0,0,1,.75.09v2.48a4,4,0,0,0-.9-.09c-1.85,0-3.17,1.4-3.52,3.37a7.36,7.36,0,0,0-.12,1.22v7.7h-2.6Z"/><path class="cls-2" d="M727.81,414.82a18.74,18.74,0,0,1-6.18,1.1,9.45,9.45,0,0,1-10.33-10.15c0-6,4.15-10.39,10.9-10.39a12.45,12.45,0,0,1,5,.93l-.63,2.12a10.43,10.43,0,0,0-4.45-.87c-4.9,0-8.09,3-8.09,8.09s3.08,8.12,7.76,8.12a8.47,8.47,0,0,0,3.46-.54v-6h-4.09v-2.09h6.63Z"/><path class="cls-2" d="M742.2,406.28h-7.82v7.26h8.72v2.18H731.78V395.59h10.87v2.18h-8.27v6.36h7.82Z"/><path class="cls-2" d="M746.47,395.86a37.23,37.23,0,0,1,5.52-.42c3.73,0,6.39.87,8.15,2.51a9.27,9.27,0,0,1,2.84,7.23,10.64,10.64,0,0,1-2.9,7.82c-1.88,1.88-5,2.9-8.9,2.9a42,42,0,0,1-4.72-.24Zm2.6,17.8a16.39,16.39,0,0,0,2.63.15c5.55,0,8.57-3.11,8.57-8.54,0-4.75-2.66-7.76-8.15-7.76a14.76,14.76,0,0,0-3,.27Z"/><path class="cls-3" d="M649.45,175.58a32,32,0,0,0,5.91,0A23.38,23.38,0,0,0,666.82,172a18.08,18.08,0,0,0,7.34-10.74l-.27-.09c-2.6,2.68-6.35,4.21-11.63,4.21-9.84,0-18.17-6.89-18.17-18.17s9.13-20.94,21.93-20.94c14.95,0,22,11.46,22,25.06,0,12.08-3.85,20.94-10.2,26.76-5.55,5-13.16,7.79-22.19,8.14a47,47,0,0,1-6.18,0Zm8.23-29.17c0,5,2.69,9.31,8.23,9.31a8.57,8.57,0,0,0,7.52-3.85,6.41,6.41,0,0,0,.72-3.4c0-6.18-2.33-12.26-8.5-12.26C661,136.21,657.6,140.32,657.69,146.41Z"/><path class="cls-3" d="M694.83,185.43v-8.23l7.52-6.8c12.71-11.37,18.88-17.9,19.06-24.7,0-4.74-2.86-8.5-9.58-8.5-5,0-9.4,2.51-12.44,4.83l-3.85-9.75a32.21,32.21,0,0,1,19.06-6c13.16,0,20.4,7.7,20.4,18.26,0,9.75-7.07,17.54-15.48,25.06l-5.37,4.47v.18h21.93v11.19Z"/><path class="cls-3" d="M775.11,143.54c0,12.17-7.7,18.53-16.11,18.53-8.86,0-15.84-6.62-15.84-17.54,0-10.38,6.35-18.26,16.29-18.26S775.11,133.61,775.11,143.54Zm-21.84.63c0,6.09,2.06,10.47,6,10.47S765,150.7,765,144.17c0-5.91-1.61-10.47-5.82-10.47C755.15,133.7,753.27,138.35,753.27,144.17Zm6.44,42.24,33.38-60.14h7.34L767,186.41ZM817,167.71c0,12.17-7.7,18.53-16.11,18.53-8.77,0-15.75-6.62-15.84-17.54,0-10.38,6.35-18.26,16.29-18.26S817,157.77,817,167.71Zm-21.75.63c-.09,6.09,2,10.47,5.91,10.47s5.73-3.94,5.73-10.47c0-5.91-1.52-10.47-5.73-10.47S795.24,162.52,795.24,168.33Z"/><polyline class="cls-4" points="338.81 574.68 338.81 601.21 861.19 601.21 861.19 575.16"/><path class="cls-5" d="M505.15,576h1.95v13.45h6.45v1.63h-8.39Z"/><path class="cls-5" d="M524,584.05h-5.86v5.44h6.54v1.63h-8.48V576h8.15v1.63h-6.2v4.77H524Z"/><path class="cls-5" d="M530.07,586.38l-1.57,4.75h-2L531.62,576H534l5.15,15.09H537l-1.61-4.75Zm4.95-1.52-1.48-4.34c-.34-1-.56-1.88-.78-2.75h0c-.22.9-.47,1.81-.76,2.73l-1.48,4.37Z"/><path class="cls-5" d="M541.76,576.24a27.88,27.88,0,0,1,4.14-.31c2.8,0,4.79.65,6.11,1.88a7,7,0,0,1,2.13,5.42,8,8,0,0,1-2.17,5.86c-1.41,1.41-3.74,2.17-6.67,2.17a31.34,31.34,0,0,1-3.54-.18Zm1.95,13.34a12.32,12.32,0,0,0,2,.11c4.16,0,6.42-2.33,6.42-6.4,0-3.56-2-5.82-6.11-5.82a11.07,11.07,0,0,0-2.28.2Z"/><path class="cls-5" d="M564.93,584.05h-5.86v5.44h6.54v1.63h-8.48V576h8.15v1.63h-6.2v4.77h5.86Z"/><path class="cls-5" d="M568.58,576.24a20.27,20.27,0,0,1,3.74-.31c2.08,0,3.42.38,4.37,1.23a3.76,3.76,0,0,1,1.19,2.87,4,4,0,0,1-2.84,3.85v.07c1.16.4,1.86,1.48,2.22,3a24,24,0,0,0,1.16,4.14h-2a19.51,19.51,0,0,1-1-3.6c-.45-2.08-1.25-2.87-3-2.93h-1.84v6.54h-1.95Zm1.95,6.87h2c2.08,0,3.4-1.14,3.4-2.87,0-1.95-1.41-2.8-3.47-2.82a8,8,0,0,0-1.92.18Z"/><path class="cls-5" d="M580.79,588.75a6.9,6.9,0,0,0,3.49,1c2,0,3.16-1.05,3.16-2.57s-.81-2.22-2.84-3c-2.46-.87-4-2.15-4-4.28,0-2.35,1.95-4.1,4.88-4.1a6.86,6.86,0,0,1,3.34.74l-.54,1.59a6,6,0,0,0-2.87-.72c-2.06,0-2.84,1.23-2.84,2.26,0,1.41.92,2.1,3,2.91,2.55,1,3.85,2.22,3.85,4.43s-1.72,4.34-5.28,4.34a7.8,7.8,0,0,1-3.85-1Z"/><path class="cls-5" d="M594.49,576v6.31h7.3V576h2v15.09h-2v-7.07h-7.3v7.07h-1.95V576Z"/><path class="cls-5" d="M609.54,576v15.09h-1.95V576Z"/><path class="cls-5" d="M613.39,576.22a22.57,22.57,0,0,1,3.74-.29,6.2,6.2,0,0,1,4.23,1.25,4.06,4.06,0,0,1,1.32,3.16,4.44,4.44,0,0,1-1.16,3.22,6.25,6.25,0,0,1-4.61,1.66,6.71,6.71,0,0,1-1.57-.13v6h-1.95Zm1.95,7.27a6.53,6.53,0,0,0,1.61.16c2.35,0,3.78-1.14,3.78-3.22s-1.41-3-3.56-3a8.18,8.18,0,0,0-1.84.16Z"/><path class="cls-5" d="M632.83,591.13v-6.4L628.06,576h2.22l2.13,4.16c.58,1.14,1,2.06,1.5,3.11h0c.43-1,.94-2,1.52-3.11l2.17-4.16h2.22l-5.06,8.66v6.42Z"/><path class="cls-5" d="M654.14,583.43c0,5.19-3.16,7.95-7,7.95s-6.78-3.09-6.78-7.66c0-4.79,3-7.92,7-7.92S654.14,578.95,654.14,583.43Zm-11.71.25c0,3.22,1.75,6.11,4.81,6.11s4.84-2.84,4.84-6.27c0-3-1.57-6.13-4.81-6.13S642.43,580.36,642.43,583.67Z"/><path class="cls-5" d="M659.07,576V585c0,3.38,1.5,4.81,3.51,4.81,2.24,0,3.67-1.48,3.67-4.81V576h2v8.8c0,4.63-2.44,6.54-5.71,6.54-3.09,0-5.42-1.77-5.42-6.45V576Z"/><path class="cls-5" d="M674.92,577.7h-4.59V576H681.5v1.66h-4.61v13.43h-2Z"/><path class="cls-5" d="M685.56,576v6.31h7.3V576h2v15.09h-2v-7.07h-7.3v7.07h-1.95V576Z"/></svg>