<svg id="Layer_1" data-name="Layer 1" xmlns="http://www.w3.org/2000/svg" viewBox="0 0 1200 675"><defs><style>.cls-1{fill:#5e294e;}.cls-2{fill:#fff;}.cls-3{fill:#c2b59b;}.cls-4{fill:#f78e20;}.cls-5{fill:#1b75bc;}.cls-6{fill:#776441;}</style></defs><title>Financials-1-large</title><path class="cls-1" d="M334.51,225.62A292.19,292.19,0,0,0,313,336.08H607.91l-55.56-22.45Z"/><polygon class="cls-2" points="607.91 336.08 607.91 336.08 552.35 313.64 607.91 336.08"/><path class="cls-3" d="M613.78,35.34C552.07,35.6,493.87,53,445.37,85.72S358.93,165.87,335.57,223l215.29,87,62.92,25.42Z"/><polygon class="cls-3" points="550.86 309.98 613.78 335.4 613.78 335.4 550.86 309.98"/><path class="cls-4" d="M815.71,110.86A302.11,302.11,0,0,0,616.61,35.34V335.9l298.32-36.63A302.11,302.11,0,0,0,815.71,110.86Z"/><polygon class="cls-2" points="615.2 336.07 615.2 335.97 613.78 335.4 613.78 335.4 613.78 336.08 615.11 336.08 615.2 336.07"/><polygon class="cls-2" points="615.39 336.05 615.2 335.97 615.2 336.07 615.39 336.05"/><path class="cls-5" d="M622.48,338.91h-5.87v.68l-1.61-.65-1.22.15v-.18H313c.76,166,136,300.74,302.16,300.74,166.61,0,302.16-135.55,302.16-302.16a278,278,0,0,0-2.08-35.42l-.17,0L620.8,338.24Z"/><polygon class="cls-5" points="622.48 338.92 620.8 338.24 616.61 338.75 616.61 338.92 622.48 338.92"/><polygon class="cls-5" points="615 338.95 616.61 339.6 616.61 338.92 615.28 338.92 615 338.95"/><polygon class="cls-5" points="616.61 338.92 616.61 338.75 615.28 338.92 616.61 338.92"/><polygon class="cls-5" points="615 338.95 614.92 338.92 613.78 338.92 613.78 339.1 615 338.95"/><polygon class="cls-5" points="616.61 338.75 620.8 338.24 620.78 338.23 616.61 338.74 616.61 338.75"/><polygon class="cls-5" points="615.2 338.92 614.92 338.92 615 338.95 615.28 338.92 615.2 338.92"/><polygon class="cls-5" points="615.28 338.92 616.61 338.75 616.61 338.74 615.2 338.92 615.28 338.92"/><polygon class="cls-2" points="613.78 336.93 611.69 336.08 607.91 336.08 611.42 337.5 613.78 337.5 613.78 336.93"/><polygon class="cls-2" points="613.78 336.08 611.69 336.08 613.78 336.93 613.78 336.08"/><polygon class="cls-2" points="613.78 337.5 615.2 337.5 613.78 336.93 613.78 337.5"/><polygon class="cls-2" points="615.2 337.5 615.2 336.07 615.11 336.08 613.78 336.08 613.78 336.93 615.2 337.5"/><polygon class="cls-2" points="616.61 337.32 618.1 337.14 616.61 336.54 616.61 337.32"/><polygon class="cls-2" points="616.61 335.9 616.61 335.9 615.39 336.05 616.61 336.54 616.61 335.9"/><polygon class="cls-2" points="615.2 337.5 616.61 337.32 616.61 336.54 615.39 336.05 615.2 336.07 615.2 337.5"/><polygon class="cls-2" points="611.42 337.5 613.78 338.45 613.78 337.5 611.42 337.5"/><polygon class="cls-2" points="613.78 338.45 613.78 338.92 614.92 338.92 613.78 338.45"/><polygon class="cls-2" points="616.61 338.74 620.78 338.23 618.1 337.14 616.61 337.32 616.61 338.74"/><polygon class="cls-2" points="615.2 338.92 616.61 338.74 616.61 337.32 615.2 337.5 613.78 337.5 613.78 338.45 614.92 338.92 615.2 338.92"/><path class="cls-6" d="M103.92,248.15a18.62,18.62,0,0,1-7.68,1.38c-8.2,0-14.36-5.18-14.36-14.71,0-9.1,6.17-15.27,15.18-15.27a15.59,15.59,0,0,1,6.9,1.29l-.91,3.06a13.67,13.67,0,0,0-5.87-1.21c-6.82,0-11.34,4.36-11.34,12,0,7.12,4.1,11.69,11.17,11.69a15,15,0,0,0,6.13-1.21Z"/><path class="cls-6" d="M127,238.49c0,7.72-5.35,11.09-10.4,11.09-5.65,0-10-4.14-10-10.74,0-7,4.57-11.09,10.35-11.09C122.9,227.75,127,232.1,127,238.49Zm-16.56.22c0,4.57,2.63,8,6.34,8s6.34-3.41,6.34-8.11c0-3.54-1.77-8-6.25-8S110.39,234.74,110.39,238.7Z"/><path class="cls-6" d="M131.74,234.74c0-2.46,0-4.57-.17-6.51h3.32l.13,4.1h.17a6.26,6.26,0,0,1,5.78-4.57,4.1,4.1,0,0,1,1.08.13v3.58a5.72,5.72,0,0,0-1.29-.13c-2.67,0-4.57,2-5.09,4.87a10.72,10.72,0,0,0-.17,1.77V249.1h-3.75Z"/><path class="cls-6" d="M146,235c0-2.67-.09-4.83-.17-6.82h3.41l.17,3.58h.09a8.21,8.21,0,0,1,7.42-4.05c5,0,8.84,4.27,8.84,10.61,0,7.51-4.57,11.22-9.49,11.22a7.32,7.32,0,0,1-6.43-3.28h-.09v11.34H146Zm3.75,5.56a8.58,8.58,0,0,0,.17,1.55,5.86,5.86,0,0,0,5.69,4.44c4,0,6.34-3.28,6.34-8.07,0-4.18-2.2-7.76-6.21-7.76a6.06,6.06,0,0,0-5.74,4.7,6.16,6.16,0,0,0-.26,1.55Z"/><path class="cls-6" d="M189.45,238.49c0,7.72-5.35,11.09-10.4,11.09-5.65,0-10-4.14-10-10.74,0-7,4.57-11.09,10.35-11.09C185.4,227.75,189.45,232.1,189.45,238.49Zm-16.56.22c0,4.57,2.63,8,6.34,8s6.34-3.41,6.34-8.11c0-3.54-1.77-8-6.25-8S172.89,234.74,172.89,238.7Z"/><path class="cls-6" d="M194.24,234.74c0-2.46,0-4.57-.17-6.51h3.32l.13,4.1h.17a6.26,6.26,0,0,1,5.78-4.57,4.1,4.1,0,0,1,1.08.13v3.58a5.72,5.72,0,0,0-1.29-.13c-2.67,0-4.57,2-5.09,4.87A10.72,10.72,0,0,0,198,238V249.1h-3.75Z"/><path class="cls-6" d="M219.73,249.1l-.3-2.63h-.13a7.78,7.78,0,0,1-6.38,3.11c-4.23,0-6.38-3-6.38-6,0-5,4.49-7.81,12.55-7.76v-.43c0-1.73-.47-4.83-4.75-4.83a10.4,10.4,0,0,0-5.44,1.55l-.86-2.5a13,13,0,0,1,6.86-1.85c6.38,0,7.94,4.36,7.94,8.54v7.81a29.4,29.4,0,0,0,.35,5Zm-.56-10.65c-4.14-.09-8.84.65-8.84,4.7a3.36,3.36,0,0,0,3.58,3.62,5.19,5.19,0,0,0,5-3.49,4,4,0,0,0,.22-1.21Z"/><path class="cls-6" d="M233.36,222.23v6h5.44v2.89h-5.44v11.26c0,2.59.73,4.06,2.85,4.06a8.45,8.45,0,0,0,2.2-.26l.17,2.85a9.29,9.29,0,0,1-3.36.52,5.26,5.26,0,0,1-4.1-1.6c-1.08-1.12-1.47-3-1.47-5.44V231.11h-3.24v-2.89h3.24v-5Z"/><path class="cls-6" d="M247.29,222.35a2.35,2.35,0,0,1-4.7,0A2.31,2.31,0,0,1,245,220,2.25,2.25,0,0,1,247.29,222.35Zm-4.23,26.74V228.22h3.8V249.1Z"/><path class="cls-6" d="M272.05,238.49c0,7.72-5.35,11.09-10.4,11.09-5.65,0-10-4.14-10-10.74,0-7,4.57-11.09,10.35-11.09C268,227.75,272.05,232.1,272.05,238.49Zm-16.56.22c0,4.57,2.63,8,6.34,8s6.34-3.41,6.34-8.11c0-3.54-1.77-8-6.25-8S255.49,234.74,255.49,238.7Z"/><path class="cls-6" d="M276.84,233.87c0-2.16,0-3.93-.17-5.65H280l.22,3.45h.09a7.68,7.68,0,0,1,6.9-3.93c2.89,0,7.38,1.73,7.38,8.89V249.1h-3.8v-12c0-3.36-1.25-6.17-4.83-6.17a5.39,5.39,0,0,0-5.09,3.88,5.46,5.46,0,0,0-.26,1.77V249.1h-3.8Z"/><path class="cls-6" d="M300.26,245.22a10,10,0,0,0,5,1.51c2.76,0,4.05-1.38,4.05-3.11s-1.08-2.8-3.88-3.84c-3.75-1.34-5.52-3.41-5.52-5.91,0-3.36,2.72-6.13,7.2-6.13a10.43,10.43,0,0,1,5.13,1.29l-.95,2.76a8.13,8.13,0,0,0-4.27-1.21c-2.24,0-3.49,1.29-3.49,2.85,0,1.73,1.25,2.5,4,3.54,3.62,1.38,5.48,3.19,5.48,6.3,0,3.67-2.85,6.25-7.81,6.25a11.91,11.91,0,0,1-5.87-1.42Z"/><path class="cls-6" d="M187.25,274a13.73,13.73,0,0,0-2.85.17,11.4,11.4,0,0,0-9.75,10h.13a8.35,8.35,0,0,1,6.77-3.24c5,0,8.45,3.58,8.45,9.06,0,5.13-3.49,9.88-9.32,9.88-6,0-9.92-4.66-9.92-11.95a17.63,17.63,0,0,1,4.74-12.64,15.26,15.26,0,0,1,9-4.14,18.19,18.19,0,0,1,2.76-.22Zm-1.08,16.18c0-4-2.29-6.43-5.78-6.43a6.25,6.25,0,0,0-5.44,3.45,3.23,3.23,0,0,0-.43,1.68c.09,4.62,2.2,8,6.17,8C184,296.95,186.17,294.23,186.17,290.22Z"/><path class="cls-6" d="M206,279.26c0,5.91-3.11,8.84-6.73,8.84s-6.51-2.8-6.56-8.45,3.06-8.76,6.77-8.76C203.43,270.89,206,273.91,206,279.26Zm-10.27.26c-.09,3.58,1.25,6.3,3.62,6.3s3.62-2.67,3.62-6.38c0-3.41-1-6.25-3.62-6.25C197,273.18,195.75,276,195.75,279.52ZM199,299.88l16.48-29h2.42l-16.48,29Zm25.24-9c0,5.91-3.11,8.84-6.69,8.84s-6.51-2.8-6.56-8.41,3.06-8.8,6.77-8.8C221.72,282.49,224.26,285.51,224.26,290.86Zm-10.27.26c0,3.58,1.34,6.3,3.67,6.3,2.5,0,3.62-2.67,3.62-6.38,0-3.41-1-6.25-3.62-6.25C215.29,284.78,214,287.58,214,291.12Z"/><path class="cls-2" d="M415,139.11v29.07h-3.75V139.11Z"/><path class="cls-2" d="M421.83,153c0-2.16,0-3.93-.17-5.65H425l.22,3.45h.09a7.68,7.68,0,0,1,6.9-3.93c2.89,0,7.38,1.73,7.38,8.89v12.47h-3.8v-12c0-3.36-1.25-6.17-4.83-6.17a5.39,5.39,0,0,0-5.09,3.88,5.46,5.46,0,0,0-.26,1.77v12.55h-3.8Z"/><path class="cls-2" d="M463.8,137.55v25.23c0,1.85,0,4,.17,5.39h-3.41l-.17-3.62h-.09a7.72,7.72,0,0,1-7.12,4.1c-5,0-8.93-4.27-8.93-10.61,0-6.94,4.27-11.22,9.36-11.22a7,7,0,0,1,6.3,3.19H460V137.55ZM460,155.8a6.7,6.7,0,0,0-.17-1.6,5.58,5.58,0,0,0-5.48-4.4c-3.93,0-6.25,3.45-6.25,8.07,0,4.23,2.07,7.72,6.17,7.72a5.71,5.71,0,0,0,5.56-4.53,6.59,6.59,0,0,0,.17-1.64Z"/><path class="cls-2" d="M474.32,141.44a2.35,2.35,0,0,1-4.7,0,2.31,2.31,0,0,1,2.37-2.37A2.25,2.25,0,0,1,474.32,141.44Zm-4.23,26.74V147.3h3.8v20.88Z"/><path class="cls-2" d="M481.65,147.3l4.1,11.73a53.69,53.69,0,0,1,1.68,5.35h.13c.47-1.73,1.08-3.45,1.77-5.35l4.05-11.73h4l-8.2,20.88h-3.62L477.6,147.3Z"/><path class="cls-2" d="M505.16,141.44a2.35,2.35,0,0,1-4.7,0,2.31,2.31,0,0,1,2.37-2.37A2.25,2.25,0,0,1,505.16,141.44Zm-4.23,26.74V147.3h3.8v20.88Z"/><path class="cls-2" d="M529.06,137.55v25.23c0,1.85,0,4,.17,5.39h-3.41l-.17-3.62h-.09a7.72,7.72,0,0,1-7.12,4.1c-5,0-8.93-4.27-8.93-10.61,0-6.94,4.27-11.22,9.36-11.22a7,7,0,0,1,6.3,3.19h.09V137.55Zm-3.8,18.25a6.7,6.7,0,0,0-.17-1.6,5.58,5.58,0,0,0-5.48-4.4c-3.93,0-6.25,3.45-6.25,8.07,0,4.23,2.07,7.72,6.17,7.72a5.71,5.71,0,0,0,5.56-4.53,6.59,6.59,0,0,0,.17-1.64Z"/><path class="cls-2" d="M552.82,162.49c0,2.16,0,4.05.17,5.69h-3.36l-.22-3.41h-.09a7.85,7.85,0,0,1-6.9,3.88c-3.28,0-7.2-1.81-7.2-9.15V147.3H539v11.56c0,4,1.21,6.64,4.66,6.64a5.49,5.49,0,0,0,5-3.45,5.55,5.55,0,0,0,.35-1.94V147.3h3.8Z"/><path class="cls-2" d="M570.68,168.18l-.3-2.63h-.13a7.78,7.78,0,0,1-6.38,3.11c-4.23,0-6.38-3-6.38-6,0-5,4.49-7.81,12.55-7.76v-.43c0-1.73-.47-4.83-4.75-4.83a10.4,10.4,0,0,0-5.44,1.55l-.86-2.5a13,13,0,0,1,6.86-1.85c6.38,0,7.94,4.36,7.94,8.54v7.81a29.4,29.4,0,0,0,.35,5Zm-.56-10.65c-4.14-.09-8.84.65-8.84,4.7a3.36,3.36,0,0,0,3.58,3.62,5.19,5.19,0,0,0,5-3.49,4,4,0,0,0,.22-1.21Z"/><path class="cls-2" d="M579.91,137.55h3.8v30.63h-3.8Z"/><path class="cls-2" d="M468.46,201.18h-.09l-4.87,2.63-.73-2.89,6.13-3.28h3.23v28h-3.67Z"/><path class="cls-2" d="M484.54,223a15.86,15.86,0,0,0,3.06-.13,10.58,10.58,0,0,0,5.87-2.72,12.3,12.3,0,0,0,3.71-7.46h-.13a8.23,8.23,0,0,1-6.6,3c-5,0-8.28-3.8-8.28-8.58,0-5.31,3.84-10,9.58-10S501,201.82,501,209c0,6.17-2.07,10.48-4.83,13.16a14,14,0,0,1-8.15,3.75,17.68,17.68,0,0,1-3.49.22Zm1.38-16.13c0,3.49,2.11,6,5.39,6a6.27,6.27,0,0,0,5.52-2.93,2.5,2.5,0,0,0,.35-1.38c0-4.79-1.77-8.45-5.74-8.45C488.21,200.05,485.92,202.9,485.92,206.87Z"/><path class="cls-2" d="M517.11,205.53c0,5.91-3.11,8.84-6.73,8.84s-6.51-2.8-6.56-8.45,3.06-8.76,6.77-8.76C514.52,197.16,517.11,200.18,517.11,205.53Zm-10.27.26c-.09,3.58,1.25,6.3,3.62,6.3s3.62-2.67,3.62-6.38c0-3.41-1-6.25-3.62-6.25C508.09,199.45,506.84,202.25,506.84,205.79Zm3.28,20.36,16.48-29H529l-16.48,29Zm25.23-9c0,5.91-3.11,8.84-6.69,8.84s-6.51-2.8-6.56-8.41,3.06-8.8,6.77-8.8C532.81,208.77,535.36,211.79,535.36,217.14Zm-10.27.26c0,3.58,1.34,6.3,3.67,6.3,2.5,0,3.62-2.67,3.62-6.38,0-3.41-1-6.25-3.62-6.25C526.38,211.05,525.09,213.86,525.09,217.39Z"/><path class="cls-2" d="M660.3,201.91a27.08,27.08,0,0,1-8.93,1.6c-4.4,0-8-1.12-10.87-3.84a15,15,0,0,1-4.06-10.83c0-8.67,6-15,15.75-15a18,18,0,0,1,7.25,1.34l-.91,3.06A15.06,15.06,0,0,0,652.1,177c-7.07,0-11.69,4.4-11.69,11.69s4.44,11.73,11.22,11.73a12.23,12.23,0,0,0,5-.78V191h-5.91v-3h9.58Z"/><path class="cls-2" d="M685,192.59c0,7.72-5.35,11.09-10.4,11.09-5.65,0-10-4.14-10-10.74,0-7,4.57-11.09,10.35-11.09C680.92,181.85,685,186.21,685,192.59Zm-16.56.22c0,4.57,2.63,8,6.34,8s6.34-3.41,6.34-8.11c0-3.54-1.77-8-6.25-8S668.41,188.84,668.41,192.81Z"/><path class="cls-2" d="M691,182.32l4.1,11.73a53.69,53.69,0,0,1,1.68,5.35h.13c.47-1.73,1.08-3.45,1.77-5.35l4.05-11.73h4l-8.2,20.88h-3.62l-7.94-20.88Z"/><path class="cls-2" d="M712,193.45c.09,5.13,3.36,7.25,7.16,7.25a13.72,13.72,0,0,0,5.78-1.08l.65,2.72a16.91,16.91,0,0,1-6.94,1.29c-6.43,0-10.27-4.23-10.27-10.52s3.71-11.26,9.79-11.26c6.82,0,8.63,6,8.63,9.83a14.35,14.35,0,0,1-.13,1.77Zm11.13-2.72c0-2.42-1-6.17-5.26-6.17-3.84,0-5.52,3.54-5.82,6.17Z"/><path class="cls-2" d="M731.47,188.84c0-2.46,0-4.57-.17-6.51h3.32l.13,4.1h.17a6.26,6.26,0,0,1,5.78-4.57,4.1,4.1,0,0,1,1.08.13v3.58a5.72,5.72,0,0,0-1.29-.13c-2.67,0-4.57,2-5.09,4.87a10.72,10.72,0,0,0-.17,1.77V203.2h-3.75Z"/><path class="cls-2" d="M745.7,188c0-2.16,0-3.93-.17-5.65h3.36l.22,3.45h.09a7.68,7.68,0,0,1,6.9-3.93c2.89,0,7.38,1.73,7.38,8.89V203.2h-3.8v-12c0-3.36-1.25-6.17-4.83-6.17a5.39,5.39,0,0,0-5.09,3.88,5.46,5.46,0,0,0-.26,1.77V203.2h-3.8Z"/><path class="cls-2" d="M769.64,188c0-2.16,0-3.93-.17-5.65h3.32l.17,3.36h.13a7.2,7.2,0,0,1,6.56-3.84,6.17,6.17,0,0,1,5.91,4.18h.09a8.6,8.6,0,0,1,2.33-2.72,7.12,7.12,0,0,1,4.62-1.47c2.76,0,6.86,1.81,6.86,9.06V203.2h-3.71V191.38c0-4-1.47-6.43-4.53-6.43a4.91,4.91,0,0,0-4.49,3.45,6.26,6.26,0,0,0-.3,1.9v12.9h-3.71V190.69c0-3.32-1.47-5.74-4.36-5.74a5.66,5.66,0,0,0-5,5.65v12.6h-3.71Z"/><path class="cls-2" d="M807.73,193.45c.09,5.13,3.36,7.25,7.16,7.25a13.72,13.72,0,0,0,5.78-1.08l.65,2.72a16.91,16.91,0,0,1-6.94,1.29c-6.43,0-10.27-4.23-10.27-10.52s3.71-11.26,9.79-11.26c6.82,0,8.63,6,8.63,9.83a14.35,14.35,0,0,1-.13,1.77Zm11.13-2.72c0-2.42-1-6.17-5.26-6.17-3.84,0-5.52,3.54-5.82,6.17Z"/><path class="cls-2" d="M827.23,188c0-2.16,0-3.93-.17-5.65h3.36l.22,3.45h.09a7.68,7.68,0,0,1,6.9-3.93c2.89,0,7.38,1.73,7.38,8.89V203.2h-3.8v-12c0-3.36-1.25-6.17-4.83-6.17a5.39,5.39,0,0,0-5.09,3.88,5.46,5.46,0,0,0-.26,1.77V203.2h-3.8Z"/><path class="cls-2" d="M855.57,176.33v6H861v2.89h-5.44v11.26c0,2.59.73,4.06,2.85,4.06a8.45,8.45,0,0,0,2.2-.26l.17,2.85a9.29,9.29,0,0,1-3.36.52,5.26,5.26,0,0,1-4.1-1.6c-1.08-1.12-1.47-3-1.47-5.44V185.21h-3.24v-2.89h3.24v-5Z"/><path class="cls-2" d="M711.24,260.7v-2.33l3-2.89c7.16-6.82,10.4-10.44,10.44-14.67,0-2.85-1.38-5.48-5.56-5.48a9.55,9.55,0,0,0-6,2.37L711.93,235a12.3,12.3,0,0,1,7.94-2.85c6,0,8.58,4.14,8.58,8.15,0,5.18-3.75,9.36-9.66,15.05l-2.24,2.07v.09h12.6v3.15Z"/><path class="cls-2" d="M734.28,256.34a12.68,12.68,0,0,0,6.21,1.77c4.87,0,6.38-3.11,6.34-5.44,0-3.93-3.58-5.61-7.25-5.61h-2.11v-2.85h2.11c2.76,0,6.25-1.42,6.25-4.75,0-2.24-1.42-4.23-4.92-4.23a10.3,10.3,0,0,0-5.61,1.85l-1-2.76a13.33,13.33,0,0,1,7.33-2.16c5.52,0,8,3.28,8,6.69,0,2.89-1.73,5.35-5.18,6.6v.09c3.45.69,6.25,3.28,6.25,7.2,0,4.49-3.49,8.41-10.22,8.41a14.25,14.25,0,0,1-7.29-1.9Z"/><path class="cls-2" d="M768.14,240.56c0,5.91-3.11,8.84-6.73,8.84s-6.51-2.8-6.56-8.45,3.06-8.76,6.77-8.76C765.55,232.19,768.14,235.21,768.14,240.56Zm-10.27.26c-.09,3.58,1.25,6.3,3.62,6.3s3.62-2.67,3.62-6.38c0-3.41-1-6.25-3.62-6.25C759.12,234.47,757.87,237.28,757.87,240.82Zm3.28,20.36,16.48-29H780l-16.48,29Zm25.23-9c0,5.91-3.11,8.84-6.69,8.84s-6.51-2.8-6.56-8.41,3.06-8.8,6.77-8.8C783.84,243.79,786.38,246.81,786.38,252.16Zm-10.27.26c0,3.58,1.34,6.3,3.67,6.3,2.5,0,3.62-2.67,3.62-6.38,0-3.41-1-6.25-3.62-6.25C777.41,246.08,776.12,248.88,776.12,252.42Z"/><path class="cls-2" d="M504.71,466.06h15.66v3.15H508.47v9.66h11V482h-11v13.16h-3.75Z"/><path class="cls-2" d="M543.19,484.53c0,7.72-5.35,11.09-10.4,11.09-5.65,0-10-4.14-10-10.74,0-7,4.57-11.09,10.35-11.09C539.14,473.79,543.19,478.14,543.19,484.53Zm-16.56.22c0,4.57,2.63,8,6.34,8s6.34-3.41,6.34-8.11c0-3.54-1.77-8-6.25-8S526.63,480.77,526.63,484.74Z"/><path class="cls-2" d="M565.45,489.44c0,2.16,0,4.05.17,5.69h-3.36l-.22-3.41H562a7.85,7.85,0,0,1-6.9,3.88c-3.28,0-7.2-1.81-7.2-9.14V474.26h3.8v11.56c0,4,1.21,6.64,4.66,6.64a5.49,5.49,0,0,0,5-3.45,5.55,5.55,0,0,0,.35-1.94V474.26h3.8Z"/><path class="cls-2" d="M571.74,479.91c0-2.16,0-3.93-.17-5.65h3.36l.22,3.45h.09a7.68,7.68,0,0,1,6.9-3.93c2.89,0,7.38,1.73,7.38,8.89v12.47h-3.8v-12c0-3.36-1.25-6.17-4.83-6.17a5.39,5.39,0,0,0-5.09,3.88,5.46,5.46,0,0,0-.26,1.77v12.55h-3.8Z"/><path class="cls-2" d="M613.72,464.51v25.23c0,1.85,0,4,.17,5.39h-3.41l-.17-3.62h-.09a7.72,7.72,0,0,1-7.12,4.1c-5,0-8.93-4.27-8.93-10.61,0-6.94,4.27-11.22,9.36-11.22a7,7,0,0,1,6.3,3.19h.09V464.51Zm-3.8,18.25a6.7,6.7,0,0,0-.17-1.6,5.58,5.58,0,0,0-5.48-4.4c-3.93,0-6.25,3.45-6.25,8.07,0,4.23,2.07,7.72,6.17,7.72a5.71,5.71,0,0,0,5.56-4.53,6.59,6.59,0,0,0,.17-1.64Z"/><path class="cls-2" d="M631.57,495.14l-.3-2.63h-.13a7.78,7.78,0,0,1-6.38,3.11c-4.23,0-6.38-3-6.38-6,0-5,4.49-7.81,12.55-7.76v-.43c0-1.73-.47-4.83-4.75-4.83a10.4,10.4,0,0,0-5.44,1.55l-.86-2.5a13,13,0,0,1,6.86-1.85c6.38,0,7.94,4.36,7.94,8.54v7.81a29.39,29.39,0,0,0,.35,5ZM631,484.48c-4.14-.09-8.84.65-8.84,4.7a3.36,3.36,0,0,0,3.58,3.62,5.19,5.19,0,0,0,5-3.49,4,4,0,0,0,.22-1.21Z"/><path class="cls-2" d="M645.25,468.26v6h5.44v2.89h-5.44v11.26c0,2.59.73,4.06,2.85,4.06a8.45,8.45,0,0,0,2.2-.26l.17,2.85a9.3,9.3,0,0,1-3.36.52A5.26,5.26,0,0,1,643,494c-1.08-1.12-1.47-3-1.47-5.44V477.15H638.3v-2.89h3.24v-5Z"/><path class="cls-2" d="M659.18,468.39a2.35,2.35,0,0,1-4.7,0,2.31,2.31,0,0,1,2.37-2.37A2.25,2.25,0,0,1,659.18,468.39Zm-4.23,26.74V474.26h3.8v20.88Z"/><path class="cls-2" d="M683.94,484.53c0,7.72-5.35,11.09-10.4,11.09-5.65,0-10-4.14-10-10.74,0-7,4.57-11.09,10.35-11.09C679.88,473.79,683.94,478.14,683.94,484.53Zm-16.56.22c0,4.57,2.63,8,6.34,8s6.34-3.41,6.34-8.11c0-3.54-1.77-8-6.25-8S667.37,480.77,667.37,484.74Z"/><path class="cls-2" d="M688.72,479.91c0-2.16,0-3.93-.17-5.65h3.36l.22,3.45h.09a7.68,7.68,0,0,1,6.9-3.93c2.89,0,7.38,1.73,7.38,8.89v12.47h-3.8v-12c0-3.36-1.25-6.17-4.83-6.17a5.39,5.39,0,0,0-5.09,3.88,5.46,5.46,0,0,0-.26,1.77v12.55h-3.8Z"/><path class="cls-2" d="M712.15,491.26a10,10,0,0,0,5,1.51c2.76,0,4.05-1.38,4.05-3.11s-1.08-2.8-3.88-3.84c-3.75-1.34-5.52-3.41-5.52-5.91,0-3.36,2.72-6.13,7.2-6.13a10.43,10.43,0,0,1,5.13,1.29l-.95,2.76a8.13,8.13,0,0,0-4.27-1.21c-2.24,0-3.49,1.29-3.49,2.85,0,1.73,1.25,2.5,4,3.54,3.62,1.38,5.48,3.19,5.48,6.3,0,3.67-2.85,6.25-7.81,6.25a11.91,11.91,0,0,1-5.87-1.42Z"/><path class="cls-2" d="M593.44,527.79h-10.7l-1.08,7.2a15,15,0,0,1,2.29-.17,11.85,11.85,0,0,1,6,1.51,8,8,0,0,1,4,7.2c0,5.48-4.36,9.58-10.44,9.58a13.72,13.72,0,0,1-7-1.73l.95-2.89a12.56,12.56,0,0,0,6,1.55c3.58,0,6.64-2.33,6.64-6.08s-2.46-6.21-8.07-6.21a29.11,29.11,0,0,0-3.88.3L580,524.6h13.42Z"/><path class="cls-2" d="M598.83,552.63V550.3l3-2.89c7.16-6.82,10.4-10.44,10.44-14.67,0-2.85-1.38-5.48-5.56-5.48a9.54,9.54,0,0,0-6,2.37L599.52,527a12.3,12.3,0,0,1,7.94-2.85c6,0,8.58,4.14,8.58,8.15,0,5.18-3.75,9.36-9.66,15.05l-2.24,2.07v.09h12.6v3.15Z"/><path class="cls-2" d="M633.6,532.49c0,5.91-3.11,8.84-6.73,8.84s-6.51-2.8-6.56-8.45,3.06-8.76,6.77-8.76C631,524.12,633.6,527.14,633.6,532.49Zm-10.27.26c-.09,3.58,1.25,6.3,3.62,6.3s3.62-2.67,3.62-6.38c0-3.41-1-6.25-3.62-6.25C624.58,526.41,623.33,529.21,623.33,532.75Zm3.28,20.36,16.48-29h2.42l-16.48,29Zm25.24-9c0,5.91-3.11,8.84-6.69,8.84s-6.51-2.8-6.56-8.41,3.06-8.8,6.77-8.8C649.3,535.72,651.85,538.74,651.85,544.09Zm-10.27.26c0,3.58,1.34,6.3,3.67,6.3,2.5,0,3.62-2.67,3.62-6.38,0-3.41-1-6.25-3.62-6.25C642.87,538,641.58,540.81,641.58,544.35Z"/></svg>