<svg id="Layer_1" data-name="Layer 1" xmlns="http://www.w3.org/2000/svg" viewBox="0 0 480 360"><defs><style>.cls-1{fill:#5e294e;}.cls-2{fill:#fff;}.cls-3{fill:#c2b59b;}.cls-4{fill:#f78e20;}.cls-5{fill:#1b75bc;}.cls-6{fill:#776441;}</style></defs><title>Financials-1-small</title><path class="cls-1" d="M157.06,123.54a147.47,147.47,0,0,0-10.84,55.75H295L267,168Z"/><polygon class="cls-2" points="295.05 179.28 295.05 179.28 267.01 167.96 295.05 179.28"/><path class="cls-3" d="M298,27.5c-31.15.13-60.52,8.92-85,25.43s-43.62,40.45-55.41,69.28l108.66,43.9L298,178.94Z"/><polygon class="cls-3" points="266.26 166.11 298.01 178.94 298.01 178.94 266.26 166.11"/><path class="cls-4" d="M399.92,65.61A152.48,152.48,0,0,0,299.44,27.5V179.19L450,160.71A152.47,152.47,0,0,0,399.92,65.61Z"/><polygon class="cls-2" points="298.73 179.28 298.73 179.23 298.01 178.94 298.01 178.94 298.01 179.28 298.68 179.28 298.73 179.28"/><polygon class="cls-2" points="298.82 179.27 298.73 179.23 298.73 179.28 298.82 179.27"/><path class="cls-5" d="M302.4,180.71h-3v.34l-.81-.33-.62.08v-.09H146.23c.38,83.76,68.65,151.79,152.5,151.79,84.09,0,152.5-68.41,152.5-152.5a140.33,140.33,0,0,0-1.05-17.88h-.09L301.56,180.37Z"/><polygon class="cls-5" points="302.4 180.71 301.56 180.37 299.44 180.63 299.44 180.71 302.4 180.71"/><polygon class="cls-5" points="298.63 180.73 299.44 181.06 299.44 180.71 298.77 180.71 298.63 180.73"/><polygon class="cls-5" points="299.44 180.71 299.44 180.63 298.77 180.71 299.44 180.71"/><polygon class="cls-5" points="298.63 180.73 298.59 180.71 298.01 180.71 298.01 180.81 298.63 180.73"/><polygon class="cls-5" points="299.44 180.63 301.56 180.37 301.55 180.37 299.44 180.63 299.44 180.63"/><polygon class="cls-5" points="298.73 180.71 298.59 180.71 298.63 180.73 298.77 180.71 298.73 180.71"/><polygon class="cls-5" points="298.77 180.71 299.44 180.63 299.44 180.63 298.73 180.71 298.77 180.71"/><polygon class="cls-2" points="298.01 179.71 296.96 179.28 295.05 179.28 296.82 180 298.01 180 298.01 179.71"/><polygon class="cls-2" points="298.01 179.28 296.96 179.28 298.01 179.71 298.01 179.28"/><polygon class="cls-2" points="298.01 180 298.73 180 298.01 179.71 298.01 180"/><polygon class="cls-2" points="298.73 180 298.73 179.28 298.68 179.28 298.01 179.28 298.01 179.71 298.73 180"/><polygon class="cls-2" points="299.44 179.91 300.19 179.82 299.44 179.52 299.44 179.91"/><polygon class="cls-2" points="299.44 179.19 299.44 179.19 298.82 179.27 299.44 179.52 299.44 179.19"/><polygon class="cls-2" points="298.73 180 299.44 179.91 299.44 179.52 298.82 179.27 298.73 179.28 298.73 180"/><polygon class="cls-2" points="296.82 180 298.01 180.48 298.01 180 296.82 180"/><polygon class="cls-2" points="298.01 180.48 298.01 180.71 298.59 180.71 298.01 180.48"/><polygon class="cls-2" points="299.44 180.63 301.55 180.37 300.19 179.82 299.44 179.91 299.44 180.63"/><polygon class="cls-2" points="298.73 180.71 299.44 180.63 299.44 179.91 298.73 180 298.01 180 298.01 180.48 298.59 180.71 298.73 180.71"/><path class="cls-6" d="M40.68,134.9a9.39,9.39,0,0,1-3.87.7c-4.14,0-7.25-2.61-7.25-7.42a7.3,7.3,0,0,1,7.66-7.71,7.86,7.86,0,0,1,3.48.65l-.46,1.55a6.89,6.89,0,0,0-3-.61c-3.44,0-5.73,2.2-5.73,6.05,0,3.59,2.07,5.9,5.64,5.9a7.58,7.58,0,0,0,3.09-.61Z"/><path class="cls-6" d="M52.31,130c0,3.9-2.7,5.6-5.25,5.6-2.85,0-5.05-2.09-5.05-5.42,0-3.53,2.31-5.6,5.23-5.6S52.31,126.8,52.31,130Zm-8.36.11c0,2.31,1.33,4.05,3.2,4.05s3.2-1.72,3.2-4.09c0-1.79-.89-4-3.16-4S43.95,128.13,43.95,130.14Z"/><path class="cls-6" d="M54.72,128.13c0-1.24,0-2.31-.09-3.29h1.68l.07,2.07h.09a3.16,3.16,0,0,1,2.92-2.31,2.06,2.06,0,0,1,.54.07v1.81a2.86,2.86,0,0,0-.65-.07,2.69,2.69,0,0,0-2.57,2.46,5.36,5.36,0,0,0-.09.89v5.62H54.72Z"/><path class="cls-6" d="M61.93,128.28c0-1.35,0-2.44-.09-3.44h1.72l.09,1.81h0a4.14,4.14,0,0,1,3.75-2c2.55,0,4.46,2.16,4.46,5.36,0,3.79-2.31,5.66-4.79,5.66A3.7,3.7,0,0,1,63.87,134h0v5.73H61.93Zm1.89,2.81a4.28,4.28,0,0,0,.09.78,3,3,0,0,0,2.87,2.24c2,0,3.2-1.66,3.2-4.07,0-2.11-1.11-3.92-3.14-3.92A3.06,3.06,0,0,0,64,128.5a3.1,3.1,0,0,0-.13.78Z"/><path class="cls-6" d="M83.85,130c0,3.9-2.7,5.6-5.25,5.6-2.85,0-5.05-2.09-5.05-5.42,0-3.53,2.31-5.6,5.23-5.6S83.85,126.8,83.85,130Zm-8.36.11c0,2.31,1.33,4.05,3.2,4.05s3.2-1.72,3.2-4.09c0-1.79-.89-4-3.16-4S75.49,128.13,75.49,130.14Z"/><path class="cls-6" d="M86.27,128.13c0-1.24,0-2.31-.09-3.29h1.68l.07,2.07H88a3.16,3.16,0,0,1,2.92-2.31,2.06,2.06,0,0,1,.54.07v1.81a2.86,2.86,0,0,0-.65-.07,2.69,2.69,0,0,0-2.57,2.46,5.35,5.35,0,0,0-.09.89v5.62H86.27Z"/><path class="cls-6" d="M99.13,135.38,99,134.05h-.07a3.93,3.93,0,0,1-3.22,1.57,3,3,0,0,1-3.22-3c0-2.55,2.26-3.94,6.34-3.92v-.22a2.17,2.17,0,0,0-2.4-2.44,5.26,5.26,0,0,0-2.74.78l-.44-1.26a6.54,6.54,0,0,1,3.46-.94c3.22,0,4,2.2,4,4.31v3.94a14.82,14.82,0,0,0,.17,2.53ZM98.85,130c-2.09,0-4.46.33-4.46,2.37a1.7,1.7,0,0,0,1.81,1.83,2.62,2.62,0,0,0,2.55-1.76,2,2,0,0,0,.11-.61Z"/><path class="cls-6" d="M106,121.82v3h2.74v1.46H106V132c0,1.31.37,2,1.44,2a4.25,4.25,0,0,0,1.11-.13l.09,1.44a4.69,4.69,0,0,1-1.7.26,2.66,2.66,0,0,1-2.07-.81,3.9,3.9,0,0,1-.74-2.74V126.3h-1.63v-1.46h1.63v-2.53Z"/><path class="cls-6" d="M113,121.88a1.19,1.19,0,0,1-2.37,0,1.17,1.17,0,0,1,1.2-1.2A1.14,1.14,0,0,1,113,121.88Zm-2.13,13.5V124.84h1.92v10.54Z"/><path class="cls-6" d="M125.54,130c0,3.9-2.7,5.6-5.25,5.6-2.85,0-5.05-2.09-5.05-5.42,0-3.53,2.31-5.6,5.23-5.6S125.54,126.8,125.54,130Zm-8.36.11c0,2.31,1.33,4.05,3.2,4.05s3.2-1.72,3.2-4.09c0-1.79-.89-4-3.16-4S117.18,128.13,117.18,130.14Z"/><path class="cls-6" d="M128,127.7c0-1.09,0-2-.09-2.85h1.7l.11,1.74h0a3.87,3.87,0,0,1,3.48-2c1.46,0,3.72.87,3.72,4.49v6.29H135v-6.08c0-1.7-.63-3.11-2.44-3.11a2.81,2.81,0,0,0-2.7,2.85v6.34H128Z"/><path class="cls-6" d="M139.78,133.42a5,5,0,0,0,2.53.76c1.39,0,2-.7,2-1.57s-.54-1.42-2-1.94c-1.89-.67-2.79-1.72-2.79-3,0-1.7,1.37-3.09,3.64-3.09a5.26,5.26,0,0,1,2.59.65l-.48,1.39a4.1,4.1,0,0,0-2.16-.61c-1.13,0-1.76.65-1.76,1.44s.63,1.26,2,1.79c1.83.7,2.77,1.61,2.77,3.18,0,1.85-1.44,3.16-3.94,3.16a6,6,0,0,1-3-.72Z"/><path class="cls-6" d="M82.74,148a6.89,6.89,0,0,0-1.44.09,5.75,5.75,0,0,0-4.92,5h.07a4.22,4.22,0,0,1,3.42-1.63c2.5,0,4.27,1.81,4.27,4.57a4.73,4.73,0,0,1-4.7,5c-3,0-5-2.35-5-6a8.9,8.9,0,0,1,2.4-6.38,7.7,7.7,0,0,1,4.53-2.09,9.12,9.12,0,0,1,1.39-.11Zm-.54,8.17c0-2-1.15-3.24-2.92-3.24a3.15,3.15,0,0,0-2.74,1.74,1.63,1.63,0,0,0-.22.85c0,2.33,1.11,4,3.11,4C81.09,159.53,82.2,158.16,82.2,156.14Z"/><path class="cls-6" d="M92.21,150.6c0,3-1.57,4.46-3.4,4.46s-3.29-1.42-3.31-4.27,1.55-4.42,3.42-4.42S92.21,147.9,92.21,150.6Zm-5.18.13c0,1.81.63,3.18,1.83,3.18s1.83-1.35,1.83-3.22c0-1.72-.5-3.16-1.83-3.16S87,148.95,87,150.73ZM88.68,161,97,146.38h1.22L89.9,161Zm12.74-4.55c0,3-1.57,4.46-3.38,4.46s-3.29-1.42-3.31-4.25,1.55-4.44,3.42-4.44S101.42,153.76,101.42,156.46Zm-5.18.13c0,1.81.67,3.18,1.85,3.18s1.83-1.35,1.83-3.22c0-1.72-.5-3.16-1.83-3.16S96.24,154.81,96.24,156.59Z"/><path class="cls-2" d="M197.69,79.87V94.54H195.8V79.87Z"/><path class="cls-2" d="M201.13,86.86c0-1.09,0-2-.09-2.85h1.7l.11,1.74h0a3.87,3.87,0,0,1,3.48-2c1.46,0,3.72.87,3.72,4.49v6.29h-1.92V88.47c0-1.7-.63-3.11-2.44-3.11a2.81,2.81,0,0,0-2.7,2.85v6.34h-1.92Z"/><path class="cls-2" d="M222.32,79.08V91.82c0,.94,0,2,.09,2.72h-1.72l-.09-1.83h0A3.9,3.9,0,0,1,217,94.78c-2.55,0-4.51-2.16-4.51-5.36,0-3.51,2.16-5.66,4.73-5.66a3.52,3.52,0,0,1,3.18,1.61h0V79.08Zm-1.92,9.21a3.38,3.38,0,0,0-.09-.81,2.82,2.82,0,0,0-2.76-2.22c-2,0-3.16,1.74-3.16,4.07,0,2.13,1,3.9,3.11,3.9A2.88,2.88,0,0,0,220.31,91a3.32,3.32,0,0,0,.09-.83Z"/><path class="cls-2" d="M227.63,81a1.19,1.19,0,0,1-2.37,0,1.17,1.17,0,0,1,1.2-1.2A1.14,1.14,0,0,1,227.63,81Zm-2.13,13.5V84h1.92V94.54Z"/><path class="cls-2" d="M231.33,84l2.07,5.92a27,27,0,0,1,.85,2.7h.06c.24-.87.54-1.74.89-2.7l2-5.92h2l-4.14,10.54h-1.83l-4-10.54Z"/><path class="cls-2" d="M243.19,81a1.19,1.19,0,0,1-2.37,0,1.17,1.17,0,0,1,1.2-1.2A1.14,1.14,0,0,1,243.19,81Zm-2.13,13.5V84H243V94.54Z"/><path class="cls-2" d="M255.25,79.08V91.82c0,.94,0,2,.09,2.72h-1.72l-.09-1.83h0a3.9,3.9,0,0,1-3.59,2.07c-2.55,0-4.51-2.16-4.51-5.36,0-3.51,2.16-5.66,4.73-5.66a3.52,3.52,0,0,1,3.18,1.61h0V79.08Zm-1.92,9.21a3.38,3.38,0,0,0-.09-.81,2.82,2.82,0,0,0-2.76-2.22c-2,0-3.16,1.74-3.16,4.07,0,2.13,1,3.9,3.11,3.9A2.88,2.88,0,0,0,253.25,91a3.32,3.32,0,0,0,.09-.83Z"/><path class="cls-2" d="M267.25,91.67c0,1.09,0,2,.09,2.87h-1.7l-.11-1.72h0a4,4,0,0,1-3.48,2c-1.65,0-3.64-.91-3.64-4.62V84h1.92v5.84c0,2,.61,3.35,2.35,3.35a2.7,2.7,0,0,0,2.7-2.72V84h1.92Z"/><path class="cls-2" d="M276.26,94.54l-.15-1.33H276a3.93,3.93,0,0,1-3.22,1.57,3,3,0,0,1-3.22-3c0-2.55,2.26-3.94,6.34-3.92v-.22a2.17,2.17,0,0,0-2.4-2.44,5.25,5.25,0,0,0-2.74.78l-.44-1.26a6.54,6.54,0,0,1,3.46-.94c3.22,0,4,2.2,4,4.31V92a14.82,14.82,0,0,0,.17,2.53ZM276,89.17c-2.09,0-4.46.33-4.46,2.37a1.7,1.7,0,0,0,1.81,1.83,2.62,2.62,0,0,0,2.55-1.76A2,2,0,0,0,276,91Z"/><path class="cls-2" d="M280.92,79.08h1.92V94.54h-1.92Z"/><path class="cls-2" d="M224.67,111.19h0l-2.46,1.33-.37-1.46,3.09-1.66h1.63v14.15h-1.85Z"/><path class="cls-2" d="M232.78,122.21a8,8,0,0,0,1.55-.07,5.34,5.34,0,0,0,3-1.37,6.21,6.21,0,0,0,1.87-3.77h-.06a4.16,4.16,0,0,1-3.33,1.52,4.1,4.1,0,0,1-4.18-4.33,4.85,4.85,0,0,1,4.83-5c2.9,0,4.68,2.35,4.68,6a8.94,8.94,0,0,1-2.44,6.64,7.08,7.08,0,0,1-4.12,1.89,8.92,8.92,0,0,1-1.76.11Zm.7-8.14a2.72,2.72,0,0,0,2.72,3,3.17,3.17,0,0,0,2.79-1.48,1.26,1.26,0,0,0,.17-.7c0-2.42-.89-4.27-2.9-4.27C234.64,110.63,233.48,112.06,233.48,114.07Z"/><path class="cls-2" d="M249.22,113.39c0,3-1.57,4.46-3.4,4.46s-3.29-1.42-3.31-4.27,1.55-4.42,3.42-4.42S249.22,110.69,249.22,113.39Zm-5.18.13c0,1.81.63,3.18,1.83,3.18s1.83-1.35,1.83-3.22c0-1.72-.5-3.16-1.83-3.16S244,111.74,244,113.52Zm1.65,10.28L254,109.17h1.22l-8.32,14.63Zm12.74-4.55c0,3-1.57,4.46-3.37,4.46s-3.29-1.42-3.31-4.25,1.55-4.44,3.42-4.44S258.43,116.55,258.43,119.25Zm-5.18.13c0,1.81.67,3.18,1.85,3.18s1.83-1.35,1.83-3.22c0-1.72-.5-3.16-1.83-3.16S253.25,117.6,253.25,119.38Z"/><path class="cls-2" d="M321.49,111.57a13.68,13.68,0,0,1-4.51.81,6.89,6.89,0,0,1-7.53-7.4c0-4.38,3-7.58,7.95-7.58a9.08,9.08,0,0,1,3.66.67l-.46,1.55a7.61,7.61,0,0,0-3.25-.63,5.49,5.49,0,0,0-5.9,5.9c0,3.72,2.24,5.92,5.66,5.92a6.18,6.18,0,0,0,2.53-.39V106h-3v-1.52h4.83Z"/><path class="cls-2" d="M333.94,106.86c0,3.9-2.7,5.6-5.25,5.6-2.85,0-5.05-2.09-5.05-5.42,0-3.53,2.31-5.6,5.23-5.6S333.94,103.64,333.94,106.86Zm-8.36.11c0,2.31,1.33,4.05,3.2,4.05s3.2-1.72,3.2-4.09c0-1.79-.89-4-3.16-4S325.58,105,325.58,107Z"/><path class="cls-2" d="M337,101.68,339,107.6a27,27,0,0,1,.85,2.7H340c.24-.87.54-1.74.89-2.7l2-5.92h2l-4.14,10.54h-1.83l-4-10.54Z"/><path class="cls-2" d="M347.57,107.3a3.38,3.38,0,0,0,3.61,3.66,6.92,6.92,0,0,0,2.92-.54l.33,1.37a8.54,8.54,0,0,1-3.51.65c-3.24,0-5.18-2.13-5.18-5.31s1.87-5.68,4.94-5.68c3.44,0,4.35,3,4.35,5a7.29,7.29,0,0,1-.07.89Zm5.62-1.37c0-1.22-.5-3.11-2.66-3.11-1.94,0-2.79,1.79-2.94,3.11Z"/><path class="cls-2" d="M357.41,105c0-1.24,0-2.31-.09-3.29H359l.07,2.07h.09a3.16,3.16,0,0,1,2.92-2.31,2.08,2.08,0,0,1,.54.07v1.81a2.86,2.86,0,0,0-.65-.07,2.69,2.69,0,0,0-2.57,2.46,5.36,5.36,0,0,0-.09.89v5.62h-1.89Z"/><path class="cls-2" d="M364.59,104.53c0-1.09,0-2-.09-2.85h1.7l.11,1.74h0a3.87,3.87,0,0,1,3.48-2c1.46,0,3.72.87,3.72,4.49v6.29h-1.92v-6.08c0-1.7-.63-3.11-2.44-3.11a2.81,2.81,0,0,0-2.7,2.85v6.34h-1.92Z"/><path class="cls-2" d="M376.67,104.53c0-1.09,0-2-.09-2.85h1.68l.09,1.7h.06a3.63,3.63,0,0,1,3.31-1.94,3.12,3.12,0,0,1,3,2.11h0a4.34,4.34,0,0,1,1.18-1.37,3.6,3.6,0,0,1,2.33-.74c1.39,0,3.46.92,3.46,4.57v6.21h-1.87v-6c0-2-.74-3.25-2.29-3.25a2.48,2.48,0,0,0-2.26,1.74,3.16,3.16,0,0,0-.15,1v6.51h-1.87V105.9c0-1.68-.74-2.9-2.2-2.9a2.62,2.62,0,0,0-2.37,1.92,2.65,2.65,0,0,0-.15.94v6.36h-1.87Z"/><path class="cls-2" d="M395.9,107.3a3.38,3.38,0,0,0,3.62,3.66,6.91,6.91,0,0,0,2.92-.54l.33,1.37a8.54,8.54,0,0,1-3.51.65c-3.24,0-5.18-2.13-5.18-5.31s1.87-5.68,4.94-5.68c3.44,0,4.35,3,4.35,5a7.29,7.29,0,0,1-.07.89Zm5.62-1.37c0-1.22-.5-3.11-2.66-3.11-1.94,0-2.79,1.79-2.94,3.11Z"/><path class="cls-2" d="M405.74,104.53c0-1.09,0-2-.09-2.85h1.7l.11,1.74h0a3.87,3.87,0,0,1,3.48-2c1.46,0,3.72.87,3.72,4.49v6.29h-1.92v-6.08c0-1.7-.63-3.11-2.44-3.11a2.81,2.81,0,0,0-2.7,2.85v6.34h-1.92Z"/><path class="cls-2" d="M420,98.65v3h2.74v1.46H420v5.68c0,1.31.37,2,1.44,2a4.25,4.25,0,0,0,1.11-.13l.09,1.44a4.69,4.69,0,0,1-1.7.26,2.66,2.66,0,0,1-2.07-.81,3.9,3.9,0,0,1-.74-2.74v-5.75h-1.63v-1.46h1.63V99.15Z"/><path class="cls-2" d="M347.2,141.24v-1.18l1.5-1.46c3.61-3.44,5.25-5.27,5.27-7.4a2.53,2.53,0,0,0-2.81-2.77,4.82,4.82,0,0,0-3,1.2l-.61-1.35a6.21,6.21,0,0,1,4-1.44,4,4,0,0,1,4.33,4.12c0,2.61-1.89,4.72-4.88,7.6l-1.13,1v0h6.36v1.59Z"/><path class="cls-2" d="M358.83,139a6.4,6.4,0,0,0,3.13.89c2.46,0,3.22-1.57,3.2-2.74,0-2-1.81-2.83-3.66-2.83h-1.07v-1.44h1.07c1.39,0,3.16-.72,3.16-2.4,0-1.13-.72-2.13-2.48-2.13a5.2,5.2,0,0,0-2.83.94l-.5-1.39a6.72,6.72,0,0,1,3.7-1.09c2.79,0,4.05,1.65,4.05,3.38a3.51,3.51,0,0,1-2.61,3.33v0a3.69,3.69,0,0,1,3.16,3.64c0,2.26-1.76,4.25-5.16,4.25a7.2,7.2,0,0,1-3.68-1Z"/><path class="cls-2" d="M375.91,131.07c0,3-1.57,4.46-3.4,4.46s-3.29-1.42-3.31-4.27,1.55-4.42,3.42-4.42S375.91,128.37,375.91,131.07Zm-5.18.13c0,1.81.63,3.18,1.83,3.18s1.83-1.35,1.83-3.22c0-1.72-.5-3.16-1.83-3.16S370.73,129.42,370.73,131.2Zm1.65,10.28,8.32-14.63h1.22l-8.32,14.63Zm12.74-4.55c0,3-1.57,4.46-3.37,4.46s-3.29-1.42-3.31-4.25,1.55-4.44,3.42-4.44S385.13,134.23,385.13,136.93Zm-5.18.13c0,1.81.67,3.18,1.85,3.18s1.83-1.35,1.83-3.22c0-1.72-.5-3.16-1.83-3.16S379.94,135.27,379.94,137.06Z"/><path class="cls-2" d="M243,244.88h7.9v1.59h-6v4.88h5.55v1.57h-5.55v6.64H243Z"/><path class="cls-2" d="M262.39,254.2c0,3.9-2.7,5.6-5.25,5.6-2.85,0-5.05-2.09-5.05-5.42,0-3.53,2.31-5.6,5.23-5.6S262.39,251,262.39,254.2Zm-8.36.11c0,2.31,1.33,4.05,3.2,4.05s3.2-1.72,3.2-4.09c0-1.79-.89-4-3.16-4S254,252.31,254,254.31Z"/><path class="cls-2" d="M273.62,256.69c0,1.09,0,2,.09,2.87H272l-.11-1.72h0a4,4,0,0,1-3.48,2c-1.65,0-3.64-.91-3.64-4.62V249h1.92v5.84c0,2,.61,3.35,2.35,3.35a2.7,2.7,0,0,0,2.7-2.72V249h1.92Z"/><path class="cls-2" d="M276.79,251.87c0-1.09,0-2-.09-2.85h1.7l.11,1.74h0a3.87,3.87,0,0,1,3.48-2c1.46,0,3.72.87,3.72,4.49v6.29h-1.92v-6.08c0-1.7-.63-3.11-2.44-3.11a2.81,2.81,0,0,0-2.7,2.85v6.34h-1.92Z"/><path class="cls-2" d="M298,244.1v12.74c0,.94,0,2,.09,2.72h-1.72l-.09-1.83h0a3.9,3.9,0,0,1-3.59,2.07c-2.55,0-4.51-2.16-4.51-5.36,0-3.51,2.16-5.66,4.73-5.66a3.52,3.52,0,0,1,3.18,1.61h0V244.1Zm-1.92,9.21a3.38,3.38,0,0,0-.09-.81,2.82,2.82,0,0,0-2.76-2.22c-2,0-3.16,1.74-3.16,4.07,0,2.13,1,3.9,3.11,3.9A2.88,2.88,0,0,0,296,256a3.32,3.32,0,0,0,.09-.83Z"/><path class="cls-2" d="M307,259.56l-.15-1.33h-.07a3.93,3.93,0,0,1-3.22,1.57,3,3,0,0,1-3.22-3c0-2.55,2.26-3.94,6.34-3.92v-.22a2.17,2.17,0,0,0-2.4-2.44,5.25,5.25,0,0,0-2.74.78l-.44-1.26a6.54,6.54,0,0,1,3.46-.94c3.22,0,4,2.2,4,4.31V257a14.82,14.82,0,0,0,.17,2.53Zm-.28-5.38c-2.09,0-4.46.33-4.46,2.37a1.7,1.7,0,0,0,1.81,1.83,2.62,2.62,0,0,0,2.55-1.76,2,2,0,0,0,.11-.61Z"/><path class="cls-2" d="M313.89,246v3h2.74v1.46h-2.74v5.68c0,1.31.37,2,1.44,2a4.25,4.25,0,0,0,1.11-.13l.09,1.44a4.69,4.69,0,0,1-1.7.26,2.66,2.66,0,0,1-2.07-.81,3.9,3.9,0,0,1-.74-2.74v-5.75h-1.63V249H312V246.5Z"/><path class="cls-2" d="M320.92,246.06a1.19,1.19,0,0,1-2.37,0,1.17,1.17,0,0,1,1.2-1.2A1.14,1.14,0,0,1,320.92,246.06Zm-2.13,13.5V249h1.92v10.54Z"/><path class="cls-2" d="M333.42,254.2c0,3.9-2.7,5.6-5.25,5.6-2.85,0-5.05-2.09-5.05-5.42,0-3.53,2.31-5.6,5.23-5.6S333.42,251,333.42,254.2Zm-8.36.11c0,2.31,1.33,4.05,3.2,4.05s3.2-1.72,3.2-4.09c0-1.79-.89-4-3.16-4S325.06,252.31,325.06,254.31Z"/><path class="cls-2" d="M335.83,251.87c0-1.09,0-2-.09-2.85h1.7l.11,1.74h0a3.87,3.87,0,0,1,3.48-2c1.46,0,3.72.87,3.72,4.49v6.29h-1.92v-6.08c0-1.7-.63-3.11-2.44-3.11a2.81,2.81,0,0,0-2.7,2.85v6.34h-1.92Z"/><path class="cls-2" d="M347.66,257.6a5,5,0,0,0,2.53.76c1.39,0,2-.7,2-1.57s-.54-1.42-2-1.94c-1.89-.67-2.79-1.72-2.79-3,0-1.7,1.37-3.09,3.64-3.09a5.26,5.26,0,0,1,2.59.65l-.48,1.39a4.1,4.1,0,0,0-2.16-.61c-1.13,0-1.76.65-1.76,1.44s.63,1.26,2,1.79c1.83.7,2.77,1.61,2.77,3.18,0,1.85-1.44,3.16-3.94,3.16a6,6,0,0,1-3-.72Z"/><path class="cls-2" d="M287.75,276h-5.4l-.54,3.64a7.51,7.51,0,0,1,1.15-.09,6,6,0,0,1,3,.76,4,4,0,0,1,2,3.64c0,2.77-2.2,4.83-5.27,4.83a6.93,6.93,0,0,1-3.53-.87l.48-1.46a6.34,6.34,0,0,0,3,.78,3.12,3.12,0,0,0,3.35-3.07c0-1.83-1.24-3.13-4.07-3.13a14.61,14.61,0,0,0-2,.15l.91-6.79h6.77Z"/><path class="cls-2" d="M290.47,288.58V287.4l1.5-1.46c3.61-3.44,5.25-5.27,5.27-7.4a2.53,2.53,0,0,0-2.81-2.77,4.82,4.82,0,0,0-3,1.2l-.61-1.35a6.21,6.21,0,0,1,4-1.44,4,4,0,0,1,4.33,4.12c0,2.61-1.89,4.72-4.88,7.6l-1.13,1v0h6.36v1.59Z"/><path class="cls-2" d="M308,278.41c0,3-1.57,4.46-3.4,4.46s-3.29-1.42-3.31-4.27,1.55-4.42,3.42-4.42S308,275.71,308,278.41Zm-5.18.13c0,1.81.63,3.18,1.83,3.18s1.83-1.35,1.83-3.22c0-1.72-.5-3.16-1.83-3.16S302.83,276.76,302.83,278.54Zm1.65,10.28,8.32-14.63H314l-8.32,14.63Zm12.74-4.55c0,3-1.57,4.46-3.37,4.46s-3.29-1.42-3.31-4.25S312.09,280,314,280,317.23,281.57,317.23,284.27Zm-5.18.13c0,1.81.67,3.18,1.85,3.18s1.83-1.35,1.83-3.22c0-1.72-.5-3.16-1.83-3.16S312,282.61,312,284.4Z"/></svg>