<svg id="Layer_1" data-name="Layer 1" xmlns="http://www.w3.org/2000/svg" viewBox="0 0 480 360"><defs><style>.cls-1{fill:#f78e20;}.cls-2{fill:#fff;}.cls-3{fill:#5e294e;}.cls-4{fill:#c2b59b;}.cls-5{fill:#776441;}</style></defs><title>Financials-2-small</title><path class="cls-1" d="M295.41,194l.16.51H295v0l-.07,0H142.67c.49,83.21,68.33,150.75,151.65,150.75,83.63,0,151.66-68,151.66-151.66S377.95,42,294.32,42a143.14,143.14,0,0,0-46,7.14l47,144.7.34.22Z"/><path class="cls-2" d="M247.26,47.57l-.37.11L246,48v0l.37-.13Z"/><path class="cls-3" d="M289.55,192.23,166.79,112.51a146.47,146.47,0,0,0-23.61,79.72Z"/><path class="cls-4" d="M167.91,109.87l123.83,80.42L246.12,49.86C212.39,61.1,187.5,80.2,167.91,109.87Z"/><path class="cls-2" d="M247.28,47.57h0Z"/><path class="cls-5" d="M135.1,18.24H143v1.59h-6v4.88h5.55v1.57H137v6.64H135.1Z"/><path class="cls-5" d="M153.69,30c0,1.09,0,2,.09,2.87h-1.7L152,31.2h0a4,4,0,0,1-3.48,2c-1.65,0-3.64-.91-3.64-4.62V22.38h1.92v5.84c0,2,.61,3.35,2.35,3.35a2.7,2.7,0,0,0,2.7-2.72V22.38h1.92Z"/><path class="cls-5" d="M156.87,25.23c0-1.09,0-2-.09-2.85h1.7l.11,1.74h0a3.87,3.87,0,0,1,3.48-2c1.46,0,3.72.87,3.72,4.49v6.29h-1.92V26.84c0-1.7-.63-3.11-2.44-3.11a2.81,2.81,0,0,0-2.7,2.85v6.34h-1.92Z"/><path class="cls-5" d="M178.05,17.46V30.19c0,.94,0,2,.09,2.72h-1.72l-.09-1.83h0a3.9,3.9,0,0,1-3.59,2.07c-2.55,0-4.51-2.16-4.51-5.36,0-3.51,2.16-5.66,4.73-5.66a3.52,3.52,0,0,1,3.18,1.61h0V17.46Zm-1.92,9.21a3.38,3.38,0,0,0-.09-.81,2.82,2.82,0,0,0-2.76-2.22c-2,0-3.16,1.74-3.16,4.07,0,2.13,1,3.9,3.11,3.9A2.88,2.88,0,0,0,176,29.32a3.32,3.32,0,0,0,.09-.83Z"/><path class="cls-5" d="M181.23,25.67c0-1.24,0-2.31-.09-3.29h1.68l.07,2.07H183a3.16,3.16,0,0,1,2.92-2.31,2.06,2.06,0,0,1,.54.07V24a2.86,2.86,0,0,0-.65-.07,2.69,2.69,0,0,0-2.57,2.46,5.35,5.35,0,0,0-.09.89v5.62h-1.89Z"/><path class="cls-5" d="M194.07,32.92l-.15-1.33h-.07a3.93,3.93,0,0,1-3.22,1.57,3,3,0,0,1-3.22-3c0-2.55,2.26-3.94,6.34-3.92V26a2.17,2.17,0,0,0-2.4-2.44,5.25,5.25,0,0,0-2.74.78l-.44-1.26a6.54,6.54,0,0,1,3.46-.94c3.22,0,4,2.2,4,4.31v3.94a14.82,14.82,0,0,0,.17,2.53Zm-.28-5.38c-2.09,0-4.46.33-4.46,2.37a1.7,1.7,0,0,0,1.81,1.83A2.62,2.62,0,0,0,193.68,30a2,2,0,0,0,.11-.61Z"/><path class="cls-5" d="M200.87,19.42a1.19,1.19,0,0,1-2.37,0,1.17,1.17,0,0,1,1.2-1.2A1.14,1.14,0,0,1,200.87,19.42Zm-2.13,13.5V22.38h1.92V32.92Z"/><path class="cls-5" d="M203.56,31a5,5,0,0,0,2.53.76c1.39,0,2-.7,2-1.57s-.54-1.42-2-1.94c-1.89-.67-2.79-1.72-2.79-3,0-1.7,1.37-3.09,3.64-3.09a5.26,5.26,0,0,1,2.59.65l-.48,1.39a4.1,4.1,0,0,0-2.16-.61c-1.13,0-1.76.65-1.76,1.44s.63,1.26,2,1.79c1.83.7,2.77,1.61,2.77,3.18,0,1.85-1.44,3.16-3.94,3.16a6,6,0,0,1-3-.72Z"/><path class="cls-5" d="M214.58,19.42a1.19,1.19,0,0,1-2.37,0,1.17,1.17,0,0,1,1.2-1.2A1.14,1.14,0,0,1,214.58,19.42Zm-2.13,13.5V22.38h1.92V32.92Z"/><path class="cls-5" d="M217.54,25.23c0-1.09,0-2-.09-2.85h1.7l.11,1.74h0a3.87,3.87,0,0,1,3.48-2c1.46,0,3.72.87,3.72,4.49v6.29H224.6V26.84c0-1.7-.63-3.11-2.44-3.11a2.81,2.81,0,0,0-2.7,2.85v6.34h-1.92Z"/><path class="cls-5" d="M238.7,22.38c0,.76-.09,1.61-.09,2.9v6.12c0,2.42-.48,3.9-1.5,4.81a5.59,5.59,0,0,1-3.83,1.26,6.8,6.8,0,0,1-3.51-.87l.48-1.46a5.94,5.94,0,0,0,3.09.83c2,0,3.4-1,3.4-3.68V31.11h0a3.76,3.76,0,0,1-3.35,1.76c-2.61,0-4.49-2.22-4.49-5.14,0-3.57,2.33-5.6,4.75-5.6A3.51,3.51,0,0,1,236.9,24h0l.09-1.59Zm-2,4.16a2.8,2.8,0,0,0-2.79-2.9c-1.83,0-3.13,1.55-3.13,4,0,2.07,1,3.79,3.11,3.79a2.8,2.8,0,0,0,2.66-2,3.32,3.32,0,0,0,.15-1Z"/><path class="cls-5" d="M172.17,49.57h0l-2.46,1.33-.37-1.46,3.09-1.66H174V61.94h-1.85Z"/><path class="cls-5" d="M183.34,49.57h0l-2.46,1.33-.37-1.46,3.09-1.66h1.63V61.94h-1.85Z"/><path class="cls-5" d="M196.73,51.77c0,3-1.57,4.46-3.4,4.46S190,54.82,190,52s1.55-4.42,3.42-4.42S196.73,49.07,196.73,51.77Zm-5.18.13c0,1.81.63,3.18,1.83,3.18s1.83-1.35,1.83-3.22c0-1.72-.5-3.16-1.83-3.16S191.55,50.11,191.55,51.9Zm1.65,10.28,8.32-14.63h1.22l-8.32,14.63Zm12.74-4.55c0,3-1.57,4.46-3.37,4.46s-3.29-1.42-3.31-4.25,1.55-4.44,3.42-4.44S205.94,54.92,205.94,57.62Zm-5.18.13c0,1.81.67,3.18,1.85,3.18s1.83-1.35,1.83-3.22c0-1.72-.5-3.16-1.83-3.16S200.76,56,200.76,57.76Z"/><path class="cls-5" d="M94.14,164.23a8,8,0,0,0,1.55-.07,5.34,5.34,0,0,0,3-1.37,6.21,6.21,0,0,0,1.87-3.77h-.06a4.16,4.16,0,0,1-3.33,1.52,4.1,4.1,0,0,1-4.18-4.33,4.85,4.85,0,0,1,4.83-5c2.9,0,4.68,2.35,4.68,6a8.94,8.94,0,0,1-2.44,6.64,7.08,7.08,0,0,1-4.12,1.89,8.92,8.92,0,0,1-1.76.11Zm.7-8.14a2.72,2.72,0,0,0,2.72,3,3.17,3.17,0,0,0,2.79-1.48,1.26,1.26,0,0,0,.17-.7c0-2.42-.89-4.27-2.9-4.27C96,152.65,94.83,154.08,94.83,156.09Z"/><path class="cls-5" d="M110.57,155.41c0,3-1.57,4.46-3.4,4.46s-3.29-1.42-3.31-4.27,1.55-4.42,3.42-4.42S110.57,152.71,110.57,155.41Zm-5.18.13c0,1.81.63,3.18,1.83,3.18s1.83-1.35,1.83-3.22c0-1.72-.5-3.16-1.83-3.16S105.39,153.76,105.39,155.54ZM107,165.82l8.32-14.63h1.22l-8.32,14.63Zm12.74-4.55c0,3-1.57,4.46-3.37,4.46s-3.29-1.42-3.31-4.25,1.55-4.44,3.42-4.44S119.79,158.57,119.79,161.27Zm-5.18.13c0,1.81.67,3.18,1.85,3.18s1.83-1.35,1.83-3.22c0-1.72-.5-3.16-1.83-3.16S114.6,159.61,114.6,161.4Z"/><path class="cls-2" d="M296,221.72a22,22,0,0,1,3.64-.28,6,6,0,0,1,4.12,1.22,4,4,0,0,1,1.29,3.07,4.32,4.32,0,0,1-1.13,3.14,6.08,6.08,0,0,1-4.49,1.61,6.55,6.55,0,0,1-1.52-.13v5.88H296Zm1.89,7.08a6.38,6.38,0,0,0,1.57.15c2.29,0,3.68-1.11,3.68-3.14s-1.37-2.87-3.46-2.87a8,8,0,0,0-1.79.15Z"/><path class="cls-2" d="M307.17,229c0-1.24,0-2.31-.09-3.29h1.68l.07,2.07h.09a3.16,3.16,0,0,1,2.92-2.31,2.06,2.06,0,0,1,.54.07v1.81a2.86,2.86,0,0,0-.65-.07,2.69,2.69,0,0,0-2.57,2.46,5.36,5.36,0,0,0-.09.89v5.62h-1.89Z"/><path class="cls-2" d="M323.61,230.87c0,3.9-2.7,5.6-5.25,5.6-2.85,0-5.05-2.09-5.05-5.42,0-3.53,2.31-5.6,5.23-5.6S323.61,227.64,323.61,230.87Zm-8.36.11c0,2.31,1.33,4.05,3.2,4.05s3.2-1.72,3.2-4.09c0-1.79-.89-4-3.16-4S315.25,229,315.25,231Z"/><path class="cls-2" d="M335.1,225.68c0,.76-.09,1.61-.09,2.9v6.12c0,2.42-.48,3.9-1.5,4.81a5.59,5.59,0,0,1-3.83,1.26,6.8,6.8,0,0,1-3.51-.87l.48-1.46a5.94,5.94,0,0,0,3.09.83c2,0,3.4-1,3.4-3.68v-1.18h0a3.76,3.76,0,0,1-3.35,1.76c-2.61,0-4.49-2.22-4.49-5.14,0-3.57,2.33-5.6,4.75-5.6a3.51,3.51,0,0,1,3.29,1.83h0l.09-1.59Zm-2,4.16a2.8,2.8,0,0,0-2.79-2.9c-1.83,0-3.13,1.55-3.13,4,0,2.07,1,3.79,3.11,3.79a2.8,2.8,0,0,0,2.66-2,3.32,3.32,0,0,0,.15-1Z"/><path class="cls-2" d="M338.08,229c0-1.24,0-2.31-.09-3.29h1.68l.07,2.07h.09a3.16,3.16,0,0,1,2.92-2.31,2.06,2.06,0,0,1,.54.07v1.81a2.86,2.86,0,0,0-.65-.07,2.69,2.69,0,0,0-2.57,2.46,5.35,5.35,0,0,0-.09.89v5.62h-1.89Z"/><path class="cls-2" d="M350.95,236.22l-.15-1.33h-.07a3.93,3.93,0,0,1-3.22,1.57,3,3,0,0,1-3.22-3c0-2.55,2.26-3.94,6.34-3.92v-.22a2.17,2.17,0,0,0-2.4-2.44,5.26,5.26,0,0,0-2.74.78l-.44-1.26a6.54,6.54,0,0,1,3.46-.94c3.22,0,4,2.2,4,4.31v3.94a14.82,14.82,0,0,0,.17,2.53Zm-.28-5.38c-2.09,0-4.46.33-4.46,2.37A1.7,1.7,0,0,0,348,235a2.62,2.62,0,0,0,2.55-1.76,2,2,0,0,0,.11-.61Z"/><path class="cls-2" d="M355.61,228.54c0-1.09,0-2-.09-2.85h1.68l.09,1.7h.06a3.63,3.63,0,0,1,3.31-1.94,3.12,3.12,0,0,1,3,2.11h0a4.34,4.34,0,0,1,1.18-1.37,3.6,3.6,0,0,1,2.33-.74c1.39,0,3.46.92,3.46,4.57v6.21h-1.87v-6c0-2-.74-3.25-2.29-3.25a2.48,2.48,0,0,0-2.26,1.74,3.16,3.16,0,0,0-.15,1v6.51H362.2v-6.31c0-1.68-.74-2.9-2.2-2.9a2.62,2.62,0,0,0-2.37,1.92,2.65,2.65,0,0,0-.15.94v6.36h-1.87Z"/><path class="cls-2" d="M314.24,261.65a4,4,0,0,1,2.81-3.79l0-.07a3.51,3.51,0,0,1-2.24-3.18c0-2.24,1.89-3.77,4.38-3.77,2.74,0,4.12,1.72,4.12,3.48a3.59,3.59,0,0,1-2.33,3.31v.07a3.92,3.92,0,0,1,2.85,3.66c0,2.46-2.11,4.12-4.81,4.12C316,265.48,314.24,263.72,314.24,261.65Zm7.62-.09c0-1.72-1.2-2.55-3.11-3.09a3.07,3.07,0,0,0-2.55,2.92,2.62,2.62,0,0,0,2.83,2.7A2.56,2.56,0,0,0,321.87,261.57Zm-5.27-7.08c0,1.42,1.07,2.18,2.7,2.61a2.79,2.79,0,0,0,2.16-2.57,2.2,2.2,0,0,0-2.39-2.31A2.25,2.25,0,0,0,316.6,254.49Z"/><path class="cls-2" d="M335,258c0,4.81-1.79,7.47-4.92,7.47-2.77,0-4.64-2.59-4.68-7.27s2-7.36,4.92-7.36S335,253.51,335,258Zm-7.69.22c0,3.68,1.13,5.77,2.87,5.77,2,0,2.9-2.29,2.9-5.9s-.89-5.77-2.87-5.77C328.53,252.33,327.31,254.38,327.31,258.23Z"/><path class="cls-2" d="M343.13,255.08c0,3-1.57,4.46-3.4,4.46s-3.29-1.42-3.31-4.27,1.55-4.42,3.42-4.42S343.13,252.38,343.13,255.08Zm-5.18.13c0,1.81.63,3.18,1.83,3.18s1.83-1.35,1.83-3.22c0-1.72-.5-3.16-1.83-3.16S338,253.42,338,255.21Zm1.65,10.28,8.32-14.63h1.22l-8.32,14.63Zm12.74-4.55c0,3-1.57,4.46-3.37,4.46s-3.29-1.42-3.31-4.25,1.55-4.44,3.42-4.44S352.34,258.23,352.34,260.93Zm-5.18.13c0,1.81.67,3.18,1.85,3.18s1.83-1.35,1.83-3.22c0-1.72-.5-3.16-1.83-3.16S347.16,259.28,347.16,261.06Z"/><path class="cls-5" d="M48,99c-.11-2-.24-4.51-.22-6.34h-.07c-.5,1.72-1.11,3.55-1.85,5.57l-2.59,7.12H41.88l-2.37-7c-.7-2.07-1.29-4-1.7-5.71h0c0,1.83-.15,4.29-.28,6.49l-.39,6.29H35.28l1-14.68h2.42l2.5,7.1c.61,1.81,1.11,3.42,1.48,4.94h.07c.37-1.48.89-3.09,1.55-4.94l2.61-7.1h2.42l.91,14.68H48.41Z"/><path class="cls-5" d="M59.08,105.43l-.15-1.33h-.07a3.93,3.93,0,0,1-3.22,1.57,3,3,0,0,1-3.22-3c0-2.55,2.26-3.94,6.34-3.92v-.22a2.17,2.17,0,0,0-2.4-2.44,5.26,5.26,0,0,0-2.74.78l-.44-1.26a6.54,6.54,0,0,1,3.46-.94c3.22,0,4,2.2,4,4.31v3.94a14.82,14.82,0,0,0,.17,2.53Zm-.28-5.38c-2.09,0-4.46.33-4.46,2.37a1.7,1.7,0,0,0,1.81,1.83,2.62,2.62,0,0,0,2.55-1.76,2,2,0,0,0,.11-.61Z"/><path class="cls-5" d="M63.74,97.74c0-1.09,0-2-.09-2.85h1.7l.11,1.74h0a3.87,3.87,0,0,1,3.48-2c1.46,0,3.72.87,3.72,4.49v6.29H70.79V99.36c0-1.7-.63-3.11-2.44-3.11a2.81,2.81,0,0,0-2.7,2.85v6.34H63.74Z"/><path class="cls-5" d="M81.65,105.43l-.15-1.33h-.07a3.93,3.93,0,0,1-3.22,1.57,3,3,0,0,1-3.22-3c0-2.55,2.26-3.94,6.34-3.92v-.22a2.17,2.17,0,0,0-2.4-2.44,5.26,5.26,0,0,0-2.74.78l-.44-1.26a6.54,6.54,0,0,1,3.46-.94c3.22,0,4,2.2,4,4.31v3.94a14.82,14.82,0,0,0,.17,2.53Zm-.28-5.38c-2.09,0-4.46.33-4.46,2.37a1.7,1.7,0,0,0,1.81,1.83,2.62,2.62,0,0,0,2.55-1.76,2,2,0,0,0,.11-.61Z"/><path class="cls-5" d="M95.39,94.89c0,.76-.09,1.61-.09,2.9v6.12c0,2.42-.48,3.9-1.5,4.81A5.59,5.59,0,0,1,90,110a6.8,6.8,0,0,1-3.51-.87l.48-1.46a5.94,5.94,0,0,0,3.09.83c2,0,3.4-1,3.4-3.68v-1.18h0A3.76,3.76,0,0,1,90,105.39c-2.61,0-4.49-2.22-4.49-5.14,0-3.57,2.33-5.6,4.75-5.6a3.51,3.51,0,0,1,3.29,1.83h0l.09-1.59Zm-2,4.16a2.8,2.8,0,0,0-2.79-2.9c-1.83,0-3.13,1.55-3.13,4,0,2.07,1,3.79,3.11,3.79a2.8,2.8,0,0,0,2.66-2,3.32,3.32,0,0,0,.15-1Z"/><path class="cls-5" d="M99.55,100.51a3.38,3.38,0,0,0,3.62,3.66,6.91,6.91,0,0,0,2.92-.54l.33,1.37a8.54,8.54,0,0,1-3.51.65c-3.24,0-5.18-2.13-5.18-5.31s1.87-5.68,4.94-5.68c3.44,0,4.35,3,4.35,5a7.29,7.29,0,0,1-.07.89Zm5.62-1.37c0-1.22-.5-3.11-2.66-3.11-1.94,0-2.79,1.79-2.94,3.11Z"/><path class="cls-5" d="M109.39,97.74c0-1.09,0-2-.09-2.85H111l.09,1.7h.06a3.63,3.63,0,0,1,3.31-1.94,3.12,3.12,0,0,1,3,2.11h0a4.34,4.34,0,0,1,1.18-1.37,3.6,3.6,0,0,1,2.33-.74c1.39,0,3.46.92,3.46,4.57v6.21h-1.87v-6c0-2-.74-3.25-2.29-3.25A2.48,2.48,0,0,0,118,98a3.16,3.16,0,0,0-.15,1v6.51H116V99.12c0-1.68-.74-2.9-2.2-2.9a2.62,2.62,0,0,0-2.37,1.92,2.65,2.65,0,0,0-.15.94v6.36h-1.87Z"/><path class="cls-5" d="M128.61,100.51a3.38,3.38,0,0,0,3.62,3.66,6.91,6.91,0,0,0,2.92-.54l.33,1.37a8.54,8.54,0,0,1-3.51.65c-3.24,0-5.18-2.13-5.18-5.31s1.87-5.68,4.94-5.68c3.44,0,4.35,3,4.35,5a7.29,7.29,0,0,1-.07.89Zm5.62-1.37c0-1.22-.5-3.11-2.66-3.11-1.94,0-2.79,1.79-2.94,3.11Z"/><path class="cls-5" d="M138.45,97.74c0-1.09,0-2-.09-2.85h1.7l.11,1.74h0a3.87,3.87,0,0,1,3.48-2c1.46,0,3.72.87,3.72,4.49v6.29H145.5V99.36c0-1.7-.63-3.11-2.44-3.11a2.81,2.81,0,0,0-2.7,2.85v6.34h-1.92Z"/><path class="cls-5" d="M152.75,91.87v3h2.74v1.46h-2.74V102c0,1.31.37,2,1.44,2a4.25,4.25,0,0,0,1.11-.13l.09,1.44a4.69,4.69,0,0,1-1.7.26,2.66,2.66,0,0,1-2.07-.81,3.9,3.9,0,0,1-.74-2.74V96.35h-1.63V94.89h1.63V92.37Z"/><path class="cls-5" d="M47.39,134.45l-.15-1.33h-.07a3.93,3.93,0,0,1-3.22,1.57,3,3,0,0,1-3.22-3c0-2.55,2.26-3.94,6.34-3.92v-.22a2.17,2.17,0,0,0-2.4-2.44,5.26,5.26,0,0,0-2.74.78l-.44-1.26a6.54,6.54,0,0,1,3.46-.94c3.22,0,4,2.2,4,4.31v3.94a14.82,14.82,0,0,0,.17,2.53Zm-.28-5.38c-2.09,0-4.46.33-4.46,2.37a1.7,1.7,0,0,0,1.81,1.83A2.62,2.62,0,0,0,47,131.51a2,2,0,0,0,.11-.61Z"/><path class="cls-5" d="M52,126.76c0-1.09,0-2-.09-2.85h1.7l.11,1.74h0a3.87,3.87,0,0,1,3.48-2c1.46,0,3.72.87,3.72,4.49v6.29H59.1v-6.08c0-1.7-.63-3.11-2.44-3.11a2.81,2.81,0,0,0-2.7,2.85v6.34H52Z"/><path class="cls-5" d="M73.23,119v12.74c0,.94,0,2,.09,2.72H71.6l-.09-1.83h0a3.9,3.9,0,0,1-3.59,2.07c-2.55,0-4.51-2.16-4.51-5.36,0-3.51,2.16-5.66,4.73-5.66a3.52,3.52,0,0,1,3.18,1.61h0V119Zm-1.92,9.21a3.38,3.38,0,0,0-.09-.81,2.82,2.82,0,0,0-2.76-2.22c-2,0-3.16,1.74-3.16,4.07,0,2.13,1,3.9,3.11,3.9a2.88,2.88,0,0,0,2.81-2.29,3.32,3.32,0,0,0,.09-.83Z"/><path class="cls-5" d="M92.26,133.8a13.68,13.68,0,0,1-4.51.81,6.89,6.89,0,0,1-7.53-7.4c0-4.38,3-7.58,7.95-7.58a9.08,9.08,0,0,1,3.66.67l-.46,1.55a7.6,7.6,0,0,0-3.25-.63,5.49,5.49,0,0,0-5.9,5.9c0,3.72,2.24,5.92,5.66,5.92a6.18,6.18,0,0,0,2.53-.39v-4.38h-3v-1.52h4.83Z"/><path class="cls-5" d="M96.24,129.53a3.38,3.38,0,0,0,3.62,3.66,6.91,6.91,0,0,0,2.92-.54l.33,1.37a8.54,8.54,0,0,1-3.51.65c-3.24,0-5.18-2.13-5.18-5.31s1.87-5.68,4.94-5.68c3.44,0,4.35,3,4.35,5a7.29,7.29,0,0,1-.07.89Zm5.62-1.37c0-1.22-.5-3.11-2.66-3.11-1.94,0-2.79,1.79-2.94,3.11Z"/><path class="cls-5" d="M106.08,126.76c0-1.09,0-2-.09-2.85h1.7l.11,1.74h0a3.87,3.87,0,0,1,3.48-2c1.46,0,3.72.87,3.72,4.49v6.29h-1.92v-6.08c0-1.7-.63-3.11-2.44-3.11a2.81,2.81,0,0,0-2.7,2.85v6.34h-1.92Z"/><path class="cls-5" d="M119.23,129.53a3.38,3.38,0,0,0,3.62,3.66,6.91,6.91,0,0,0,2.92-.54l.33,1.37a8.54,8.54,0,0,1-3.51.65c-3.24,0-5.18-2.13-5.18-5.31s1.87-5.68,4.94-5.68c3.44,0,4.35,3,4.35,5a7.29,7.29,0,0,1-.07.89Zm5.62-1.37c0-1.22-.5-3.11-2.66-3.11-1.94,0-2.79,1.79-2.94,3.11Z"/><path class="cls-5" d="M129.07,127.2c0-1.24,0-2.31-.09-3.29h1.68l.07,2.07h.09a3.16,3.16,0,0,1,2.92-2.31,2.06,2.06,0,0,1,.54.07v1.81a2.86,2.86,0,0,0-.65-.07,2.69,2.69,0,0,0-2.57,2.46,5.36,5.36,0,0,0-.09.89v5.62h-1.89Z"/><path class="cls-5" d="M141.91,134.45l-.15-1.33h-.07a3.93,3.93,0,0,1-3.22,1.57,3,3,0,0,1-3.22-3c0-2.55,2.26-3.94,6.34-3.92v-.22a2.17,2.17,0,0,0-2.4-2.44,5.26,5.26,0,0,0-2.74.78l-.44-1.26a6.54,6.54,0,0,1,3.46-.94c3.22,0,4,2.2,4,4.31v3.94a14.82,14.82,0,0,0,.17,2.53Zm-.28-5.38c-2.09,0-4.46.33-4.46,2.37a1.7,1.7,0,0,0,1.81,1.83,2.62,2.62,0,0,0,2.55-1.76,2,2,0,0,0,.11-.61Z"/><path class="cls-5" d="M146.57,119h1.92v15.46h-1.92Z"/></svg>