<svg id="Layer_1" data-name="Layer 1" xmlns="http://www.w3.org/2000/svg" viewBox="0 0 1200 675"><defs><style>.cls-1{fill:#f78e20;}.cls-2{fill:#fff;}.cls-3{fill:#5e294e;}.cls-4{fill:#c2b59b;}.cls-5{fill:#776441;}</style></defs><title>Financials-2-large</title><path class="cls-1" d="M608.62,365.33l.33,1h-1.06l0,.09-.13-.09H306C307,531.21,441.38,665,606.47,665,772.16,665,907,530.23,907,364.54S772.16,64,606.47,64c-32.76,0-60.13,4.24-91.14,14.16l93.15,286.7.67.43Z"/><path class="cls-2" d="M513.23,75.11l-.73.22-1.71.56v0l.74-.26Z"/><path class="cls-3" d="M597,361.74l-243.23-158c-31,48.61-46.31,100.32-46.79,158Z"/><path class="cls-4" d="M356,198.54,601.36,357.88,511,79.65C444.13,101.92,394.82,139.76,356,198.54Z"/><path class="cls-2" d="M513.26,75.1h0Z"/><path class="cls-5" d="M291,17h15.66v3.15H294.74v9.66h11v3.11h-11V46.07H291Z"/><path class="cls-5" d="M327.83,40.38c0,2.16,0,4.05.17,5.69h-3.36l-.22-3.41h-.09a7.85,7.85,0,0,1-6.9,3.88c-3.28,0-7.2-1.81-7.2-9.15V25.2H314V36.76c0,4,1.21,6.64,4.66,6.64a5.49,5.49,0,0,0,5-3.45A5.55,5.55,0,0,0,324,38V25.2h3.8Z"/><path class="cls-5" d="M334.12,30.85c0-2.16,0-3.92-.17-5.65h3.36l.22,3.45h.09a7.68,7.68,0,0,1,6.9-3.93c2.89,0,7.38,1.73,7.38,8.89V46.07h-3.8V34c0-3.36-1.25-6.17-4.83-6.17a5.39,5.39,0,0,0-5.09,3.88,5.46,5.46,0,0,0-.26,1.77V46.07h-3.8Z"/><path class="cls-5" d="M376.09,15.45V40.68c0,1.85,0,4,.17,5.39h-3.41l-.17-3.62h-.09a7.72,7.72,0,0,1-7.12,4.1c-5,0-8.93-4.27-8.93-10.61,0-6.95,4.27-11.22,9.36-11.22a7,7,0,0,1,6.3,3.19h.09V15.45Zm-3.8,18.25a6.71,6.71,0,0,0-.17-1.6,5.58,5.58,0,0,0-5.48-4.4c-3.93,0-6.25,3.45-6.25,8.07,0,4.23,2.07,7.72,6.17,7.72A5.71,5.71,0,0,0,372.13,39a6.59,6.59,0,0,0,.17-1.64Z"/><path class="cls-5" d="M382.39,31.71c0-2.46,0-4.57-.17-6.51h3.32l.13,4.1h.17a6.26,6.26,0,0,1,5.78-4.57,4.12,4.12,0,0,1,1.08.13v3.58a5.66,5.66,0,0,0-1.29-.13c-2.67,0-4.57,2-5.09,4.88a10.72,10.72,0,0,0-.17,1.77V46.07h-3.75Z"/><path class="cls-5" d="M407.84,46.07l-.3-2.63h-.13A7.78,7.78,0,0,1,401,46.55c-4.23,0-6.38-3-6.38-6,0-5,4.49-7.81,12.55-7.76v-.43c0-1.73-.47-4.83-4.75-4.83A10.41,10.41,0,0,0,397,29.08l-.86-2.5A13,13,0,0,1,403,24.72c6.38,0,7.94,4.36,7.94,8.54v7.81a29.4,29.4,0,0,0,.35,5Zm-.56-10.65c-4.14-.09-8.84.65-8.84,4.7A3.36,3.36,0,0,0,402,43.74a5.19,5.19,0,0,0,5-3.49,4,4,0,0,0,.22-1.21Z"/><path class="cls-5" d="M421.3,19.33a2.35,2.35,0,0,1-4.7,0A2.31,2.31,0,0,1,419,17,2.25,2.25,0,0,1,421.3,19.33Zm-4.23,26.75V25.2h3.8V46.07Z"/><path class="cls-5" d="M426.65,42.19a10,10,0,0,0,5,1.51c2.76,0,4.05-1.38,4.05-3.11s-1.08-2.8-3.88-3.84c-3.75-1.34-5.52-3.41-5.52-5.91,0-3.36,2.72-6.12,7.2-6.12A10.42,10.42,0,0,1,438.64,26l-.95,2.76a8.13,8.13,0,0,0-4.27-1.21c-2.24,0-3.49,1.29-3.49,2.85,0,1.72,1.25,2.5,4,3.54,3.62,1.38,5.48,3.19,5.48,6.3,0,3.67-2.85,6.25-7.81,6.25a11.91,11.91,0,0,1-5.87-1.42Z"/><path class="cls-5" d="M448.47,19.33a2.35,2.35,0,0,1-4.7,0A2.31,2.31,0,0,1,446.14,17,2.25,2.25,0,0,1,448.47,19.33Zm-4.23,26.75V25.2H448V46.07Z"/><path class="cls-5" d="M454.34,30.85c0-2.16,0-3.92-.17-5.65h3.36l.22,3.45h.09a7.68,7.68,0,0,1,6.9-3.93c2.89,0,7.38,1.73,7.38,8.89V46.07h-3.8V34c0-3.36-1.25-6.17-4.83-6.17a5.39,5.39,0,0,0-5.09,3.88,5.46,5.46,0,0,0-.26,1.77V46.07h-3.8Z"/><path class="cls-5" d="M496.27,25.2c-.09,1.51-.17,3.19-.17,5.74V43.05c0,4.79-.95,7.72-3,9.53s-5,2.5-7.59,2.5a13.47,13.47,0,0,1-6.94-1.73l.95-2.89a11.78,11.78,0,0,0,6.13,1.64c3.88,0,6.73-2,6.73-7.29V42.49h-.09A7.45,7.45,0,0,1,485.65,46c-5.18,0-8.89-4.4-8.89-10.18,0-7.07,4.62-11.09,9.4-11.09a6.94,6.94,0,0,1,6.51,3.62h.09l.17-3.15Zm-3.93,8.24a5.4,5.4,0,0,0-.22-1.73,5.47,5.47,0,0,0-5.31-4c-3.62,0-6.21,3.06-6.21,7.89,0,4.1,2.07,7.51,6.17,7.51A5.55,5.55,0,0,0,492,39.22a6.62,6.62,0,0,0,.3-2Z"/><path class="cls-5" d="M364.45,79.07h-.09l-4.87,2.63-.73-2.89,6.13-3.28h3.23v28h-3.67Z"/><path class="cls-5" d="M386.57,79.07h-.09l-4.87,2.63-.73-2.89L387,75.53h3.23v28h-3.67Z"/><path class="cls-5" d="M413.1,83.43c0,5.91-3.11,8.84-6.73,8.84s-6.51-2.8-6.56-8.46,3.06-8.76,6.77-8.76C410.51,75.06,413.1,78.08,413.1,83.43Zm-10.27.26c-.09,3.58,1.25,6.3,3.62,6.3s3.62-2.67,3.62-6.38c0-3.41-1-6.25-3.62-6.25C404.08,77.34,402.83,80.15,402.83,83.69ZM406.11,104l16.48-29H425l-16.48,29Zm25.23-9c0,5.91-3.11,8.84-6.69,8.84s-6.51-2.8-6.56-8.41,3.06-8.8,6.77-8.8C428.8,86.66,431.35,89.68,431.35,95Zm-10.27.26c0,3.58,1.34,6.3,3.67,6.3,2.5,0,3.62-2.67,3.62-6.38,0-3.41-1-6.25-3.62-6.25C422.37,88.95,421.08,91.75,421.08,95.29Z"/><path class="cls-5" d="M209.83,306.25a15.82,15.82,0,0,0,3.06-.13,10.58,10.58,0,0,0,5.87-2.72,12.3,12.3,0,0,0,3.71-7.46h-.13a8.23,8.23,0,0,1-6.6,3c-5,0-8.28-3.8-8.28-8.58,0-5.31,3.84-10,9.58-10s9.27,4.66,9.27,11.82c0,6.17-2.07,10.48-4.83,13.16a14,14,0,0,1-8.15,3.75,17.68,17.68,0,0,1-3.49.22Zm1.38-16.13c0,3.49,2.11,6,5.39,6a6.27,6.27,0,0,0,5.52-2.93,2.5,2.5,0,0,0,.35-1.38c0-4.79-1.77-8.46-5.74-8.46C213.5,283.31,211.21,286.15,211.21,290.12Z"/><path class="cls-5" d="M242.4,288.78c0,5.91-3.11,8.84-6.73,8.84s-6.51-2.8-6.56-8.46,3.06-8.76,6.77-8.76C239.81,280.41,242.4,283.43,242.4,288.78Zm-10.27.26c-.09,3.58,1.25,6.3,3.62,6.3s3.62-2.67,3.62-6.38c0-3.41-1-6.25-3.62-6.25C233.38,282.7,232.13,285.51,232.13,289Zm3.28,20.36,16.48-29h2.42l-16.48,29Zm25.23-9c0,5.91-3.11,8.84-6.69,8.84s-6.51-2.8-6.56-8.41,3.06-8.8,6.77-8.8C258.1,292,260.64,295,260.64,300.39Zm-10.27.26c0,3.58,1.34,6.3,3.67,6.3,2.5,0,3.62-2.67,3.62-6.38,0-3.41-1-6.25-3.62-6.25C251.67,294.31,250.38,297.11,250.38,300.65Z"/><path class="cls-2" d="M609.75,420.18a43.4,43.4,0,0,1,7.2-.56c3.71,0,6.43.86,8.15,2.42a7.82,7.82,0,0,1,2.54,6.08,8.56,8.56,0,0,1-2.24,6.21c-2,2.11-5.22,3.19-8.89,3.19a13,13,0,0,1-3-.26V448.9h-3.75Zm3.75,14a12.58,12.58,0,0,0,3.11.3c4.53,0,7.29-2.2,7.29-6.21,0-3.84-2.72-5.69-6.86-5.69a15.79,15.79,0,0,0-3.54.3Z"/><path class="cls-2" d="M631.92,434.54c0-2.46,0-4.57-.17-6.51h3.32l.13,4.1h.17a6.26,6.26,0,0,1,5.78-4.57,4.12,4.12,0,0,1,1.08.13v3.58a5.66,5.66,0,0,0-1.29-.13c-2.67,0-4.57,2-5.09,4.88a10.72,10.72,0,0,0-.17,1.77V448.9h-3.75Z"/><path class="cls-2" d="M664.49,438.29c0,7.72-5.35,11.09-10.4,11.09-5.65,0-10-4.14-10-10.74,0-7,4.57-11.09,10.35-11.09C660.43,427.55,664.49,431.91,664.49,438.29Zm-16.56.22c0,4.57,2.63,8,6.34,8s6.34-3.41,6.34-8.11c0-3.54-1.77-8-6.25-8S647.92,434.54,647.92,438.51Z"/><path class="cls-2" d="M687.26,428c-.09,1.51-.17,3.19-.17,5.74v12.12c0,4.79-.95,7.72-3,9.53s-5,2.5-7.59,2.5a13.47,13.47,0,0,1-6.95-1.73l.95-2.89a11.78,11.78,0,0,0,6.13,1.64c3.88,0,6.73-2,6.73-7.29v-2.33h-.09a7.45,7.45,0,0,1-6.64,3.49c-5.18,0-8.89-4.4-8.89-10.18,0-7.07,4.62-11.09,9.4-11.09a6.94,6.94,0,0,1,6.51,3.62h.09l.17-3.15Zm-3.93,8.24a5.4,5.4,0,0,0-.22-1.73,5.47,5.47,0,0,0-5.31-4c-3.62,0-6.21,3.06-6.21,7.89,0,4.1,2.07,7.51,6.17,7.51A5.55,5.55,0,0,0,683,442a6.62,6.62,0,0,0,.3-2Z"/><path class="cls-2" d="M693.17,434.54c0-2.46,0-4.57-.17-6.51h3.32l.13,4.1h.17a6.26,6.26,0,0,1,5.78-4.57,4.12,4.12,0,0,1,1.08.13v3.58a5.66,5.66,0,0,0-1.29-.13c-2.67,0-4.57,2-5.09,4.88a10.72,10.72,0,0,0-.17,1.77V448.9h-3.75Z"/><path class="cls-2" d="M718.66,448.9l-.3-2.63h-.13a7.78,7.78,0,0,1-6.38,3.11c-4.23,0-6.38-3-6.38-6,0-5,4.49-7.81,12.55-7.76v-.43c0-1.73-.47-4.83-4.75-4.83a10.41,10.41,0,0,0-5.44,1.55l-.86-2.5a13,13,0,0,1,6.86-1.85c6.38,0,7.94,4.36,7.94,8.54v7.81a29.4,29.4,0,0,0,.35,5Zm-.56-10.65c-4.14-.09-8.84.65-8.84,4.7a3.36,3.36,0,0,0,3.58,3.62,5.19,5.19,0,0,0,5-3.49,4,4,0,0,0,.22-1.21Z"/><path class="cls-2" d="M727.89,433.68c0-2.16,0-3.92-.17-5.65H731l.17,3.36h.13a7.2,7.2,0,0,1,6.56-3.84,6.17,6.17,0,0,1,5.91,4.18h.09a8.59,8.59,0,0,1,2.33-2.72,7.12,7.12,0,0,1,4.62-1.47c2.76,0,6.86,1.81,6.86,9.06V448.9H754V437.08c0-4-1.47-6.43-4.53-6.43a4.92,4.92,0,0,0-4.49,3.45,6.26,6.26,0,0,0-.3,1.9v12.9H741V436.39c0-3.32-1.47-5.74-4.36-5.74a5.66,5.66,0,0,0-5,5.65v12.6h-3.71Z"/><path class="cls-2" d="M645.94,499.29c0-3.54,2.11-6,5.56-7.51l0-.13c-3.11-1.47-4.44-3.88-4.44-6.3,0-4.44,3.75-7.46,8.67-7.46,5.44,0,8.15,3.41,8.15,6.9,0,2.37-1.16,4.92-4.62,6.56v.13c3.49,1.38,5.65,3.84,5.65,7.25,0,4.88-4.18,8.15-9.53,8.15C649.48,506.88,645.94,503.38,645.94,499.29Zm15.1-.17c0-3.41-2.37-5-6.17-6.12-3.28.95-5,3.11-5,5.78-.13,2.85,2,5.35,5.61,5.35C658.84,504.12,661,502,661,499.11Zm-10.44-14c0,2.8,2.11,4.31,5.35,5.18,2.42-.82,4.27-2.54,4.27-5.09a4.36,4.36,0,0,0-4.75-4.57C652.33,480.61,650.6,482.68,650.6,485.09Z"/><path class="cls-2" d="M687,492.08c0,9.53-3.54,14.8-9.75,14.8-5.48,0-9.19-5.13-9.27-14.41s4.06-14.58,9.75-14.58C683.68,477.89,687,483.15,687,492.08Zm-15.23.43c0,7.29,2.24,11.43,5.69,11.43,3.88,0,5.74-4.53,5.74-11.69,0-6.9-1.77-11.43-5.69-11.43C674.24,480.82,671.82,484.88,671.82,492.51Z"/><path class="cls-2" d="M703.18,486.26c0,5.91-3.11,8.84-6.73,8.84s-6.51-2.8-6.56-8.46,3.06-8.76,6.77-8.76C700.59,477.89,703.18,480.91,703.18,486.26Zm-10.27.26c-.09,3.58,1.25,6.3,3.62,6.3s3.62-2.67,3.62-6.38c0-3.41-1-6.25-3.62-6.25C694.16,480.18,692.91,483,692.91,486.52Zm3.28,20.36,16.48-29h2.42l-16.48,29Zm25.24-9c0,5.91-3.11,8.84-6.69,8.84s-6.51-2.8-6.56-8.41,3.06-8.8,6.77-8.8C718.88,489.49,721.43,492.51,721.43,497.86Zm-10.27.26c0,3.58,1.34,6.3,3.67,6.3,2.5,0,3.62-2.67,3.62-6.38,0-3.41-1-6.25-3.62-6.25C712.45,491.78,711.16,494.58,711.16,498.12Z"/><path class="cls-5" d="M118.49,177c-.22-4.05-.47-8.93-.43-12.55h-.13c-1,3.41-2.2,7-3.67,11l-5.13,14.11h-2.85l-4.7-13.85c-1.38-4.1-2.55-7.85-3.36-11.3h-.09c-.09,3.62-.3,8.5-.56,12.85l-.78,12.47H93.22l2-29.07H100l5,14.06c1.21,3.58,2.2,6.77,2.93,9.79h.13c.73-2.93,1.77-6.12,3.06-9.79l5.18-14.06h4.79l1.81,29.07h-3.67Z"/><path class="cls-5" d="M140.36,189.75l-.3-2.63h-.13a7.78,7.78,0,0,1-6.38,3.11c-4.23,0-6.38-3-6.38-6,0-5,4.49-7.81,12.55-7.76V176c0-1.73-.47-4.83-4.75-4.83a10.4,10.4,0,0,0-5.44,1.55l-.86-2.5a13,13,0,0,1,6.86-1.85c6.38,0,7.94,4.36,7.94,8.54v7.81a29.4,29.4,0,0,0,.35,5Zm-.56-10.65c-4.14-.09-8.84.65-8.84,4.7a3.36,3.36,0,0,0,3.58,3.62,5.19,5.19,0,0,0,5-3.49,4,4,0,0,0,.22-1.21Z"/><path class="cls-5" d="M149.59,174.52c0-2.16,0-3.92-.17-5.65h3.36l.22,3.45h.09a7.68,7.68,0,0,1,6.9-3.93c2.89,0,7.38,1.73,7.38,8.89v12.47h-3.8v-12c0-3.36-1.25-6.17-4.83-6.17a5.39,5.39,0,0,0-5.09,3.88,5.46,5.46,0,0,0-.26,1.77v12.55h-3.8Z"/><path class="cls-5" d="M185.09,189.75l-.3-2.63h-.13a7.78,7.78,0,0,1-6.38,3.11c-4.23,0-6.38-3-6.38-6,0-5,4.49-7.81,12.55-7.76V176c0-1.73-.47-4.83-4.75-4.83a10.4,10.4,0,0,0-5.44,1.55l-.86-2.5a13,13,0,0,1,6.86-1.85c6.38,0,7.94,4.36,7.94,8.54v7.81a29.4,29.4,0,0,0,.35,5Zm-.56-10.65c-4.14-.09-8.84.65-8.84,4.7a3.36,3.36,0,0,0,3.58,3.62,5.19,5.19,0,0,0,5-3.49,4,4,0,0,0,.22-1.21Z"/><path class="cls-5" d="M212.31,168.87c-.09,1.51-.17,3.19-.17,5.74v12.12c0,4.79-.95,7.72-3,9.53s-5,2.5-7.59,2.5a13.47,13.47,0,0,1-6.94-1.73l.95-2.89a11.78,11.78,0,0,0,6.13,1.64c3.88,0,6.73-2,6.73-7.29v-2.33h-.09a7.45,7.45,0,0,1-6.64,3.49c-5.18,0-8.89-4.4-8.89-10.18,0-7.07,4.62-11.09,9.4-11.09a6.94,6.94,0,0,1,6.51,3.62h.09l.17-3.15Zm-3.93,8.24a5.4,5.4,0,0,0-.22-1.73,5.47,5.47,0,0,0-5.31-4c-3.62,0-6.21,3.06-6.21,7.89,0,4.1,2.07,7.51,6.17,7.51a5.55,5.55,0,0,0,5.26-3.88,6.62,6.62,0,0,0,.3-2Z"/><path class="cls-5" d="M220.55,180c.09,5.13,3.36,7.25,7.16,7.25a13.73,13.73,0,0,0,5.78-1.08l.65,2.72a16.92,16.92,0,0,1-6.94,1.29c-6.43,0-10.27-4.23-10.27-10.53s3.71-11.26,9.79-11.26c6.82,0,8.63,6,8.63,9.83a14.34,14.34,0,0,1-.13,1.77Zm11.13-2.72c0-2.42-1-6.17-5.26-6.17-3.84,0-5.52,3.54-5.82,6.17Z"/><path class="cls-5" d="M240,174.52c0-2.16,0-3.92-.17-5.65h3.32l.17,3.36h.13a7.2,7.2,0,0,1,6.56-3.84,6.17,6.17,0,0,1,5.91,4.18H256a8.59,8.59,0,0,1,2.33-2.72A7.12,7.12,0,0,1,263,168.4c2.76,0,6.86,1.81,6.86,9.06v12.29h-3.71V177.93c0-4-1.47-6.43-4.53-6.43a4.92,4.92,0,0,0-4.49,3.45,6.26,6.26,0,0,0-.3,1.9v12.9h-3.71V177.24c0-3.32-1.47-5.74-4.36-5.74a5.66,5.66,0,0,0-5,5.65v12.6H240Z"/><path class="cls-5" d="M278.13,180c.09,5.13,3.36,7.25,7.16,7.25a13.73,13.73,0,0,0,5.78-1.08l.65,2.72a16.92,16.92,0,0,1-6.94,1.29c-6.43,0-10.27-4.23-10.27-10.53s3.71-11.26,9.79-11.26c6.82,0,8.63,6,8.63,9.83a14.34,14.34,0,0,1-.13,1.77Zm11.13-2.72c0-2.42-1-6.17-5.26-6.17-3.84,0-5.52,3.54-5.82,6.17Z"/><path class="cls-5" d="M297.63,174.52c0-2.16,0-3.92-.17-5.65h3.36l.22,3.45h.09a7.68,7.68,0,0,1,6.9-3.93c2.89,0,7.38,1.73,7.38,8.89v12.47h-3.8v-12c0-3.36-1.25-6.17-4.83-6.17a5.39,5.39,0,0,0-5.09,3.88,5.46,5.46,0,0,0-.26,1.77v12.55h-3.8Z"/><path class="cls-5" d="M326,162.88v6h5.44v2.89H326V183c0,2.59.73,4.05,2.85,4.05a8.43,8.43,0,0,0,2.2-.26l.17,2.85a9.3,9.3,0,0,1-3.36.52,5.26,5.26,0,0,1-4.1-1.6c-1.08-1.12-1.47-3-1.47-5.43V171.76H319v-2.89h3.24v-5Z"/><path class="cls-5" d="M117.2,247.25l-.3-2.63h-.13a7.78,7.78,0,0,1-6.38,3.11c-4.23,0-6.38-3-6.38-6,0-5,4.49-7.81,12.55-7.76v-.43c0-1.73-.47-4.83-4.75-4.83a10.41,10.41,0,0,0-5.44,1.55l-.86-2.5a13,13,0,0,1,6.86-1.85c6.38,0,7.94,4.36,7.94,8.54v7.81a29.4,29.4,0,0,0,.35,5Zm-.56-10.65c-4.14-.09-8.84.65-8.84,4.7a3.36,3.36,0,0,0,3.58,3.62,5.19,5.19,0,0,0,5-3.49,4,4,0,0,0,.22-1.21Z"/><path class="cls-5" d="M126.43,232c0-2.16,0-3.92-.17-5.65h3.36l.22,3.45h.09a7.68,7.68,0,0,1,6.9-3.93c2.89,0,7.38,1.73,7.38,8.89v12.47h-3.8v-12c0-3.36-1.25-6.17-4.83-6.17a5.39,5.39,0,0,0-5.09,3.88,5.46,5.46,0,0,0-.26,1.77v12.55h-3.8Z"/><path class="cls-5" d="M168.4,216.62v25.24c0,1.85,0,4,.17,5.39h-3.41l-.17-3.62h-.09a7.72,7.72,0,0,1-7.12,4.1c-5,0-8.93-4.27-8.93-10.61,0-6.95,4.27-11.22,9.36-11.22a7,7,0,0,1,6.3,3.19h.09V216.62Zm-3.8,18.25a6.71,6.71,0,0,0-.17-1.6,5.58,5.58,0,0,0-5.48-4.4c-3.93,0-6.25,3.45-6.25,8.07,0,4.23,2.07,7.72,6.17,7.72a5.71,5.71,0,0,0,5.56-4.53,6.59,6.59,0,0,0,.17-1.64Z"/><path class="cls-5" d="M206.1,246a27.09,27.09,0,0,1-8.93,1.6c-4.4,0-8-1.12-10.87-3.84a15,15,0,0,1-4.06-10.83c0-8.67,6-15,15.75-15a18,18,0,0,1,7.25,1.34l-.91,3.06A15.08,15.08,0,0,0,197.9,221c-7.07,0-11.69,4.4-11.69,11.69s4.44,11.73,11.22,11.73a12.25,12.25,0,0,0,5-.78V235h-5.91v-3h9.58Z"/><path class="cls-5" d="M214,237.5c.09,5.13,3.36,7.25,7.16,7.25a13.73,13.73,0,0,0,5.78-1.08l.65,2.72a16.92,16.92,0,0,1-6.94,1.29c-6.43,0-10.27-4.23-10.27-10.53s3.71-11.26,9.79-11.26c6.82,0,8.63,6,8.63,9.83a14.34,14.34,0,0,1-.13,1.77Zm11.13-2.72c0-2.42-1-6.17-5.26-6.17-3.84,0-5.52,3.54-5.82,6.17Z"/><path class="cls-5" d="M233.49,232c0-2.16,0-3.92-.17-5.65h3.36l.22,3.45H237a7.68,7.68,0,0,1,6.9-3.93c2.89,0,7.38,1.73,7.38,8.89v12.47h-3.8v-12c0-3.36-1.25-6.17-4.83-6.17a5.39,5.39,0,0,0-5.09,3.88,5.46,5.46,0,0,0-.26,1.77v12.55h-3.8Z"/><path class="cls-5" d="M259.54,237.5c.09,5.13,3.36,7.25,7.16,7.25a13.73,13.73,0,0,0,5.78-1.08l.65,2.72a16.92,16.92,0,0,1-6.94,1.29c-6.43,0-10.27-4.23-10.27-10.53s3.71-11.26,9.79-11.26c6.82,0,8.63,6,8.63,9.83a14.34,14.34,0,0,1-.13,1.77Zm11.13-2.72c0-2.42-1-6.17-5.26-6.17-3.84,0-5.52,3.54-5.82,6.17Z"/><path class="cls-5" d="M279,232.89c0-2.46,0-4.57-.17-6.51h3.32l.13,4.1h.17a6.26,6.26,0,0,1,5.78-4.57,4.12,4.12,0,0,1,1.08.13v3.58a5.66,5.66,0,0,0-1.29-.13c-2.67,0-4.57,2-5.09,4.88a10.72,10.72,0,0,0-.17,1.77v11.13H279Z"/><path class="cls-5" d="M304.49,247.25l-.3-2.63h-.13a7.78,7.78,0,0,1-6.38,3.11c-4.23,0-6.38-3-6.38-6,0-5,4.49-7.81,12.55-7.76v-.43c0-1.73-.47-4.83-4.75-4.83a10.41,10.41,0,0,0-5.44,1.55l-.86-2.5a13,13,0,0,1,6.86-1.85c6.38,0,7.94,4.36,7.94,8.54v7.81a29.4,29.4,0,0,0,.35,5Zm-.56-10.65c-4.14-.09-8.84.65-8.84,4.7a3.36,3.36,0,0,0,3.58,3.62,5.19,5.19,0,0,0,5-3.49,4,4,0,0,0,.22-1.21Z"/><path class="cls-5" d="M313.72,216.62h3.8v30.63h-3.8Z"/></svg>