<?xml version="1.0" encoding="utf-8"?>
<!-- Generator: Adobe Illustrator 21.1.0, SVG Export Plug-In . SVG Version: 6.00 Build 0)  -->
<svg version="1.1" id="Layer_1" xmlns="http://www.w3.org/2000/svg" xmlns:xlink="http://www.w3.org/1999/xlink" x="0px" y="0px"
	 viewBox="0 0 50 50" style="enable-background:new 0 0 50 50;" xml:space="preserve">
<style type="text/css">
	.st0{fill:#F78E20;}
</style>
<g>
	<path class="st0" d="M14.6,10.4c0,1.3-0.4,2.3-1.3,3.2c-0.9,0.9-2.1,1.3-3.6,1.3H9.6c-1.4,0-2.6-0.4-3.5-1.3
		c-0.9-0.9-1.3-1.9-1.3-3.2c0-1.3,0.5-2.4,1.4-3.2s2.1-1.3,3.5-1.3c1.5,0,2.6,0.4,3.5,1.3C14.1,8,14.5,9.1,14.6,10.4z M14,18.4v26
		H5.4v-26H14z M45.1,29.5v14.9h-8.6V30.5c0-1.8-0.4-3.3-1.1-4.3c-0.7-1-1.8-1.6-3.3-1.6c-1.1,0-2,0.3-2.8,0.9
		c-0.7,0.6-1.3,1.4-1.7,2.2c-0.2,0.5-0.3,1.2-0.3,2.1v14.5h-8.6c0-7,0.1-12.6,0.1-17c0-4.3,0-6.9,0-7.8l0-1.3h8.6v3.8h-0.1
		c0.3-0.6,0.7-1,1.1-1.5c0.4-0.4,0.9-0.9,1.5-1.4c0.6-0.5,1.4-0.9,2.3-1.1c0.9-0.3,1.9-0.4,3-0.4c3,0,5.4,1,7.2,3
		C44.2,22.8,45.1,25.7,45.1,29.5z"/>
</g>
</svg>
