<?xml version="1.0" encoding="utf-8"?>
<!-- Generator: Adobe Illustrator 21.1.0, SVG Export Plug-In . SVG Version: 6.00 Build 0)  -->
<svg version="1.1" id="Layer_1" xmlns="http://www.w3.org/2000/svg" xmlns:xlink="http://www.w3.org/1999/xlink" x="0px" y="0px"
	 viewBox="0 0 50 50" style="enable-background:new 0 0 50 50;" xml:space="preserve">
<style type="text/css">
	.st0{fill:#F78E20;}
</style>
<g>
	<path class="st0" d="M45.1,25.5c0,4,0,6.8-0.1,8.3c-0.2,3.6-1.3,6.5-3.3,8.4c-2,2-4.8,3.1-8.4,3.3c-1.5,0.1-4.3,0.1-8.3,0.1
		s-6.8,0-8.3-0.1c-3.6-0.2-6.5-1.3-8.4-3.3c-2-2-3.1-4.8-3.3-8.4c-0.1-1.5-0.1-4.3-0.1-8.3c0-4,0-6.8,0.1-8.3
		c0.2-3.6,1.3-6.5,3.3-8.4c2-2,4.8-3.1,8.4-3.3C18.2,5.4,21,5.4,25,5.4s6.8,0,8.3,0.1c3.6,0.2,6.5,1.3,8.4,3.3c2,2,3.1,4.8,3.3,8.4
		C45.1,18.8,45.1,21.5,45.1,25.5z M27,9c-1.2,0-1.9,0-2,0c-0.1,0-0.8,0-2,0c-1.2,0-2.1,0-2.8,0c-0.6,0-1.5,0-2.5,0.1
		c-1.1,0-2,0.1-2.7,0.3c-0.7,0.1-1.4,0.3-1.9,0.5c-0.9,0.4-1.6,0.9-2.3,1.5c-0.7,0.7-1.2,1.4-1.5,2.3c-0.2,0.5-0.4,1.1-0.5,1.9
		s-0.2,1.6-0.3,2.7c0,1.1-0.1,1.9-0.1,2.5s0,1.6,0,2.8s0,1.9,0,2c0,0.1,0,0.8,0,2c0,1.2,0,2.1,0,2.8s0,1.5,0.1,2.5
		c0,1.1,0.1,2,0.3,2.7s0.3,1.4,0.5,1.9c0.3,0.9,0.9,1.6,1.5,2.3c0.7,0.7,1.4,1.2,2.3,1.5c0.5,0.2,1.1,0.4,1.9,0.5
		c0.7,0.1,1.6,0.2,2.7,0.3c1.1,0,1.9,0.1,2.5,0.1c0.6,0,1.6,0,2.8,0c1.2,0,1.9,0,2,0c0.1,0,0.8,0,2,0c1.2,0,2.1,0,2.8,0
		c0.6,0,1.5,0,2.5-0.1c1.1,0,2-0.1,2.7-0.3c0.7-0.1,1.4-0.3,1.9-0.5c0.9-0.3,1.6-0.9,2.3-1.5c0.7-0.7,1.2-1.4,1.5-2.3
		c0.2-0.5,0.4-1.1,0.5-1.9c0.1-0.7,0.2-1.6,0.3-2.7c0-1.1,0.1-1.9,0.1-2.5c0-0.6,0-1.6,0-2.8c0-1.2,0-1.9,0-2c0-0.1,0-0.8,0-2
		c0-1.2,0-2.1,0-2.8c0-0.6,0-1.5-0.1-2.5c0-1.1-0.1-2-0.3-2.7c-0.1-0.7-0.3-1.4-0.5-1.9c-0.3-0.9-0.9-1.6-1.5-2.3
		c-0.7-0.7-1.4-1.2-2.3-1.5c-0.5-0.2-1.1-0.4-1.9-0.5c-0.7-0.1-1.6-0.2-2.7-0.3C31.2,9,30.4,9,29.8,9C29.1,9,28.2,9,27,9z
		 M32.3,18.2c2,2,3,4.4,3,7.3s-1,5.3-3,7.3c-2,2-4.5,3-7.3,3s-5.3-1-7.3-3c-2-2-3-4.4-3-7.3s1-5.3,3-7.3s4.5-3,7.3-3
		S30.3,16.2,32.3,18.2z M29.7,30.3c1.3-1.3,2-2.9,2-4.7c0-1.9-0.7-3.4-2-4.7c-1.3-1.3-2.9-2-4.7-2s-3.4,0.7-4.7,2
		c-1.3,1.3-2,2.9-2,4.7c0,1.9,0.7,3.4,2,4.7s2.9,2,4.7,2S28.4,31.6,29.7,30.3z M37.5,13.1c0.5,0.5,0.7,1,0.7,1.7
		c0,0.7-0.2,1.2-0.7,1.7c-0.5,0.5-1,0.7-1.7,0.7c-0.7,0-1.2-0.2-1.7-0.7c-0.5-0.5-0.7-1-0.7-1.7c0-0.7,0.2-1.2,0.7-1.7
		c0.5-0.5,1-0.7,1.7-0.7C36.4,12.4,37,12.6,37.5,13.1z"/>
</g>
</svg>
