<?xml version="1.0" encoding="utf-8"?>
<!-- Generator: Adobe Illustrator 21.1.0, SVG Export Plug-In . SVG Version: 6.00 Build 0)  -->
<svg version="1.1" id="Layer_1" xmlns="http://www.w3.org/2000/svg" xmlns:xlink="http://www.w3.org/1999/xlink" x="0px" y="0px"
	 viewBox="0 0 50 50" style="enable-background:new 0 0 50 50;" xml:space="preserve">
<style type="text/css">
	.st0{fill:#F78E20;}
</style>
<g>
	<path class="st0" d="M45.7,12.7c-1.2,1.7-2.6,3.2-4.2,4.4c0,0.2,0,0.6,0,1.1c0,2.3-0.3,4.5-1,6.8c-0.7,2.3-1.7,4.4-3,6.5
		c-1.4,2.1-3,3.9-4.8,5.5c-1.9,1.6-4.1,2.9-6.8,3.8s-5.5,1.4-8.5,1.4c-4.7,0-9.1-1.3-13-3.8c0.6,0.1,1.3,0.1,2,0.1
		c3.9,0,7.4-1.2,10.5-3.6c-1.8,0-3.5-0.6-4.9-1.7c-1.5-1.1-2.4-2.5-3-4.2c0.6,0.1,1.1,0.1,1.6,0.1c0.8,0,1.5-0.1,2.2-0.3
		c-2-0.4-3.6-1.4-4.9-2.9S6,22.7,6,20.7v-0.1c1.2,0.7,2.5,1,3.8,1.1c-1.2-0.8-2.1-1.8-2.8-3c-0.7-1.2-1-2.6-1-4c0-1.5,0.4-3,1.2-4.3
		c2.1,2.6,4.7,4.7,7.7,6.3c3,1.6,6.3,2.4,9.7,2.6c-0.1-0.7-0.2-1.3-0.2-1.9c0-2.3,0.8-4.3,2.5-6s3.6-2.5,6-2.5
		c2.4,0,4.5,0.9,6.2,2.7c1.9-0.4,3.7-1,5.4-2c-0.6,2-1.9,3.6-3.7,4.7C42.4,13.9,44,13.4,45.7,12.7z"/>
</g>
</svg>
